<svg id="Layer_1" data-name="Layer 1" xmlns="http://www.w3.org/2000/svg" width="244" height="303.68" viewBox="0 0 244 303.68"><defs><style>.cls-1{fill:#8cc63f;}.cls-2{fill:#fff;}.cls-3{fill:#009245;}.cls-4{fill:#8c6239;}.cls-5{fill:#39b54a;}.cls-6{fill:#231f20;}.cls-7{fill:#ffa5ac;}</style></defs><path class="cls-1" d="M101.5,66.17c56.06,0,101.5,72.48,101.5,115.63S157.56,303.68,101.5,303.68,0,225,0,181.8,45.44,66.17,101.5,66.17Z"/><path class="cls-1" d="M146.63,65.7C200.4,65.7,244,138.19,244,181.34s-43.6,121.88-97.37,121.88S49.25,224.49,49.25,181.34,92.85,65.7,146.63,65.7Z"/><ellipse cx="112.94" cy="145.35" rx="18.06" ry="16.18"/><ellipse cx="73.57" cy="145.73" rx="18.06" ry="16.18"/><ellipse class="cls-2" cx="107.93" cy="137.99" rx="4.94" ry="4.47"/><ellipse class="cls-2" cx="68.39" cy="138.73" rx="4.94" ry="4.47"/><circle class="cls-2" cx="75.22" cy="143.71" r="2.26"/><circle class="cls-2" cx="115.03" cy="142.81" r="2.26"/><path class="cls-3" d="M43.11.31S81.8-3,99.78,12c19.31,16.13,21.73,56.81,21.73,56.81S81.13,69.89,63,53C46.74,37.87,43.11.31,43.11.31Z"/><path class="cls-4" d="M122.76,68.47c1.47-16.91,3.94-34.63,14.11-48.22a49.51,49.51,0,0,1,16-13.83c2.77-1.5,5.81-2.76,9-2.61s6.39,2,7.26,5c-10.13,2.65-20.69,6-27.8,13.64-3.67,4-6.17,8.85-8.3,13.81a121.5,121.5,0,0,0-8.89,33.11"/><path class="cls-4" d="M124,68.47c1.19-13.35,2.85-27.1,8.85-39.27A49.79,49.79,0,0,1,144.4,13.89c4.74-4.2,19.19-15,23.49-4.7l.87-1.54C156.17,11,143.57,15.45,136.32,27c-7.82,12.47-11.61,28-13.47,42.41-.21,1.59,2.3,1.57,2.5,0,1.75-13.58,5.39-27.83,12.29-39.76s19.2-16.26,31.78-19.6a1.24,1.24,0,0,0,.88-1.53c-6.76-16.16-28.7,3.4-34.31,10.83-10.6,14-13,32.11-14.48,49.11-.15,1.6,2.35,1.59,2.5,0Z"/><path class="cls-3" d="M61.21,116.47s4.14-29.1,18.27-39.84c15.18-11.53,45.61-6.46,45.61-6.46s-6.07,30-21.63,40.52C89.55,120.12,61.21,116.47,61.21,116.47Z"/><path class="cls-5" d="M42.78.45S46.41,38,62.63,53.13C80.79,70,121.17,69,121.17,69Z"/><path class="cls-5" d="M125,69.17S95.74,64.58,81.84,74.1C66.28,84.74,61.25,116,61.25,116Z"/><path class="cls-6" d="M80.34,185.21a21.54,21.54,0,0,1,34-1c1.25,1.47,3.37-.66,2.12-2.12a24.52,24.52,0,0,0-38.66,1.58c-1.15,1.56,1.45,3.06,2.59,1.52Z"/><path class="cls-7" d="M117.9,171.72c0-1.51,4.62-3.05,8.63-3.1,4.31-.06,9.25,1.56,9.21,3.1s-5.09,3-9.34,2.89C122.6,174.54,117.94,173.22,117.9,171.72Z"/><path class="cls-7" d="M52.49,171.54c0-1.52,4.62-3,8.64-3.1,4.31-.07,9.25,1.56,9.21,3.1s-5.09,3-9.34,2.89C57.2,174.35,52.53,173,52.49,171.54Z"/></svg>