<svg id="Layer_1" data-name="Layer 1" xmlns="http://www.w3.org/2000/svg" width="1031.13" height="663.32" viewBox="0 0 1031.13 663.32"><defs><style>.cls-1{fill:#666;}.cls-2{fill:#bfbfbf;}.cls-3{fill:#a6adab;}.cls-4{fill:#ccd5d2;}.cls-5{fill:#eeb499;}.cls-6{fill:#f3d199;}.cls-7{fill:#f9e8cc;}.cls-8{fill:#942e00;}.cls-9{fill:#fce3ae;}.cls-10{fill:#6a2a00;}.cls-11{fill:#404040;}.cls-12{fill:#f0f4f2;}.cls-13{fill:#fff;}.cls-14{fill:#001300;}</style></defs><path class="cls-1" d="M27.41,573.9C16.58,572,10,559.18,12.64,545.27s18.1-46.92,28.93-45,13,38,10.29,51.9S38.24,575.8,27.41,573.9Z"/><path class="cls-1" d="M43.66,562.8l-30-5.73a5.22,5.22,0,0,1-4.27-6.13L63.83,291.22a5.45,5.45,0,0,1,6.41-4.09l30,5.74A5.22,5.22,0,0,1,104.5,299L50.07,558.72A5.44,5.44,0,0,1,43.66,562.8Z"/><path class="cls-1" d="M172.51,63.57c-1.91-.53-3.86-1-5.82-1.42L156.12,60.6C152.26,74,149,87.52,145.81,101c-6.55,27.73-12.87,55.66-23.62,82.41-5,12.35-11.19,24.19-17.45,36.05-4.62,8.74-10,18-18.74,24l.69.54,14.65,2.22c4.83-1.85,9.59-5.58,13.6-9.24,8.39-7.66,15.79-17.15,22.68-27a140,140,0,0,0,11.24-18.3c3.7-7.49,6.8-15.36,10.07-23.11,6-30.89,12.11-61.8,17.85-92.63C177.79,70.59,175.94,65.65,172.51,63.57Z"/><polygon class="cls-1" points="89.49 312.16 72.33 308.87 86.97 239 104.13 242.28 89.49 312.16"/><path class="cls-1" d="M909.12,569.42c-9-1.73-15-9.54-13.37-17.44s13.1-26.14,22.14-24.41,12.26,22.76,10.6,30.67S918.16,571.15,909.12,569.42Z"/><path class="cls-1" d="M1001.76,60.22l13.84,3.38L1029.45,67c1.21-4.49-4-9.65-11.66-11.52S1003,55.72,1001.76,60.22Z"/><polygon class="cls-1" points="927.07 562.79 894.78 556.62 951.41 286.32 983.7 292.5 927.07 562.79"/><polygon class="cls-1" points="983.03 295.83 950.74 289.66 998.84 60.08 1031.13 66.26 983.03 295.83"/><polygon class="cls-2" points="968.73 313.26 946.08 308.93 1000.6 48.74 1023.25 53.07 968.73 313.26"/><ellipse class="cls-3" cx="521.04" cy="342.2" rx="349.96" ry="321.12"/><ellipse class="cls-4" cx="500.89" cy="321.12" rx="349.96" ry="321.12"/><ellipse class="cls-5" cx="500.89" cy="321.61" rx="308.26" ry="287.92"/><ellipse class="cls-6" cx="427.18" cy="226.76" rx="152.83" ry="138.24"/><ellipse class="cls-7" cx="427" cy="226.77" rx="136.1" ry="125.33"/><ellipse class="cls-6" cx="440.55" cy="245.69" rx="139.23" ry="131.64"/><ellipse class="cls-7" cx="440.39" cy="251.01" rx="123.98" ry="119.34"/><ellipse class="cls-6" cx="580.09" cy="239.66" rx="152.83" ry="138.24"/><ellipse class="cls-7" cx="580.04" cy="239.52" rx="134.47" ry="125.52"/><ellipse class="cls-6" cx="579.78" cy="235.7" rx="128.59" ry="116.4"/><ellipse class="cls-6" cx="386.16" cy="337.92" rx="152.83" ry="138.24"/><ellipse class="cls-6" cx="435.95" cy="437.7" rx="128.59" ry="116.4"/><ellipse class="cls-6" cx="445.24" cy="250.95" rx="128.59" ry="116.4"/><ellipse class="cls-7" cx="386.53" cy="337.63" rx="143.21" ry="128.67"/><ellipse class="cls-6" cx="377.57" cy="337.49" rx="128.59" ry="116.4"/><ellipse class="cls-6" cx="500.59" cy="416.5" rx="128.59" ry="116.4"/><ellipse class="cls-7" cx="501.3" cy="415.8" rx="118.87" ry="112.14"/><ellipse class="cls-6" cx="629.18" cy="415.79" rx="128.59" ry="116.4"/><ellipse class="cls-7" cx="629.18" cy="415.19" rx="118.87" ry="112.14"/><ellipse class="cls-6" cx="629.09" cy="414.99" rx="114.03" ry="106.04"/><ellipse class="cls-7" cx="520.75" cy="453.03" rx="118.87" ry="112.14"/><ellipse class="cls-6" cx="520.72" cy="441.02" rx="117.44" ry="116.4"/><ellipse class="cls-7" cx="435.95" cy="432.45" rx="118.87" ry="112.14"/><ellipse class="cls-7" cx="377.57" cy="340.16" rx="118.87" ry="112.14"/><ellipse class="cls-7" cx="579.83" cy="239.24" rx="118.87" ry="112.14"/><ellipse class="cls-7" cx="445.69" cy="257.83" rx="118.87" ry="112.14"/><ellipse class="cls-7" cx="615.28" cy="411.2" rx="118.87" ry="112.14"/><ellipse class="cls-7" cx="520.75" cy="437.1" rx="118.87" ry="112.14"/><ellipse class="cls-6" cx="458.19" cy="407.16" rx="139.23" ry="131.64"/><ellipse class="cls-6" cx="564.53" cy="266.4" rx="139.23" ry="131.64"/><ellipse class="cls-6" cx="458.19" cy="284.99" rx="139.23" ry="131.64"/><ellipse class="cls-6" cx="605.46" cy="406.91" rx="121.37" ry="111.94"/><ellipse class="cls-6" cx="387.14" cy="341.13" rx="121.37" ry="111.94"/><ellipse class="cls-6" cx="521.29" cy="421.47" rx="121.37" ry="111.94"/><ellipse class="cls-7" cx="565.47" cy="270.9" rx="129.57" ry="124.63"/><ellipse class="cls-6" cx="566.47" cy="276.05" rx="121.37" ry="111.94"/><path class="cls-8" d="M323.69,259.84c109.91-112,111.68-124.88,190-128.22s99,34.16,164.07,158.56S609.92,486.37,549,362.36,213.77,371.8,323.69,259.84Z"/><path class="cls-8" d="M467.65,504.1C322.93,434.77,309.26,436.8,284.1,365.86s7.34-100.5,116.15-195.22,219,7,109.4,97.88S612.37,573.43,467.65,504.1Z"/><path class="cls-8" d="M595,230.88C682.92,316,693.07,317.36,695.7,378S668.85,454.7,571.1,505.07s-154.16-52.54-56.72-99.75S507,145.77,595,230.88Z"/><path class="cls-8" d="M529.43,483.7c-129.86-44.07-142.63-41.82-161.74-93.51s12.69-75.52,119-152.16,202.22-6.51,95.49,67.3S659.3,527.76,529.43,483.7Z"/><path class="cls-9" d="M220.61,304.49a41.54,41.54,0,0,1,16.25-25.87c3.5-2.56,0-8.33-3.51-5.73-10.11,7.38-17.15,17.81-19.44,29.84-.8,4.17,5.9,6,6.7,1.76Z"/><path class="cls-9" d="M645.32,208.32c22.24,15.83,25.55,44.56,27.72,68.94.37,4.23,7.33,4.26,7,0-2.41-27.17-6.58-57.18-31.16-74.67-3.59-2.56-7.06,3.2-3.51,5.73Z"/><path class="cls-9" d="M725.64,253.94c-1.42,7.91,1.53,15.23,6.13,21.73S742.22,288,744.6,295.78c2.28,7.44,2.68,15.29,6.38,22.31a34.15,34.15,0,0,0,15.61,14.59c4,1.9,7.52-3.83,3.51-5.73a27.88,27.88,0,0,1-13.58-13.13c-3.12-6.59-3.26-14.08-5.57-20.91-2.23-6.56-6.51-11.87-10.74-17.34-4.37-5.66-9.2-12.46-7.87-19.86.75-4.18-6-6-6.7-1.77Z"/><path class="cls-9" d="M710.55,350.84c-1.74-5.9,5.89-9.53,10.08-12.08,4.75-2.89,8.59-6.25,10.51-11.43s1.58-11.09,1.08-16.52a112,112,0,0,0-3.44-19c-1.11-4.13-7.81-2.38-6.7,1.77a102.27,102.27,0,0,1,3.38,19.7c.37,5.43.65,11.81-3.44,16.12-3.8,4-9.59,5.7-13.59,9.54-3.81,3.65-6.09,8.55-4.58,13.68,1.21,4.11,7.92,2.36,6.7-1.76Z"/><path class="cls-9" d="M475.78,103.05A31.81,31.81,0,0,1,493,95.67c6.36-.66,12.62.83,18.85,1.81a57.52,57.52,0,0,0,18.79.18c5.82-1,11.44-2.8,17.18-4.13s11.51-2.21,17.16-.66c4.82,1.31,8.82,4.35,12.51,7.48,6.94,5.9,13.63,12.8,23.16,14.52,4.37.78,6.24-5.62,1.85-6.41-7.85-1.41-13.38-7-19.06-11.91-6.21-5.38-12.82-10-21.39-10.94-9.8-1-19.29,2.54-28.65,4.71a48.15,48.15,0,0,1-15.64,1.29c-5.23-.5-10.35-1.73-15.57-2.34a40.28,40.28,0,0,0-31.27,9.08c-3.36,2.84,1.57,7.52,4.91,4.7Z"/><path class="cls-9" d="M278,419.07c-1,10.47-.42,20.1,7.63,28,7.35,7.24,18,11.88,22.41,21.55,2.28,5,2.51,10.57,3.4,15.86a47.31,47.31,0,0,0,4.46,13.55,49.6,49.6,0,0,0,19.78,20.45c3.85,2.19,7.35-3.55,3.51-5.74a42.88,42.88,0,0,1-17.95-19.42c-4.09-9-2.91-19.28-7.25-28.19-4.16-8.54-12.53-13.7-19.81-19.57-3.76-3-7.32-6.44-8.75-11.06-1.55-5-1-10.34-.48-15.45.41-4.25-6.55-4.22-6.95,0Z"/><path class="cls-9" d="M414.13,570c21.31,1.94,45.62,3.09,61.91-12.72,1.9-1.84,3.62-3.9,6-5.2a23.82,23.82,0,0,1,7.6-2.29,60.61,60.61,0,0,1,17.79-.09c12,1.58,23.47,5.79,34.7,9.91,4.18,1.53,6-4.89,1.85-6.4-11.27-4.14-22.7-8.23-34.7-9.91-10.27-1.44-23.86-2-32.64,4.27-4.18,3-7.15,7.1-11.6,9.82A47.08,47.08,0,0,1,450.61,563c-11.95,2.66-24.42,1.42-36.48.32-4.46-.4-4.43,6.24,0,6.64Z"/><path class="cls-9" d="M304.73,208.66a29.46,29.46,0,0,0-23.94,3.22c-6.44,4.16-9.59,11.41-15.86,15.62-3.42,2.29-7.45,1.71-11.21,3.05a13.2,13.2,0,0,0-6.88,5.8c-3.16,5.29-3,12.47-7.47,17-3.09,3.09,1.82,7.8,4.91,4.69,4.37-4.38,5.31-10.2,7.35-15.7.85-2.29,2-4.6,4.51-5.55,3.51-1.34,7.28-.87,10.74-2.64,6.17-3.15,9.53-9.24,14.25-13.89a22,22,0,0,1,21.75-5.18c4.29,1.26,6.12-5.14,1.85-6.4Z"/><path class="cls-9" d="M669.07,484.13c-9.38,2.94-14.36,11.48-16.62,20.17-1.42,5.45-2,11.09-3.79,16.45a26.58,26.58,0,0,1-8.79,12.35c-7.73,6.3-17.52,9.73-25.44,15.81-7.67,5.88-14.19,14.55-12.85,24.4.57,4.18,7.53,4.23,7,0-2.63-19.28,25.21-26,37-36.15,7.64-6.56,10.32-15.13,12.18-24.48,1.6-8.08,3.74-19.19,13.19-22.14,4.23-1.33,2.42-7.74-1.85-6.41Z"/><path class="cls-9" d="M513.13,113.17c-1.36-17.49-13.55-32.18-31-37.56-9.06-2.8-18.86-3.17-28.3-2.5-7.57.54-23.83,5.11-27.34-4.54-1.45-4-8.17-2.29-6.7,1.76C422.92,79,432.34,81.61,441.13,81c9.72-.65,19.13-2.19,28.92-1.12,9.26,1,18.35,4.23,25.07,10.56a35.15,35.15,0,0,1,11.06,22.71c.33,4.24,7.29,4.27,6.95,0Z"/><path class="cls-9" d="M350.67,125.83c-2.76,18.13-2.56,43.14-22.83,52.31-4,1.83-.51,7.56,3.51,5.74,22.3-10.1,23-36.19,26-56.28.64-4.18-6.06-6-6.7-1.77Z"/><path class="cls-9" d="M657.38,173.88c23.86,2.68,54.81-8.12,72.1,13.42,7.82,9.75,7.52,21.36,7.74,33,.23,12.06,2.61,22.74,11.67,31.62,8.52,8.35,25.53,17.65,21.9,31.58-1.09,4.15,5.62,5.92,6.7,1.77,3.36-12.87-6.41-23.32-15.8-31.15-5.06-4.23-10.48-8.45-13.69-14.22s-3.65-12.2-3.81-18.48c-.31-12.51.11-25-7.5-35.88-7.24-10.31-18.54-16.37-31.3-18.05-16-2.11-32,1.51-48-.29-4.44-.5-4.4,6.15,0,6.64Z"/><path class="cls-9" d="M269.69,404.17a27.09,27.09,0,0,1-22.51-2.87c-7.35-4.64-10.58-12.77-13.23-20.42-3-8.77-5.44-17.92-9.21-26.43-3.09-7-9.27-13.56-17.93-12.85-4.42.36-4.46,7,0,6.64,10.39-.85,13,12.58,15.44,19.67,2.89,8.53,5.31,17.44,9.4,25.54a33.58,33.58,0,0,0,39.89,17.12c4.24-1.32,2.42-7.73-1.85-6.4Z"/><path class="cls-9" d="M360.16,481.45c5.21,17.88,25.1,24,42.11,27.07,17.8,3.23,37.78,7.35,47.12,24,2.12,3.76,8.12.41,6-3.35C446.9,514,429.56,507,412.77,503.7c-16.44-3.19-40.5-5.46-45.91-24-1.2-4.11-7.91-2.37-6.7,1.76Z"/><path class="cls-9" d="M371,171.77c.76-6.72-2.62-16.15,2.8-21.6,4.49-4.52,12.3-5.13,18.11-7.29,13.19-4.92,20.84-18,18.12-31.33-.85-4.19-7.55-2.42-6.7,1.76a20.48,20.48,0,0,1-5.43,18c-4.76,5-11.35,6.19-17.77,8.23-5.91,1.87-11.67,4.68-14.4,10.33-3.35,6.93-.85,14.61-1.68,21.9-.48,4.24,6.48,4.21,7,0Z"/><path class="cls-9" d="M244,273.42a51.66,51.66,0,0,0-.48,21.12c1.29,6.89,6.17,13.75,4.39,20.86-1.69,6.72-6.5,12.46-9.51,18.66a78.74,78.74,0,0,0-6.88,21.44c-.7,4.18,6,6,6.7,1.77a73.13,73.13,0,0,1,7-21.48c3.17-6.15,7.66-11.88,9.39-18.63,1.81-7.07-1.07-12.59-3.12-19.22a43.8,43.8,0,0,1-.79-22.75c.94-4.17-5.75-5.95-6.7-1.77Z"/><path class="cls-9" d="M701.12,403.43a56.13,56.13,0,0,0-12,31.83c-.54,11.07,4.52,24-1.87,34.12-2.31,3.67,3.7,7,6,3.35,6.43-10.22,3.2-21.89,2.79-33.05a50.11,50.11,0,0,1,11.06-32.9c2.68-3.42-3.35-6.73-6-3.35Z"/><path class="cls-9" d="M521.18,124.74q15.3,2.54,30.44,5.82c9.71,2.12,19.53,4.12,27.76,9.75,7.22,5,13.19,11.38,20.79,15.87a65.28,65.28,0,0,0,25.38,8.38c4.42.55,4.38-6.1,0-6.64a57.1,57.1,0,0,1-25.28-9.65c-7-4.85-12.83-11.16-20.25-15.52-8-4.72-17.47-6.61-26.55-8.59q-15.13-3.31-30.44-5.82c-4.37-.72-6.25,5.67-1.85,6.4Z"/><path class="cls-9" d="M741.25,431.78c-.46-6.71-1-13.65.67-20.25s6-11.65,10.78-16.51c9.48-9.56,17-19.48,20.26-32.5,1-4.15-5.66-5.92-6.7-1.76a54.7,54.7,0,0,1-8.41,18.41c-3.94,5.56-9.23,10-13.78,15.06-4.37,4.88-7.72,10.29-9.11,16.64-1.51,6.89-1.14,13.94-.66,20.91.29,4.25,7.24,4.28,7,0Z"/><path class="cls-9" d="M571.39,548.18c9-2.37,18,.41,26.63,2.74,9.2,2.46,18.06,4.14,27.59,2.49,5.13-.88,10.14-2.29,15.35-2.71a126.05,126.05,0,0,1,15.55,0c7.79.35,18.36.09,20.38-9,.92-4.17-5.78-6-6.7-1.77s-5.79,4.43-9.43,4.36c-4.67-.1-9.31-.47-14-.41a79.93,79.93,0,0,0-13.73,1.33c-4.83.91-9.6,2.29-14.55,2.45-16.77.52-32-10.28-49-5.8-4.3,1.14-2.47,7.54,1.85,6.4Z"/><path class="cls-9" d="M456,128.66c-2.22-11.38-13.81-17.51-24.44-20.69-14.27-4.27-29.2-5.32-44-6.25-7.17-.44-14.67-1.23-21-4.75-5.9-3.29-10.25-7.49-17.43-7.94-14.45-.9-24.66,10.14-33.51,19.35A84.2,84.2,0,0,1,275,132.16c-4.32,1.09-2.49,7.5,1.85,6.41a90.55,90.55,0,0,0,34.49-17c9.94-7.93,17.39-21,30.25-24.94,6.89-2.12,12-.31,17.64,3.6a42.22,42.22,0,0,0,17.52,7c6.45,1.07,13,1.2,19.52,1.62a170.31,170.31,0,0,1,22.18,2.86c11.33,2.24,28.32,5.8,30.83,18.72.82,4.19,7.52,2.42,6.71-1.77Z"/><path class="cls-9" d="M262.16,205.88c4.89-5.47,13.32-5.74,19.87-8.45,8.12-3.37,11.65-10.07,14.57-17.63,1.55-4-5.16-5.75-6.7-1.77-1.41,3.64-2.87,7.57-5.82,10.36-2.49,2.36-5.86,3.48-9.14,4.44-6.37,1.86-13.17,3.29-17.69,8.36-2.89,3.23,2,7.95,4.91,4.69Z"/><path class="cls-9" d="M725,377.34a41.08,41.08,0,0,0-6.72,29.19c.83,5.59,1.65,10.52-.13,16-1.7,5.25-4.76,10-7.73,14.68-2.33,3.66,3.68,7,6,3.35,5.66-8.9,11-18.33,9.64-29.1-.68-5.27-1.79-10.31-1-15.65a35.67,35.67,0,0,1,6-15.16c2.43-3.6-3.59-6.94-6-3.35Z"/><path class="cls-9" d="M392.41,549.5c4.62-11.7-9.47-21.93-17.68-28.18-4.73-3.6-9.79-6.74-14.65-10.18-4.6-3.26-9-7.09-10.68-12.48-1.29-4.08-8-2.34-6.7,1.77,3.09,9.85,12.22,15.34,20.56,20.93a137.11,137.11,0,0,1,15.37,11.95c4,3.62,9.34,8.7,7.08,14.43-1.59,4,5.13,5.73,6.7,1.76Z"/><path class="cls-9" d="M507.33,556.24c-5.67,1.77-9.34,6-11.7,11.14-2.46,5.34-3.34,11.64-7.62,16-3,3.12,1.86,7.83,4.91,4.69,3.76-3.86,5.55-8.61,7.27-13.53,1.61-4.58,3.69-10.29,9-12,4.23-1.31,2.42-7.73-1.85-6.4Z"/><path class="cls-9" d="M554.56,105.87a69.42,69.42,0,0,1,30.9-17.58,80.79,80.79,0,0,1,17.32-2.35c5.21-.22,10.45-.94,14.23-4.7,3.1-3.08-1.81-7.79-4.92-4.7-3.67,3.66-10.22,2.65-15.05,3.06a77.4,77.4,0,0,0-17.66,3.55,76.39,76.39,0,0,0-29.74,18c-3.11,3.07,1.8,7.77,4.92,4.69Z"/><path class="cls-10" d="M429.33,286.73c15.72-37,68.5-50,97.14-30.76s63.56,33.24,69.95,78.7-91.48,71-134.71,51.53S413.6,323.71,429.33,286.73Z"/><path class="cls-10" d="M319.6,357.94c5.36,2,8,8.6,4.5,12.57s-8,9.6-13.34,7.84-11.1-11.09-7.55-16.82S314.23,356,319.6,357.94Z"/><path class="cls-10" d="M412.43,208.58c-10.27-10.54-8.82-27.94,4-32.4s29.92-11.34,40.32-1.33S469.89,211.78,455,220,422.7,219.12,412.43,208.58Z"/><path class="cls-9" d="M252.08,426.19c0,5.69,3.17,10.35,7.52,14,4.56,3.88,10.58,6.61,13.65,11.85,2.19,3.72,8.38.71,6.19-3-2.7-4.6-6.89-7.68-11.26-10.76-4.07-2.86-9.13-6.5-9.15-11.82,0-4.26-7-4.57-6.95-.28Z"/><path class="cls-10" d="M609.32,292a1.5,1.5,0,0,0,0-3,1.5,1.5,0,0,0,0,3Z"/><path class="cls-10" d="M588.83,218.9l0,17.15c0,2.52.14,5.1,0,7.62a8.57,8.57,0,0,1-.39,2.62,2.61,2.61,0,0,1-.37,1q-.4.8,0,0c-6.43-.33-6.42,9.68,0,10s9.92-5.61,10.61-11.37c1-8.81.22-18.16.24-27,0-6.44-10-6.45-10,0Z"/><path class="cls-10" d="M564.17,448.41a54.52,54.52,0,0,0,33.09-6.86c5.6-3.17.57-11.82-5-8.64a45.49,45.49,0,0,1-28,5.5c-6.39-.72-6.33,9.29,0,10Z"/><path class="cls-10" d="M614.66,386.27c-.17-1.54-.85-1.93-2.06-1.18q-1.38.14-2.76.15c-2,.08-4,.08-6,.12l-14,.27c-6.42.13-6.44,10.13,0,10l16-.31c4.14-.09,8.7.21,12.51-1.67,6.44-3.16,7.87-12.11,1.35-16-5.54-3.31-10.57,5.33-5.05,8.64Z"/><path class="cls-10" d="M348.34,404.05c3.26-10.5.46-20.86.69-31.54.18-8.24,5.28-20,15.56-16.29,6.06,2.19,8.68-7.47,2.66-9.64-10.61-3.84-21.79,3.27-25.84,13.14-5.55,13.54,1.52,28-2.71,41.67-1.91,6.16,7.74,8.8,9.64,2.66Z"/><path class="cls-10" d="M416.61,243c8.9-2.9,19.07,2.41,20.71,11.85,1.1,6.33,10.74,3.64,9.64-2.66-2.53-14.6-19.34-23.28-33-18.84-6.09,2-3.48,11.65,2.66,9.65Z"/><path class="cls-10" d="M501,179.81c15.52,1.16,28.89-13.42,26-28.71-1.2-6.32-10.84-3.64-9.64,2.66,1.77,9.29-7.81,16.69-16.33,16.05-6.42-.47-6.39,9.53,0,10Z"/><path class="cls-10" d="M455.68,462.32a27.24,27.24,0,0,1,27.76,9.61c4,5,11.06-2.09,7.07-7.07-8.88-11.1-23.86-15.44-37.49-12.18-6.25,1.5-3.61,11.15,2.66,9.64Z"/><path class="cls-10" d="M544,465.83c6.43,0,6.44-10,0-10s-6.45,10,0,10Z"/><path class="cls-10" d="M473.63,404.73c6.43,0,6.44-10,0-10s-6.45,10,0,10Z"/><path class="cls-10" d="M318.55,332.52c6.44,0,6.45-10,0-10s-6.44,10,0,10Z"/><path class="cls-10" d="M555.27,250.59c6.43,0,6.44-10,0-10s-6.45,10,0,10Z"/><path class="cls-10" d="M605.44,314c6.43,0,6.45-10,0-10s-6.44,10,0,10Z"/><path class="cls-10" d="M382.52,256.6c6.43,0,6.44-10,0-10s-6.45,10,0,10Z"/><path class="cls-10" d="M475.56,201.05c6.44,0,6.45-10,0-10s-6.44,10,0,10Z"/><path class="cls-10" d="M558,204.5c6.43,0,6.44-10,0-10s-6.45,10,0,10Z"/><path class="cls-10" d="M566.92,490.46c6.43,0,6.44-10,0-10s-6.45,10,0,10Z"/><path class="cls-11" d="M15,570.41c-10.8-2.07-17.2-15-14.29-28.85S19.58,494.92,30.38,497s12.33,38.18,9.42,52S25.79,572.47,15,570.41Z"/><polygon class="cls-2" points="82.48 294.33 65.31 291.05 79.95 221.18 97.12 224.46 82.48 294.33"/><path class="cls-2" d="M164,57.08c-1.77-.58-3.58-1.1-5.41-1.58q-14.33-2.62-28.69-5.37a3.2,3.2,0,0,1-2.44.4,31.65,31.65,0,0,1-5.45-1.9Q105,45.36,88.07,42c-4.76-.93-9.76,3.73-11.15,10.41Q67.1,99.59,57.31,146.86c-4.39,31,5.94,59,16.77,83.7a49.09,49.09,0,0,0,4.64,4.6l13.65,2.62c4.57-1.72,9.14-5.32,13-8.87,8.07-7.44,15.25-16.73,22-26.36a140.87,140.87,0,0,0,11-18c3.68-7.38,6.79-15.17,10.06-22.83,6.5-30.71,13-61.45,19.25-92.12C168.75,64.23,167.16,59.25,164,57.08Z"/><path class="cls-12" d="M51.23,187.27c0,.77-.1,1.54-.14,2.3a68,68,0,0,0,2.84,9.54C52.89,195.22,52,191.28,51.23,187.27Z"/><path class="cls-11" d="M34.63,551.19l-30-5.74a5.22,5.22,0,0,1-4.28-6.12L54.8,279.6a5.44,5.44,0,0,1,6.41-4.08l30,5.73a5.23,5.23,0,0,1,4.28,6.13L41,547.1A5.45,5.45,0,0,1,34.63,551.19Z"/><ellipse class="cls-13" cx="73.49" cy="296.11" rx="6.33" ry="6.21" transform="translate(-102.85 47.14) rotate(-21.37)"/><ellipse class="cls-13" cx="21.96" cy="536.08" rx="6.33" ry="6.21" transform="translate(-193.84 44.86) rotate(-21.37)"/><path class="cls-13" d="M76.71,174c-3.84-.73-5.24-9.51-3.13-19.61s10.49-34.58,14.33-33.85,1.7,26.41-.41,36.51S80.55,174.74,76.71,174Z"/><path class="cls-13" d="M73.72,152.38A5.23,5.23,0,0,0,78,158.51l3.78.72a5.44,5.44,0,0,0,6.41-4.08l23-109.78c-4.72-1.31-9.48-2.63-14.3-3.54Z"/><path class="cls-13" d="M99.49,180c-3.84-.74-5.24-9.52-3.13-19.62s10.49-34.58,14.33-33.85,1.7,26.41-.41,36.51S103.33,180.72,99.49,180Z"/><path class="cls-13" d="M127.46,50.53a37.08,37.08,0,0,1-7.13-2.66,2.88,2.88,0,0,1-.38-.22l-.24-.06L96.5,158.36a5.23,5.23,0,0,0,4.28,6.13l3.78.72a5.44,5.44,0,0,0,6.41-4.08L134.15,50.51l-3.81-.71A3.18,3.18,0,0,1,127.46,50.53Z"/><path class="cls-13" d="M121.3,184.16c-3.84-.74-5.24-9.52-3.13-19.62S128.66,130,132.5,130.69s1.7,26.41-.41,36.51S125.14,184.89,121.3,184.16Z"/><path class="cls-13" d="M141.5,51.89,118.31,162.53a5.23,5.23,0,0,0,4.28,6.13l3.78.72a5.44,5.44,0,0,0,6.41-4.08L155.93,54.84c-4.68-1.11-9.43-2-14.07-2.89Z"/><path class="cls-11" d="M913.82,547.24l-33-6.31a5.21,5.21,0,0,1-4.27-6.12L931,275.08a5.44,5.44,0,0,1,6.41-4.08l33,6.31a5.22,5.22,0,0,1,4.28,6.12L920.23,543.16A5.44,5.44,0,0,1,913.82,547.24Z"/><path class="cls-11" d="M894.63,566.71c-12.11-1.54-20.35-14.13-18.4-28.14s16.58-47.54,28.69-46,17.1,37.56,15.15,51.56S906.74,568.24,894.63,566.71Z"/><ellipse class="cls-13" cx="897.92" cy="534.01" rx="6.33" ry="6.21" transform="translate(-132.85 363.92) rotate(-21.37)"/><ellipse class="cls-13" cx="897.92" cy="534.01" rx="6.33" ry="6.21" transform="translate(-132.85 363.92) rotate(-21.37)"/><ellipse class="cls-13" cx="947.4" cy="296.64" rx="6.33" ry="6.21" transform="translate(-42.96 365.62) rotate(-21.37)"/><path class="cls-2" d="M963.58,243.64l20.69-98.71L1005,46.12c-15.55-3-37.42,38.83-48.85,93.38S948,240.66,963.58,243.64Z"/><path class="cls-2" d="M998.7,48.82l11.91,2.91,11.93,2.92c1.2-4.49-3.16-9.44-9.74-11S999.91,44.32,998.7,48.82Z"/><path class="cls-10" d="M353.49,275.81c4.81-8.63,16.68-11.05,22.37-3.64s13.89,17,9.45,25.66-21.74,15.54-30.38,7.52S348.67,284.45,353.49,275.81Z"/><path class="cls-10" d="M638.06,409.24c4.82-8.63,16.69-11.05,22.38-3.65s13.89,17.05,9.45,25.66-21.74,15.55-30.38,7.53S633.25,417.88,638.06,409.24Z"/><path class="cls-10" d="M618.69,265.94c3-4.81,11-5.89,15-1.53s9.78,10.08,7,14.88-14.26,8.33-20.28,3.53S615.66,270.74,618.69,265.94Z"/><path class="cls-10" d="M393.08,417.09c3-4.8,11-5.89,15-1.52s9.78,10.07,7,14.88-14.25,8.33-20.27,3.53S390.05,421.9,393.08,417.09Z"/><path class="cls-13" d="M451.93,296.68c10.92-27.42,47.56-37.07,67.44-22.82s44.12,24.66,48.55,58.36-63.5,52.64-93.51,38.21S441,324.09,451.93,296.68Z"/><path class="cls-14" d="M491.54,353.26c-4.91,2.48-11-.66-11-5.65l.08-22.84.08-22.84c0-5,6.17-8.1,11.07-5.58l22.41,11.5,22.41,11.5c4.9,2.51,4.88,8.76,0,11.23L514,341.92Z"/></svg>