<svg id="Layer_1" data-name="Layer 1" xmlns="http://www.w3.org/2000/svg" width="256.38" height="334" viewBox="0 0 256.38 334"><defs><style>.cls-1{fill:#0c3e00;}.cls-2{fill:#63804a;}.cls-3{fill:#95bf6f;}.cls-4{fill:#8c6239;}.cls-5{fill:#fff;}.cls-6{fill:#ff7bac;}.cls-7{fill:#231f20;}.cls-8{fill:#940018;}</style></defs><path class="cls-1" d="M128.33,334C52.44,335-2.39,268.62.08,206.14S50.3,2.11,127.45,0,256.7,137.81,256.37,203.56,204.23,333,128.33,334Z"/><path class="cls-2" d="M128.63,328.67C56.07,329.61,3.65,266.2,6,206.49s48-195,121.77-197S251.36,141.2,251.05,204,201.19,327.73,128.63,328.67Z"/><path class="cls-3" d="M129.1,319.55c-60.91.75-104.91-50.2-102.93-98.17S66.47,64.74,128.39,63.13,232.13,168.92,231.86,219.41,190,318.79,129.1,319.55Z"/><path class="cls-4" d="M49.05,223.85c.67-41.65,34.63-83,81.91-85s83.65,54.46,80.1,93.49S174,310,129.11,308.23,48.38,265.5,49.05,223.85Z"/><ellipse cx="156.39" cy="206.42" rx="23.53" ry="21.99"/><ellipse cx="105.11" cy="206.93" rx="23.53" ry="21.99"/><ellipse class="cls-5" cx="149.86" cy="196.41" rx="6.44" ry="6.07"/><ellipse class="cls-5" cx="98.36" cy="197.42" rx="6.44" ry="6.07"/><ellipse class="cls-5" cx="107.26" cy="204.19" rx="2.94" ry="3.07"/><ellipse class="cls-5" cx="159.11" cy="202.97" rx="2.94" ry="3.07"/><ellipse class="cls-6" cx="174.85" cy="235.75" rx="2.94" ry="3.07"/><ellipse class="cls-6" cx="89.39" cy="235.75" rx="2.94" ry="3.07"/><path class="cls-7" d="M115.06,253.79s1.73-8.34,17.24-8.34,17.25,8.34,17.25,8.34c0-10.52-7.72-19-17.24-19S115.06,243.27,115.06,253.79Z"/><path class="cls-8" d="M114.87,253.78s1.74-5,17.33-5,17.35,5,17.35,5c0-6.35-7.76-11.5-17.34-11.5S114.87,247.43,114.87,253.78Z"/></svg>