<svg id="Layer_1" data-name="Layer 1" xmlns="http://www.w3.org/2000/svg" width="926" height="1036" viewBox="0 0 926 1036"><defs><style>.cls-1{fill:#f2f2f2;}.cls-2{fill:#fbb03b;}.cls-3{fill:#231f20;}.cls-4{fill:#fff;}.cls-5{fill:#001300;}.cls-6{fill:#ffa5ac;}.cls-7{fill:#0c3e00;}.cls-8{fill:#63804a;}.cls-9{fill:#95bf6f;}.cls-10{fill:#8c6239;}.cls-11{fill:#ff7bac;}.cls-12{fill:#940018;}.cls-13{fill:#006837;}.cls-14{fill:#39b54a;}.cls-15{fill:#ef3f3f;}.cls-16{fill:#ff7d00;}.cls-17{fill:#ec5f00;}.cls-18{fill:#599f00;}.cls-19{fill:#8cc63f;}.cls-20{fill:#009245;}</style></defs><path class="cls-1" d="M3.73,751.2C-22.77,573,159.41,700.53,204.46,658.41s171.78-51.28,204.93,69-119.8,231-228.76,179.67S30.22,929.41,3.73,751.2Z"/><ellipse class="cls-2" cx="251.87" cy="774.57" rx="91.53" ry="89.44"/><path class="cls-3" d="M240.83,732.54H187.37c0,18.06,12,32.71,26.73,32.71S240.83,750.6,240.83,732.54Z"/><path class="cls-3" d="M299.59,732.54H246.13c0,18.06,12,32.71,26.73,32.71S299.59,750.6,299.59,732.54Z"/><path class="cls-4" d="M195,732.54c0,6.13,4.43,11.1,9.89,11.1s9.89-5,9.89-11.1Z"/><path class="cls-4" d="M252.27,732.54c0,6.13,4.42,11.1,9.88,11.1s9.89-5,9.89-11.1Z"/><ellipse class="cls-4" cx="273.62" cy="743.04" rx="3.31" ry="2.97"/><ellipse class="cls-4" cx="216.25" cy="743.04" rx="3.31" ry="2.97"/><rect class="cls-5" x="200.82" y="780.35" width="82.36" height="10.65" rx="3.12"/><path class="cls-6" d="M284.57,775.4c-.07-2.58,8-5.2,15-5.29,7.5-.11,16.09,2.66,16,5.29s-8.85,5.09-16.24,4.94C292.75,780.21,284.64,778,284.57,775.4Z"/><path class="cls-6" d="M167.5,774.33c-.07-2.58,8-5.19,15-5.29,7.49-.11,16.08,2.66,16,5.29s-8.85,5.09-16.24,4.94C175.68,779.14,167.57,776.89,167.5,774.33Z"/><path class="cls-7" d="M178.18,545c-93,1.25-160.1-83.19-157.08-162.69S82.61,122.69,177.09,120,335.4,295.35,335,379,271.13,543.74,178.18,545Z"/><path class="cls-8" d="M178.54,538.22C89.67,539.41,25.48,458.73,28.37,382.75S87.17,134.67,177.5,132.13s151.36,167.54,151,247.49S267.41,537,178.54,538.22Z"/><path class="cls-9" d="M179.12,526.61c-74.61,1-128.5-63.87-126.07-124.91s49.36-199.32,125.2-201.36S305.3,334.94,305,399.18,253.72,525.65,179.12,526.61Z"/><path class="cls-10" d="M81.08,404.84c.81-53,42.4-105.66,100.32-108.2s102.45,69.29,98.1,119-45.45,98.86-100.37,96.62S80.26,457.84,81.08,404.84Z"/><ellipse cx="212.54" cy="382.66" rx="28.82" ry="27.98"/><ellipse cx="149.74" cy="383.32" rx="28.82" ry="27.98"/><ellipse class="cls-4" cx="204.55" cy="369.93" rx="7.88" ry="7.73"/><ellipse class="cls-4" cx="141.47" cy="371.21" rx="7.88" ry="7.73"/><ellipse class="cls-4" cx="152.37" cy="379.82" rx="3.6" ry="3.9"/><ellipse class="cls-4" cx="215.87" cy="378.27" rx="3.6" ry="3.9"/><ellipse class="cls-11" cx="235.15" cy="419.98" rx="3.6" ry="3.9"/><ellipse class="cls-11" cx="130.48" cy="419.98" rx="3.6" ry="3.9"/><path class="cls-3" d="M161.92,442.93s2.12-10.6,21.11-10.6,21.14,10.6,21.14,10.6c0-13.38-9.46-24.22-21.13-24.22S161.92,429.55,161.92,442.93Z"/><path class="cls-12" d="M161.69,442.93s2.13-6.41,21.23-6.41,21.25,6.41,21.25,6.41c0-8.09-9.51-14.64-21.24-14.64S161.69,434.84,161.69,442.93Z"/><path class="cls-13" d="M896,740.09H500.91c0,88,88.44,159.29,197.54,159.29S896,828.06,896,740.09Z"/><path class="cls-14" d="M884.55,740H513.05c0,78.73,83.16,142.55,185.75,142.55S884.55,818.73,884.55,740Z"/><path class="cls-15" d="M876,740H521.73c0,69.18,79.3,125.27,177.11,125.27S876,809.18,876,740Z"/><path class="cls-5" d="M567.06,800.69a4.35,4.35,0,0,1-.41-6.12c1.57-1.74,6.92-4.74,8.72-3.11s-.66,7.29-2.23,9A4.29,4.29,0,0,1,567.06,800.69Z"/><path class="cls-5" d="M702.43,847.22a4.31,4.31,0,0,1-4-4.62c.2-2.35,2.66-8,5.07-7.78s3.86,6.2,3.65,8.54A4.31,4.31,0,0,1,702.43,847.22Z"/><path class="cls-5" d="M655.07,840.8a4.33,4.33,0,0,1-4-4.63c.2-2.34,2.66-8,5.07-7.77s3.86,6.2,3.65,8.54A4.32,4.32,0,0,1,655.07,840.8Z"/><path class="cls-5" d="M608.48,822.47a4.35,4.35,0,0,1-1.24-6c1.31-2,6.19-5.67,8.19-4.3s.37,7.3-.95,9.25A4.3,4.3,0,0,1,608.48,822.47Z"/><path class="cls-5" d="M541,767.11a4.36,4.36,0,0,1,1.06-6c1.93-1.31,7.84-3,9.2-.93s-2.36,6.92-4.3,8.23A4.3,4.3,0,0,1,541,767.11Z"/><path class="cls-5" d="M759.11,840a4.3,4.3,0,0,1-5.69-2.18c-.92-2.16-1.4-8.31.82-9.27s6.31,3.64,7.23,5.8A4.35,4.35,0,0,1,759.11,840Z"/><path class="cls-5" d="M807.71,820.51a4.29,4.29,0,0,1-6.05-.67c-1.43-1.86-3.43-7.69-1.52-9.18s7,1.93,8.45,3.79A4.35,4.35,0,0,1,807.71,820.51Z"/><path class="cls-5" d="M845.2,787.35a4.29,4.29,0,0,1-6,1.32c-2-1.3-5.7-6.17-4.37-8.2s7.26-.45,9.21.85A4.36,4.36,0,0,1,845.2,787.35Z"/><path class="cls-5" d="M724.49,810.81a2.35,2.35,0,0,1-2.87-1.64c-.23-1.18.28-4.33,1.62-4.6s3,2.43,3.26,3.61A2.36,2.36,0,0,1,724.49,810.81Z"/><path class="cls-5" d="M681.77,810.87a2.36,2.36,0,0,1-2-2.62c.22-1.18,1.88-3.9,3.23-3.64s1.88,3.41,1.65,4.59A2.34,2.34,0,0,1,681.77,810.87Z"/><path class="cls-5" d="M640.12,802.07a2.35,2.35,0,0,1-1.55-2.92c.43-1.13,2.53-3.52,3.81-3s1.26,3.69.83,4.81A2.32,2.32,0,0,1,640.12,802.07Z"/><path class="cls-5" d="M600.12,786.51a2.37,2.37,0,0,1-.65-3.26c.72-1,3.42-2.64,4.51-1.8s.16,3.9-.57,4.85A2.33,2.33,0,0,1,600.12,786.51Z"/><path class="cls-5" d="M576.15,764.15a2.36,2.36,0,0,1-.65-3.25c.73-.95,3.42-2.64,4.51-1.8s.16,3.9-.57,4.85A2.32,2.32,0,0,1,576.15,764.15Z"/><path class="cls-5" d="M769.89,801.83a2.33,2.33,0,0,1-3.24-.58c-.62-1-1.19-4.17,0-4.88s3.66,1.27,4.28,2.3A2.36,2.36,0,0,1,769.89,801.83Z"/><path class="cls-5" d="M805.41,779.61a2.34,2.34,0,0,1-3.25.54c-.92-.77-2.5-3.54-1.63-4.6s3.88,0,4.8.74A2.37,2.37,0,0,1,805.41,779.61Z"/><path class="cls-5" d="M865.87,752.65a4.31,4.31,0,0,1-5.37,2.89c-2.23-.72-7.15-4.39-6.41-6.7s6.87-2.41,9.09-1.69A4.35,4.35,0,0,1,865.87,752.65Z"/><path class="cls-5" d="M831.34,750.42a2.33,2.33,0,0,1-3.12,1.07c-1-.6-3.05-3.07-2.36-4.26s3.82-.67,4.85-.06A2.35,2.35,0,0,1,831.34,750.42Z"/><path class="cls-3" d="M701.63,747.79H648.17c0,18.06,12,32.7,26.73,32.7S701.63,765.85,701.63,747.79Z"/><path class="cls-3" d="M760.39,747.79H706.93c0,18.06,12,32.7,26.73,32.7S760.39,765.85,760.39,747.79Z"/><path class="cls-4" d="M655.78,747.79c0,6.13,4.43,11.1,9.89,11.1s9.89-5,9.89-11.1Z"/><path class="cls-4" d="M713.07,747.79c0,6.13,4.42,11.1,9.88,11.1s9.89-5,9.89-11.1Z"/><ellipse class="cls-4" cx="734.42" cy="758.28" rx="3.31" ry="2.97"/><path class="cls-4" d="M680.37,758.28a3.34,3.34,0,0,1-6.63,0"/><path class="cls-4" d="M692.59,792.21c13-6.16,27.75-1.74,40.7,2.23,1.85.56,2.64-2.33.8-2.9-13.86-4.24-29.15-8.48-43-1.92-1.74.83-.22,3.41,1.52,2.59Z"/><path class="cls-4" d="M686.1,790.41c.19.06.38.16.57.21-.35-.09-.11,0,0,0l.27.13c.32.17.64.35.95.55a5.36,5.36,0,0,0,.49.34c-.31-.16-.09-.06,0,0l.23.19a10.32,10.32,0,0,1,.82.8l.36.42c.22.27-.2-.27,0,0a2.2,2.2,0,0,1,.17.25,8.85,8.85,0,0,1,.6,1c.09.16.17.32.25.49a1.42,1.42,0,0,0,.08.18l-.08-.17a2.18,2.18,0,0,0,.11.27,9.45,9.45,0,0,1,.34,1.15,1.5,1.5,0,1,0,2.89-.79,11.1,11.1,0,0,0-7.28-7.92,1.51,1.51,0,0,0-1.84,1.05,1.53,1.53,0,0,0,1,1.84Z"/><path class="cls-16" d="M562.22,253.91,538.15,428,523.54,533.65c-1.8,13.06-20.68,13.06-22.49,0L486.45,428,462.38,253.91a11.28,11.28,0,0,1,.81-6c-.06.63-.09,1.26-.09,1.9,0,17.4,21.92,31.5,48.95,31.5s49-14.1,49-31.5a21.48,21.48,0,0,0-.25-3.21A11.31,11.31,0,0,1,562.22,253.91Z"/><path class="cls-16" d="M561,249.79c0,17.4-21.91,31.5-49,31.5s-48.95-14.1-48.95-31.5c0-.64,0-1.27.09-1.9A11.35,11.35,0,0,1,473.63,241H551a11.35,11.35,0,0,1,9.78,5.57h0A21.48,21.48,0,0,1,561,249.79Z"/><path class="cls-16" d="M560.75,246.57A11.35,11.35,0,0,0,551,241H473.63a11.35,11.35,0,0,0-10.44,6.89c1.53-16.51,22.82-29.59,48.86-29.59C537.4,218.3,558.24,230.69,560.75,246.57Z"/><path class="cls-17" d="M469.13,286l28.52-.63c1.93,0,1.94-3,0-3l-28.52.63c-1.93,0-1.94,3,0,3Z"/><path class="cls-17" d="M552.11,299.59a32.75,32.75,0,0,1-21-.23c-1.82-.65-2.61,2.25-.79,2.89a35.35,35.35,0,0,0,22.61.23c1.83-.59,1-3.49-.8-2.89Z"/><path class="cls-17" d="M484.3,315.23a45.69,45.69,0,0,0,18.28-1.43,1.5,1.5,0,0,0-.79-2.89,43.58,43.58,0,0,1-17.49,1.32c-.8-.11-1.5.76-1.5,1.5a1.54,1.54,0,0,0,1.5,1.5Z"/><path class="cls-17" d="M503.41,334.41c15.13.41,30.54.74,45.23-3.47a1.5,1.5,0,0,0-.8-2.89c-14.43,4.13-29.56,3.76-44.43,3.36-1.93-.05-1.93,2.95,0,3Z"/><path class="cls-17" d="M478.05,355.24l19.21-.55c5.68-.16,11.51-.29,16.83-2.49,1.76-.72,1-3.63-.79-2.89-5.26,2.17-10.94,2.24-16.53,2.4l-18.72.53c-1.93.05-1.94,3.05,0,3Z"/><path class="cls-17" d="M486.13,404.34a28.47,28.47,0,0,0,18-2.88c1.71-.91.19-3.5-1.51-2.59a25.15,25.15,0,0,1-15.66,2.58,1.54,1.54,0,0,0-1.84,1.05,1.5,1.5,0,0,0,1,1.84Z"/><path class="cls-17" d="M511.92,425.81a97,97,0,0,0,23.14-1.66c1.9-.37,1.09-3.26-.8-2.89a94,94,0,0,1-22.34,1.55c-1.93-.09-1.92,2.91,0,3Z"/><path class="cls-17" d="M499.44,381.35h8.91a1.5,1.5,0,0,0,0-3h-8.91a1.5,1.5,0,1,0,0,3Z"/><path class="cls-17" d="M490.15,448.48l6.21,1a1.59,1.59,0,0,0,1.15-.15,1.5,1.5,0,0,0-.35-2.74l-6.22-1.06a1.65,1.65,0,0,0-1.15.15,1.55,1.55,0,0,0-.69.9,1.52,1.52,0,0,0,1,1.85Z"/><path class="cls-17" d="M529.8,437.89a6.57,6.57,0,0,0,1.47.09,6.87,6.87,0,0,0,1.49-.28,6.43,6.43,0,0,0,2.53-1.49,1.5,1.5,0,1,0-2.12-2.12l-.39.33.31-.24a5.26,5.26,0,0,1-1.1.64l.36-.15a5.12,5.12,0,0,1-1.22.33l.4-.05a5.4,5.4,0,0,1-1.27,0l.4.05h-.06a1.67,1.67,0,0,0-1.16.15,1.52,1.52,0,0,0-.69.9,1.49,1.49,0,0,0,.15,1.15,1.42,1.42,0,0,0,.9.69Z"/><path class="cls-17" d="M495.05,475.68a27.18,27.18,0,0,0,19-4c1.61-1.05.11-3.65-1.52-2.59a24.09,24.09,0,0,1-16.67,3.72,1.53,1.53,0,0,0-1.84,1,1.51,1.51,0,0,0,1.05,1.85Z"/><path class="cls-17" d="M515,513.42a12.66,12.66,0,0,0,9.31-3.89,1.5,1.5,0,0,0-2.12-2.12c-.26.27-.53.53-.81.77l-.2.17-.11.09-.11.08-.21.15c-.31.21-.63.4-1,.58l-.46.25-.24.11s-.36.15-.18.08l-.13.05-.25.09-.5.17c-.35.1-.71.2-1.08.27l-.52.09c.31-.05-.15,0-.25,0a9.37,9.37,0,0,1-1.18,0,1.5,1.5,0,0,0-1.5,1.5,1.52,1.52,0,0,0,1.5,1.5Z"/><path class="cls-17" d="M533.54,378.64l10-1.71a1.51,1.51,0,0,0,1-1.84,1.54,1.54,0,0,0-1.85-1l-10,1.7a1.52,1.52,0,0,0-1,1.85,1.54,1.54,0,0,0,1.84,1.05Z"/><path class="cls-17" d="M514,269.7a87.5,87.5,0,0,0,42.16-7c1.76-.76.24-3.35-1.52-2.59A84.38,84.38,0,0,1,514,266.7c-1.92-.16-1.91,2.84,0,3Z"/><path class="cls-18" d="M504.74,224.05a84.21,84.21,0,0,0-23.18,35.18,84.57,84.57,0,0,0,20.93-21.59l10.45,10.88c2.21-7.07,7.71-12.55,13-17.73,21.36-20.82,45.91-43,75.74-43.1-12.6-.74-25.34-1.47-37.76.78s-24.68,7.78-32.63,17.59a160.38,160.38,0,0,0-2.67-59.14,366.21,366.21,0,0,0-9.76,40.57c-6.24-10.87-3.46-25.61-11-35.58-3-4-7.43-6.73-11.71-9.37L464.47,123a185.77,185.77,0,0,1,43.74,68.29A119.63,119.63,0,0,1,451,184.82c13.54,15.86,41.5,5.4,58.67,17.24-23.63-5.52-50.14,4.61-64.07,24.48a104.67,104.67,0,0,1,57.72-14A26,26,0,0,0,488.09,228l14.2-3.07"/><path class="cls-18" d="M503.68,223a86.47,86.47,0,0,0-23.57,35.84,1.51,1.51,0,0,0,2.2,1.69,87.53,87.53,0,0,0,21.48-22.12l-2.36.31,10.45,10.88a1.52,1.52,0,0,0,2.51-.67c2.27-7,7.76-12.32,12.92-17.35s10.44-10.06,15.9-14.82c10.65-9.3,22.34-18,35.65-23.1a65,65,0,0,1,22.84-4.46,1.5,1.5,0,0,0,0-3C581.54,185,559.82,184,541.89,195a45.77,45.77,0,0,0-11.64,10l2.51,1.46a163.6,163.6,0,0,0-2.67-59.94,1.52,1.52,0,0,0-2.9,0,371.3,371.3,0,0,0-9.76,40.57l2.74-.36c-5.2-9.23-3.94-20.45-8-30.1-2.21-5.31-6-9.21-10.71-12.43-5.31-3.65-10.95-6.86-16.43-10.24l-19.85-12.23a1.5,1.5,0,0,0-1.81,2.35,185.2,185.2,0,0,1,36.44,51.21q3.86,8,6.91,16.42l1.45-1.9a119.37,119.37,0,0,1-56.83-6.44c-1.53-.56-2.35,1.48-1.46,2.51,5.38,6.22,13.27,8.68,21.18,9.76,8.31,1.14,16.78,1,25,2.67a34.59,34.59,0,0,1,12.77,5l1.15-2.74c-19-4.37-39.54.91-54.61,13.18a60.46,60.46,0,0,0-11.16,12c-.89,1.27.83,2.76,2.06,2.05a102.71,102.71,0,0,1,57-13.82l-.4-2.95a27.76,27.76,0,0,0-16.26,16.57c-.41,1.15.81,2.07,1.84,1.84l14.21-3.06c1.88-.41,1.08-3.3-.8-2.89l-14.2,3.06,1.84,1.85A24.55,24.55,0,0,1,503.7,214a1.5,1.5,0,0,0-.4-2.94,106.53,106.53,0,0,0-58.48,14.23l2.05,2c10.61-15,28.57-24.32,46.85-25.16a57.59,57.59,0,0,1,15.54,1.37,1.51,1.51,0,0,0,1.15-2.74c-14.15-9.62-32.34-4.81-47.82-10.07A24,24,0,0,1,452,183.76l-1.46,2.51a121.43,121.43,0,0,0,57.63,6.54c.87-.11,1.82-.87,1.44-1.89a188.11,188.11,0,0,0-31.83-55.52q-5.81-7-12.29-13.44l-1.82,2.36c11.39,7,22.89,13.88,34.16,21.07,4.63,3,8.76,6.34,11.15,11.39,2.18,4.64,2.89,9.86,3.7,14.87.93,5.72,2,11.49,4.86,16.59a1.52,1.52,0,0,0,2.75-.35,366.75,366.75,0,0,1,9.76-40.57h-2.9a159.53,159.53,0,0,1,2.68,58.34c-.18,1.28,1.43,2.77,2.5,1.46,12.33-15.07,32.66-18.72,51.11-18.66,6.08,0,12.15.38,18.22.73v-3c-14.61.09-28.42,5.47-40.63,13.22-12.58,8-23.63,18.16-34.3,28.5-6.07,5.89-12.61,11.94-15.27,20.22l2.5-.67-10.45-10.88a1.53,1.53,0,0,0-2.36.31,83.56,83.56,0,0,1-20.39,21l2.2,1.7a83.31,83.31,0,0,1,22.81-34.52c1.43-1.3-.7-3.41-2.13-2.12Z"/><path class="cls-18" d="M497.58,210.7A69.84,69.84,0,0,0,463,216.46a70.72,70.72,0,0,0,25.08.57l-.59,12.58c5.55-2.67,12-2.41,18.21-2.09,24.87,1.26,52.41,3.7,69.56,21.92-6.78-8.13-13.64-16.35-22.13-22.68s-18.87-10.7-29.37-10a132,132,0,0,0,34.3-35.2,301.12,301.12,0,0,0-30.18,17c3-10,13.53-16.65,15.22-26.95.68-4.14-.18-8.37-1-12.49l-6.34-30.47a154.09,154.09,0,0,1-16.28,65.55,101.47,101.47,0,0,1-28.9-38.74C488.67,172.8,511,184,513.73,201.22c-10.22-17.6-31.56-28.09-51.6-25.35a88.71,88.71,0,0,1,41.62,27.39,21.65,21.65,0,0,0-18.13-.51l10,7"/><path class="cls-18" d="M497.62,209.45a71.66,71.66,0,0,0-35.24,5.89,1.27,1.27,0,0,0,.24,2.31,72.9,72.9,0,0,0,25.72.6L486.8,217l-.59,12.58a1.27,1.27,0,0,0,1.84,1.16c5.56-2.61,11.91-2.24,17.92-1.94s12.08.69,18.1,1.33c11.75,1.25,23.73,3.47,34.45,8.73a55.18,55.18,0,0,1,15.81,11.45,1.24,1.24,0,0,0,1.81-1.7c-10.85-13-22.71-26.87-39.63-31.64a38.47,38.47,0,0,0-12.75-1.45l.56,2.37a134.34,134.34,0,0,0,34.78-35.65,1.27,1.27,0,0,0-1.66-1.77,302.23,302.23,0,0,0-30.18,17l1.79,1.48c2.6-8.43,10.12-14,13.67-22a23.61,23.61,0,0,0,1.39-13.61c-.84-5.32-2.13-10.6-3.23-15.88l-4-19.09a1.25,1.25,0,0,0-2.47.22A153.85,153.85,0,0,1,524.32,180q-2.66,6.93-6,13.56l2-.19a101.3,101.3,0,0,1-28.7-38.47c-.53-1.25-2.24-.6-2.35.53-.68,6.83,2.35,13.06,6.23,18.51,4.08,5.74,9,10.86,12.75,16.85a29.32,29.32,0,0,1,4.27,10.68l2.32-.85c-8.27-14.13-23.24-23.7-39.32-26a50.39,50.39,0,0,0-13.66,0c-1.29.18-1.2,2.08-.07,2.43a87.47,87.47,0,0,1,33.39,19.07,88.81,88.81,0,0,1,7.67,8l1.56-1.92a23.17,23.17,0,0,0-19.37-.55,1.26,1.26,0,0,0-.06,2.17l10,7c1.33.93,2.63-1.2,1.3-2.13l-10-7-.06,2.18a20.51,20.51,0,0,1,16.9.46,1.25,1.25,0,0,0,1.56-1.91,90,90,0,0,0-42.18-27.74l-.06,2.42c15.19-2,31.12,3.69,42.12,14.41a48.79,48.79,0,0,1,8.08,10.3,1.25,1.25,0,0,0,2.32-.85c-2.28-14.13-15.63-22.54-21.33-35a20,20,0,0,1-1.85-10.39l-2.36.53a102.89,102.89,0,0,0,29.1,39,1.26,1.26,0,0,0,2-.19,155.82,155.82,0,0,0,15.37-51c.62-5,1-10.08,1.09-15.15l-2.47.22c2.28,11,4.72,21.9,6.83,32.89.87,4.5,1.19,9-.51,13.29-1.55,4-4.31,7.36-6.88,10.71-2.93,3.81-5.82,7.73-7.27,12.39-.29,1,.87,2.07,1.79,1.48a306.6,306.6,0,0,1,30.18-17.05L557,180.9a130.84,130.84,0,0,1-33.81,34.74c-.88.62-.86,2.46.55,2.37,16.21-1,30.08,9.38,40.62,20.71,3.48,3.74,6.75,7.66,10,11.57l1.81-1.7c-8.43-8.9-19.61-14.3-31.31-17.38-12.06-3.17-24.57-4.17-37-4.83-7.05-.38-14.47-.95-21,2.11l1.84,1.16.59-12.57a1.28,1.28,0,0,0-1.53-1.27,70,70,0,0,1-24.45-.55l.23,2.31a69,69,0,0,1,34-5.62c1.61.14,1.67-2.36.07-2.5Z"/><ellipse cx="543.74" cy="289.78" rx="28.82" ry="27.98"/><ellipse cx="480.94" cy="290.44" rx="28.82" ry="27.98"/><ellipse class="cls-4" cx="535.75" cy="277.05" rx="7.88" ry="7.73"/><ellipse class="cls-4" cx="472.67" cy="278.33" rx="7.88" ry="7.73"/><ellipse class="cls-4" cx="483.57" cy="286.95" rx="3.6" ry="3.9"/><ellipse class="cls-4" cx="547.07" cy="285.39" rx="3.6" ry="3.9"/><path class="cls-19" d="M757.5,264C813.56,264,859,336.48,859,379.63S813.56,501.51,757.5,501.51,656,422.78,656,379.63,701.44,264,757.5,264Z"/><path class="cls-19" d="M802.63,263.54C856.4,263.54,900,336,900,379.17s-43.6,121.88-97.37,121.88-97.38-78.73-97.38-121.88S748.85,263.54,802.63,263.54Z"/><ellipse cx="768.94" cy="343.18" rx="18.06" ry="16.18"/><ellipse cx="729.57" cy="343.56" rx="18.06" ry="16.18"/><ellipse class="cls-4" cx="763.93" cy="335.82" rx="4.94" ry="4.47"/><ellipse class="cls-4" cx="724.39" cy="336.56" rx="4.94" ry="4.47"/><circle class="cls-4" cx="731.22" cy="341.54" r="2.26"/><circle class="cls-4" cx="771.03" cy="340.64" r="2.26"/><path class="cls-20" d="M699.11,198.14s38.69-3.3,56.67,11.72c19.31,16.13,21.73,56.81,21.73,56.81s-40.38,1.05-58.54-15.85C702.74,235.7,699.11,198.14,699.11,198.14Z"/><path class="cls-10" d="M778.76,266.3c1.47-16.91,3.94-34.63,14.11-48.22a49.51,49.51,0,0,1,16-13.83c2.77-1.5,5.81-2.76,9-2.61s6.39,2,7.26,5.05c-10.13,2.65-20.69,6-27.8,13.64-3.67,4-6.17,8.85-8.3,13.81a121.5,121.5,0,0,0-8.89,33.11"/><path class="cls-10" d="M780,266.3c1.19-13.35,2.85-27.1,8.85-39.27a49.79,49.79,0,0,1,11.54-15.31c4.74-4.2,19.19-15,23.49-4.7l.87-1.54c-12.59,3.34-25.19,7.8-32.44,19.36-7.82,12.47-11.61,28-13.47,42.41-.21,1.59,2.3,1.58,2.5,0,1.75-13.58,5.39-27.83,12.29-39.76s19.2-16.26,31.78-19.59a1.26,1.26,0,0,0,.88-1.54c-6.76-16.16-28.7,3.4-34.31,10.83-10.6,14-13,32.11-14.48,49.11-.15,1.6,2.35,1.59,2.5,0Z"/><path class="cls-20" d="M717.21,314.3s4.14-29.1,18.27-39.83c15.18-11.54,45.61-6.47,45.61-6.47s-6.07,30-21.63,40.52C745.55,318,717.21,314.3,717.21,314.3Z"/><path class="cls-14" d="M698.78,198.29s3.63,37.56,19.85,52.67c18.16,16.91,58.54,15.86,58.54,15.86Z"/><path class="cls-14" d="M781,267s-29.26-4.58-43.16,4.93c-15.56,10.64-20.59,41.91-20.59,41.91Z"/><path class="cls-3" d="M736.34,383a21.54,21.54,0,0,1,33.95-1c1.25,1.48,3.37-.66,2.12-2.12a24.52,24.52,0,0,0-38.66,1.58c-1.15,1.56,1.45,3.06,2.59,1.52Z"/><path class="cls-6" d="M773.9,369.55c0-1.51,4.62-3.05,8.63-3.1,4.31-.06,9.25,1.56,9.21,3.1s-5.09,3-9.34,2.89C778.6,372.37,773.94,371.05,773.9,369.55Z"/><path class="cls-6" d="M708.49,369.37c0-1.51,4.62-3.05,8.64-3.1,4.31-.07,9.25,1.56,9.21,3.1s-5.09,3-9.34,2.89C713.2,372.18,708.53,370.86,708.49,369.37Z"/></svg>