<svg id="Layer_1" data-name="Layer 1" xmlns="http://www.w3.org/2000/svg" width="1920" height="1080" viewBox="0 0 1920 1080"><defs><style>.cls-1{fill:#998675;}.cls-2{fill:#fff77f;}.cls-3{fill:#ffdfd4;}.cls-4{fill:#b3b3b3;}.cls-5{fill:#e6e6e6;}.cls-6{fill:#ff9094;}.cls-7{fill:#231f20;}.cls-8{fill:#001300;}.cls-9{fill:#fff;}.cls-10{fill:#999;}.cls-11{fill:#f2f2f2;}.cls-12{fill:#8c6239;}.cls-13{fill:#ccc;}.cls-14{fill:#4d4d4d;}.cls-15{opacity:0.08;}</style></defs><rect class="cls-1" width="1920" height="1080"/><path d="M567.78,320.46q19.08-1.31,38.52-2.49,2.51,46,5,92c1.1,20.35-.8,34.82-5.63,42.47S595.44,462,589.45,459q-12.56-6.39-25-13.19c-6.76-3.73-12.9-11.83-18.48-23.12a96,96,0,0,1-10-34.26q-5-54.39-10-108.8a77.59,77.59,0,0,1,4.53-34.2c4.13-11.46,9.79-19.77,17-23.74q12.9-7.08,26-13.73c16.39-8.65,26.33,7.58,29.49,48.48q-6.56,1.75-13.07,3.57c-2.15-19.21-7.06-27.17-14.64-24.07q-6.51,2.6-13,5.28c-3.55,1.47-6.4,5.32-8.56,11.26a44.64,44.64,0,0,0-2.45,18.94l9.45,124.66a52.15,52.15,0,0,0,5,18.92c2.82,5.84,5.94,9.61,9.37,11,7.91,2.49,11.54-5.13,10.82-22.71l-3.57-56-12.74-.6Q568.68,333.6,567.78,320.46Z"/><path d="M640.05,482.67l-10.83-233c-.84-18.17,1-34.5,5.66-49.76s10.65-24.76,18-27.66q13.51-5.31,27.15-10.16c7.43-2.66,14.09,2.68,19.92,16.62s9.07,32.11,9.71,53.8q4.17,139.65,8.35,279.3-13.15-4.22-26.19-8.86-2.62-75.8-5.24-151.61-13.35-.44-26.56-.9,2.87,71.37,5.72,142.76Q652.85,488.17,640.05,482.67ZM658.62,315q13.27-.68,26.67-1.3-1.31-38-2.63-76c-.35-10.3-2-18.86-4.94-25.5s-6.25-9.34-9.9-8.26-6.75,5.63-9.11,13.39a78.71,78.71,0,0,0-3,26.11Q657.19,279.26,658.62,315Z"/><path d="M744.42,519.85q-4.83-187.64-9.65-375.27,3.13-.9,6.28-1.77c21.19,54.35,42.16,114.48,62.85,178.49,18.45-64.59,37.37-133,56.73-203.22,4.72-.64,9.45-1.26,14.18-1.83Q876.9,331.67,879,547.07q-13.63-1.65-27.23-3.73-1.61-129.39-3.22-258.77C833,340.2,817.69,394,802.75,444.94c-16.69-54.55-33.55-106.72-50.57-155.47q2.77,117,5.57,234.08Q751.08,521.77,744.42,519.85Z"/><path d="M906.15,549.94q-1.51-218.34-3-436.67,35.45-3.17,71-3.54l0,49.45q-21.24.16-42.47,1.13.32,73.47.65,146.92,14-.11,28-.15l.09,48.92q-13.95,0-27.9-.1.32,73.46.64,146.91,20.58.92,41.17,1.08l0,49.44Q940.23,553,906.15,549.94Z"/><path d="M1072.61,114.1q14.21,1.41,28.38,3.28c7.73,1,14.25,11.35,19.52,30.6s7.7,41.45,7.35,66.84l-3.24,233.89c-.35,25.25-3.32,47.38-8.89,66.68s-12,29.63-19.45,30.6q-13.62,1.8-27.27,3.15c-7.45.74-13.77-8.21-19-27s-7.8-41.59-7.65-68.31l1.38-244.57c.15-26.72,3-49.55,8.72-68.29S1064.86,113.32,1072.61,114.1Zm-.8,96.52q-1,121-2,242c-.11,13,1.14,24.17,3.73,33.47s5.78,13.77,9.58,13.43,7.07-5.37,9.84-15,4.23-20.83,4.36-33.63q1.32-119.2,2.63-238.42.21-19.41-3.82-33.76c-2.69-9.57-6-14.58-9.78-14.93s-7.25,4.06-10.1,13.28S1071.92,197.48,1071.81,210.62Z"/><path d="M1213,139.43q13.83,3.65,27.57,7.75-3.16,114.81-6.32,229.62c-1.06,38.27-6.45,71.73-16.1,102s-20.67,47.78-33.2,50.8q-17.27,4.14-34.65,7.56,3.45-205.27,6.91-410.55,14,2.74,27.91,5.95Q1181.55,309.75,1178,487q6.75-1.18,13.48-2.47c3.73-.71,7-5.61,9.81-14.56a111.21,111.21,0,0,0,4.63-30.63Z"/><path d="M1256.65,509q5.64-176.6,11.26-353.21,34.11,11.4,67.45,25.6-.78,16.89-1.55,33.77-19.92-6.66-40.13-12.53l-4.11,111.49q13.34.64,26.55,1.34-.73,17.34-1.48,34.66-13.14.48-26.43.93l-4.11,111.49q19.61-5.56,38.91-11.9-.78,16.88-1.55,33.77Q1289.45,498.1,1256.65,509Z"/><path d="M1347,473.05q7.47-139.87,15-279.76,26.38,12.3,52.16,26.39c7,3.87,12.66,12.2,16.87,23.81a79.4,79.4,0,0,1,4.65,35q-.56,6-1.09,12a75.51,75.51,0,0,1-8.32,28.07c-4.66,9.08-11.46,14-20.52,13.9l12.49.21c3.45.07,6.2,2.45,8.26,6.85s2.81,9.52,2.26,15.62l-7.08,78.57q-12.18,7.19-24.52,13.95l5.67-76c.51-7-.28-12.74-2.41-17.61s-4.92-7.35-8.36-7.18l-12.75.59-7.11,113.35Q1359.67,467.17,1347,473.05Zm34-153.7,12.81.86c3.45.24,6.62-2.21,9.51-7a39.16,39.16,0,0,0,5.1-17.47q.94-12.7,1.9-25.42a45.91,45.91,0,0,0-2.49-19.25c-2.18-6-5-9.9-8.53-11.36q-6.46-2.67-13-5.25Q1383.7,276.88,1381,319.35Z"/><path d="M902.8,241.41a1.5,1.5,0,0,0,0-3,1.5,1.5,0,0,0,0,3Z"/><path class="cls-2" d="M575.51,206.93c1.94-5.52,8.59-9.29,13.78-5.35,2.8,2.12,3,5.59,2.33,8.8a76.65,76.65,0,0,1-3.71,11c-5.26,13.48-11.8,27.47-9.07,42.33a32.53,32.53,0,0,0,4,10.58c2,3.33,4.28,6.5,5,10.37.37,1.89,3.26,1.09,2.89-.8-.7-3.62-2.68-6.74-4.58-9.84a32.08,32.08,0,0,1-4.3-10.28c-1.59-7.52-.38-15.4,1.81-22.67,2.4-8,5.95-15.49,8.75-23.29,1.3-3.65,2.86-7.65,2.46-11.6a9.91,9.91,0,0,0-5.11-7.8c-7-3.85-14.74.8-17.19,7.77-.64,1.82,2.26,2.61,2.89.8Z"/><path class="cls-2" d="M579.35,423.57a6,6,0,0,1,2.06-2.84,8.16,8.16,0,0,1,3.93-1.51,9.16,9.16,0,0,1,7.87,3.92c4.85,6.22,2.48,15.35-.69,22.11-3.39,7.22-8,13.91-10.41,21.56a28.85,28.85,0,0,0-1.36,11.55,42.61,42.61,0,0,0,3.09,11.52c1.57,3.95,3.41,7.8,4.64,11.87,1.18,3.88,1.59,7.41.32,11.2a3,3,0,1,0,5.78,1.6c2.74-8.19-.79-16.27-3.93-23.76a50.74,50.74,0,0,1-3.84-11.94,24.13,24.13,0,0,1,1.32-11.16c2.71-8,7.84-15,11.06-22.81,3.57-8.68,4.43-19.46-2.44-26.79a14.7,14.7,0,0,0-13-4.67A12.75,12.75,0,0,0,573.56,422c-1.16,3.69,4.63,5.27,5.79,1.59Z"/><path class="cls-2" d="M571,346.4c-1.08,3.53.12,7,1.5,10.29l.3.71c.11.27.12.3,0,.09-.17-.39.13.31.13.32l.45,1.11a22,22,0,0,1,.73,2.21,3.54,3.54,0,0,1,.23,1.1c0-.4-.07-.49,0-.26s0,.22,0,.33,0,.35,0,.53a1.85,1.85,0,0,1,0,.54c.11-.08.15-.65,0-.06l-.14.53c0,.17-.33.78,0,.11a3.08,3.08,0,0,0,1.08,4.11c1.32.69,3.41.44,4.1-1.08a10.42,10.42,0,0,0,.84-6.13,19.05,19.05,0,0,0-1.44-4.64c-.22-.54-.45-1.07-.68-1.61.26.61,0,.06,0-.07l-.24-.56a24.5,24.5,0,0,1-.84-2.36,12.32,12.32,0,0,1-.32-1.23c0-.09-.12-.74-.05-.27s0-.17,0-.27a10.28,10.28,0,0,1,0-1.11c0-.7-.17.61,0-.08.06-.22.11-.44.18-.66A3,3,0,1,0,571,346.4Z"/><path class="cls-2" d="M664.37,313.12a3.06,3.06,0,0,1-.15-.54c0,.22,0,.28.06.14s-.26.18,0,0c.11-.06.05-.08-.06.12a4.12,4.12,0,0,1,.27-.45c-.14.2-.27.21.06,0,0,0,.36-.32.12-.13s.41-.25.41-.24.43-.23.16-.11.25-.09.32-.11,1-.19.5-.15a6.54,6.54,0,0,0,.76,0c-.32-.05.14.05.17.06.82.41-.31-.21.24.09a6.08,6.08,0,0,1,2.59,3.21,24.31,24.31,0,0,1,1.29,5.12A60.89,60.89,0,0,1,669.45,347c-2.47,8.57-6.28,17.07-5.89,26.17s4.89,16.95,8.13,25.2c2.92,7.43,4.8,16.43-.25,23.19-1,1.29-.21,3.35,1.08,4.1a3.06,3.06,0,0,0,4.1-1.08c5.35-7.15,4.52-17,1.87-25-2.88-8.74-8.51-17-8.93-26.4-.42-9.77,4.45-18.81,6.61-28.14a66.91,66.91,0,0,0,1.73-15.57,53.44,53.44,0,0,0-1.81-14.69c-1.32-4.4-4.56-9.26-9.72-9.12-4.55.11-9.37,4.13-7.79,9a3.06,3.06,0,0,0,3.69,2.09,3,3,0,0,0,2.1-3.69Z"/><path class="cls-2" d="M652.79,170.25a30.71,30.71,0,0,0-5.93,22.54c.56,4.15,2,8.18,2.35,12.36a16.94,16.94,0,0,1-.19,5c-.28,1.29-.74,3.1-1.83,4l1.33-.78a2.11,2.11,0,0,1,1.24.19l1.08,1.08-.07-.1.3,2.31,0-.1-1.38,1.8.17-.08c1.49-.65,1.83-2.82,1.08-4.1a3.08,3.08,0,0,0-4.1-1.08c-2.76,1.21-1.79,5.07.72,5.85,2.32.72,4-.6,5.18-2.43a17.76,17.76,0,0,0,2.5-10.39c-.15-4.07-1.3-8-2.1-12a25.08,25.08,0,0,1,4.79-21.1c1-1.29.2-3.36-1.07-4.11a3.09,3.09,0,0,0-4.11,1.08Z"/><path class="cls-2" d="M733.94,139.5a23.48,23.48,0,0,0-6.15,14.32c-.43,5.82,1.83,10.88,4.58,15.85a75.36,75.36,0,0,1,9.42,31,74,74,0,0,1-.92,18.5,3.08,3.08,0,0,0,2.09,3.69,3,3,0,0,0,3.69-2.09,81.21,81.21,0,0,0-.85-33.15,80,80,0,0,0-5.6-15.89c-2.2-4.65-5.7-9.17-6.35-14.32a17.19,17.19,0,0,1,4.34-13.68c2.62-2.83-1.62-7.08-4.25-4.24Z"/><path class="cls-2" d="M816.71,281.56c-.1-.18-.21-.36-.3-.54.18.37,0-.07,0-.14a5.71,5.71,0,0,1-.28-1.17c0,.46,0-.51,0-.7s0-.41,0-.61c-.08.56.11-.39.11-.4a7,7,0,0,1,2.06-3.5,6.15,6.15,0,0,1,3.67-1.79,8.9,8.9,0,0,1,4.85.85c8.41,4,8.85,14.53,8,22.68-1.1,10.25-4.64,20.07-6.34,30.22s-1.71,20.36,2.69,29.75c2.26,4.8,5.31,9.17,6.43,14.43,1.17,5.46.57,11.2.07,16.7a3,3,0,0,0,3,3,3.07,3.07,0,0,0,3-3c.51-5.59.9-11.17,0-16.74s-3.54-10.1-6.06-14.89a35.33,35.33,0,0,1-4.15-14.19,61.64,61.64,0,0,1,1.15-15.45c2.11-11.18,6-22.06,6.49-33.51a32.27,32.27,0,0,0-2.7-15.47,18.86,18.86,0,0,0-10.78-9.65,13.14,13.14,0,0,0-14.09,3.4c-3.32,3.77-4.62,9.23-2,13.75,1.94,3.34,7.12.33,5.18-3Z"/><path class="cls-2" d="M752.29,476.25c3.66,6.21,7.29,12.47,9,19.55s1.57,14.36.94,21.52c-1.2,13.69-4.5,27.28-3.24,41.1.69,7.53,2.65,14.92,6.74,21.34a3.07,3.07,0,0,0,4.11,1.07,3,3,0,0,0,1.08-4.1c-7.06-11.07-6.84-24.76-5.44-37.34,1.6-14.42,4.87-28.91,2-43.4-1.65-8.26-5.75-15.59-10-22.77-2-3.33-7.14-.31-5.18,3Z"/><path class="cls-2" d="M942.61,112.71c4.45-2.06,8.94-4.09,13.76-5.09a20.08,20.08,0,0,1,11.43.67A11.78,11.78,0,0,1,975,115c1.61,4.31,1.44,9.39,1.28,13.91a74.05,74.05,0,0,1-6.83,28.39c-2.21,4.77-4.7,9.41-6.69,14.28a58.4,58.4,0,0,0-3.75,13.8,62.39,62.39,0,0,0,3.84,32.52,3.09,3.09,0,0,0,3.69,2.1c1.42-.39,2.71-2.18,2.09-3.69a57.25,57.25,0,0,1-3.87-29,56.5,56.5,0,0,1,3.79-14.09c2-4.81,4.53-9.37,6.66-14.12a80.82,80.82,0,0,0,7.1-31c.12-5,.12-10.51-1.76-15.19a17.51,17.51,0,0,0-8.93-9.38,25.89,25.89,0,0,0-15-1.9c-6,.91-11.53,3.51-17,6a3,3,0,0,0-1.07,4.11,3.07,3.07,0,0,0,4.1,1.08Z"/><path class="cls-2" d="M937.6,504.18a4.78,4.78,0,0,1,3.45-2,7,7,0,0,1,4.11.78c3.25,1.79,4.79,5.63,5.37,9.16a22.17,22.17,0,0,1-1.8,12.84c-1.94,4.08-5,7.33-8.14,10.51A78.58,78.58,0,0,0,931.38,546a52.44,52.44,0,0,0-6.3,12.48,41.72,41.72,0,0,0-2.61,14.05,23.37,23.37,0,0,0,4.74,13.54,58.71,58.71,0,0,1,4.31,6.4,22.68,22.68,0,0,1,.41,19.92,3.09,3.09,0,0,0,1.08,4.11,3,3,0,0,0,4.1-1.08,28.87,28.87,0,0,0-1.79-28.27c-2.62-4-6-7.48-6.7-12.37-.65-4.72.54-9.67,2-14.11A47.22,47.22,0,0,1,937.29,548c2.79-3.84,6.35-7,9.61-10.44a36.07,36.07,0,0,0,8.3-12.73,28.32,28.32,0,0,0,.89-15.48c-1.14-5.07-4.2-10.11-9.14-12.19-4.48-1.9-10.42-1.25-13.59,2.75a3.09,3.09,0,0,0,0,4.24c1,1.05,3.23,1.28,4.24,0Z"/><path class="cls-2" d="M936.91,161.06a13.91,13.91,0,0,0-.77,10.9c1.11,3.55,3.18,6.55,5.23,9.61,2,2.9,3.69,5.83,4.09,9.37.44,4,0,8.1-.2,12.09-.38,8.25-.79,16.51-1.12,24.76-.32,7.89-.34,16.06,2.12,23.65,2.32,7.21,6.79,13.92,13.54,17.64,3.38,1.87,6.41-3.31,3-5.18-12.05-6.65-13.17-22.1-12.76-34.44.27-8,.71-16,1.08-24,.34-7.57,1.53-15.58-2-22.61-1.7-3.41-4.23-6.32-6-9.67-1.48-2.75-2.59-6.29-1-9.12,1.84-3.39-3.34-6.42-5.18-3Z"/><path class="cls-2" d="M1062.46,111c-11.77-.1-19.27,10.94-23.14,20.74a93.69,93.69,0,0,0-6.21,39.8,114.71,114.71,0,0,0,3.42,20.65c1.66,6.67,3.57,13.28,4.81,20.05a112.45,112.45,0,0,1,.53,36.7,115.05,115.05,0,0,1-13.66,39.68c-1.92,3.37,3.26,6.39,5.18,3a120.56,120.56,0,0,0,15-72.34,142.49,142.49,0,0,0-3.68-19.43c-1.69-6.65-3.57-13.27-4.68-20.06a88.46,88.46,0,0,1,2.31-38.25c1.75-6.14,3.86-11.91,7.63-17.1,3.08-4.23,7.45-7.51,12.5-7.47,3.86,0,3.87-6,0-6Z"/><path class="cls-2" d="M1081.66,170.79c8.35,9.26,7.49,23.26,4.68,34.64-1.84,7.46-4.45,14.7-6.29,22.15a71.82,71.82,0,0,0-2,23,120.75,120.75,0,0,0,5.54,26.3c1.15,3.67,6.94,2.1,5.79-1.6a116.22,116.22,0,0,1-5.18-23.06,66.85,66.85,0,0,1,1.63-22.81c3.42-14,9.58-27.63,8.35-42.34-.64-7.56-3.09-14.81-8.23-20.51a3,3,0,0,0-4.24,4.24Z"/><path class="cls-2" d="M1082.69,498.82a16.89,16.89,0,0,1,6.35-6,16.5,16.5,0,0,1,4.11-1.7c.78-.23,1.57-.42,2.36-.58l1-.18c.52-.08-.4.05.12,0l.76-.08a26.49,26.49,0,0,1,18.32,4.81l.5.37c-.32-.24.09.08.13.1.32.27.63.53.94.81.77.69,1.49,1.42,2.19,2.17a29.07,29.07,0,0,1,3.28,4.34,36.92,36.92,0,0,1,4.49,10.56,53.78,53.78,0,0,1,.47,23.58c-3.82,19.57-15,36.61-21.07,55.42-3.11,9.55-5,19.78-3.92,29.85,1.09,9.8,4.82,18.86,8.73,27.83,3.55,8.14,7.21,16.27,8.75,25.08,1.3,7.42,1.13,15.74-2.38,22.46a23.15,23.15,0,0,1-3.06,4.54,3.08,3.08,0,0,0,0,4.24,3,3,0,0,0,4.25,0c5.87-6.78,8.16-15.57,7.88-24.42-.27-9.1-3-17.74-6.44-26.07-3.84-9.2-8.4-18.21-10.7-28s-1.35-19.84,1.32-29.49c5.52-19.89,17.41-37.45,22-57.66,3.73-16.59,1.88-36.69-11.51-48.7-10.8-9.7-29.74-11.31-40.57-.74a22.77,22.77,0,0,0-3.49,4.39c-2,3.29,3.14,6.3,5.18,3Z"/><path class="cls-2" d="M1077.08,551c-.56,6.44,3.59,11.68,6.82,16.81a27.19,27.19,0,0,1,3.59,8.18,33.68,33.68,0,0,1,.74,9.24c-.57,13.41-6.6,26-6.43,39.5.09,7.26,2.06,16,7.92,20.81a3.09,3.09,0,0,0,4.24,0,3,3,0,0,0,0-4.25c-4.57-3.78-6-10.47-6.16-16.14-.14-6.33,1.17-12.56,2.65-18.67,3.06-12.68,6.65-26.79.18-39.05-1.51-2.86-3.47-5.44-5.12-8.21s-2.7-5.19-2.43-8.22a3,3,0,0,0-3-3,3.06,3.06,0,0,0-3,3Z"/><path class="cls-2" d="M807.18,423.89c-.4,7.39,6,12,10.06,17.22a37.22,37.22,0,0,1,7.31,17.69,35.92,35.92,0,0,1-.29,11.29,3.08,3.08,0,0,0,2.1,3.69,3,3,0,0,0,3.69-2.09,43,43,0,0,0-5.81-31,63.31,63.31,0,0,0-6.77-8.38c-2.29-2.52-4.47-5.2-4.29-8.44a3,3,0,0,0-6,0Z"/><path class="cls-2" d="M568.14,241.54c.07.33.14.66.2,1,0,.16.06.33.08.5,0-.34,0-.39,0-.17.06.63.12,1.26.13,1.9a17.42,17.42,0,0,1,0,1.77c0,.26,0,.51,0,.76l-.06.51c.06-.38.06-.4,0-.05a24.07,24.07,0,0,1-.83,3.45c-.11.32-.23.64-.35.95-.24.67.18-.36-.09.22s-.58,1.22-.92,1.81a3,3,0,1,0,5.18,3A24.4,24.4,0,0,0,573.93,240a3,3,0,0,0-3.69-2.1,3.07,3.07,0,0,0-2.1,3.69Z"/><path class="cls-2" d="M1226.31,144.65a12.44,12.44,0,0,1,9.7-1.17,12.3,12.3,0,0,1,7.77,6.55c1.8,3.51,2.25,7.61,2.2,11.52a64.62,64.62,0,0,1-1.75,13.35c-2,9.07-5.1,17.9-6.42,27.12a53.09,53.09,0,0,0-.38,14A82.29,82.29,0,0,0,1241,230.7c2.75,8.84,5.84,19.48-.1,27.71a3,3,0,0,0,1.08,4.11,3.07,3.07,0,0,0,4.1-1.08c5.79-8,4.64-18.7,2.1-27.67-1.42-5.05-3.25-10-4.3-15.13a44.52,44.52,0,0,1-.37-14.34c1.19-9.68,4.6-18.94,6.65-28.44,2-9.25,3.28-19.71-1-28.52a18.65,18.65,0,0,0-25.85-7.87c-3.34,1.94-.32,7.13,3,5.18Z"/><path class="cls-2" d="M1224.87,147.54c6,3,7.46,10.21,6.73,16.52-.47,4-1.8,7.87-2.86,11.75s-1.53,8.1.49,11.82c1.85,3.39,7,.37,5.19-3-1.66-3,.08-7.09,1-10.16a50.57,50.57,0,0,0,2.39-13.22c.13-7.37-3-15.4-9.89-18.86a3.06,3.06,0,0,0-4.1,1.07,3,3,0,0,0,1.08,4.11Z"/><path class="cls-2" d="M1207.58,148.45a81,81,0,0,0-5.08,14.32,69.58,69.58,0,0,0-1.55,14.61c-.1,9.53,1.14,19,.89,28.54a54.79,54.79,0,0,1-2.41,15.42,3,3,0,1,0,5.79,1.59c2.91-9.07,2.87-18.7,2.4-28.12-.46-9.23-1.43-18.68.15-27.85a67.59,67.59,0,0,1,5-15.48,3.09,3.09,0,0,0-1.08-4.1c-1.27-.75-3.46-.42-4.1,1.07Z"/><path class="cls-2" d="M1195.41,476.33c-6-.87-13.12-1.27-17.15,4.2-2,2.64-2.46,6.1-2.34,9.31a44.68,44.68,0,0,0,1.77,10.59c2,6.92,5.2,13.4,8.15,19.93,2.76,6.12,5.48,12.71,6,19.38.53,6.23-.5,12.93-4.67,17.84a3.08,3.08,0,0,0,0,4.24,3,3,0,0,0,4.25,0c8.67-10.2,7.48-24.34,3.08-36.12-2.43-6.49-5.68-12.63-8.3-19-2.4-5.84-4.7-12.39-4.31-18.8a7.25,7.25,0,0,1,1.28-4,4.43,4.43,0,0,1,.93-.87,5.28,5.28,0,0,1,1.39-.7c2.51-.83,5.77-.54,8.28-.17a3.11,3.11,0,0,0,3.69-2.1c.39-1.41-.48-3.46-2.09-3.69Z"/><path class="cls-2" d="M1205.69,507.35c.24.42.47.84.68,1.28.1.2.19.41.29.61s.1.24-.08-.18c.05.12.1.24.14.36a19.53,19.53,0,0,1,.8,2.6c.1.44.19.88.26,1.33l.06.38c-.06-.48-.07-.55,0-.22s0,.38,0,.58a18.71,18.71,0,0,1,0,2.9,3,3,0,0,0,3,3,3.06,3.06,0,0,0,3-3,22.76,22.76,0,0,0-3-12.67,3,3,0,1,0-5.18,3Z"/><path class="cls-2" d="M1305.78,315a21.56,21.56,0,0,1,7.28-1.81,10.31,10.31,0,0,1,3.19.24,9.07,9.07,0,0,1,.93.26s.93.38.47.17l.57.29c.11.07,1,.63.7.43,2.1,1.65,2.67,4.42,3,7a61.72,61.72,0,0,1,.5,10.87c-.3,7-2.57,13.55-4.83,20.11a99.4,99.4,0,0,0-5,20.82,82.72,82.72,0,0,0,.86,24.33,3,3,0,0,0,3.69,2.1,3.06,3.06,0,0,0,2.09-3.69,77.6,77.6,0,0,1-.72-22.05c.79-7.32,3-14.28,5.34-21.22,2.48-7.2,4.54-14.4,4.64-22.09a65.46,65.46,0,0,0-.89-11.61c-.55-3.29-1.82-6.6-4.43-8.8-5.25-4.45-13-3.63-19-1.13a3.1,3.1,0,0,0-2.1,3.69c.39,1.41,2.19,2.73,3.69,2.1Z"/><path class="cls-2" d="M1297.67,352c-.92,5.46-1.89,11-1.45,16.58.42,5.21,2,10.17,3.07,15.26a35.85,35.85,0,0,1-.13,14.48c-.93,4.85-2.16,9.71-2.16,14.68,0,5.3,1.38,10.49,4.91,14.54a3,3,0,0,0,4.25-4.25c-5.56-6.37-2.58-16.19-1.17-23.61a42.51,42.51,0,0,0,.5-15.21c-.78-4.78-2.38-9.4-3.08-14.2-.81-5.56.12-11.19,1-16.67a3.08,3.08,0,0,0-2.1-3.69,3,3,0,0,0-3.69,2.09Z"/><path class="cls-2" d="M1257.34,448c-6.84-.26-8.28,7.9-8.12,13.08a106.52,106.52,0,0,0,3.38,22.16c3.48,14.09,8.74,27.87,10.12,42.41a57.2,57.2,0,0,1-2.17,23.48,3,3,0,0,0,5.79,1.6c4.43-13.42,2.79-27.86-.41-41.36s-8.32-26.86-10.11-40.8a46.31,46.31,0,0,1-.55-10.9c-.07.57.08-.46.08-.46.09-.41.19-.82.31-1.22.06-.2.13-.4.2-.59-.16.41.28-.54.34-.64s.58-.76.19-.31c.09-.11.67-.6.18-.25l.22-.14c.3-.16.3-.16,0,0,.34-.08.34-.1,0-.05a2.71,2.71,0,0,1,.57,0,3,3,0,0,0,0-6Z"/><path class="cls-2" d="M1285.28,455.45c.13,0,1.11.35.82.21a1.8,1.8,0,0,1,.71.45,6.25,6.25,0,0,1,1.55,2.07,27.93,27.93,0,0,1,2.08,5.92,74.5,74.5,0,0,1,1.85,30.06c-.8,5.31-2.27,10.48-3.42,15.72-1.33,6.06-2.08,12.16-1,18.32a3,3,0,0,0,3.69,2.1,3.07,3.07,0,0,0,2.09-3.69c-.91-5.28,0-10.67,1.17-15.83,1.22-5.44,2.7-10.8,3.45-16.34a80.3,80.3,0,0,0-2.29-32.82c-1.37-4.81-3.52-10.83-9.1-11.95a3.07,3.07,0,0,0-3.69,2.09,3,3,0,0,0,2.1,3.69Z"/><path class="cls-2" d="M1395.59,319.62a16.36,16.36,0,0,1,4.55-4.29,17.94,17.94,0,0,1,6.26-2.46,20.94,20.94,0,0,1,12.65,1.3c9.27,4.36,14.32,14.7,14.47,24.55.17,12-5.79,23-10.73,33.61-5.45,11.67-10.84,24.65-6.73,37.61,1.91,6,5.19,11.46,7.93,17.11,2.39,4.93,4.36,10.38,3.34,15.62a3.09,3.09,0,0,0,2.1,3.69,3,3,0,0,0,3.69-2.1c2.34-12.07-5.59-22-10-32.42a33,33,0,0,1-2.34-7.89,29.58,29.58,0,0,1,.39-9.93c1.29-6.53,4-12.67,6.79-18.66,5.4-11.58,11.73-23.5,11.55-36.64-.16-11.5-5.91-23.48-16.26-29.13-10.84-5.92-25.71-3.38-32.85,7a3,3,0,1,0,5.18,3Z"/><path class="cls-2" d="M1386.44,347.66c-.32,2.09-.64,4.18-.94,6.27a11.29,11.29,0,0,0,.3,6.1c.65,1.62,1.72,3,2.48,4.55a17.35,17.35,0,0,1,1.44,4.55c1.26,6.55-.7,13.53-2.93,19.68a3,3,0,1,0,5.78,1.6c2.41-6.62,4.16-13.83,3.24-20.91a24.72,24.72,0,0,0-3.54-10,7.14,7.14,0,0,1-1-1.95,5.55,5.55,0,0,1,0-2c.27-2.09.62-4.18.93-6.27a3.1,3.1,0,0,0-2.09-3.69c-1.42-.39-3.45.49-3.69,2.1Z"/><path class="cls-2" d="M1391.78,211.05a29.71,29.71,0,0,1,19.27,8.72,28.66,28.66,0,0,1,6.12,8.87,41.64,41.64,0,0,1,2.84,12.94c.48,5.67.65,11.39.94,17.08a3,3,0,1,0,6,0c-.28-5.46-.47-10.94-.89-16.39a49.84,49.84,0,0,0-3-15.1,35.92,35.92,0,0,0-17.17-18.44,35.4,35.4,0,0,0-14.07-3.68,3,3,0,0,0,0,6Z"/><path class="cls-3" d="M1757.67,682.09s-161.92-106.58-165-199.15c-3.26-99.45,15.19-212.51,165-212.51s158.6,117.46,154.09,215.5C1907.72,573.54,1757.67,682.09,1757.67,682.09Z"/><path class="cls-4" d="M1517.53,798.84c-33.24-133.65,17.72-236.85,266.94-226.11s205,129.9,185.9,244.48-87.71,221.92-227.74,217.21S1550.76,932.5,1517.53,798.84Z"/><rect class="cls-5" x="1568.6" y="313.48" width="366.59" height="69.96" rx="9.01"/><path class="cls-5" d="M1902.69,377.61c-124.3-15.9-173.6-18.72-298.42.46-8.29-61.63-24.55-122-34.2-183.42,116.11-6.08,240.77-6.53,357-2.06C1919.91,254.4,1908.88,315.68,1902.69,377.61Z"/><ellipse class="cls-5" cx="1625.78" cy="201.28" rx="86.06" ry="81.53"/><ellipse class="cls-5" cx="1746.63" cy="119.53" rx="86.06" ry="81.53"/><ellipse class="cls-5" cx="1865.27" cy="200.25" rx="86.06" ry="81.53"/><path class="cls-6" d="M1825.88,490.85c-.09-4.14,10.75-8.33,20.08-8.48,10-.17,21.53,4.27,21.43,8.48s-11.84,8.15-21.73,7.92C1836.83,498.56,1826,495,1825.88,490.85Z"/><path class="cls-6" d="M1638,492.39c-.09-4.13,10.75-8.32,20.09-8.48,10-.17,21.52,4.27,21.43,8.48s-11.85,8.16-21.73,7.93C1649,500.11,1638.1,496.49,1638,492.39Z"/><path class="cls-7" d="M1776.72,517.61a30.16,30.16,0,0,0-23.06-8.43,29.7,29.7,0,0,0-21.14,10.93c-1.86,2.34,2.42,4.58,4.27,2.26a24.33,24.33,0,0,1,17.48-8.76,25.18,25.18,0,0,1,19,7.16c2.14,2.14,5.63-1,3.49-3.16Z"/><ellipse class="cls-8" cx="1705.15" cy="449.49" rx="39.03" ry="35.32"/><ellipse class="cls-8" cx="1799.07" cy="449.49" rx="39.03" ry="35.32"/><ellipse class="cls-9" cx="1811.25" cy="461.96" rx="16.6" ry="15.39"/><ellipse class="cls-9" cx="1715.03" cy="464.4" rx="16.6" ry="15.39"/><ellipse class="cls-9" cx="1779.62" cy="427.39" rx="5.38" ry="4.68"/><ellipse class="cls-9" cx="1683.72" cy="431.6" rx="5.38" ry="4.68"/><path class="cls-8" d="M1659.06,423.75a9.84,9.84,0,0,0,3.59,6.71,11.9,11.9,0,0,0,7.63,2.78,2.25,2.25,0,1,0,0-4.47,10.14,10.14,0,0,1-1.1-.06l.66.08a9.47,9.47,0,0,1-1.31-.25,2.4,2.4,0,0,0-.69-.22c.09,0,.59.23.19.07l-.27-.12a8.1,8.1,0,0,1-1.16-.63l-.3-.19c.62.38.26.17.12.07s-.34-.27-.5-.42l-.47-.44-.2-.21c-.33-.37.23.29.08.1a10.54,10.54,0,0,1-.72-1,2.54,2.54,0,0,0-.29-.54l.16.33-.09-.21a2.77,2.77,0,0,1-.1-.26,6.85,6.85,0,0,1-.32-1.24l.09.59c0-.14,0-.29,0-.44a2.41,2.41,0,0,0-2.47-2.23c-1.25.05-2.59,1-2.48,2.23Z"/><path class="cls-8" d="M1666,419.32c1.36,4.61,6.31,8,11.58,8a2.25,2.25,0,1,0,0-4.47c-.27,0-.53,0-.79,0-.1,0-.51-.05-.06,0s0,0-.12,0a10.81,10.81,0,0,1-1.39-.33l-.3-.11c-.45-.14.51.22.1.05l-.7-.32c-.19-.09-.38-.2-.56-.3a2.39,2.39,0,0,1-.65-.41c.06.1.47.34.14.09l-.29-.23a5.59,5.59,0,0,1-.52-.45q-.26-.24-.48-.48c-.35-.38.21.26.06.08l-.19-.24a7.88,7.88,0,0,1-.72-1.12,1.51,1.51,0,0,1-.11-.22l.14.32c-.05,0-.12-.28-.14-.33-.09-.22-.16-.45-.23-.68a2.55,2.55,0,0,0-3-1.56,2.26,2.26,0,0,0-1.73,2.75Z"/><path class="cls-8" d="M1823,424.29c5.23-.24,10.08-3.75,11.17-8.45a2.26,2.26,0,0,0-1.72-2.75,2.54,2.54,0,0,0-3,1.56,7.79,7.79,0,0,1-.4,1.24c-.16.37,0-.12.08-.17a1.4,1.4,0,0,0-.15.3,6.16,6.16,0,0,1-.33.55,6,6,0,0,1-.36.52l-.22.27c0-.06.43-.47.08-.09a10,10,0,0,1-.94.89c-.16.14-.34.27-.52.41s.49-.33.16-.11l-.31.19a9.43,9.43,0,0,1-1.18.62l-.33.15c.68-.31.31-.12.13-.06l-.59.19a10,10,0,0,1-1.45.28l.66-.08c-.25,0-.49.05-.74.06a2.25,2.25,0,1,0,0,4.48Z"/><path class="cls-8" d="M1829.88,429.61c5.22-.24,10.08-3.74,11.17-8.44a2.26,2.26,0,0,0-1.72-2.75,2.53,2.53,0,0,0-3,1.56,7.79,7.79,0,0,1-.4,1.24c-.16.37,0-.12.08-.17a1.05,1.05,0,0,0-.15.3,6.16,6.16,0,0,1-.33.55c-.11.17-.23.35-.36.52a2.61,2.61,0,0,0-.22.27c0-.07.43-.48.08-.1a8.91,8.91,0,0,1-.94.9l-.52.4c-.22.18.49-.32.16-.11a3.28,3.28,0,0,1-.31.2,9.43,9.43,0,0,1-1.18.62l-.33.14c.68-.3.3-.11.13-.05a5.76,5.76,0,0,1-.59.18,8.86,8.86,0,0,1-1.45.29l.66-.08-.74.06a2.25,2.25,0,1,0,0,4.47Z"/><path class="cls-10" d="M1784.76,572.2c249.23,10.75,205,130,185.91,244.76s-87.71,222.17-227.74,217.46Z"/><ellipse class="cls-11" cx="1742.12" cy="693.92" rx="12.28" ry="11.83"/><ellipse class="cls-11" cx="1737.43" cy="755.02" rx="12.28" ry="11.83"/><ellipse class="cls-11" cx="1731.78" cy="816.91" rx="12.28" ry="11.83"/><ellipse class="cls-11" cx="1799.58" cy="693.14" rx="12.28" ry="11.83"/><ellipse class="cls-11" cx="1799.58" cy="755.02" rx="12.28" ry="11.83"/><ellipse class="cls-11" cx="1794.42" cy="815.69" rx="12.28" ry="11.83"/><path class="cls-12" d="M1603.12,374.23c-14.36-.88-24.22-.1-38.33,2.64-9.28,7.67-10.3,18.58-2.67,27.76s21.12,9.84,27.56,0c5.52,9.72,16.43,14,27.69,10.4S1634,402.3,1638,392.34c18.55,12.22,38.24,9.85,52.64-6.87,17.06,23.92,45.29,27,68.42,8.63,15.21,13,33.71,11.6,47.27-2.69,7.1,9.26,16.63,15.24,29.12,14s20.5-9,25.38-19.47c13.94,16.28,32.79,19.94,52.33,10.06,1.84,4.92,7.21,6.82,12.22,7.52,7.43,1,16,2.93,21.75-2.73,7.7-7.63,3.27-19.18-5.79-24.31s-20-3.81-30.13-3.17c-28.46-24.28-62-24.9-91.15-1.25-16.33-11.66-33.44-12.73-51.31-3.39-25.23-18.06-51.6-19.29-78.53-3.64-2.66,1.54-3.93,3.46-7.54,3.59s-5.81-2.53-9-4.56c-26.55-16.72-54.22-13.78-76,8.6Z"/><path class="cls-12" d="M1603.23,370.13c-13.34-1.43-23.15-.27-36.45,2.87a12.3,12.3,0,0,0-4.49,1.7c-14.41,9.81-11.89,27.82,2.51,37.32,10,6.62,23.18,3.93,29-6.52-2.63,0-5.57.11-8.29.31,6.24,10.65,17.09,16.24,30,13.75,14.54-2.82,21.45-13.8,26.57-26-2.37.42-4.68,1-7,1.53,21.21,13.86,42.73,11.34,59.24-7.54-2.4,0-4.81,0-7.22,0,19,26.15,49.46,29.56,75,9.49l-6,0c17.73,14.75,38.31,12.85,54-3.57-2.45.05-4.9,0-7.34.11,8.26,10.47,19,17.4,33.3,15.88S1859.22,399,1865,387c-2.59.22-5.16.63-7.74.92,15.65,18.13,36.18,22.37,58.11,11.53-2.07-.79-4.18-1.63-6.22-2.39,4.52,9.32,14.84,11.35,24.8,11.51s18.92-3.4,21-13.27c1.74-8.36-2.49-16.64-9.88-21.43-10.19-6.6-22-5.35-33.76-4.61.94.45,2,.8,3,1.21-30.47-25.82-66-26.34-97.12-1.26l6,0c-18.08-12.73-36.56-14.15-56.4-4l5.1.65c-23.91-17.33-48.52-20.27-76-8.91-3,1.23-4.91,3-7.58,4.64-1.48.93-2.48,2.28-4.45,2.85s-3.68-.7-5.3-1.83c-5-3.46-9.38-7.21-15.33-9.36-11.42-4.13-23.14-5.7-35.31-3.14-13.83,2.92-24.73,9.53-33.21,20.37-3.29,4.22,2.62,8.61,6.5,4.51,16.16-17.13,36.11-21.54,58.75-14.37,6.1,1.94,9.27,5.72,14.31,8.9,2.78,1.75,5.09,3.26,8.72,3.18s6.42-2.23,9.47-4.14c10.81-6.79,21.66-11,34.89-10.86,14.83.14,27,5.07,38.61,13.85a4.62,4.62,0,0,0,5.09.65c16.15-8.34,31.3-7.64,46.21,2.76,1.93,1.35,4.1,1.58,6-.05,18.38-16,38.82-19.68,62.51-13.36,5.66,1.51,9.77,4.32,14.48,7.3,2.45,1.54,4.15,3.48,6.35,5.44,1,.86,1.16,1.82,2.79,2.6s4,.29,6.26.14c12.91-.84,27.79-.49,31.15,13.71,1.54,6.49-4.53,9.59-10.58,9.91-3.62.2-7.59-.6-11.36-1.31-2.82-.53-6.2-1.66-7.41-4.33s-3.54-3.78-6.25-2.44c-17.39,8.64-34,5.76-46.49-8.63-2.61-3-6.07-2.32-7.72,1-4.46,8.87-11.06,15.61-21.86,16.57s-18.66-4.22-25-12.12c-2.1-2.64-5-2.37-7.32,0-11.81,12.23-27.46,12.87-40.56,1.89a4.57,4.57,0,0,0-6-.06c-21.12,16.69-46.2,13.81-61.8-7.7-2-2.82-5.1-2.43-7.22,0-12.71,14.32-29.79,16.7-46,6.1-2.83-1.85-5.64-1.49-7,1.63-4,9.09-8.37,17.44-19.15,20.4-8.43,2.31-16.78-.78-21.07-8.28-2.16-3.76-6.26-3.19-8.4.31-3.51,5.73-12.11,5.48-16.92,1.58-9.87-8-7.56-18.35-.28-27a45,45,0,0,1-5.09,2.33,305.3,305.3,0,0,1,39.34-2.2c5.77.08,6.77-7.52.72-8.17Z"/><path class="cls-4" d="M1914,949.07h0c-20.82-6-40.57-13.78-31.79-46.4C1903.08,825,1912.24,802,1913.59,719c.57-34.86,19-36.61,41-37.94h0c22-1.34,38.55,15.24,37.38,40.64-2.78,60.47-21,137.18-31.29,197.2C1956.34,944.14,1934.79,955.06,1914,949.07Z"/><path class="cls-13" d="M1579,951.68h0c20.82-6,40.57-13.77,31.79-46.39-20.9-77.66-30.06-100.65-31.41-183.64-.57-34.87-19-36.61-41-37.95h0c-22-1.33-38.55,15.25-37.38,40.65,2.78,60.46,21,137.18,31.29,197.2C1536.66,946.76,1558.21,957.67,1579,951.68Z"/><path class="cls-14" d="M1604.67,1071.89h138.08c0-33.82-30.91-61.23-69-61.23S1604.67,1038.07,1604.67,1071.89Z"/><path class="cls-14" d="M1750.84,1071.89h138.08c0-33.82-30.91-61.23-69-61.23S1750.84,1038.07,1750.84,1071.89Z"/><g class="cls-15"><path d="M576.86,330.59q19.08-1.3,38.53-2.49l5,92c1.1,20.35-.8,34.83-5.63,42.47s-10.22,9.56-16.21,6.51q-12.56-6.37-25-13.18c-6.76-3.73-12.9-11.83-18.48-23.12a96.28,96.28,0,0,1-10-34.26q-5-54.41-10-108.8a77.8,77.8,0,0,1,4.54-34.21c4.12-11.46,9.78-19.76,17-23.73q12.9-7.1,26-13.73c16.4-8.66,26.33,7.58,29.5,48.48-4.38,1.17-8.73,2.36-13.08,3.56-2.15-19.2-7.06-27.15-14.64-24.06q-6.51,2.59-13,5.28c-3.54,1.47-6.4,5.31-8.55,11.25a44.66,44.66,0,0,0-2.46,18.94l9.45,124.67a52.25,52.25,0,0,0,5,18.92c2.82,5.85,5.94,9.6,9.38,11,7.91,2.5,11.53-5.12,10.81-22.7q-1.79-28-3.56-56l-12.75-.6Q577.77,343.73,576.86,330.59Z"/><path d="M649.13,492.79q-5.42-116.48-10.82-233c-.85-18.18,1-34.5,5.66-49.76s10.65-24.77,18-27.67q13.51-5.29,27.15-10.15c7.43-2.66,14.1,2.67,19.93,16.62s9.06,32.11,9.71,53.8L727.11,522q-13.14-4.22-26.18-8.86l-5.25-151.61q-13.33-.43-26.56-.9Q672,432,674.84,503.36,661.93,498.29,649.13,492.79ZM667.7,325.17q13.27-.68,26.68-1.3-1.32-38-2.63-76c-.36-10.29-2-18.86-4.94-25.49s-6.25-9.34-9.91-8.26-6.74,5.63-9.11,13.39a78.4,78.4,0,0,0-2.95,26.1Q666.26,289.4,667.7,325.17Z"/><path d="M753.5,530q-4.82-187.64-9.65-375.27c2.09-.6,4.19-1.19,6.28-1.77,21.19,54.35,42.16,114.48,62.86,178.49,18.44-64.59,37.36-133,56.73-203.22q7.08-1,14.18-1.83Q886,341.8,888.05,557.2q-13.63-1.65-27.23-3.74-1.61-129.38-3.22-258.76C842,350.33,826.77,404.14,811.83,455.06c-16.68-54.54-33.55-106.71-50.57-155.46q2.79,117,5.57,234.08Q760.16,531.88,753.5,530Z"/><path d="M915.23,560.06q-1.51-218.32-3-436.66,35.43-3.16,71-3.54l0,49.44q-21.24.18-42.47,1.14.33,73.45.65,146.92,14-.11,28-.16l.09,48.93q-13.95,0-27.9-.11.33,73.47.65,146.92,20.57.91,41.17,1.08l0,49.44Q949.31,563.1,915.23,560.06Z"/><path d="M1081.69,124.23q14.22,1.41,28.39,3.27c7.72,1,14.24,11.35,19.51,30.6s7.7,41.46,7.35,66.85q-1.62,116.94-3.23,233.88c-.35,25.26-3.33,47.39-8.89,66.69s-12,29.62-19.46,30.6q-13.6,1.8-27.27,3.15c-7.44.74-13.77-8.22-19-27s-7.8-41.6-7.65-68.31q.69-122.3,1.39-244.58c.15-26.71,3-49.55,8.71-68.28S1073.94,123.45,1081.69,124.23Zm-.8,96.52q-1,121-2,242-.17,19.5,3.73,33.48t9.58,13.43c3.8-.34,7.08-5.36,9.84-15s4.23-20.83,4.37-33.63q1.3-119.2,2.62-238.42.21-19.41-3.82-33.76c-2.69-9.58-6-14.58-9.78-14.93s-7.24,4.06-10.1,13.27S1081,207.61,1080.89,220.75Z"/><path d="M1222.06,149.56q13.85,3.65,27.57,7.75-3.15,114.81-6.32,229.62c-1.06,38.27-6.44,71.73-16.1,102s-20.66,47.78-33.2,50.8q-17.27,4.14-34.65,7.56,3.47-205.27,6.92-410.55,14,2.75,27.91,5.95-3.57,177.21-7.12,354.42,6.75-1.2,13.47-2.47c3.73-.71,7-5.62,9.81-14.57a110.76,110.76,0,0,0,4.63-30.62Z"/><path d="M1265.74,519.17Q1271.37,342.56,1277,166q34.1,11.39,67.44,25.6-.76,16.89-1.55,33.77-19.91-6.66-40.13-12.54-2,55.76-4.1,111.5,13.33.65,26.55,1.34-.75,17.33-1.48,34.66-13.15.48-26.43.93l-4.11,111.49q19.59-5.58,38.9-11.91-.78,16.89-1.55,33.78Q1298.53,508.23,1265.74,519.17Z"/><path d="M1356.1,483.18q7.47-139.87,15-279.76,26.4,12.29,52.16,26.39c7,3.87,12.66,12.2,16.87,23.81a79.23,79.23,0,0,1,4.65,35q-.54,6-1.09,12.06a75.32,75.32,0,0,1-8.32,28.07c-4.65,9.06-11.45,14-20.52,13.9l12.5.21c3.44.07,6.2,2.44,8.26,6.85s2.8,9.52,2.25,15.61l-7.08,78.57q-12.17,7.2-24.51,13.95,2.83-38,5.66-76c.52-7-.28-12.74-2.41-17.61s-4.92-7.35-8.36-7.19l-12.75.6q-3.55,56.67-7.1,113.35Q1368.75,477.29,1356.1,483.18Zm34-153.7,12.8.86c3.46.24,6.62-2.21,9.51-7a39.29,39.29,0,0,0,5.11-17.47l1.89-25.42a45.57,45.57,0,0,0-2.49-19.25c-2.17-6-5-9.91-8.52-11.36q-6.47-2.67-13-5.25Q1392.8,287,1390.13,329.48Z"/></g></svg>