<svg id="Layer_1" data-name="Layer 1" xmlns="http://www.w3.org/2000/svg" width="931" height="920" viewBox="0 0 931 920"><defs><style>.cls-1{fill:#fff;}.cls-2{fill:#bd0000;}.cls-3{fill:#063;}.cls-4{fill:#001300;}.cls-5{fill:#666;}.cls-6{fill:#ccc;}.cls-7{fill:#d6d6d6;}.cls-8{fill:#dbdbdb;}.cls-9{fill:#ffb14c;}.cls-10{fill:#bf7617;}.cls-11{fill:#ffc479;}.cls-12{fill:#ff66a6;}.cls-13{fill:#48b14c;}.cls-14{fill:#ffa5ac;}.cls-15{fill:#333;}.cls-16{fill:gray;}.cls-17{fill:#a80000;}.cls-18{opacity:0.29;}.cls-19{fill:#ff3f65;}.cls-20{opacity:0.82;}.cls-21{fill:#760000;}.cls-22{opacity:0.45;}.cls-23{opacity:0.31;}.cls-24{opacity:0.67;}.cls-25{opacity:0.52;}.cls-26{opacity:0.42;}.cls-27{opacity:0.19;}.cls-28{opacity:0.47;}.cls-29{opacity:0.46;}.cls-30{opacity:0.59;}.cls-31{opacity:0.6;}.cls-32{opacity:0.48;}.cls-33{fill:#e1c933;}.cls-34{fill:#fff5aa;}.cls-35{fill:#fff7bb;}.cls-36{fill:#fffbdd;}.cls-37{fill:#e5db99;}.cls-38{fill:#ccc7ac;}.cls-39{fill:#dbd8c6;}.cls-40{fill:#e6e6e6;}</style></defs><path class="cls-1" d="M724.07,69.31a1.5,1.5,0,0,0,0-3,1.5,1.5,0,0,0,0,3Z"/><path class="cls-2" d="M193.66,228.11c-43.23,1.33-89.87-19.59-90.1-66.46s42.91-94.58,88.13-92.32S281,109.62,283,157.8,236.89,226.79,193.66,228.11Z"/><path class="cls-3" d="M137.62,65.11s11.81-7.65,62.93,21.1,50.78,42.84,50.78,42.84C259,115.36,239.81,90,208.41,72.3S145.32,51.42,137.62,65.11Z"/><path class="cls-3" d="M223.55,46.34s-7.6,4.28-6.24,40,9.26,39.42,9.26,39.42c-9.77.37-18.37-17.1-19.21-39S213.77,46.71,223.55,46.34Z"/><path class="cls-3" d="M217.72,85.81c44.91-37.53,56.17-34.33,56.17-34.33-7.82-9.37-36.53,1.72-64.11,24.77Z"/><path class="cls-3" d="M206.37,82.49c-37.08,31.94-35.56,42.15-35.56,42.15-7.19-8.34,5.45-31,28.22-50.62Z"/><path class="cls-3" d="M209.39,75.93c58.17,6.13,65.55-1,65.55-1-1,9.89-30.85,14.85-66.58,11.08Z"/><path class="cls-3" d="M193.4,89.73c-38.92-3.34-44.27,7.51-44.27,7.51,1.21-14.17,21.58-24,45.49-21.94Z"/><path class="cls-3" d="M202.49,76.57c3.23,42.59-6.05,48.12-6.05,48.12,12.17-.92,20.43-22.88,18.44-49Z"/><ellipse class="cls-4" cx="194.29" cy="149.56" rx="13.82" ry="13.13"/><ellipse class="cls-4" cx="227.54" cy="149.56" rx="13.82" ry="13.13"/><ellipse class="cls-1" cx="231.85" cy="154.2" rx="5.88" ry="5.72"/><ellipse class="cls-1" cx="197.79" cy="155.1" rx="5.88" ry="5.72"/><ellipse class="cls-1" cx="220.66" cy="141.35" rx="1.91" ry="1.74"/><ellipse class="cls-1" cx="186.71" cy="142.91" rx="1.91" ry="1.74"/><path class="cls-4" d="M178,140a3.69,3.69,0,0,0,1.27,2.49,4.07,4.07,0,0,0,2.7,1,.87.87,0,0,0,.88-.83.88.88,0,0,0-.88-.83l-.39,0,.23,0a2.52,2.52,0,0,1-.46-.1,1.21,1.21,0,0,0-.25-.08s.21.09.07,0l-.09-.05a2.06,2.06,0,0,1-.41-.23l-.11-.07c.22.14.09.07,0,0a1.22,1.22,0,0,1-.17-.15l-.17-.16-.07-.08c-.12-.14.08.11,0,0s-.18-.25-.26-.39a.93.93,0,0,0-.1-.2l.06.12a.25.25,0,0,1,0-.07l0-.1a2.37,2.37,0,0,1-.11-.46l0,.22a.88.88,0,0,1,0-.16.88.88,0,0,0-.88-.84.86.86,0,0,0-.87.84Z"/><path class="cls-4" d="M180.44,138.35a4.28,4.28,0,0,0,4.1,3,.83.83,0,1,0,0-1.66h-.28s-.18,0,0,0,0,0-.05,0a2.92,2.92,0,0,1-.49-.12l-.11,0c-.15,0,.19.08,0,0l-.25-.12-.2-.11c-.05,0-.19-.09-.22-.15s.16.12,0,0l-.11-.08-.18-.17-.17-.18c-.12-.14.07.1,0,0l-.07-.09a2.91,2.91,0,0,1-.25-.42.2.2,0,0,1,0-.08l0,.12s0-.1,0-.12a2.41,2.41,0,0,1-.08-.25.89.89,0,0,0-1.08-.58.84.84,0,0,0-.61,1Z"/><path class="cls-4" d="M236,140.19a4.26,4.26,0,0,0,4-3.13.85.85,0,0,0-.62-1,.9.9,0,0,0-1.07.58,3.5,3.5,0,0,1-.14.46c-.06.14,0,0,0-.06s-.05.1-.06.11a2.12,2.12,0,0,1-.11.21l-.13.19-.08.1s.15-.18,0,0a3.51,3.51,0,0,1-.33.34l-.19.15.06,0-.11.07a2.82,2.82,0,0,1-.42.23l-.12,0c.24-.11.11,0,.05,0l-.21.07a2.89,2.89,0,0,1-.51.11l.23,0-.26,0a.83.83,0,1,0,0,1.66Z"/><path class="cls-4" d="M238.45,142.17a4.24,4.24,0,0,0,4-3.13.85.85,0,0,0-.61-1,.89.89,0,0,0-1.07.58,3.5,3.5,0,0,1-.14.46c-.06.14,0,0,0-.06s-.05.1-.06.11l-.11.21-.13.19-.08.1s.15-.18,0,0-.22.23-.33.34l-.19.15.06,0-.11.07a2.82,2.82,0,0,1-.42.23l-.12.05c.24-.11.11,0,0,0l-.21.07a3.1,3.1,0,0,1-.51.11l.23,0-.26,0a.83.83,0,1,0,0,1.66Z"/><path class="cls-1" d="M204.39,176.46a9.76,9.76,0,0,0,9.39,5.74,9.91,9.91,0,0,0,8.59-6.84c.58-1.85-2.31-2.64-2.89-.8a6.79,6.79,0,0,1-5.91,4.65,6.9,6.9,0,0,1-6.59-4.27,1.51,1.51,0,0,0-2-.54,1.55,1.55,0,0,0-.54,2.06Z"/><path class="cls-1" d="M235.3,171.08a1.5,1.5,0,0,0,0-3,1.5,1.5,0,0,0,0,3Z"/><path class="cls-1" d="M235.3,177.06a1.5,1.5,0,0,0,0-3,1.5,1.5,0,0,0,0,3Z"/><path class="cls-1" d="M240.67,172.88a1.5,1.5,0,0,0,0-3,1.5,1.5,0,0,0,0,3Z"/><path class="cls-1" d="M192.89,171.68a1.5,1.5,0,0,0,0-3,1.5,1.5,0,0,0,0,3Z"/><path class="cls-1" d="M193.48,177.65a1.5,1.5,0,0,0,0-3,1.5,1.5,0,0,0,0,3Z"/><path class="cls-1" d="M186.91,174.67a1.5,1.5,0,0,0,0-3,1.5,1.5,0,0,0,0,3Z"/><path class="cls-1" d="M752.14,223.88a1.5,1.5,0,0,0,0-3,1.5,1.5,0,0,0,0,3Z"/><path class="cls-1" d="M740.25,235.7a.38.38,0,0,0,0-.75.38.38,0,0,0,0,.75Z"/><path class="cls-5" d="M737,168c6.4-4.18,14.41,1.85,12.5,12.88-3,17.43-18.38,23.47-26.28,22.11-9.54-1.66-13.74-15.26,4-18.94C735.06,182.39,731.7,171.41,737,168Z"/><path class="cls-6" d="M612.61,135.44c14.27-19.61,34.33-40.94,50.49-59.19,5.74-6.47,8.81-6.4,13.91-.73,21.34,23.73,45.1,46.82,68.61,68,5.62,5.06,5.56,8.76.59,13.77-14,14.13-27.58,28.68-39.41,44.76-4.21,5.71-7.54,6.53-13.69,1.74-25.71-20-50.55-38-78.43-55C608,144.71,607.54,142.4,612.61,135.44Z"/><path class="cls-7" d="M663.09,76.59c5.73-6.48,8.81-6.4,13.91-.73a936.53,936.53,0,0,0,68.61,68c5.62,5.07,5.56,8.76.58,13.78-14,14.12-27.57,28.68-39.41,44.75"/><path class="cls-5" d="M744.45,165.31c9.08-6.29,20.28,2.56,17.44,19-4.49,25.92-26.22,35.12-37.32,33.2-13.41-2.33-19.14-22.48,5.91-28.19C741.56,186.77,737,170.49,744.45,165.31Z"/><rect class="cls-8" x="697.46" y="178.41" width="59.09" height="6.73" rx="3.34" transform="translate(1334.65 -256.8) rotate(130.14)"/><path class="cls-1" d="M735.16,211.31a1.5,1.5,0,0,0,0-3,1.5,1.5,0,0,0,0,3Z"/><path class="cls-1" d="M737.54,200.45a1.5,1.5,0,0,0,0-3,1.5,1.5,0,0,0,0,3Z"/><path class="cls-1" d="M747.73,203.84a1.5,1.5,0,0,0,0-3,1.5,1.5,0,0,0,0,3Z"/><path class="cls-1" d="M746.37,189.58a1.5,1.5,0,0,0,0-3,1.5,1.5,0,0,0,0,3Z"/><path class="cls-1" d="M754.52,182.11a1.5,1.5,0,0,0,0-3,1.5,1.5,0,0,0,0,3Z"/><path class="cls-1" d="M725.31,212.33a1.5,1.5,0,0,0,0-3,1.5,1.5,0,0,0,0,3Z"/><path class="cls-7" d="M755,194a1.5,1.5,0,0,0,0-3,1.5,1.5,0,0,0,0,3Z"/><path class="cls-1" d="M737.52,192.51a1.5,1.5,0,0,0,0-3,1.5,1.5,0,0,0,0,3Z"/><path class="cls-1" d="M754.66,194a1.5,1.5,0,0,0,0-3,1.5,1.5,0,0,0,0,3Z"/><path class="cls-1" d="M727.64,205.29a1.5,1.5,0,0,0,0-3,1.5,1.5,0,0,0,0,3Z"/><path class="cls-1" d="M743.62,210.23a1.5,1.5,0,0,0,0-3,1.5,1.5,0,0,0,0,3Z"/><path d="M680.29,118.3a20.36,20.36,0,0,0-10,6.28c-4.13,4.9-3.63,10.22.6,13.79,3.91,3.3,7.82,3.21,14.22,0,7.53-4,14.23-4.77,20.14.21,6.52,5.51,7.33,14.38,1.25,21.59a20,20,0,0,1-9,6.48l-3.3-5.05a17.6,17.6,0,0,0,7.93-5.37c4.27-5.06,2.48-9.87-.38-12.28-3.91-3.3-7.74-2.67-14.3.56-8,4-14.13,4.28-20.29-.91-6.46-5.45-8.48-14.4-1.1-23.16,3-3.57,7.5-6.49,10.66-7.21Z"/><path class="cls-5" d="M553.9,134.12c6.4-4.18,14.42,1.86,12.51,12.89-3,17.42-18.39,23.46-26.29,22.1-9.54-1.65-13.74-15.26,4-18.94C552,148.55,548.62,137.56,553.9,134.12Z"/><path class="cls-6" d="M429.53,101.59C443.8,82,463.87,60.65,480,42.41c5.74-6.48,8.82-6.4,13.92-.73,21.33,23.73,45.09,46.81,68.61,68,5.62,5.07,5.55,8.76.58,13.77-14,14.13-27.57,28.68-39.41,44.76-4.21,5.71-7.54,6.53-13.68,1.74-25.71-20-50.56-38-78.44-55C424.94,110.86,424.46,108.55,429.53,101.59Z"/><path class="cls-7" d="M480,42.74c5.74-6.48,8.81-6.4,13.91-.73a936.51,936.51,0,0,0,68.61,68c5.62,5.07,5.56,8.76.59,13.78-14,14.12-27.58,28.68-39.42,44.76"/><path class="cls-5" d="M561.24,131.43c9-6.34,20.29,2.45,17.54,18.88-4.36,25.95-26,35.26-37.15,33.4-13.42-2.25-19.25-22.38,5.77-28.22C558.46,152.91,553.79,136.65,561.24,131.43Z"/><rect class="cls-8" x="514.38" y="144.57" width="59.09" height="6.73" rx="3.34" transform="translate(1007.67 -172.52) rotate(130.14)"/><path class="cls-1" d="M552.08,177.47a1.5,1.5,0,0,0,0-3,1.5,1.5,0,0,0,0,3Z"/><path class="cls-1" d="M554.46,166.6a1.5,1.5,0,0,0,0-3,1.5,1.5,0,0,0,0,3Z"/><path class="cls-1" d="M542.24,178.49a1.5,1.5,0,0,0,0-3,1.5,1.5,0,0,0,0,3Z"/><path class="cls-1" d="M545.49,171.88a1.5,1.5,0,0,0,0-3,1.5,1.5,0,0,0,0,3Z"/><path class="cls-1" d="M562.34,176a1.5,1.5,0,0,0,0-3,1.5,1.5,0,0,0,0,3Z"/><path class="cls-1" d="M562.34,160a1.5,1.5,0,0,0,0-3,1.5,1.5,0,0,0,0,3Z"/><path class="cls-1" d="M565.25,165.49a1.5,1.5,0,0,0,0-3,1.5,1.5,0,0,0,0,3Z"/><path class="cls-1" d="M571.93,160a1.5,1.5,0,0,0,0-3,1.5,1.5,0,0,0,0,3Z"/><path class="cls-1" d="M565.83,153a1.5,1.5,0,0,0,0-3,1.5,1.5,0,0,0,0,3Z"/><path class="cls-1" d="M574.25,153a1.5,1.5,0,0,0,0-3,1.5,1.5,0,0,0,0,3Z"/><path class="cls-1" d="M573.38,145.74a1.5,1.5,0,0,0,0-3,1.5,1.5,0,0,0,0,3Z"/><path d="M530.2,114.91a83.81,83.81,0,0,1-8.41,10.78c-4.72,5.2-9.35,7.94-13.66,8.45a14.16,14.16,0,0,1-11.5-3.94c-3.57-3.25-5.39-6.89-5.58-10.81-.34-5.39,2.31-11.25,7-16.39a25.29,25.29,0,0,1,4.2-3.91L486.41,84.72l4.78-5.26Zm-23.81-12a24.34,24.34,0,0,0-4.37,4c-5.76,6.34-6.29,12.93-.84,17.88,5.21,4.73,11.19,3.21,16.46-2.59a30.26,30.26,0,0,0,4.09-5.33Z"/><path class="cls-9" d="M193,440.91c-27.63,0-50-8.9-50-19.88s22.41-31,50-31,50.05,20,50.05,31S220.59,440.91,193,440.91Z"/><ellipse class="cls-10" cx="192" cy="479.61" rx="107" ry="83.39"/><ellipse class="cls-9" cx="191.61" cy="479.65" rx="79.39" ry="83.65"/><ellipse class="cls-11" cx="191.91" cy="479.91" rx="46.09" ry="83.65"/><ellipse cx="216.02" cy="449.44" rx="20.92" ry="20.79"/><ellipse cx="170.41" cy="449.93" rx="20.92" ry="20.79"/><ellipse class="cls-1" cx="212.25" cy="460.12" rx="8.75" ry="9.88"/><path class="cls-1" d="M165.71,447.33c0-1.6,1.17-3.9,2.61-3.9a2.92,2.92,0,0,1,0,5.81C166.88,449.24,165.71,448.94,165.71,447.33Z"/><ellipse class="cls-1" cx="218.43" cy="446.18" rx="2.61" ry="2.9"/><ellipse class="cls-1" cx="177.47" cy="458.88" rx="8.75" ry="9.88"/><path d="M156.31,428.1a7,7,0,0,0,3.34,4.88,1.5,1.5,0,0,0,1.52-2.59,5.85,5.85,0,0,1-.55-.37l.3.23a5.35,5.35,0,0,1-1-1l.24.31c-.31-.4-.57.16-.76-.3.05.12.1-.76.15-.64a5.21,5.21,0,0,1-.36-1.34,1.5,1.5,0,0,0-1.85-1,1.51,1.51,0,0,0-.9.69l-.15.35a1.55,1.55,0,0,0,0,.8Z"/><path d="M159.93,426.26a7.06,7.06,0,0,0,4.89,5.48,1.5,1.5,0,1,0,.79-2.89c-.18-.06-.36-.12-.54-.2l.36.15a5.54,5.54,0,0,1-1.2-.7l.3.23a5.8,5.8,0,0,1-1-1l.24.3a5.84,5.84,0,0,1-.75-1.25c.06.12.11,1.24.16,1.35a14.44,14.44,0,0,1-.36-2.28,1.56,1.56,0,0,0-.69-.9,1.61,1.61,0,0,0-1.16-.15,1.59,1.59,0,0,0-.9.69,1.78,1.78,0,0,0-.15,1.16Z"/><path d="M226.47,426.67q0,.36-.06.72l.06-.4c-.06.4-.14,1.8-.26,2.18,0,.1-.07-.8-.11-.7s-.21.46,0,0c-.09.18-.17.37-.26.54s-.2.35-.31.52l-.18.27-.09.13.11-.15a8.25,8.25,0,0,1-.86.91,1.51,1.51,0,0,0,0,2.12,1.55,1.55,0,0,0,2.12,0,8.64,8.64,0,0,0,2.83-6.16,1.5,1.5,0,0,0-3,0Z"/><path d="M230.18,429.72c0,.26,0-.3,0-.11a1.23,1.23,0,0,1,0,.2c0,.12,0,.24,0,.37s0,.27,0,.41,0,.19,0,.2.06-.38,0-.16a5.47,5.47,0,0,1-.19.8,2.42,2.42,0,0,1-.12.35c-.09.23,0,0,0-.1a1.63,1.63,0,0,0-.09.19,5.51,5.51,0,0,1-.38.67l-.13.18c.16-.2,0,0,0,0l-.14.16a7.15,7.15,0,0,1-.57.53c-.19.16.23-.16.08-.06l-.17.11c-.11.08-.23.15-.35.22a1.52,1.52,0,0,0-.54,2,1.54,1.54,0,0,0,2.06.54,6.93,6.93,0,0,0,2.8-3,7.3,7.3,0,0,0,.62-4.39,1.5,1.5,0,0,0-.69-.89,1.49,1.49,0,0,0-2,.53,1.72,1.72,0,0,0-.15,1.16Z"/><path class="cls-12" d="M186.58,496a6.49,6.49,0,0,1-8.15-1.59c-.73,3.73.51,7.11,2.76,7.55S185.85,499.71,186.58,496Z"/><path d="M176.82,494.78A28,28,0,0,0,204,495c1.69-.93.18-3.52-1.51-2.59a24.86,24.86,0,0,1-24.13-.24,1.5,1.5,0,0,0-1.52,2.59Z"/><path d="M202.44,490.32a8.12,8.12,0,0,0,5.42,5.14,1.5,1.5,0,0,0,.8-2.9,5.66,5.66,0,0,1-.79-.27l.36.15a6.63,6.63,0,0,1-1.43-.84l.3.23a6.93,6.93,0,0,1-1.18-1.18l.24.31a6.94,6.94,0,0,1-.84-1.44l.15.36-.14-.36a1.63,1.63,0,0,0-.69-.9,1.59,1.59,0,0,0-1.15-.15,1.52,1.52,0,0,0-1.05,1.85Z"/><path class="cls-13" d="M182.28,390.53c2.73-10.93-2.93-22.59-11.33-30.1s-19.17-11.71-29.69-15.75a57,57,0,0,1,48,13.49,447,447,0,0,1,2.17-87.31l13,100.51a45.28,45.28,0,0,1,26.36-6.65,127.67,127.67,0,0,0-27.15,26.88"/><path class="cls-13" d="M183.72,390.93c2.06-8.55-.53-17.44-5.49-24.52-5.36-7.65-13.22-12.93-21.54-16.92-4.9-2.34-10-4.31-15-6.26v2.89a55.61,55.61,0,0,1,46.5,13.11c.89.8,2.66.32,2.56-1.06a448,448,0,0,1,.23-68.24q.77-9.56,1.94-19.07h-3L200,349.09l2.87,22.28a1.52,1.52,0,0,0,2.26,1.29,44.32,44.32,0,0,1,25.6-6.44l-.76-2.8a131.64,131.64,0,0,0-27.69,27.43c-1.15,1.54,1.45,3,2.59,1.51A127.1,127.1,0,0,1,231.46,366a1.51,1.51,0,0,0-.75-2.79,47.16,47.16,0,0,0-27.11,6.85l2.25,1.3-10.09-78.23-2.87-22.28a1.5,1.5,0,0,0-3,0A447.61,447.61,0,0,0,186.73,339q.28,9.59,1,19.14l2.56-1.06a58.88,58.88,0,0,0-37.77-14.84,57.58,57.58,0,0,0-11.65,1c-1.6.3-1.23,2.42,0,2.89,15.54,6,33.67,13.35,39.28,30.66a24.56,24.56,0,0,1,.69,13.35c-.45,1.88,2.44,2.68,2.89.8Z"/><path class="cls-13" d="M183.64,391.45a142.25,142.25,0,0,1,20.54.37c1.92.17,1.91-2.83,0-3a142.25,142.25,0,0,0-20.54-.37c-1.92.11-1.93,3.11,0,3Z"/><path class="cls-14" d="M214.73,480.77c0-1.51,4.62-3,8.63-3.1,4.31-.06,9.25,1.56,9.21,3.1s-5.09,3-9.34,2.9C219.43,483.59,214.77,482.27,214.73,480.77Z"/><path class="cls-14" d="M152.93,480.43c0-1.51,4.62-3,8.63-3.1,4.32-.06,9.26,1.56,9.22,3.1s-5.1,3-9.34,2.89C157.64,483.25,153,481.93,152.93,480.43Z"/><rect class="cls-15" x="61.42" y="680.89" width="334.58" height="192.11" rx="14"/><rect class="cls-16" x="66.62" y="685" width="324.38" height="184" rx="14"/><rect x="69.05" y="686.64" width="318.28" height="180.91" rx="14"/><path class="cls-17" d="M77.45,714c6.68-5.42,15.64-5.14,23.73-4.25,8.55.94,17,2.88,25.61,3.27S143.64,712,151,707.47c4.75-2.89,8.82-6.25,14.64-6.4,5.09-.12,10.14,1.81,14.82,3.62,9.46,3.65,18.4,7.55,28.74,7.45,10.56-.1,20.75-3.31,31.21-4.19,4.93-.4,10-.35,14.68,1.31,5.19,1.83,9.42,5.59,14.5,7.69,10.56,4.36,20.81,0,30.71-4,12.7-5.12,25.62-6,39.19-5.71,14.08.25,28.15,1,42.2,2.06,6.42.49,6.38-9.51,0-10q-19.21-1.47-38.48-2c-11.83-.29-23.86-.36-35.42,2.54-10.69,2.68-23.39,12.38-34.63,7.77-4.91-2-9-5.61-13.95-7.52a39.92,39.92,0,0,0-14.89-2.41c-10.79.14-21.2,3.54-31.92,4.26-11.25.76-20.49-3.71-30.76-7.53-9.54-3.54-19.42-5-28.74,0-4.33,2.33-8,5.62-12.76,7.19a36.78,36.78,0,0,1-13.37,1.41c-19.08-.87-39.76-9.61-56.41,3.91-5,4.06,2.11,11.1,7.07,7.07Z"/><g class="cls-18"><path class="cls-19" d="M83.49,710.78c5-1.6,9.72-2.56,14.86-1.28l2.66-9.64A67.35,67.35,0,0,0,89.49,699c-6.42.1-6.44,10.1,0,10a52.45,52.45,0,0,1,8.86.52c6.2,1,9.05-8,2.66-9.64-6.85-1.71-13.53-.87-20.18,1.28-6.1,2-3.49,11.62,2.66,9.64Z"/></g><g class="cls-20"><path class="cls-19" d="M358.92,698.12H349.4c-6.43,0-6.44,10,0,10h9.52c6.43,0,6.44-10,0-10Z"/></g><path class="cls-17" d="M77.09,726.92c6.68-5.42,15.64-5.15,23.73-4.25,8.56.94,17,2.88,25.61,3.27s16.85-1.1,24.24-5.59c4.74-2.89,8.81-6.26,14.63-6.4,5.09-.13,10.14,1.81,14.82,3.62,9.46,3.65,18.4,7.55,28.74,7.45,10.56-.1,20.75-3.32,31.22-4.19,4.92-.41,10-.35,14.67,1.31,5.19,1.83,9.42,5.59,14.5,7.69,10.56,4.36,20.81,0,30.71-4,12.71-5.13,25.62-6,39.19-5.71,14.08.25,28.16,1,42.2,2.06,6.42.49,6.39-9.51,0-10q-19.22-1.47-38.48-2c-11.82-.29-23.86-.36-35.41,2.54-10.7,2.68-23.4,12.38-34.64,7.77-4.9-2-9-5.61-13.95-7.53A40.3,40.3,0,0,0,244,710.62c-10.78.15-21.2,3.55-31.92,4.27-11.25.76-20.49-3.71-30.76-7.53-9.54-3.55-19.42-5-28.74,0-4.33,2.32-8,5.62-12.75,7.18a36.65,36.65,0,0,1-13.38,1.42c-19.07-.87-39.75-9.61-56.41,3.91-5,4.06,2.11,11.1,7.07,7.07Z"/><path class="cls-17" d="M77.09,737.92c6.68-5.42,15.64-5.15,23.73-4.25,8.56.94,17,2.88,25.61,3.27s16.85-1.1,24.24-5.59c4.74-2.89,8.81-6.26,14.63-6.4,5.09-.13,10.14,1.81,14.82,3.62,9.46,3.65,18.4,7.55,28.74,7.45,10.56-.1,20.75-3.32,31.22-4.19,4.92-.41,10-.35,14.67,1.31,5.19,1.83,9.42,5.59,14.5,7.69,10.56,4.36,20.81,0,30.71-4,12.71-5.13,25.62-6,39.19-5.71,14.08.25,28.16,1,42.2,2.06,6.42.49,6.39-9.51,0-10q-19.22-1.47-38.48-2c-11.82-.29-23.86-.36-35.41,2.54-10.7,2.68-23.4,12.38-34.64,7.77-4.9-2-9-5.61-13.95-7.53A40.3,40.3,0,0,0,244,721.62c-10.78.15-21.2,3.55-31.92,4.27-11.25.76-20.49-3.71-30.76-7.53-9.54-3.55-19.42-5-28.74,0-4.33,2.32-8,5.62-12.75,7.18a36.65,36.65,0,0,1-13.38,1.42c-19.07-.87-39.75-9.61-56.41,3.91-5,4.06,2.11,11.1,7.07,7.07Z"/><path class="cls-17" d="M78.09,751.92c6.68-5.42,15.64-5.15,23.73-4.25,8.56.94,17,2.88,25.61,3.27s16.85-1.1,24.24-5.59c4.74-2.89,8.81-6.26,14.63-6.4,5.09-.13,10.14,1.81,14.82,3.62,9.46,3.65,18.4,7.55,28.74,7.45,10.56-.1,20.75-3.32,31.22-4.19,4.92-.41,10-.35,14.67,1.31,5.19,1.83,9.42,5.59,14.5,7.69,10.56,4.36,20.81,0,30.71-4,12.71-5.13,25.62-6,39.19-5.71,14.08.25,28.16,1,42.2,2.06,6.42.49,6.39-9.51,0-10q-19.22-1.47-38.48-2c-11.82-.29-23.86-.36-35.41,2.54-10.7,2.68-23.4,12.38-34.64,7.77-4.9-2-9-5.61-13.95-7.53A40.3,40.3,0,0,0,245,735.62c-10.78.15-21.2,3.55-31.92,4.27-11.25.76-20.49-3.71-30.76-7.53-9.54-3.55-19.42-5-28.74,0-4.33,2.32-8,5.62-12.75,7.18a36.65,36.65,0,0,1-13.38,1.42c-19.07-.87-39.75-9.61-56.41,3.91-5,4.06,2.11,11.1,7.07,7.07Z"/><path class="cls-17" d="M79.5,789.47c6.68-5.42,15.64-5.15,23.73-4.25,8.56.94,17,2.88,25.61,3.27s16.86-1.1,24.24-5.59c4.74-2.89,8.81-6.26,14.63-6.4,5.09-.13,10.14,1.81,14.82,3.62,9.46,3.65,18.4,7.55,28.75,7.45,10.55-.1,20.74-3.32,31.21-4.19,4.92-.41,10-.35,14.68,1.31,5.18,1.83,9.42,5.59,14.49,7.69,10.56,4.36,20.81,0,30.71-4,12.71-5.12,25.62-5.95,39.19-5.71,14.08.25,28.16,1,42.2,2.06,6.42.49,6.39-9.51,0-10q-19.22-1.47-38.48-2c-11.82-.29-23.86-.36-35.41,2.54-10.7,2.68-23.4,12.38-34.64,7.77-4.9-2-9-5.61-13.94-7.52a40.19,40.19,0,0,0-14.9-2.42c-10.78.15-21.2,3.55-31.92,4.27-11.25.76-20.48-3.71-30.76-7.53-9.54-3.55-19.42-5-28.74,0-4.33,2.32-8,5.62-12.75,7.18a36.65,36.65,0,0,1-13.38,1.42c-19.07-.87-39.75-9.61-56.41,3.91-5,4.06,2.11,11.1,7.07,7.07Z"/><path class="cls-17" d="M78.5,776.47c6.68-5.42,15.64-5.15,23.73-4.25,8.56.94,17,2.88,25.61,3.27s16.86-1.1,24.24-5.59c4.74-2.89,8.81-6.26,14.63-6.4,5.09-.13,10.14,1.81,14.82,3.62,9.46,3.65,18.4,7.55,28.75,7.45,10.55-.1,20.74-3.32,31.21-4.19,4.92-.41,10-.35,14.68,1.31,5.18,1.83,9.42,5.59,14.49,7.69,10.56,4.36,20.81,0,30.71-4,12.71-5.12,25.62-5.95,39.19-5.71,14.08.25,28.16,1,42.2,2.06,6.42.49,6.39-9.51,0-10q-19.22-1.47-38.48-2c-11.82-.29-23.86-.36-35.41,2.54-10.7,2.68-23.4,12.38-34.64,7.77-4.9-2-9-5.61-13.94-7.52a40.19,40.19,0,0,0-14.9-2.42c-10.78.15-21.2,3.55-31.92,4.27-11.25.76-20.48-3.71-30.76-7.53-9.54-3.55-19.42-5-28.74,0-4.33,2.32-8,5.62-12.75,7.18a36.65,36.65,0,0,1-13.38,1.42c-19.07-.87-39.75-9.61-56.41,3.91-5,4.06,2.11,11.1,7.07,7.07Z"/><path class="cls-17" d="M78.5,762.92c6.68-5.42,15.64-5.15,23.73-4.25,8.56.94,17,2.88,25.61,3.27s16.86-1.1,24.24-5.59c4.74-2.89,8.81-6.26,14.63-6.4,5.09-.13,10.14,1.81,14.82,3.62,9.46,3.65,18.4,7.55,28.75,7.45,10.55-.1,20.74-3.32,31.21-4.19,4.92-.41,10-.35,14.68,1.31,5.18,1.83,9.42,5.59,14.49,7.69,10.56,4.36,20.81,0,30.71-4,12.71-5.13,25.62-6,39.19-5.71,14.08.25,28.16,1,42.2,2.06,6.42.49,6.39-9.51,0-10q-19.22-1.47-38.48-2c-11.82-.29-23.86-.36-35.41,2.54-10.7,2.68-23.4,12.38-34.64,7.77-4.9-2-9-5.61-13.94-7.53a40.38,40.38,0,0,0-14.9-2.41c-10.78.15-21.2,3.55-31.92,4.27-11.25.76-20.48-3.71-30.76-7.53-9.54-3.55-19.42-5-28.74,0-4.33,2.32-8,5.62-12.75,7.18a36.65,36.65,0,0,1-13.38,1.42c-19.07-.87-39.75-9.61-56.41,3.91-5,4.06,2.11,11.1,7.07,7.07Z"/><path class="cls-17" d="M77.5,803.47c6.68-5.42,15.64-5.15,23.73-4.25,8.56.94,17,2.88,25.61,3.27s16.86-1.1,24.24-5.59c4.74-2.89,8.81-6.26,14.63-6.4,5.09-.13,10.14,1.81,14.82,3.62,9.46,3.65,18.4,7.55,28.75,7.45,10.55-.1,20.74-3.32,31.21-4.19,4.92-.41,10-.35,14.68,1.31,5.18,1.83,9.42,5.59,14.49,7.69,10.56,4.36,20.81,0,30.71-4,12.71-5.12,25.62-5.95,39.19-5.71,14.08.25,28.16,1,42.2,2.06,6.42.49,6.39-9.51,0-10q-19.22-1.47-38.48-2c-11.82-.29-23.86-.36-35.41,2.54-10.7,2.68-23.4,12.38-34.64,7.77-4.9-2-9-5.61-13.94-7.52a40.19,40.19,0,0,0-14.9-2.42c-10.78.15-21.2,3.55-31.92,4.27-11.25.76-20.48-3.71-30.76-7.53-9.54-3.55-19.42-5-28.74,0-4.33,2.32-8,5.62-12.75,7.18a36.65,36.65,0,0,1-13.38,1.42c-19.07-.87-39.75-9.61-56.41,3.91-5,4.06,2.11,11.1,7.07,7.07Z"/><path class="cls-17" d="M77.5,816.47c6.68-5.42,15.64-5.15,23.73-4.25,8.56.94,17,2.88,25.61,3.27s16.86-1.1,24.24-5.59c4.74-2.89,8.81-6.26,14.63-6.4,5.09-.13,10.14,1.81,14.82,3.62,9.46,3.65,18.4,7.55,28.75,7.45,10.55-.1,20.74-3.32,31.21-4.19,4.92-.41,10-.35,14.68,1.31,5.18,1.83,9.42,5.59,14.49,7.69,10.56,4.36,20.81,0,30.71-4,12.71-5.12,25.62-5.95,39.19-5.71,14.08.25,28.16,1,42.2,2.06,6.42.49,6.39-9.51,0-10q-19.22-1.47-38.48-2c-11.82-.29-23.86-.36-35.41,2.54-10.7,2.68-23.4,12.38-34.64,7.77-4.9-2-9-5.61-13.94-7.52a40.19,40.19,0,0,0-14.9-2.42c-10.78.15-21.2,3.55-31.92,4.27-11.25.76-20.48-3.71-30.76-7.53-9.54-3.55-19.42-5-28.74,0-4.33,2.32-8,5.62-12.75,7.18a36.65,36.65,0,0,1-13.38,1.42c-19.07-.87-39.75-9.61-56.41,3.91-5,4.06,2.11,11.1,7.07,7.07Z"/><path class="cls-17" d="M78.5,828.47c6.68-5.42,15.64-5.15,23.73-4.25,8.56.94,17,2.88,25.61,3.27s16.86-1.1,24.24-5.59c4.74-2.89,8.81-6.26,14.63-6.4,5.09-.13,10.14,1.81,14.82,3.62,9.46,3.65,18.4,7.55,28.75,7.45,10.55-.1,20.74-3.32,31.21-4.19,4.92-.41,10-.35,14.68,1.31,5.18,1.83,9.42,5.59,14.49,7.69,10.56,4.36,20.81,0,30.71-4,12.71-5.12,25.62-5.95,39.19-5.71,14.08.25,28.16,1,42.2,2.06,6.42.49,6.39-9.51,0-10q-19.22-1.47-38.48-2c-11.82-.29-23.86-.36-35.41,2.54-10.7,2.68-23.4,12.38-34.64,7.77-4.9-2-9-5.61-13.94-7.52a40.19,40.19,0,0,0-14.9-2.42c-10.78.15-21.2,3.55-31.92,4.27-11.25.76-20.48-3.71-30.76-7.53-9.54-3.55-19.42-5-28.74,0-4.33,2.32-8,5.62-12.75,7.18a36.65,36.65,0,0,1-13.38,1.42c-19.07-.87-39.75-9.61-56.41,3.91-5,4.06,2.11,11.1,7.07,7.07Z"/><path class="cls-17" d="M79.5,842.47c6.68-5.42,15.64-5.15,23.73-4.25,8.56.94,17,2.88,25.61,3.27s16.86-1.1,24.24-5.59c4.74-2.89,8.81-6.26,14.63-6.4,5.09-.13,10.14,1.81,14.82,3.62,9.46,3.65,18.4,7.55,28.75,7.45,10.55-.1,20.74-3.32,31.21-4.19,4.92-.41,10-.35,14.68,1.31,5.18,1.83,9.42,5.59,14.49,7.69,10.56,4.36,20.81,0,30.71-4,12.71-5.12,25.62-5.95,39.19-5.71,14.08.25,28.16,1,42.2,2.06,6.42.49,6.39-9.51,0-10q-19.22-1.47-38.48-2c-11.82-.29-23.86-.36-35.41,2.54-10.7,2.68-23.4,12.38-34.64,7.77-4.9-2-9-5.61-13.94-7.52a40.19,40.19,0,0,0-14.9-2.42c-10.78.15-21.2,3.55-31.92,4.27-11.25.76-20.48-3.71-30.76-7.53-9.54-3.55-19.42-5-28.74,0-4.33,2.32-8,5.62-12.75,7.18a36.65,36.65,0,0,1-13.38,1.42c-19.07-.87-39.75-9.61-56.41,3.91-5,4.06,2.11,11.1,7.07,7.07Z"/><path class="cls-17" d="M77.54,856.47c6.71-5.42,15.72-5.15,23.84-4.25,8.59.94,17.07,2.88,25.72,3.27s16.93-1.1,24.35-5.59c4.77-2.89,8.85-6.26,14.7-6.4,5.12-.13,10.19,1.81,14.89,3.62,9.5,3.65,18.48,7.55,28.87,7.45,10.61-.1,20.84-3.32,31.35-4.19,5-.41,10-.35,14.75,1.31,5.21,1.83,9.46,5.59,14.56,7.69,10.61,4.36,20.9,0,30.85-4,12.76-5.12,25.74-5.95,39.37-5.71,14.14.25,28.28,1,42.39,2.06,6.44.49,6.41-9.51,0-10q-19.31-1.47-38.65-2c-11.88-.29-24-.36-35.58,2.54-10.74,2.68-23.5,12.38-34.8,7.77-4.92-2-9-5.61-14-7.52a40.53,40.53,0,0,0-15-2.42c-10.84.15-21.3,3.55-32.07,4.27-11.3.76-20.58-3.71-30.9-7.53-9.58-3.55-19.51-5-28.87,0-4.35,2.32-8.07,5.62-12.81,7.18a37,37,0,0,1-13.44,1.42c-19.16-.87-39.93-9.61-56.66,3.91-5,4.06,2.12,11.1,7.1,7.07Z"/><path class="cls-21" d="M83.33,866.62c17.72-3.4,35.32,1.62,53.08,1.13,8.38-.24,14.35-3.19,21.82-6.46,8-3.48,17.75-.79,25.53,2.05,6.06,2.21,8.67-7.45,2.66-9.64-7.74-2.83-16.81-4.94-25.07-3.69-4.35.65-8,2.63-12,4.53a30.45,30.45,0,0,1-13,3.21c-18.79.52-37-4.38-55.74-.77-6.31,1.21-3.64,10.85,2.66,9.64Z"/><path class="cls-21" d="M184.81,862.72c12.51,3.56,24.23,4.66,37,2.13,12-2.38,26.78-3.68,38.42,1.11,5.94,2.45,8.53-7.22,2.65-9.64-10.9-4.5-25-4-36.49-2.4-6.19.87-12.2,2.67-18.5,2.66-7,0-13.76-1.6-20.44-3.5-6.2-1.76-8.85,7.88-2.66,9.64Z"/><path class="cls-21" d="M303.85,866.78A260.81,260.81,0,0,1,378,864.61c6.39.72,6.33-9.29,0-10a269.16,269.16,0,0,0-76.82,2.53c-6.33,1.11-3.65,10.75,2.65,9.64Z"/><path class="cls-21" d="M78.94,700.17a110.09,110.09,0,0,1,18-1.83c5.48,0,10.86,1.5,16.38,1.59,11,.2,23.69,2.05,33.78-3.28,5.69-3,.64-11.65-5.05-8.64-5.08,2.69-11,2.16-16.57,2.08-5.82-.07-11.81.25-17.6-.36-4.88-.52-9.27-1.54-14.24-1.25-5.82.35-11.62,1.11-17.38,2-6.34,1-3.65,10.67,2.66,9.65Z"/><path class="cls-21" d="M191.61,695.65c12.43,8.45,27.55,6.34,41.54,4.25,7.74-1.15,15.94-2.33,23.63-.26,6.8,1.83,12.73,6,20,6.09,7.51.14,14.34-3.37,21.63-4.54,8.11-1.3,16.66-1.06,24.86-1.33,17.45-.58,35-.63,52.34,1.84,6.3.9,9-8.73,2.66-9.64A295.59,295.59,0,0,0,329,689.69c-8.26.2-16.53.44-24.77.95-7.74.47-14.57,2.82-22.06,4.45-8.05,1.74-13.72-2.24-21.08-4.59-7.16-2.3-14.81-2.24-22.21-1.39-13.87,1.57-29.69,6.44-42.25-2.09-5.34-3.63-10.35,5-5,8.63Z"/><g class="cls-22"><path class="cls-19" d="M86.25,734.25c8.23-2.53,16,.31,24.28.45,6.44.11,6.44-9.89,0-10-9.43-.16-17.56-3-26.94-.09-6.13,1.88-3.51,11.54,2.66,9.64Z"/></g><g class="cls-23"><path class="cls-19" d="M351.67,732q13.17.69,26.35.63c5.76,0,6.64-8.1,1.33-9.82l-1.49-.49c-6.14-2-8.77,7.65-2.66,9.64l1.49.49L378,722.6q-13.18.06-26.35-.63c-6.43-.34-6.41,9.66,0,10Z"/></g><g class="cls-24"><path class="cls-19" d="M123.45,735.78c6.44,0,6.45-10,0-10s-6.44,10,0,10Z"/></g><g class="cls-25"><path class="cls-19" d="M184.29,742.43a65.51,65.51,0,0,0,44.32,4.77c6.26-1.49,3.61-11.13-2.66-9.64a54.38,54.38,0,0,1-36.61-3.77c-5.77-2.78-10.85,5.84-5.05,8.64Z"/></g><g class="cls-26"><path class="cls-19" d="M184.46,766.88c8.25,5,16.16,6.25,25.7,6.78,6,.34,18.78,1.61,22.34-4.66.8-1.4,1.06-3.67,0-5l-.26-.34c-3.88-5-12.57-.05-8.64,5l.27.34v-5c1-1.74-1.63-.59-2.58-.47a47.17,47.17,0,0,1-4.75.33c-3,.07-6.08-.1-9.11-.33-6.88-.52-12-1.62-17.92-5.24-5.51-3.36-10.54,5.29-5,8.64Z"/></g><g class="cls-27"><path class="cls-19" d="M77.5,763.21A32,32,0,0,1,98,760c6.29,1.11,9-8.52,2.66-9.65a43.47,43.47,0,0,0-28.2,4.2c-5.71,3-.66,11.59,5,8.64Z"/></g><g class="cls-28"><path class="cls-19" d="M338.17,809.17q20.81.45,41.53,2.41c6.4.61,6.36-9.4,0-10q-20.73-2-41.53-2.41c-6.44-.14-6.44,9.86,0,10Z"/></g><g class="cls-29"><path class="cls-19" d="M282.6,813.32c-7.4,2.54-13.43-6-18.88-9.66-6.58-4.46-14.05-4.71-21.74-4.17-6.38.44-6.43,10.44,0,10,4.65-.33,9.74-.87,14.07,1.22,3.34,1.6,6,4.37,8.81,6.66,5.8,4.69,12.89,8.17,20.4,5.59,6.05-2.08,3.45-11.74-2.66-9.64Z"/></g><g class="cls-29"><path class="cls-19" d="M77,840.86a50.69,50.69,0,0,1,29.1-1.74c6.26,1.48,8.93-8.16,2.66-9.64a60.45,60.45,0,0,0-34.42,1.74c-6,2.14-3.43,11.8,2.66,9.64Z"/></g><g class="cls-30"><path class="cls-19" d="M365.48,850.73l16.72,1.63c6.4.62,6.36-9.38,0-10l-16.72-1.63c-6.4-.62-6.35,9.38,0,10Z"/></g><g class="cls-31"><path class="cls-19" d="M138.32,801.48c5.48-.6,9.44-3,14-6,5.27-3.54,10.7-5.12,17-3.67s8.94-8.19,2.66-9.64a30,30,0,0,0-18,1.07c-5.22,2.06-9.95,7.66-15.57,8.28-6.33.69-6.4,10.69,0,10Z"/></g><g class="cls-32"><path class="cls-19" d="M181.59,847.73c8.26,5,16.16,6.25,25.71,6.79,6,.34,18.77,1.6,22.33-4.66.8-1.41,1.07-3.67,0-5.05l-.26-.34c-3.88-5-12.57-.05-8.63,5l.26.35v-5.05c1-1.74-1.63-.6-2.58-.48a44.23,44.23,0,0,1-4.75.33,89.37,89.37,0,0,1-9.11-.33c-6.87-.52-12-1.62-17.92-5.23-5.51-3.36-10.54,5.28-5,8.63Z"/></g><ellipse cx="286.11" cy="727.11" rx="20.92" ry="20.79"/><ellipse cx="240.51" cy="727.6" rx="20.92" ry="20.79"/><ellipse class="cls-1" cx="286.34" cy="732.78" rx="8.75" ry="9.88"/><path class="cls-1" d="M230.81,718c0-1.6,1.17-3.9,2.61-3.9a2.91,2.91,0,0,1,0,5.8C232,719.9,230.81,719.6,230.81,718Z"/><ellipse class="cls-1" cx="282.53" cy="716.84" rx="2.61" ry="2.9"/><ellipse class="cls-1" cx="240.57" cy="733.55" rx="8.75" ry="9.88"/><path class="cls-1" d="M251.61,770.68a28,28,0,0,0,27.16.25c1.69-.93.18-3.52-1.51-2.59a24.86,24.86,0,0,1-24.13-.25,1.5,1.5,0,0,0-1.52,2.59Z"/><path class="cls-1" d="M276.47,766.26a8.14,8.14,0,0,0,5.42,5.14,1.5,1.5,0,0,0,.8-2.9,5.66,5.66,0,0,1-.79-.27l.36.15a6.63,6.63,0,0,1-1.43-.84l.3.23a6.54,6.54,0,0,1-1.17-1.18l.23.31a6.46,6.46,0,0,1-.84-1.44l.15.36-.13-.36a1.5,1.5,0,0,0-1.85-1.05,1.54,1.54,0,0,0-1,1.85Z"/><path class="cls-33" d="M546.56,731.16l-4.26-1c33.62-166.4,29.89-259.52,10.46-426.58l4.31-.64C576.66,470.51,580.27,564.31,546.56,731.16Z"/><rect class="cls-33" x="504.64" y="310.21" width="4.36" height="421.39" transform="translate(-37.15 38.92) rotate(-4.24)"/><path class="cls-34" d="M524,731.05l-8.35-1.42C522.74,706.8,517,409,532.31,306.25l8.87,1.35C526,408.87,530.08,711.37,524,731.05Z"/><path class="cls-34" d="M545.91,730.38l-9-.65C544,569,546.23,466,495.72,310.44l8.44-3.11C555.11,464.18,552.91,568.38,545.91,730.38Z"/><rect class="cls-35" x="514.64" y="313.21" width="8.98" height="421.39" transform="translate(82.97 -70.85) rotate(8.48)"/><path class="cls-36" d="M499.91,731.86l-8.4-.42c1.22-128.8,6.82-303.37,20-419.84l8.35.34C501.94,408.45,501,615.41,499.91,731.86Z"/><rect class="cls-36" x="551.64" y="306.21" width="8.98" height="421.39" transform="translate(-45.17 53.33) rotate(-5.28)"/><path class="cls-37" d="M486.12,733.84l-4.18-.15c6.75-152.31,14.2-266.41-2.64-420.77l4.15-.52C500.24,467,492.88,581.29,486.12,733.84Z"/><path class="cls-37" d="M565.92,729.78l4.17-.15c-6.75-152.31-14.19-266.41,2.65-420.77l-4.15-.52C551.8,462.9,559.16,577.23,565.92,729.78Z"/><path class="cls-34" d="M527.56,733.71l5.28-2.52c-38.13-154.77-61.23-254.5-63.5-416.37l-5.75-1.24C465.87,476.83,489.18,577.67,527.56,733.71Z"/><ellipse class="cls-4" cx="504.23" cy="359.14" rx="13.82" ry="13.13"/><ellipse class="cls-4" cx="537.49" cy="359.14" rx="13.82" ry="13.13"/><ellipse class="cls-1" cx="541.79" cy="363.78" rx="5.88" ry="5.72"/><ellipse class="cls-1" cx="507.73" cy="364.69" rx="5.88" ry="5.72"/><ellipse class="cls-1" cx="530.6" cy="350.93" rx="1.91" ry="1.74"/><ellipse class="cls-1" cx="496.65" cy="352.49" rx="1.91" ry="1.74"/><path class="cls-4" d="M487.92,349.58a3.73,3.73,0,0,0,1.27,2.49,4.17,4.17,0,0,0,2.7,1,.84.84,0,1,0,0-1.67,2.55,2.55,0,0,1-.39,0l.24,0a3.55,3.55,0,0,1-.47-.09,1.17,1.17,0,0,0-.24-.09s.21.09.07,0l-.1,0a3.38,3.38,0,0,1-.41-.24l-.11-.07,0,0a1.37,1.37,0,0,1-.18-.16l-.17-.16-.07-.08c-.12-.14.08.11,0,0a4.13,4.13,0,0,1-.25-.38c0-.06-.06-.16-.11-.21l.06.12,0-.07a.42.42,0,0,1,0-.1,2.37,2.37,0,0,1-.11-.46l0,.22c0-.05,0-.11,0-.16a.88.88,0,0,0-1.75,0Z"/><path class="cls-4" d="M490.38,347.93a4.28,4.28,0,0,0,4.1,3,.83.83,0,1,0,0-1.66h-.28s-.18,0,0,0,0,0,0,0a2.72,2.72,0,0,1-.49-.13l-.11,0c-.16-.06.18.07,0,0a1.92,1.92,0,0,1-.25-.12l-.2-.11c-.06,0-.2-.09-.23-.15s.17.13.05,0l-.11-.08-.18-.17-.17-.18c-.12-.14.07.1,0,0l-.07-.09a3.45,3.45,0,0,1-.25-.41l0-.08.05.11s0-.1-.05-.12a2.41,2.41,0,0,1-.08-.25.89.89,0,0,0-1.08-.58.84.84,0,0,0-.61,1Z"/><path class="cls-4" d="M546,349.78a4.27,4.27,0,0,0,4-3.14.85.85,0,0,0-.61-1,.9.9,0,0,0-1.08.59,2.69,2.69,0,0,1-.14.46c-.06.13,0-.05,0-.07s0,.1-.06.12l-.11.2a2.14,2.14,0,0,1-.13.19l-.08.1s.16-.17,0,0a3.43,3.43,0,0,1-.33.33l-.18.15c-.08.06.17-.12,0,0l-.11.07a2.38,2.38,0,0,1-.41.23l-.12.06,0,0-.2.06a3,3,0,0,1-.52.11l.23,0-.26,0a.84.84,0,1,0,0,1.67Z"/><path class="cls-4" d="M548.39,351.76a4.27,4.27,0,0,0,4-3.14.85.85,0,0,0-.61-1,.9.9,0,0,0-1.08.59,4,4,0,0,1-.14.46c-.06.13,0-.05,0-.07s0,.1-.06.12l-.11.2-.13.19-.08.1s.15-.17,0,0a3.43,3.43,0,0,1-.33.33l-.19.15.06,0-.11.07a2.13,2.13,0,0,1-.42.23l-.12.06c.24-.12.11-.05,0,0l-.21.06a2.89,2.89,0,0,1-.51.11l.23,0-.26,0a.84.84,0,1,0,0,1.67Z"/><path class="cls-38" d="M791.68,421.76a15.24,15.24,0,0,1-4.36-1.69c-4.67-2.76-4.86-8.05-4.79-13.12a43.72,43.72,0,0,0-1.73-13.09c-3.06-6-6.3-10.87-9.66-14.18a7.35,7.35,0,0,0-2.51-.29c-10,5.63-19.14,12.58-28.06,19.85l-.35.28c-5,6.91-2.22,19-9.82,24.05-10.08,33.23-16.46,75.25-16.46,98.41,0,42.25,21.22,76.49,47.38,76.49s47.39-34.24,47.39-76.49C808.71,498.39,802.09,455.25,791.68,421.76Z"/><path class="cls-38" d="M755.31,418.65C726.25,405.94,664,492.43,648.39,531.4S643.73,612.27,672.8,625s65.27-8.57,80.85-47.54S784.38,431.37,755.31,418.65Z"/><path class="cls-38" d="M878.17,528.93c-12-29.9-52-87.5-83.76-106.68a18.38,18.38,0,0,1-7.09-2.18,8.5,8.5,0,0,1-2.77-2.57c-5.8-2-11.12-2.27-15.69-.26-30.39,13.29-16.32,120.86-.73,159.83s52.85,59.79,83.24,46.5S893.76,567.9,878.17,528.93Z"/><path class="cls-39" d="M841.79,553.07C836,513.76,800.3,419.58,774.14,423.82s-32.91,105.3-27.09,144.6S778.8,636.15,805,631.91,847.61,592.37,841.79,553.07Z"/><path class="cls-39" d="M758.68,423.82c-26.16-4.24-61.83,89.94-67.65,129.25s10.66,74.6,36.82,78.84,52.09-24.19,57.91-63.49S784.84,428.06,758.68,423.82Z"/><path class="cls-39" d="M778,511.69c-.86-39.3-6.14-133.49-10-129.25s-4.88,105.3-4,144.6,4.7,67.73,8.58,63.49S778.84,551,778,511.69Z"/><path class="cls-39" d="M778,511.69c-.86-39.3-6.14-133.49-10-129.25s-4.88,105.3-4,144.6,4.7,67.73,8.58,63.49S778.84,551,778,511.69Z"/><path class="cls-39" d="M767.12,519.46c-.86-39.3-6.15-133.48-10-129.24s-4.88,105.29-4,144.59,4.71,67.73,8.59,63.49S768,558.77,767.12,519.46Z"/><path class="cls-40" d="M764.08,422.43c-26.48,0-47.94,98.78-47.94,138.56s21.46,72,47.94,72S812,600.76,812,561,790.55,422.43,764.08,422.43Z"/><path class="cls-38" d="M763,420.14a9.46,9.46,0,0,1,2.06,0c.08,0,.29,0,0,0l.21,0,.52.11c.34.09.68.19,1,.31v-2.5c-.93.27-1.87.49-2.82.68l-1.43.25-.33.05c.28,0-.08,0-.11,0l-.78.09.33,2.55.16-.06c.16-.06,0,0-.09,0s.12,0,.16,0c.22,0-.18-.06-.05,0s.21.08.05,0,0,0,0,0,.2.13,0,0,0,.05.05.08l.25-2-1.47.82a1.34,1.34,0,0,0-.44,1.77,1.23,1.23,0,0,0,1.69.46l1.47-.81a1.34,1.34,0,0,0,.25-2,2.55,2.55,0,0,0-2.77-.73,1.3,1.3,0,0,0-.88,1.42,1.23,1.23,0,0,0,1.21,1.12,36.63,36.63,0,0,0,6.13-1.17,1.31,1.31,0,0,0,.91-1.25,1.35,1.35,0,0,0-.91-1.25,10.28,10.28,0,0,0-4.5-.55,1.29,1.29,0,0,0-1.24,1.29c0,.65.55,1.37,1.24,1.3Z"/><path class="cls-40" d="M763.38,388.11c-3.86,0-6.63,98.81-6.5,138.58s3.38,72,7.23,72,6.86-32.27,6.72-72S767.23,388.1,763.38,388.11Z"/><ellipse class="cls-4" cx="750.63" cy="472.92" rx="11.41" ry="11.34"/><ellipse class="cls-4" cx="778.09" cy="472.92" rx="11.41" ry="11.34"/><ellipse class="cls-1" cx="781.65" cy="476.92" rx="4.85" ry="4.94"/><ellipse class="cls-1" cx="753.52" cy="477.71" rx="4.85" ry="4.94"/><ellipse class="cls-1" cx="772.41" cy="465.82" rx="1.57" ry="1.5"/><ellipse class="cls-1" cx="744.37" cy="467.17" rx="1.57" ry="1.5"/><path class="cls-4" d="M737.16,464.66a3.25,3.25,0,0,0,1.05,2.15,3.29,3.29,0,0,0,2.23.89.72.72,0,0,0,.72-.71.73.73,0,0,0-.72-.72l-.32,0,.19,0a1.61,1.61,0,0,1-.38-.08c-.06,0-.15-.07-.21-.07a.38.38,0,1,0,.06,0l-.08,0a2.39,2.39,0,0,1-.34-.21l-.09-.06c.19.12.08.06,0,0l-.15-.13-.13-.14-.06-.07c-.1-.12.07.1,0,0a2.66,2.66,0,0,1-.21-.33.89.89,0,0,0-.08-.17l0,.1a.14.14,0,0,1,0-.06l0-.09a1.72,1.72,0,0,1-.1-.39l0,.19c0-.05,0-.1,0-.14a.72.72,0,1,0-1.44,0Z"/><path class="cls-4" d="M739.19,463.23a3.56,3.56,0,0,0,3.38,2.57.74.74,0,0,0,.73-.72.73.73,0,0,0-.73-.71h-.23s-.14,0,0,0,0,0,0,0a2.6,2.6,0,0,1-.4-.1l-.09,0c-.13,0,.15.07,0,0l-.21-.1-.16-.1a.64.64,0,0,1-.19-.13s.14.11,0,0l-.09-.08-.15-.14-.14-.16c-.1-.12.06.09,0,0l-.06-.08a2.12,2.12,0,0,1-.21-.36l0-.07,0,.11s0-.09,0-.11,0-.14-.07-.22a.72.72,0,0,0-.88-.5.73.73,0,0,0-.51.88Z"/><path class="cls-4" d="M785.09,464.83a3.56,3.56,0,0,0,3.27-2.71.72.72,0,0,0-1.39-.39,2.64,2.64,0,0,1-.12.4c-.05.12,0,0,0-.05s0,.08,0,.1l-.09.17-.11.17s-.07.08-.06.09.12-.16,0,0a2.57,2.57,0,0,1-.28.29.93.93,0,0,1-.15.13c-.06.06.14-.1.05,0l-.09.06-.35.2-.09,0c.19-.09.09,0,0,0l-.17.06a3.15,3.15,0,0,1-.42.09l.19,0-.22,0a.72.72,0,0,0,0,1.44Z"/><path class="cls-4" d="M787.1,466.54a3.56,3.56,0,0,0,3.27-2.71.73.73,0,0,0-1.4-.39,2.62,2.62,0,0,1-.11.4c-.05.12,0,0,0,0a.3.3,0,0,0,0,.1l-.1.17a1.63,1.63,0,0,1-.11.17l-.06.09s.13-.16,0,0a1.86,1.86,0,0,1-.27.29l-.15.13,0,0-.09.06a3.79,3.79,0,0,1-.34.2l-.1,0c.2-.09.09,0,0,0l-.17.06a3,3,0,0,1-.43.09l.2,0-.22,0a.72.72,0,0,0,0,1.44Z"/><path class="cls-14" d="M786.52,491.93c0-1.31,3.82-2.63,7.13-2.68,3.56-.05,7.64,1.35,7.61,2.68s-4.21,2.57-7.72,2.5C790.41,494.36,786.55,493.22,786.52,491.93Z"/><path class="cls-14" d="M731.9,492.18c0-1.31,3.85-2.63,7.2-2.68,3.59-.05,7.71,1.35,7.68,2.68s-4.25,2.57-7.79,2.5C735.82,494.61,731.93,493.47,731.9,492.18Z"/><path d="M759.34,502.56a8.05,8.05,0,0,0,7.76,5,8.28,8.28,0,0,0,7.09-5.91,1.24,1.24,0,1,0-2.39-.69,5.38,5.38,0,0,1-10.32.33,1.21,1.21,0,0,0-1.69-.46,1.36,1.36,0,0,0-.45,1.77Z"/></svg>