<svg id="Layer_1" data-name="Layer 1" xmlns="http://www.w3.org/2000/svg" width="152.12" height="362.67" viewBox="0 0 152.12 362.67"><defs><style>.cls-1{fill:#ff7d00;}.cls-2{fill:#ec5f00;}.cls-3{fill:#599f00;}.cls-4{fill:#fff;}</style></defs><path class="cls-1" d="M113,113.81,90,263.44,76,354.26c-1.72,11.22-19.77,11.22-21.5,0l-14-90.82-23-149.63a8.86,8.86,0,0,1,.77-5.18c0,.54-.08,1.09-.08,1.64,0,15,21,27.07,46.8,27.07s46.8-12.12,46.8-27.07a17,17,0,0,0-.24-2.76A8.9,8.9,0,0,1,113,113.81Z"/><path class="cls-1" d="M111.83,110.27c0,15-21,27.07-46.8,27.07s-46.8-12.12-46.8-27.07c0-.55,0-1.1.08-1.64a11,11,0,0,1,10-5.92h73.94a11.14,11.14,0,0,1,9.35,4.79h0A17,17,0,0,1,111.83,110.27Z"/><path class="cls-1" d="M111.59,107.5a11.14,11.14,0,0,0-9.35-4.79H28.3a11,11,0,0,0-10,5.92C19.78,94.44,40.13,83.2,65,83.2,89.26,83.2,109.19,93.85,111.59,107.5Z"/><path class="cls-2" d="M24,141.6l27.27-.54c1.93,0,1.94-3,0-3L24,138.6c-1.93,0-1.93,3,0,3Z"/><path class="cls-2" d="M103.31,152.87a34.53,34.53,0,0,1-20.06-.2c-1.85-.59-2.63,2.31-.8,2.89a37.34,37.34,0,0,0,21.66.2c1.85-.54,1.06-3.44-.8-2.89Z"/><path class="cls-2" d="M38.5,166.51A48.29,48.29,0,0,0,56,165.28a1.3,1.3,0,1,0-.77-2.48,46.06,46.06,0,0,1-16.71,1.13,1.38,1.38,0,0,0-1.44,1.29c0,.77.67,1.2,1.44,1.29Z"/><path class="cls-2" d="M56.77,183c14.46.35,29.19.64,43.24-3a1.3,1.3,0,1,0-.76-2.49c-13.81,3.56-28.27,3.23-42.48,2.89a1.29,1.29,0,1,0,0,2.58Z"/><path class="cls-2" d="M32.52,200.9l18.37-.47c5.43-.14,11-.25,16.09-2.13,1.68-.63,1-3.12-.76-2.49-5,1.86-10.46,1.92-15.81,2.06l-17.89.45a1.29,1.29,0,1,0,0,2.58Z"/><path class="cls-2" d="M40.25,243.11a29.91,29.91,0,0,0,17.18-2.48c1.63-.78.18-3-1.45-2.23a26.29,26.29,0,0,1-15,2.22,1.51,1.51,0,0,0-1.76.9,1.29,1.29,0,0,0,1,1.59Z"/><path class="cls-2" d="M64.91,261.56A102.38,102.38,0,0,0,87,260.13c1.81-.31,1-2.79-.77-2.48A99.69,99.69,0,0,1,64.91,259a1.29,1.29,0,1,0,0,2.57Z"/><path class="cls-2" d="M53,223.35h8.52a1.3,1.3,0,1,0,0-2.58H53a1.3,1.3,0,1,0,0,2.58Z"/><path class="cls-2" d="M44.09,281,50,282a1.69,1.69,0,0,0,1.11-.13,1.31,1.31,0,0,0,.66-.77,1.29,1.29,0,0,0-1-1.58l-5.94-.91a1.7,1.7,0,0,0-1.11.13,1.35,1.35,0,0,0-.66.77,1.3,1.3,0,0,0,1,1.58Z"/><path class="cls-2" d="M82,272a6.7,6.7,0,0,0,1.41.07,7.62,7.62,0,0,0,1.43-.23,6.6,6.6,0,0,0,2.41-1.29,1.2,1.2,0,0,0,0-1.82,1.57,1.57,0,0,0-2,0,3.44,3.44,0,0,1-.36.28l.29-.2a5.83,5.83,0,0,1-1,.55l.34-.13a5.55,5.55,0,0,1-1.17.28l.39,0a4.9,4.9,0,0,1-1.21,0l.38.05h-.06a1.77,1.77,0,0,0-1.11.13,1.38,1.38,0,0,0-.66.77,1.22,1.22,0,0,0,.15,1A1.37,1.37,0,0,0,82,272Z"/><path class="cls-2" d="M48.77,304.43A28.36,28.36,0,0,0,66.92,301c1.54-.9.1-3.14-1.45-2.23a25.07,25.07,0,0,1-15.94,3.2,1.52,1.52,0,0,0-1.76.9,1.29,1.29,0,0,0,1,1.59Z"/><path class="cls-2" d="M67.88,336.86a12.74,12.74,0,0,0,8.9-3.34,1.21,1.21,0,0,0,0-1.82,1.59,1.59,0,0,0-2,0,9.88,9.88,0,0,1-.77.66l-.19.15-.1.07-.11.07a1.37,1.37,0,0,1-.2.13c-.3.18-.6.35-.91.51l-.45.2-.23.1s-.34.13-.17.07l-.12,0-.24.08-.47.14a9.22,9.22,0,0,1-1,.24l-.5.07c.3,0-.14,0-.24,0-.37,0-.75,0-1.13,0a1.29,1.29,0,1,0,0,2.57Z"/><path class="cls-2" d="M85.57,221l9.53-1.46a1.28,1.28,0,0,0,1-1.58,1.48,1.48,0,0,0-1.76-.9l-9.53,1.46a1.28,1.28,0,0,0-1,1.58,1.49,1.49,0,0,0,1.76.9Z"/><path class="cls-2" d="M66.9,127.38a92,92,0,0,0,40.3-6c1.69-.66.24-2.88-1.44-2.22A89,89,0,0,1,66.9,124.8c-1.84-.14-1.83,2.44,0,2.58Z"/><path class="cls-3" d="M58,88.14a72.37,72.37,0,0,0-22.17,30.24,77,77,0,0,0,20-18.55l10,9.35c2.11-6.09,7.37-10.8,12.45-15.25,20.41-17.89,43.89-37,72.4-37-12-.63-24.22-1.26-36.1.67S91,64.25,83.44,72.68a124.21,124.21,0,0,0-2.55-50.83,285.48,285.48,0,0,0-9.33,34.86c-6-9.33-3.31-22-10.56-30.58-2.91-3.44-7.1-5.78-11.19-8L19.54,1.3A158.81,158.81,0,0,1,61.35,60,126.42,126.42,0,0,1,6.64,54.42c13,13.63,39.68,4.64,56.1,14.82-22.6-4.74-47.94,4-61.26,21A109.24,109.24,0,0,1,56.66,78.22,23.62,23.62,0,0,0,42.12,91.56l13.57-2.63"/><path class="cls-3" d="M57,87.23A74.19,74.19,0,0,0,34.49,118c-.39,1,1.1,2.11,2.11,1.46a79.69,79.69,0,0,0,20.52-19l-2.25.26,10,9.35a1.51,1.51,0,0,0,2.39-.57c2.17-6,7.42-10.59,12.35-14.91s10-8.65,15.2-12.75C105,73.87,116.18,66.39,128.9,62a68.09,68.09,0,0,1,21.83-3.83,1.29,1.29,0,1,0,0-2.58c-19.27-1-40-1.86-57.17,7.55a43.18,43.18,0,0,0-11.13,8.61L84.82,73A126.69,126.69,0,0,0,82.27,21.5c-.33-1.28-2.37-1.17-2.76,0a291.72,291.72,0,0,0-9.34,34.87l2.62-.31c-5-7.93-3.77-17.58-7.61-25.87-2.12-4.56-5.75-7.92-10.24-10.69-5.08-3.13-10.47-5.89-15.71-8.8L20.26.19c-1.39-.77-2.89,1-1.74,2a160.42,160.42,0,0,1,34.84,44A148.31,148.31,0,0,1,60,60.35l1.38-1.64A126.23,126.23,0,0,1,7,53.18a1.32,1.32,0,0,0-1.4,2.15c5.15,5.35,12.69,7.46,20.25,8.39,8,1,16.05.86,23.93,2.3A35.13,35.13,0,0,1,62,70.35L63.12,68A67.13,67.13,0,0,0,10.9,79.32,54.62,54.62,0,0,0,.24,89.63c-.86,1.09.79,2.37,2,1.76A107.2,107.2,0,0,1,44.06,79.66a110.34,110.34,0,0,1,12.6-.15L56.28,77A25.31,25.31,0,0,0,40.73,91.22c-.39,1,.78,1.78,1.77,1.58l13.57-2.63c1.81-.35,1-2.84-.76-2.49L41.73,90.32,43.5,91.9A22.31,22.31,0,0,1,57,79.46a1.28,1.28,0,0,0-.38-2.53,112.12,112.12,0,0,0-44.29,7A108.15,108.15,0,0,0,.75,89.16l2,1.77C12.86,78,30,70,47.51,69.3a60.46,60.46,0,0,1,14.84,1.18c1.62.33,2.45-1.53,1.11-2.36C49.93,59.85,32.54,64,17.74,59.47a23.26,23.26,0,0,1-10.09-6L6.26,55.66a128,128,0,0,0,55.09,5.63c.84-.1,1.74-.75,1.39-1.63A158.81,158.81,0,0,0,32.3,11.94c-3.7-4-7.63-7.87-11.75-11.55l-1.74,2c10.89,6,21.88,11.93,32.66,18.11,4.42,2.54,8.38,5.45,10.66,9.79,2.09,4,2.76,8.48,3.54,12.78C66.56,48,67.56,53,70.32,57.36c.57.91,2.39.81,2.62-.3a291.17,291.17,0,0,1,9.33-34.87H79.51a123.67,123.67,0,0,1,2.55,50.14c-.17,1.1,1.37,2.39,2.4,1.26,11.78-13,31.22-16.09,48.85-16,5.82,0,11.62.32,17.42.63V55.6c-14,.07-27.16,4.7-38.83,11.36-12,6.87-22.6,15.61-32.8,24.5-5.81,5.06-12,10.26-14.6,17.37l2.39-.56-10-9.36a1.55,1.55,0,0,0-2.25.27,76.07,76.07,0,0,1-19.5,18.08l2.11,1.46a71.48,71.48,0,0,1,21.8-29.67c1.37-1.11-.67-2.93-2-1.82Z"/><path class="cls-3" d="M51.2,76.66a73.59,73.59,0,0,0-33.1,5,74.81,74.81,0,0,0,24,.5l-.56,10.81c5.31-2.29,11.5-2.07,17.41-1.8C82.7,92.21,109,94.3,125.43,110c-6.48-7-13.05-14.06-21.16-19.5s-18-9.2-28.08-8.6A119.91,119.91,0,0,0,109,51.62,296.75,296.75,0,0,0,80.13,66.27C83,57.69,93.06,52,94.68,43.1c.65-3.55-.17-7.19-1-10.73L87.63,6.17A121.81,121.81,0,0,1,72.06,62.52a88.78,88.78,0,0,1-27.63-33.3c-1.75,14.86,19.64,24.48,22.2,39.3C56.86,53.39,36.46,44.37,17.3,46.73A86,86,0,0,1,57.09,70.27a22.84,22.84,0,0,0-17.34-.44l9.57,6"/><path class="cls-3" d="M51.23,75.59a75.33,75.33,0,0,0-33.69,5.07,1,1,0,0,0,.23,2,77.45,77.45,0,0,0,24.59.52l-1.47-1.09-.57,10.81c0,.84,1,1.33,1.76,1C47.4,91.63,53.47,92,59.21,92.21s11.56.59,17.31,1.14c11.23,1.07,22.69,3,32.94,7.5a52.85,52.85,0,0,1,15.11,9.85c1.07,1,2.72-.4,1.73-1.46C115.93,98.05,104.59,86.14,88.41,82A40.34,40.34,0,0,0,76.22,80.8l.53,2A122.42,122.42,0,0,0,110,52.19c.67-.91-.57-2-1.59-1.53A301.31,301.31,0,0,0,79.57,65.31l1.71,1.27c2.49-7.24,9.68-12,13.06-18.88A18.29,18.29,0,0,0,95.67,36c-.8-4.57-2-9.11-3.08-13.64L88.79,5.94c-.28-1.2-2.33-1-2.36.19A120.53,120.53,0,0,1,76.76,50.3,122,122,0,0,1,71,62l1.9-.16A88.44,88.44,0,0,1,45.49,28.72c-.51-1.07-2.15-.51-2.26.46-.64,5.87,2.26,11.22,6,15.91,3.9,4.93,8.62,9.33,12.18,14.48a23.65,23.65,0,0,1,4.08,9.18L67.68,68C59.78,55.87,45.47,47.65,30.1,45.7a53.92,53.92,0,0,0-13.07,0A1.06,1.06,0,0,0,17,47.76,86.46,86.46,0,0,1,48.89,64.15,79.38,79.38,0,0,1,56.22,71l1.49-1.65a24.4,24.4,0,0,0-18.52-.47,1,1,0,0,0,0,1.87l9.56,6c1.27.79,2.51-1,1.24-1.83l-9.57-6,0,1.87a21.5,21.5,0,0,1,16.15.4c1.2.52,2.41-.68,1.49-1.65A86.07,86.07,0,0,0,27.8,49.14,91.94,91.94,0,0,0,17.64,45.7l-.06,2.08A53,53,0,0,1,57.85,60.17,42.79,42.79,0,0,1,65.57,69a1.2,1.2,0,0,0,2.22-.72c-2.18-12.15-15-19.38-20.39-30.09a15.75,15.75,0,0,1-1.77-8.94l-2.26.45A90,90,0,0,0,71.19,63.25c.55.4,1.51.53,1.89-.17a124.25,124.25,0,0,0,14.7-43.84,118.35,118.35,0,0,0,1-13l-2.36.19C88.64,15.83,91,25.23,93,34.68c.83,3.87,1.14,7.7-.48,11.42-1.49,3.41-4.13,6.33-6.59,9.2C83.12,58.58,80.36,62,79,66a1.18,1.18,0,0,0,1.71,1.26,302.49,302.49,0,0,1,28.85-14.65L108,51.05A119.26,119.26,0,0,1,75.63,80.92c-.84.53-.82,2.1.53,2,15.49-.86,28.75,8.06,38.83,17.8,3.33,3.21,6.45,6.58,9.58,10l1.73-1.46C118.24,101.59,107.55,97,96.37,94.3,84.83,91.57,72.88,90.71,61,90.14,54.3,89.82,47.21,89.33,41,92l1.76,1,.57-10.81a1.19,1.19,0,0,0-1.47-1.09,73.9,73.9,0,0,1-23.37-.48l.22,2a72.8,72.8,0,0,1,32.5-4.83,1.08,1.08,0,1,0,.07-2.15Z"/><ellipse cx="95.32" cy="144.64" rx="27.55" ry="24.05"/><ellipse cx="35.28" cy="145.2" rx="27.55" ry="24.05"/><ellipse class="cls-4" cx="87.68" cy="133.7" rx="7.54" ry="6.64"/><ellipse class="cls-4" cx="27.38" cy="134.8" rx="7.54" ry="6.64"/><ellipse class="cls-4" cx="37.8" cy="142.2" rx="3.44" ry="3.36"/><ellipse class="cls-4" cx="98.51" cy="140.86" rx="3.44" ry="3.36"/></svg>