<svg id="Layer_1" data-name="Layer 1" xmlns="http://www.w3.org/2000/svg" width="221.7" height="543.38" viewBox="0 0 221.7 543.38"><defs><style>.cls-1{fill:#ffdfd4;}.cls-2{fill:#b3b3b3;}.cls-3{fill:#e6e6e6;}.cls-4{fill:#ff9094;}.cls-5{fill:#231f20;}.cls-6{fill:#001300;}.cls-7{fill:#fff;}.cls-8{fill:#999;}.cls-9{fill:#f2f2f2;}.cls-10{fill:#8c6239;}.cls-11{fill:#ccc;}.cls-12{fill:#4d4d4d;}</style></defs><path class="cls-1" d="M115.9,327.93s-73.12-54.27-74.49-101.4c-1.47-50.63,6.86-108.19,74.49-108.19s71.61,59.8,69.57,109.71C183.65,272.66,115.9,327.93,115.9,327.93Z"/><path class="cls-2" d="M7.46,387.37c-15-68.05,8-120.59,120.54-115.12s92.55,66.13,83.94,124.47-39.61,113-102.83,110.59S22.47,455.42,7.46,387.37Z"/><rect class="cls-3" x="30.52" y="140.25" width="165.53" height="35.62" rx="9.01"/><path class="cls-3" d="M181.38,172.91c-56.13-8.1-78.39-9.53-134.75.23C42.89,141.76,35.54,111,31.19,79.76a1610.82,1610.82,0,0,1,161.19-1.05C189.15,110.17,184.17,141.37,181.38,172.91Z"/><ellipse class="cls-3" cx="56.34" cy="83.13" rx="38.86" ry="41.51"/><ellipse class="cls-3" cx="110.91" cy="41.51" rx="38.86" ry="41.51"/><ellipse class="cls-3" cx="164.48" cy="82.61" rx="38.86" ry="41.51"/><path class="cls-4" d="M146.7,230.56c0-2.11,4.85-4.24,9.06-4.32,4.53-.09,9.72,2.17,9.68,4.32s-5.35,4.15-9.81,4C151.64,234.49,146.74,232.65,146.7,230.56Z"/><path class="cls-4" d="M61.86,231.35c0-2.11,4.86-4.24,9.07-4.32,4.53-.09,9.72,2.17,9.68,4.32s-5.35,4.15-9.82,4C66.81,235.27,61.9,233.43,61.86,231.35Z"/><path class="cls-5" d="M104.63,242.77a12.83,12.83,0,0,0,10.42,4.3,13,13,0,0,0,9.54-5.57c.84-1.19-1.09-2.33-1.92-1.15a10.38,10.38,0,0,1-16.46.81c-1-1.08-2.54.53-1.58,1.61Z"/><path class="cls-5" d="M122,236.8a6.3,6.3,0,0,0,2,4,6.07,6.07,0,0,0,4.17,1.6,1.14,1.14,0,0,0,0-2.28h-.43l-.21,0c-.24,0,.23.05,0,0a5.84,5.84,0,0,1-.82-.22s-.17-.09-.2-.08c.15.07.18.07.07,0l-.07,0-.38-.2-.36-.24-.12-.09.11.09s-.17-.14-.19-.16a5.2,5.2,0,0,1-.61-.63l-.06-.08.06.08-.12-.17a3,3,0,0,1-.23-.38c-.07-.12-.13-.25-.2-.38h0c0-.07-.05-.14-.07-.21l-.12-.42c0-.07,0-.14,0-.21,0-.29,0,.21,0,0a1.15,1.15,0,0,0-1.12-1.13A1.13,1.13,0,0,0,122,236.8Z"/><path class="cls-5" d="M105,237.06c0,.24,0-.24,0,0a1.55,1.55,0,0,0,0,.21,2.58,2.58,0,0,1-.12.42,1.72,1.72,0,0,1-.07.21c-.09.26,0,0,0,0s-.18.36-.2.39-.14.25-.22.37l-.13.18c-.13.2.15-.17,0,0a6.45,6.45,0,0,1-.63.65l-.16.15c-.07.05,0,0,.08-.07l-.09.06a2.25,2.25,0,0,1-.36.24,3.47,3.47,0,0,1-.37.21l-.1.05h0l-.1,0a4.76,4.76,0,0,1-.82.23c-.26.05.12,0,0,0l-.21,0H101a1.15,1.15,0,0,0-1.12,1.14A1.17,1.17,0,0,0,101,242.7a6.1,6.1,0,0,0,4.17-1.6,6.24,6.24,0,0,0,2.05-4,1.13,1.13,0,0,0-1.11-1.14,1.16,1.16,0,0,0-1.12,1.14Z"/><ellipse class="cls-6" cx="92.18" cy="209.5" rx="17.62" ry="17.98"/><ellipse class="cls-6" cx="134.59" cy="209.5" rx="17.62" ry="17.98"/><ellipse class="cls-7" cx="140.09" cy="215.85" rx="7.5" ry="7.84"/><ellipse class="cls-7" cx="96.64" cy="217.09" rx="7.5" ry="7.84"/><ellipse class="cls-7" cx="125.81" cy="198.25" rx="2.43" ry="2.38"/><ellipse class="cls-7" cx="82.51" cy="200.39" rx="2.43" ry="2.38"/><path class="cls-6" d="M71.37,196.4A5.21,5.21,0,0,0,73,199.81a5,5,0,0,0,3.45,1.42,1.13,1.13,0,0,0,1.11-1.14A1.15,1.15,0,0,0,76.44,199a4.19,4.19,0,0,1-.5,0l.3,0a3.22,3.22,0,0,1-.6-.13c-.08,0-.22-.12-.31-.11s.27.12.09,0l-.12-.06a5.74,5.74,0,0,1-.53-.32l-.13-.1c.28.19.12.09,0,0a6.54,6.54,0,0,1-.43-.43l-.09-.11c-.16-.18.1.15,0,0a4,4,0,0,1-.32-.52,2.39,2.39,0,0,0-.13-.28l.07.17a.49.49,0,0,1,0-.11.5.5,0,0,1,0-.13,3.38,3.38,0,0,1-.14-.63l0,.3,0-.22a1.15,1.15,0,0,0-1.11-1.14,1.14,1.14,0,0,0-1.12,1.14Z"/><path class="cls-6" d="M74.51,194.14a5.53,5.53,0,0,0,5.23,4.08,1.14,1.14,0,0,0,0-2.28h-.36s-.23,0,0,0,0,0,0,0a4.91,4.91,0,0,1-.63-.17l-.14-.05,0,0-.31-.16a2.26,2.26,0,0,1-.26-.16,1,1,0,0,1-.29-.2s.21.17.06,0l-.13-.11-.24-.23-.21-.25c-.16-.19.09.14,0,0l-.09-.12a5.3,5.3,0,0,1-.33-.57.54.54,0,0,0,0-.11l.07.16s0-.14-.06-.17-.08-.23-.11-.34a1.12,1.12,0,0,0-1.37-.8,1.17,1.17,0,0,0-.78,1.4Z"/><path class="cls-6" d="M145.4,196.67a5.54,5.54,0,0,0,5-4.3,1.16,1.16,0,0,0-.78-1.4,1.12,1.12,0,0,0-1.37.79c-.05.22-.11.43-.18.64s0-.07,0-.09-.06.13-.08.15a2.44,2.44,0,0,1-.14.28c-.05.09-.11.18-.17.27s-.1.13-.09.14.19-.25,0-.05a4.47,4.47,0,0,1-.42.45l-.24.21c-.1.09.22-.17.07-.06l-.13.1a3.65,3.65,0,0,1-.54.32l-.15.07.06,0-.26.1a5.18,5.18,0,0,1-.66.14l.3,0a2,2,0,0,1-.34,0,1.14,1.14,0,0,0,0,2.28Z"/><path class="cls-6" d="M148.5,199.38a5.54,5.54,0,0,0,5.05-4.3,1.16,1.16,0,0,0-.78-1.4,1.14,1.14,0,0,0-1.38.8,3.73,3.73,0,0,1-.18.63c-.07.19,0-.06,0-.09a.77.77,0,0,0-.07.16c0,.09-.09.18-.14.27l-.17.27a1.21,1.21,0,0,0-.1.14s.2-.25,0-.05a4.47,4.47,0,0,1-.42.45c-.08.08-.16.14-.24.21s.22-.16.07-.06a.71.71,0,0,1-.14.1,4.15,4.15,0,0,1-.53.32l-.15.07c.31-.15.14-.06.06,0l-.27.09a4.72,4.72,0,0,1-.65.15l.29-.05a1.84,1.84,0,0,1-.33,0,1.16,1.16,0,0,0-1.12,1.14,1.15,1.15,0,0,0,1.12,1.14Z"/><path class="cls-8" d="M128.13,272c112.53,5.47,92.55,66.21,83.94,124.61s-39.6,113.12-102.83,110.72Z"/><ellipse class="cls-9" cx="108.88" cy="333.95" rx="5.54" ry="6.02"/><ellipse class="cls-9" cx="106.76" cy="365.06" rx="5.54" ry="6.02"/><ellipse class="cls-9" cx="104.21" cy="396.56" rx="5.54" ry="6.02"/><ellipse class="cls-9" cx="134.82" cy="333.55" rx="5.54" ry="6.02"/><ellipse class="cls-9" cx="134.82" cy="365.06" rx="5.54" ry="6.02"/><ellipse class="cls-9" cx="132.49" cy="395.95" rx="5.54" ry="6.02"/><path class="cls-10" d="M46.11,171.18a54.87,54.87,0,0,0-17.31,1.35c-4.19,3.9-4.65,9.46-1.2,14.13s9.54,5,12.44,0c2.49,4.95,7.42,7.11,12.5,5.3s7.5-6.47,9.34-11.54c8.37,6.22,17.27,5,23.77-3.5,7.7,12.17,20.45,13.76,30.89,4.39,6.87,6.6,15.22,5.91,21.35-1.37,3.2,4.72,7.5,7.76,13.14,7.13s9.26-4.56,11.47-9.91c6.29,8.29,14.8,10.15,23.62,5.12.84,2.51,3.26,3.48,5.52,3.83,3.36.53,7.24,1.5,9.82-1.39,3.48-3.88,1.48-9.76-2.61-12.38s-9-1.93-13.61-1.61c-12.85-12.36-28-12.68-41.16-.63-7.37-5.94-15.1-6.49-23.16-1.73-11.4-9.19-23.3-9.82-35.46-1.85-1.2.78-1.78,1.76-3.4,1.82S79.43,167.05,78,166c-12-8.51-24.48-7-34.3,4.38Z"/><path class="cls-10" d="M46.16,169.1c-6-.73-10.45-.14-16.46,1.46a5.17,5.17,0,0,0-2,.86c-6.51,5-5.38,14.17,1.13,19,4.53,3.38,10.46,2,13.09-3.31-1.19,0-2.51,0-3.74.15,2.82,5.42,7.72,8.27,13.53,7,6.56-1.43,9.68-7,12-13.25-1.06.21-2.11.53-3.17.78,9.58,7.05,19.3,5.77,26.75-3.84H84c8.56,13.31,22.33,15.05,33.88,4.83l-2.7,0c8,7.51,17.29,6.54,24.36-1.82-1.1,0-2.21,0-3.31,0,3.73,5.34,8.56,8.86,15,8.09s10.49-5.25,13.08-11.37c-1.17.11-2.33.32-3.49.47,7.06,9.23,16.33,11.39,26.23,5.87-.93-.4-1.88-.83-2.81-1.22,2,4.75,6.71,5.78,11.2,5.87s8.55-1.74,9.47-6.76A11.11,11.11,0,0,0,200.48,171c-4.6-3.36-9.95-2.73-15.24-2.35.42.23.9.4,1.34.61-13.75-13.14-29.77-13.4-43.85-.64l2.71,0c-8.17-6.48-16.51-7.2-25.47-2l2.3.33c-10.79-8.82-21.91-10.32-34.33-4.53a21.66,21.66,0,0,0-3.42,2.36c-.67.47-1.12,1.16-2,1.45s-1.67-.36-2.4-.93c-2.25-1.76-4.24-3.67-6.92-4.77a25.68,25.68,0,0,0-15.94-1.6,24.52,24.52,0,0,0-15,10.38,1.86,1.86,0,1,0,2.93,2.29c7.3-8.72,16.31-11,26.53-7.31,2.76,1,4.19,2.91,6.47,4.53,1.25.89,2.29,1.66,3.93,1.62s2.9-1.14,4.28-2.11c4.88-3.46,9.78-5.59,15.75-5.53,6.7.07,12.19,2.58,17.44,7.05a1.88,1.88,0,0,0,2.29.33c7.29-4.25,14.14-3.89,20.87,1.41a1.89,1.89,0,0,0,2.7,0c8.3-8.13,17.53-10,28.22-6.8a22.23,22.23,0,0,1,6.55,3.71,23.37,23.37,0,0,1,2.86,2.78c.43.43.53.92,1.26,1.32s1.83.14,2.83.07c5.83-.43,12.55-.25,14.06,7,.7,3.31-2,4.88-4.77,5a20.11,20.11,0,0,1-5.14-.67c-1.27-.27-2.79-.85-3.34-2.21s-1.6-1.92-2.82-1.24c-7.85,4.4-15.33,2.94-21-4.39-1.17-1.52-2.73-1.18-3.48.49-2,4.52-5,7.95-9.87,8.44s-8.43-2.15-11.28-6.17c-1-1.35-2.26-1.21-3.3,0-5.33,6.22-12.4,6.55-18.32,1a1.88,1.88,0,0,0-2.69,0c-9.54,8.49-20.86,7-27.91-3.92-.92-1.43-2.3-1.24-3.26,0-5.74,7.29-13.45,8.5-20.79,3.1-1.28-.94-2.54-.75-3.16.83-1.8,4.63-3.78,8.88-8.65,10.39A7.77,7.77,0,0,1,41.93,186c-1-1.92-2.83-1.63-3.79.15-1.59,2.92-5.47,2.79-7.64.81-4.46-4.09-3.42-9.34-.13-13.76a20.87,20.87,0,0,1-2.3,1.19,121.91,121.91,0,0,1,17.76-1.12,2.09,2.09,0,0,0,.33-4.16Z"/><path class="cls-2" d="M186.47,463.85h0c-9.4-3.05-18.32-7-14.35-23.62,9.44-39.54,13.57-51.24,14.18-93.5.26-17.75,8.56-18.64,18.5-19.32h0c9.94-.68,17.41,7.77,16.88,20.7-1.26,30.78-9.49,69.84-14.13,100.4C205.6,461.34,195.87,466.9,186.47,463.85Z"/><path class="cls-11" d="M35.23,465.18h0c9.41-3.05,18.32-7,14.36-23.62C40.15,402,36,390.32,35.4,348.07c-.25-17.75-8.55-18.64-18.49-19.32h0C7,328.07-.5,336.51,0,349.44c1.25,30.78,9.49,69.84,14.12,100.4C16.1,462.68,25.83,468.23,35.23,465.18Z"/><path class="cls-12" d="M46.81,526.38h62.35a31.18,31.18,0,0,0-62.35,0Z"/><path class="cls-12" d="M112.81,526.38h62.35a31.18,31.18,0,0,0-62.35,0Z"/><path class="cls-7" d="M12.35,543.38a1.5,1.5,0,0,0,0-3,1.5,1.5,0,0,0,0,3Z"/><path class="cls-7" d="M11,529.12a1.5,1.5,0,0,0,0-3,1.5,1.5,0,0,0,0,3Z"/><path class="cls-7" d="M21.18,530.81a1.5,1.5,0,0,0,0-3,1.5,1.5,0,0,0,0,3Z"/><path class="cls-7" d="M19.15,521.64a1.5,1.5,0,0,0,0-3,1.5,1.5,0,0,0,0,3Z"/><path class="cls-7" d="M30.83,537a.38.38,0,0,0,0-.75.38.38,0,0,0,0,.75Z"/></svg>