<svg id="Layer_1" data-name="Layer 1" xmlns="http://www.w3.org/2000/svg" width="243.71" height="253.62" viewBox="0 0 243.71 253.62"><defs><style>.cls-1{fill:#ccc7ac;}.cls-2{fill:#dbd8c6;}.cls-3{fill:#e6e6e6;}.cls-4{fill:#001300;}.cls-5{fill:#fff;}.cls-6{fill:#ffa5ac;}</style></defs><path class="cls-1" d="M150.4,42.38A15.3,15.3,0,0,1,146,40.69c-4.66-2.77-4.86-8-4.79-13.12a44,44,0,0,0-1.72-13.09c-3.07-6-6.3-10.87-9.67-14.18A7.3,7.3,0,0,0,127.34,0c-10,5.62-19.13,12.58-28,19.84l-.35.29c-5,6.9-2.23,18.94-9.82,24C79,77.42,72.66,119.43,72.66,142.6c0,42.24,21.21,76.49,47.38,76.49s47.38-34.25,47.38-76.49C167.42,119,160.8,75.87,150.4,42.38Z"/><path class="cls-1" d="M114,39.27C85,26.56,22.69,113,7.1,152S2.44,232.89,31.51,245.6s65.27-8.57,80.85-47.54S143.09,52,114,39.27Z"/><path class="cls-1" d="M236.89,149.55c-12-29.9-52-87.5-83.77-106.68A18.56,18.56,0,0,1,146,40.69a8.71,8.71,0,0,1-2.77-2.57c-5.79-2-11.12-2.27-15.69-.27-30.39,13.3-16.31,120.87-.73,159.84s52.86,59.79,83.24,46.49S252.47,188.52,236.89,149.55Z"/><path class="cls-2" d="M200.5,173.69C194.68,134.38,159,40.2,132.85,44.44S99.94,149.73,105.77,189s31.75,67.73,57.91,63.49S206.32,213,200.5,173.69Z"/><path class="cls-2" d="M117.39,44.44C91.23,40.2,55.56,134.38,49.74,173.69s10.66,74.6,36.83,78.84,52.08-24.19,57.91-63.49S143.55,48.68,117.39,44.44Z"/><path class="cls-2" d="M136.69,132.31c-.87-39.31-6.15-133.49-10-129.25s-4.87,105.29-4,144.6,4.7,67.73,8.58,63.49S137.55,171.61,136.69,132.31Z"/><path class="cls-2" d="M136.69,132.31c-.87-39.31-6.15-133.49-10-129.25s-4.87,105.29-4,144.6,4.7,67.73,8.58,63.49S137.55,171.61,136.69,132.31Z"/><path class="cls-2" d="M125.84,140.08c-.87-39.3-6.15-133.49-10-129.25s-4.88,105.3-4,144.6,4.7,67.73,8.58,63.49S126.7,179.38,125.84,140.08Z"/><path class="cls-3" d="M122.79,43.05c-26.47,0-47.93,98.78-47.93,138.55s21.46,72,47.93,72,47.93-32.24,47.93-72S149.26,43.05,122.79,43.05Z"/><path class="cls-1" d="M121.76,40.75a9.37,9.37,0,0,1,2,0c.08,0,.29,0,0,0a.71.71,0,0,1,.21,0l.52.11a9.91,9.91,0,0,1,1,.31v-2.5c-.94.26-1.88.49-2.83.68-.47.09-1,.17-1.43.24l-.33,0c.29,0-.08,0-.11,0l-.77.09.32,2.54.16-.05c.17-.06,0,0-.09,0s.12,0,.16,0c.23,0-.18-.06,0,0s.2.09,0,0l0,0s.19.13,0,0,0,.05,0,.08l.25-2-1.46.81a1.35,1.35,0,0,0-.45,1.78,1.24,1.24,0,0,0,1.7.46l1.46-.81a1.35,1.35,0,0,0,.25-2,2.56,2.56,0,0,0-2.76-.73,1.31,1.31,0,0,0-.89,1.43,1.23,1.23,0,0,0,1.22,1.12,36.52,36.52,0,0,0,6.12-1.17,1.29,1.29,0,0,0,.91-1.25,1.33,1.33,0,0,0-.91-1.25,10.26,10.26,0,0,0-4.49-.56,1.29,1.29,0,0,0-1.24,1.3c0,.64.54,1.37,1.24,1.29Z"/><path class="cls-3" d="M122.09,8.73c-3.85,0-6.63,98.81-6.49,138.58s3.37,72,7.22,72,6.86-32.27,6.72-72S125.94,8.71,122.09,8.73Z"/><ellipse class="cls-4" cx="109.34" cy="93.54" rx="11.41" ry="11.34"/><ellipse class="cls-4" cx="136.81" cy="93.54" rx="11.41" ry="11.34"/><ellipse class="cls-5" cx="140.37" cy="97.54" rx="4.85" ry="4.94"/><ellipse class="cls-5" cx="112.24" cy="98.32" rx="4.85" ry="4.94"/><ellipse class="cls-5" cx="131.12" cy="86.44" rx="1.57" ry="1.5"/><ellipse class="cls-5" cx="103.08" cy="87.79" rx="1.57" ry="1.5"/><path class="cls-4" d="M95.87,85.27a3.25,3.25,0,0,0,1,2.16,3.31,3.31,0,0,0,2.23.89.72.72,0,0,0,0-1.44,1.71,1.71,0,0,1-.32,0l.19,0a2.33,2.33,0,0,1-.38-.08c-.06,0-.15-.08-.2-.07l0,0-.08,0a3,3,0,0,1-.34-.2L98,86.46c.18.12.07.06,0,0a.86.86,0,0,1-.14-.13,1.85,1.85,0,0,1-.14-.14l-.06-.07c-.1-.12.07.09,0,0a2.7,2.7,0,0,1-.22-.33.53.53,0,0,0-.08-.17l0,.1a.14.14,0,0,0,0-.06l0-.09a2.59,2.59,0,0,1-.09-.4l0,.2s0-.1,0-.15a.73.73,0,0,0-.73-.71.72.72,0,0,0-.72.71Z"/><path class="cls-4" d="M97.9,83.85a3.57,3.57,0,0,0,3.39,2.57.72.72,0,0,0,.72-.72.74.74,0,0,0-.72-.72h-.23s-.15,0,0,0,0,0,0,0a3,3,0,0,1-.4-.11l-.09,0c-.13,0,.15.07,0,0a1.24,1.24,0,0,1-.2-.1l-.17-.09a1.27,1.27,0,0,1-.19-.13s.14.1,0,0l-.08-.08-.16-.14-.14-.16c-.1-.12.07.09,0,0l0-.08a2.12,2.12,0,0,1-.21-.36.25.25,0,0,1,0-.07l0,.1s0-.09,0-.1l-.06-.22a.73.73,0,0,0-1.4.38Z"/><path class="cls-4" d="M143.81,85.44a3.54,3.54,0,0,0,3.26-2.71.72.72,0,0,0-.5-.88.74.74,0,0,0-.89.5,2.64,2.64,0,0,1-.12.4c0,.12,0,0,0-.06s0,.09-.05.1l-.09.18-.11.16a.7.7,0,0,1-.06.09s.12-.15,0,0a2.44,2.44,0,0,1-.27.29l-.15.13c-.07,0,.14-.11,0,0l-.09.07a3.79,3.79,0,0,1-.34.2l-.1,0,0,0-.17.06a2.07,2.07,0,0,1-.43.1l.19,0-.21,0a.75.75,0,0,0-.73.72.72.72,0,0,0,.73.71Z"/><path class="cls-4" d="M145.81,87.16a3.57,3.57,0,0,0,3.27-2.72.72.72,0,0,0-1.39-.38,2.64,2.64,0,0,1-.12.4c0,.12,0,0,0-.06a1,1,0,0,1,0,.1,1.62,1.62,0,0,1-.1.18l-.1.16-.07.09s.13-.15,0,0a3.83,3.83,0,0,1-.28.29l-.15.13c-.07.05.14-.1.05,0l-.09.07-.35.2-.1,0,0,0a.49.49,0,0,1-.17.06,2.13,2.13,0,0,1-.42.1l.19,0-.22,0a.72.72,0,0,0,0,1.44Z"/><path class="cls-6" d="M145.23,112.55c0-1.31,3.82-2.63,7.13-2.68,3.56-.05,7.64,1.35,7.61,2.68s-4.2,2.57-7.71,2.5C149.12,115,145.27,113.84,145.23,112.55Z"/><path class="cls-6" d="M90.61,112.79c0-1.3,3.85-2.62,7.2-2.67,3.59-.06,7.71,1.34,7.68,2.67s-4.25,2.58-7.79,2.5C94.53,115.23,90.64,114.09,90.61,112.79Z"/><path d="M118.06,123.18a8,8,0,0,0,7.75,4.95,8.25,8.25,0,0,0,7.09-5.91,1.24,1.24,0,1,0-2.39-.68,5.38,5.38,0,0,1-10.32.33,1.21,1.21,0,0,0-1.69-.47,1.36,1.36,0,0,0-.44,1.78Z"/></svg>