<svg id="Layer_1" data-name="Layer 1" xmlns="http://www.w3.org/2000/svg" width="145.9" height="130.78" viewBox="0 0 145.9 130.78"><defs><style>.cls-1{fill:#001300;}.cls-2{fill:#231f20;}.cls-3{fill:#fff;}.cls-4{fill:red;}</style></defs><rect class="cls-1" x="5.9" y="31.09" width="52.01" height="61.96" rx="14"/><path class="cls-1" d="M69.69,18.18c3-2.08,6.81.57,6.81,4.77V102.5c0,4.21-3.77,6.85-6.81,4.77L40.46,87.33,11.4,67.5c-3.08-2.1-3.08-7.44,0-9.55L40.46,38.13Z"/><ellipse class="cls-1" cx="62.85" cy="63.07" rx="23.53" ry="28.06"/><path class="cls-2" d="M91.66,38.41s10.19,3.07,10.19,24.87-10.19,24.9-10.19,24.9c7.09,0,12.84-11.14,12.84-24.89S98.75,38.41,91.66,38.41Z"/><path class="cls-2" d="M100.56,29.63s17.62,4.15,17.62,33.65S100.56,97,100.56,97c12.26,0,22.21-15.07,22.21-33.67S112.82,29.63,100.56,29.63Z"/><path class="cls-2" d="M115.36,23.26s24.23,5,24.23,40.49-24.23,40.53-24.23,40.53c16.86,0,30.54-18.14,30.54-40.51S132.22,23.26,115.36,23.26Z"/><rect class="cls-3" x="25.87" y="30.28" width="2.02" height="63.17"/><rect class="cls-4" x="63.55" y="-25.24" width="3.68" height="181.27" transform="translate(65.39 -27.08) rotate(45)"/></svg>