<svg id="Layer_1" data-name="Layer 1" xmlns="http://www.w3.org/2000/svg" width="334.58" height="192.11" viewBox="0 0 334.58 192.11"><defs><style>.cls-1{fill:#333;}.cls-2{fill:gray;}.cls-3{fill:#a80000;}.cls-4{opacity:0.29;}.cls-5{fill:#ff3f65;}.cls-6{opacity:0.82;}.cls-7{fill:#760000;}.cls-8{opacity:0.45;}.cls-9{opacity:0.31;}.cls-10{opacity:0.67;}.cls-11{opacity:0.52;}.cls-12{opacity:0.42;}.cls-13{opacity:0.19;}.cls-14{opacity:0.47;}.cls-15{opacity:0.46;}.cls-16{opacity:0.59;}.cls-17{opacity:0.6;}.cls-18{opacity:0.48;}.cls-19{fill:#fff;}</style></defs><rect class="cls-1" width="334.58" height="192.11" rx="14"/><rect class="cls-2" x="5.2" y="4.11" width="324.38" height="184" rx="14"/><rect x="7.62" y="5.75" width="318.28" height="180.91" rx="14"/><path class="cls-3" d="M16,33.15c6.68-5.42,15.64-5.15,23.73-4.26,8.55.95,17,2.88,25.61,3.28s16.85-1.1,24.23-5.59c4.75-2.89,8.82-6.26,14.64-6.4,5.09-.13,10.14,1.81,14.82,3.62,9.46,3.65,18.4,7.55,28.74,7.45,10.56-.1,20.74-3.32,31.21-4.19,4.93-.41,10-.36,14.68,1.31,5.19,1.83,9.42,5.58,14.5,7.68,10.56,4.36,20.81.05,30.71-3.94,12.7-5.13,25.62-6,39.19-5.71,14.08.25,28.15,1,42.2,2.06,6.41.49,6.38-9.52,0-10q-19.21-1.47-38.48-2C270,16.19,258,16.12,246.39,19,235.7,21.69,223,31.4,211.76,26.79c-4.91-2-9-5.61-13.95-7.53a40.13,40.13,0,0,0-14.89-2.41c-10.79.15-21.2,3.55-31.92,4.27-11.25.75-20.49-3.71-30.77-7.53-9.53-3.55-19.41-5-28.73,0-4.33,2.32-8,5.62-12.76,7.18a36.79,36.79,0,0,1-13.37,1.42C46.29,21.29,25.61,12.55,9,26.08,4,30.14,11.07,37.17,16,33.15Z"/><g class="cls-4"><path class="cls-5" d="M22.07,29.89c4.95-1.6,9.72-2.56,14.86-1.28L39.59,19a67.36,67.36,0,0,0-11.52-.89c-6.42.1-6.44,10.1,0,10a51.44,51.44,0,0,1,8.86.53c6.2,1,9-8,2.66-9.64-6.86-1.71-13.53-.87-20.18,1.27-6.1,2-3.49,11.63,2.66,9.65Z"/></g><g class="cls-6"><path class="cls-5" d="M297.5,17.23H288c-6.43,0-6.44,10,0,10h9.52c6.43,0,6.44-10,0-10Z"/></g><path class="cls-3" d="M15.67,46c6.68-5.43,15.64-5.15,23.73-4.26,8.56.95,17,2.88,25.61,3.28S81.86,44,89.25,39.46c4.74-2.89,8.81-6.26,14.63-6.4,5.09-.13,10.14,1.81,14.82,3.61,9.46,3.65,18.4,7.56,28.74,7.46,10.56-.1,20.75-3.32,31.22-4.19,4.92-.41,10-.36,14.67,1.31,5.19,1.83,9.42,5.58,14.5,7.68,10.56,4.36,20.81,0,30.71-4,12.7-5.12,25.62-5.95,39.19-5.7,14.08.25,28.16,1,42.2,2,6.42.5,6.39-9.51,0-10q-19.21-1.47-38.48-2c-11.82-.29-23.86-.36-35.41,2.53-10.7,2.68-23.4,12.39-34.64,7.78-4.9-2-9-5.61-14-7.53a40.09,40.09,0,0,0-14.89-2.41c-10.78.15-21.2,3.55-31.92,4.27-11.25.75-20.49-3.71-30.76-7.53-9.54-3.55-19.42-5-28.74,0-4.33,2.32-8,5.61-12.75,7.18A36.86,36.86,0,0,1,65,35.05C45.94,34.17,25.25,25.43,8.6,39c-5,4,2.11,11.09,7.07,7.07Z"/><path class="cls-3" d="M15.67,57c6.68-5.43,15.64-5.15,23.73-4.26,8.56.95,17,2.88,25.61,3.28S81.86,55,89.25,50.46c4.74-2.89,8.81-6.26,14.63-6.4,5.09-.13,10.14,1.81,14.82,3.61,9.46,3.65,18.4,7.56,28.74,7.46,10.56-.1,20.75-3.32,31.22-4.19,4.92-.41,10-.36,14.67,1.31,5.19,1.83,9.42,5.58,14.5,7.68,10.56,4.36,20.81,0,30.71-4,12.7-5.12,25.62-5.95,39.19-5.7,14.08.25,28.16,1,42.2,2,6.42.5,6.39-9.51,0-10q-19.21-1.47-38.48-2c-11.82-.29-23.86-.36-35.41,2.53-10.7,2.68-23.4,12.39-34.64,7.78-4.9-2-9-5.61-14-7.53a40.09,40.09,0,0,0-14.89-2.41c-10.78.15-21.2,3.55-31.92,4.27-11.25.75-20.49-3.71-30.76-7.53-9.54-3.55-19.42-5-28.74,0-4.33,2.32-8,5.61-12.75,7.18A36.86,36.86,0,0,1,65,46.05C45.94,45.17,25.25,36.43,8.6,50c-5,4,2.11,11.09,7.07,7.07Z"/><path class="cls-3" d="M16.67,71c6.68-5.43,15.64-5.15,23.73-4.26,8.56,1,17,2.88,25.61,3.28S82.86,69,90.25,64.46c4.74-2.89,8.81-6.26,14.63-6.4,5.09-.13,10.14,1.81,14.82,3.61,9.46,3.65,18.4,7.56,28.74,7.46,10.56-.1,20.75-3.32,31.22-4.19,4.92-.41,10-.36,14.67,1.31,5.19,1.83,9.42,5.58,14.5,7.68,10.56,4.36,20.81,0,30.71-4,12.7-5.12,25.62-6,39.19-5.7,14.08.25,28.16,1,42.2,2,6.42.5,6.39-9.51,0-10q-19.21-1.47-38.48-2c-11.82-.29-23.86-.36-35.41,2.53-10.7,2.68-23.4,12.39-34.64,7.78-4.9-2-9-5.61-14-7.53a40.09,40.09,0,0,0-14.89-2.41c-10.78.15-21.2,3.55-31.92,4.27-11.25.75-20.49-3.71-30.76-7.53-9.54-3.55-19.42-5-28.74,0-4.33,2.32-8,5.61-12.75,7.18A36.86,36.86,0,0,1,66,60.05C46.94,59.17,26.25,50.43,9.6,64,4.6,68,11.71,75.05,16.67,71Z"/><path class="cls-3" d="M18.08,108.58c6.68-5.42,15.64-5.15,23.73-4.26,8.56,1,17,2.88,25.61,3.28s16.85-1.1,24.24-5.59c4.74-2.89,8.81-6.26,14.63-6.4,5.09-.13,10.14,1.81,14.82,3.61,9.46,3.66,18.4,7.56,28.75,7.46,10.55-.1,20.74-3.32,31.21-4.19,4.92-.41,10-.36,14.68,1.31,5.18,1.83,9.41,5.58,14.49,7.68,10.56,4.36,20.81,0,30.71-4,12.71-5.12,25.62-6,39.19-5.7,14.08.25,28.16,1,42.2,2,6.42.5,6.39-9.51,0-10-12.81-1-25.63-1.65-38.48-2-11.82-.29-23.86-.36-35.41,2.53-10.7,2.68-23.4,12.39-34.64,7.78-4.9-2-9-5.61-13.95-7.53A40.09,40.09,0,0,0,185,92.28c-10.78.15-21.2,3.55-31.92,4.27-11.25.75-20.48-3.71-30.76-7.53-9.54-3.55-19.42-5-28.74,0-4.33,2.32-8,5.61-12.75,7.18A36.86,36.86,0,0,1,67.42,97.6C48.35,96.72,27.67,88,11,101.51c-5,4,2.11,11.09,7.07,7.07Z"/><path class="cls-3" d="M17.08,95.58c6.68-5.42,15.64-5.15,23.73-4.26,8.56,1,17,2.88,25.61,3.28S83.27,93.5,90.66,89c4.74-2.89,8.81-6.26,14.63-6.4,5.09-.13,10.14,1.81,14.82,3.61,9.46,3.66,18.4,7.56,28.75,7.46,10.55-.1,20.74-3.32,31.21-4.19,4.92-.41,10-.36,14.68,1.31,5.18,1.83,9.41,5.58,14.49,7.68,10.56,4.36,20.81,0,30.71-4,12.71-5.12,25.62-6,39.19-5.7,14.08.25,28.16,1,42.2,2,6.42.5,6.39-9.51,0-10-12.81-1-25.63-1.65-38.48-2-11.82-.29-23.86-.36-35.41,2.53-10.7,2.68-23.4,12.39-34.64,7.78-4.9-2-9-5.61-13.95-7.53A40.09,40.09,0,0,0,184,79.28c-10.78.15-21.2,3.55-31.92,4.27-11.25.75-20.48-3.71-30.76-7.53-9.54-3.55-19.42-5-28.74,0-4.33,2.32-8,5.61-12.75,7.18A36.86,36.86,0,0,1,66.42,84.6C47.35,83.72,26.67,75,10,88.51c-5,4,2.11,11.09,7.07,7.07Z"/><path class="cls-3" d="M17.08,82c6.68-5.43,15.64-5.15,23.73-4.26,8.56,1,17,2.88,25.61,3.28S83.27,80,90.66,75.46c4.74-2.89,8.81-6.26,14.63-6.4,5.09-.13,10.14,1.81,14.82,3.61,9.46,3.65,18.4,7.56,28.75,7.46,10.55-.1,20.74-3.32,31.21-4.19,4.92-.41,10-.36,14.68,1.31,5.18,1.83,9.41,5.58,14.49,7.68,10.56,4.36,20.81,0,30.71-4,12.71-5.12,25.62-6,39.19-5.7,14.08.25,28.16,1,42.2,2,6.42.5,6.39-9.51,0-10q-19.21-1.47-38.48-2C271,65.07,259,65,247.45,67.89c-10.7,2.68-23.4,12.39-34.64,7.78-4.9-2-9-5.61-13.95-7.53A40.09,40.09,0,0,0,184,65.73c-10.78.15-21.2,3.55-31.92,4.27-11.25.75-20.48-3.71-30.76-7.53-9.54-3.55-19.42-5-28.74,0-4.33,2.32-8,5.61-12.75,7.18a36.86,36.86,0,0,1-13.38,1.42C47.35,70.17,26.67,61.43,10,75,5,79,12.12,86.05,17.08,82Z"/><path class="cls-3" d="M16.08,122.58c6.68-5.42,15.64-5.15,23.73-4.26,8.56,1,17,2.88,25.61,3.28s16.85-1.1,24.24-5.59c4.74-2.89,8.81-6.26,14.63-6.4,5.09-.13,10.14,1.81,14.82,3.61,9.46,3.66,18.4,7.56,28.75,7.46,10.55-.1,20.74-3.32,31.21-4.19,4.92-.41,10-.36,14.68,1.31,5.18,1.83,9.41,5.58,14.49,7.68,10.56,4.36,20.81,0,30.71-4,12.71-5.12,25.62-6,39.19-5.7,14.08.25,28.16,1,42.2,2,6.42.5,6.39-9.51,0-10-12.81-1-25.63-1.65-38.48-2-11.82-.29-23.86-.36-35.41,2.53-10.7,2.68-23.4,12.39-34.64,7.78-4.9-2-9-5.61-13.95-7.53A40.09,40.09,0,0,0,183,106.28c-10.78.15-21.2,3.55-31.92,4.27-11.25.75-20.48-3.71-30.76-7.53-9.54-3.55-19.42-5-28.74,0-4.33,2.32-8,5.61-12.75,7.18a36.86,36.86,0,0,1-13.38,1.42C46.35,110.72,25.67,102,9,115.51c-5,4,2.11,11.09,7.07,7.07Z"/><path class="cls-3" d="M16.08,135.58c6.68-5.42,15.64-5.15,23.73-4.26,8.56,1,17,2.88,25.61,3.28s16.85-1.1,24.24-5.59c4.74-2.89,8.81-6.26,14.63-6.4,5.09-.13,10.14,1.81,14.82,3.61,9.46,3.66,18.4,7.56,28.75,7.46,10.55-.1,20.74-3.32,31.21-4.19,4.92-.41,10-.36,14.68,1.31,5.18,1.83,9.41,5.58,14.49,7.68,10.56,4.36,20.81.05,30.71-3.95,12.71-5.12,25.62-5.95,39.19-5.7,14.08.25,28.16,1,42.2,2,6.42.5,6.39-9.51,0-10-12.81-1-25.63-1.65-38.48-2-11.82-.29-23.86-.36-35.41,2.53-10.7,2.68-23.4,12.39-34.64,7.78-4.9-2-9-5.61-13.95-7.53A40.09,40.09,0,0,0,183,119.28c-10.78.15-21.2,3.55-31.92,4.27-11.25.75-20.48-3.71-30.76-7.53-9.54-3.55-19.42-5-28.74,0-4.33,2.32-8,5.61-12.75,7.18a36.86,36.86,0,0,1-13.38,1.42C46.35,123.72,25.67,115,9,128.51c-5,4.05,2.11,11.09,7.07,7.07Z"/><path class="cls-3" d="M17.08,147.58c6.68-5.42,15.64-5.15,23.73-4.26,8.56,1,17,2.88,25.61,3.28s16.85-1.1,24.24-5.59c4.74-2.89,8.81-6.26,14.63-6.4,5.09-.13,10.14,1.81,14.82,3.61,9.46,3.66,18.4,7.56,28.75,7.46,10.55-.1,20.74-3.32,31.21-4.19,4.92-.41,10-.36,14.68,1.31,5.18,1.83,9.41,5.58,14.49,7.68,10.56,4.36,20.81.05,30.71-3.95,12.71-5.12,25.62-5.95,39.19-5.7,14.08.25,28.16,1,42.2,2,6.42.5,6.39-9.51,0-10-12.81-1-25.63-1.65-38.48-2-11.82-.29-23.86-.36-35.41,2.53-10.7,2.68-23.4,12.39-34.64,7.78-4.9-2-9-5.61-13.95-7.53A40.09,40.09,0,0,0,184,131.28c-10.78.15-21.2,3.55-31.92,4.27-11.25.75-20.48-3.71-30.76-7.53-9.54-3.55-19.42-5-28.74,0-4.33,2.32-8,5.61-12.75,7.18a36.86,36.86,0,0,1-13.38,1.42C47.35,135.72,26.67,127,10,140.51c-5,4.05,2.11,11.09,7.07,7.07Z"/><path class="cls-3" d="M18.08,161.58c6.68-5.42,15.64-5.15,23.73-4.26,8.56,1,17,2.88,25.61,3.28s16.85-1.1,24.24-5.59c4.74-2.89,8.81-6.26,14.63-6.4,5.09-.13,10.14,1.81,14.82,3.61,9.46,3.66,18.4,7.56,28.75,7.46,10.55-.1,20.74-3.32,31.21-4.19,4.92-.41,10-.36,14.68,1.31,5.18,1.83,9.41,5.58,14.49,7.68,10.56,4.36,20.81.05,30.71-3.95,12.71-5.12,25.62-5.95,39.19-5.7,14.08.25,28.16,1,42.2,2,6.42.5,6.39-9.51,0-10-12.81-1-25.63-1.65-38.48-2-11.82-.29-23.86-.36-35.41,2.53-10.7,2.68-23.4,12.39-34.64,7.78-4.9-2-9-5.61-13.95-7.53A40.09,40.09,0,0,0,185,145.28c-10.78.15-21.2,3.55-31.92,4.27-11.25.75-20.48-3.71-30.76-7.53-9.54-3.55-19.42-5-28.74,0-4.33,2.32-8,5.61-12.75,7.18a36.86,36.86,0,0,1-13.38,1.42C48.35,149.72,27.67,141,11,154.51c-5,4.05,2.11,11.09,7.07,7.07Z"/><path class="cls-3" d="M16.12,175.58c6.71-5.42,15.71-5.15,23.84-4.26,8.59,1,17.07,2.88,25.72,3.28S82.61,173.5,90,169c4.77-2.89,8.85-6.26,14.7-6.4,5.11-.13,10.19,1.81,14.89,3.61,9.5,3.66,18.48,7.56,28.87,7.46,10.61-.1,20.84-3.32,31.35-4.19,4.95-.41,10-.36,14.75,1.31,5.21,1.83,9.46,5.58,14.56,7.68,10.61,4.36,20.9.05,30.85-3.95,12.76-5.12,25.73-5.95,39.36-5.7,14.15.25,28.29,1,42.4,2,6.44.5,6.41-9.51,0-10-12.87-1-25.76-1.65-38.65-2-11.88-.29-24-.36-35.58,2.53-10.75,2.68-23.5,12.39-34.8,7.78-4.92-2-9-5.61-14-7.53a40.53,40.53,0,0,0-15-2.41c-10.84.15-21.3,3.55-32.07,4.27-11.3.75-20.58-3.71-30.9-7.53-9.58-3.55-19.51-5-28.87,0-4.35,2.32-8.07,5.61-12.81,7.18a37.19,37.19,0,0,1-13.44,1.42C46.52,163.72,25.75,155,9,168.51c-5,4.05,2.12,11.09,7.1,7.07Z"/><path class="cls-7" d="M21.91,185.72c17.72-3.4,35.32,1.63,53.08,1.13,8.38-.23,14.35-3.18,21.82-6.45,8-3.48,17.75-.8,25.53,2,6.06,2.21,8.67-7.45,2.66-9.64-7.74-2.82-16.81-4.93-25.07-3.69-4.35.66-8.05,2.64-12,4.53a30.45,30.45,0,0,1-13,3.21c-18.79.52-37-4.37-55.74-.77-6.31,1.21-3.64,10.85,2.66,9.64Z"/><path class="cls-7" d="M123.39,181.83c12.51,3.56,24.23,4.66,37,2.12,12-2.38,26.78-3.68,38.42,1.12,5.94,2.45,8.53-7.22,2.65-9.65-10.9-4.49-25-4-36.49-2.4-6.19.88-12.2,2.67-18.5,2.67-7,0-13.76-1.6-20.44-3.5-6.2-1.77-8.85,7.88-2.66,9.64Z"/><path class="cls-7" d="M242.43,185.89a260.08,260.08,0,0,1,74.17-2.17c6.39.72,6.33-9.29,0-10a269.23,269.23,0,0,0-76.83,2.53c-6.32,1.11-3.64,10.75,2.66,9.64Z"/><path class="cls-7" d="M17.52,19.27a110.08,110.08,0,0,1,18-1.82c5.48,0,10.85,1.49,16.38,1.59,11,.19,23.69,2,33.78-3.29,5.69-3,.64-11.64-5-8.63-5.08,2.68-11,2.15-16.58,2.08-5.81-.08-11.8.25-17.59-.37-4.88-.52-9.27-1.54-14.24-1.24a172.25,172.25,0,0,0-17.38,2c-6.34,1-3.65,10.67,2.66,9.64Z"/><path class="cls-7" d="M130.19,14.76c12.43,8.44,27.54,6.34,41.54,4.25,7.74-1.16,15.94-2.33,23.63-.27,6.8,1.83,12.73,6,20,6.1,7.51.14,14.34-3.38,21.63-4.55,8.11-1.3,16.66-1.06,24.86-1.33,17.45-.58,35-.63,52.34,1.85,6.29.9,9-8.73,2.66-9.64-16.34-2.34-32.75-2.78-49.23-2.38-8.25.21-16.52.45-24.76,1-7.74.47-14.57,2.83-22.07,4.45-8,1.74-13.71-2.24-21.07-4.59-7.16-2.29-14.81-2.23-22.21-1.39-13.87,1.58-29.69,6.45-42.25-2.08-5.34-3.63-10.35,5-5.05,8.63Z"/><g class="cls-8"><path class="cls-5" d="M24.83,53.36c8.23-2.54,16,.3,24.28.45,6.44.11,6.44-9.89,0-10-9.43-.17-17.56-3-26.94-.1C16,45.6,18.66,55.26,24.83,53.36Z"/></g><g class="cls-9"><path class="cls-5" d="M290.25,51.07q13.17.69,26.35.63c5.76,0,6.64-8.09,1.33-9.82l-1.49-.48c-6.14-2-8.77,7.65-2.66,9.64l1.49.49,1.33-9.83q-13.19.06-26.35-.63c-6.43-.34-6.41,9.66,0,10Z"/></g><g class="cls-10"><path class="cls-5" d="M62,54.89c6.44,0,6.45-10,0-10s-6.44,10,0,10Z"/></g><g class="cls-11"><path class="cls-5" d="M122.87,61.54a65.57,65.57,0,0,0,44.32,4.77c6.25-1.49,3.61-11.14-2.66-9.64a54.53,54.53,0,0,1-36.62-3.77c-5.77-2.78-10.84,5.84-5,8.64Z"/></g><g class="cls-12"><path class="cls-5" d="M123,86c8.25,5,16.15,6.25,25.7,6.79,6,.34,18.78,1.6,22.34-4.66.8-1.41,1.06-3.67,0-5l-.26-.34c-3.88-5-12.57,0-8.64,5l.26.34v-5c1-1.74-1.62-.6-2.57-.48a42,42,0,0,1-4.75.33,89.56,89.56,0,0,1-9.12-.32c-6.87-.53-12-1.62-17.92-5.24-5.5-3.36-10.53,5.28-5,8.63Z"/></g><g class="cls-13"><path class="cls-5" d="M16.08,82.32a32.06,32.06,0,0,1,20.49-3.2c6.29,1.12,9-8.52,2.65-9.64A43.39,43.39,0,0,0,11,73.68c-5.72,3-.66,11.59,5,8.64Z"/></g><g class="cls-14"><path class="cls-5" d="M276.75,128.28q20.81.45,41.53,2.41c6.4.6,6.36-9.4,0-10q-20.73-2-41.53-2.41c-6.44-.15-6.44,9.85,0,10Z"/></g><g class="cls-15"><path class="cls-5" d="M221.18,132.42c-7.4,2.55-13.43-6-18.88-9.65-6.58-4.46-14.05-4.71-21.74-4.18-6.38.44-6.43,10.45,0,10,4.65-.32,9.73-.87,14.07,1.23,3.34,1.6,6,4.36,8.81,6.66,5.8,4.69,12.89,8.17,20.4,5.59,6-2.08,3.45-11.75-2.66-9.65Z"/></g><g class="cls-15"><path class="cls-5" d="M15.62,160a50.6,50.6,0,0,1,29.1-1.74c6.26,1.47,8.93-8.17,2.66-9.65A60.44,60.44,0,0,0,13,150.33c-6,2.14-3.43,11.8,2.66,9.64Z"/></g><g class="cls-16"><path class="cls-5" d="M304.06,169.83l16.72,1.63c6.4.63,6.36-9.38,0-10l-16.72-1.63c-6.4-.62-6.35,9.39,0,10Z"/></g><g class="cls-17"><path class="cls-5" d="M76.9,120.58c5.48-.6,9.44-3,13.95-6,5.27-3.54,10.7-5.12,17-3.67s8.94-8.19,2.66-9.64a30,30,0,0,0-18,1.06c-5.22,2.07-10,7.67-15.57,8.28-6.33.69-6.4,10.7,0,10Z"/></g><g class="cls-18"><path class="cls-5" d="M120.17,166.84c8.26,5,16.16,6.25,25.71,6.79,6,.33,18.77,1.6,22.33-4.67.8-1.4,1.07-3.67,0-5l-.26-.35c-3.88-5-12.57,0-8.63,5.05l.26.34v-5c1-1.74-1.63-.6-2.58-.48a47.17,47.17,0,0,1-4.75.33c-3,.07-6.08-.1-9.11-.33-6.87-.52-12-1.62-17.92-5.24-5.51-3.36-10.54,5.29-5,8.64Z"/></g><ellipse cx="224.69" cy="46.21" rx="20.92" ry="20.79"/><ellipse cx="179.09" cy="46.7" rx="20.92" ry="20.79"/><ellipse class="cls-19" cx="224.92" cy="51.89" rx="8.75" ry="9.88"/><path class="cls-19" d="M169.39,37.11c0-1.6,1.17-3.9,2.61-3.9a2.92,2.92,0,0,1,0,5.8C170.56,39,169.39,38.71,169.39,37.11Z"/><ellipse class="cls-19" cx="221.11" cy="35.95" rx="2.61" ry="2.9"/><ellipse class="cls-19" cx="179.15" cy="52.66" rx="8.75" ry="9.88"/><path class="cls-19" d="M190.19,89.79a28,28,0,0,0,27.16.25c1.69-.93.18-3.53-1.51-2.59a24.89,24.89,0,0,1-24.13-.25,1.5,1.5,0,0,0-1.52,2.59Z"/><path class="cls-19" d="M215.05,85.36a8.1,8.1,0,0,0,5.42,5.14,1.5,1.5,0,1,0,.8-2.89,7.35,7.35,0,0,1-.79-.27l.36.15a6.67,6.67,0,0,1-1.43-.85l.3.24a6.87,6.87,0,0,1-1.17-1.18l.23.3a6.63,6.63,0,0,1-.84-1.43l.15.36-.13-.36a1.59,1.59,0,0,0-.69-.9,1.5,1.5,0,0,0-2.21,1.69Z"/></svg>