<svg id="Layer_1" data-name="Layer 1" xmlns="http://www.w3.org/2000/svg" width="1920" height="1080" viewBox="0 0 1920 1080"><defs><style>.cls-1{fill:#998675;}.cls-2{fill:#ffe755;}.cls-3{fill:#ffdfd4;}.cls-4{fill:#b3b3b3;}.cls-5{fill:#e6e6e6;}.cls-6{fill:#ff9094;}.cls-7{fill:#231f20;}.cls-8{fill:#001300;}.cls-9{fill:#fff;}.cls-10{fill:#999;}.cls-11{fill:#f2f2f2;}.cls-12{fill:#8c6239;}.cls-13{fill:#ccc;}.cls-14{fill:#4d4d4d;}.cls-15{opacity:0.09;}</style></defs><rect class="cls-1" x="1" width="1920" height="1080"/><path d="M559.91,373.93q-9.54-69.66-19.1-139.33,9-5.31,18.1-10.43,8.18,71,16.34,142,13.18,5.7,26.54,11,1,10.53,1.93,21.06Q581.57,386.73,559.91,373.93Z"/><path d="M621.58,407.31Q613.28,303.59,605,199.87q23.24-11.46,46.94-21.61.82,13.92,1.64,27.84-14.16,4.76-28.16,9.89l5.28,75,18.55-1.1q.84,13.35,1.67,26.7-9.27-.36-18.47-.76l5.28,75q13.57,4.88,27.31,9.4.83,13.92,1.64,27.84Q643.92,418.32,621.58,407.31Z"/><path d="M709.48,155.77q9.66-3.42,19.36-6.62,3.63,95.17,7.27,190.37c1.21,31.77-.92,58.82-6.28,79.64s-12.35,29-21,25.74q-11.94-4.44-23.79-9.21Q678,303,671,170.33q9.54-3.86,19.13-7.48Q696,287.26,701.92,411.66q4.65,1.35,9.31,2.67c2.59.73,4.65-1.81,6.2-7.74s2.14-13.35,1.77-22.13Z"/><path d="M759.26,462q-5.49-159.53-11-319.06,24.42-7.49,49.11-13.66.51,19.28,1,38.55Q783.65,170.72,769,174q1.69,55.06,3.4,110.13,9.68-.36,19.39-.69l1.05,37.65-19.32-.48q1.71,55.06,3.4,110.13,14.22,3.09,28.52,5.85.51,19.28,1,38.55Q782.72,469.19,759.26,462Z"/><path d="M825.53,479.68q-4.14-177.57-8.26-355.14,9.9-2.25,19.84-4.29,3.33,161.52,6.65,323,14.41,2.28,28.89,4.2.36,20.88.71,41.76Q849.35,485.09,825.53,479.68Z"/><path d="M978.62,412.68c-.57,59-6.88,88.23-18.93,87.28q-9.74-.75-19.44-1.7c-5.29-.51-9.92-9.56-13.9-26.93s-6.12-37.8-6.39-61.42q-1.22-108.14-2.42-216.27c-.27-23.21,1.43-43.54,5.13-61.13s8.36-26.76,14-27.31q10.11-1,20.23-1.77c12.69-1,19.58,28.2,20.61,87.23-3.35.11-6.7.22-10,.35q-1.44-43.9-10.26-43.38-5,.3-10.07.65-4.14.28-7,13.32t-2.68,30.81q1,109.32,2,218.64a145.05,145.05,0,0,0,3.13,30.7c2,8.73,4.31,13.22,7,13.4,3.26.22,6.51.42,9.77.61q8.58.53,9.42-43.4Z"/><path d="M1017.44,100.72q10.14-.14,20.28,0c5.54,0,10.27,8.92,14.19,26.57s5.82,38.58,5.74,62.82q-.32,111.58-.65,223.18-.11,36.17-5.91,62.71t-13.75,26.67q-9.75.08-19.49-.05c-5.32-.07-9.89-8.93-13.75-26.51s-5.84-38.54-5.92-62.9q-.33-111.51-.67-223-.1-36.54,5.75-62.91C1007.17,109.66,1011.91,100.79,1017.44,100.72Zm.09,89.16q.11,111.76.23,223.53a149.44,149.44,0,0,0,2.89,31.21q2.86,13.2,6.94,13.22c2.72,0,5-4.4,6.94-13.2a149.22,149.22,0,0,0,2.9-31.2l.21-223.59q0-18.21-3-31.31t-7.1-13.09q-4.14,0-7.12,13.12T1017.53,189.88Z"/><path d="M1076.13,501.49q1-199.83,2-399.65l4.6.24c14,63.86,27.82,127.3,41.3,189.43,14.68-61.92,29.59-122.48,44.74-180.78,3.35.5,6.7,1,10,1.53l-5.91,379.22q-9.66,1.51-19.33,2.83,1.56-117.71,3.13-235.41c-12.23,49.68-24.31,100.64-36.23,152.36-10.85-50.51-21.9-102-33.13-154q-.74,121.86-1.45,243.7C1082.62,501.15,1079.37,501.33,1076.13,501.49Z"/><path d="M1192.05,488.25q3.36-186.31,6.7-372.63,20,3.59,39.85,8c5.43,1.22,9.9,10.1,13.38,26.24s4.94,34.57,4.39,55.57q-.51,19.38-1,38.76c-.55,21.13-2.93,39.13-7.12,54.38s-8.92,23.09-14.22,23.2l-19.51.37-3.33,162.44Q1201.64,486.53,1192.05,488.25Zm23.29-206.4,9.8.26c2.66.07,5-3.83,7.16-11.65a117.6,117.6,0,0,0,3.55-27.85q.47-19.89.92-39.78a119.4,119.4,0,0,0-2.29-28.25c-1.79-8.08-4-12.4-6.71-12.85q-5-.82-9.94-1.61Z"/><path d="M1268.25,471.19q4.9-168.9,9.82-337.82,9.83,2.65,19.6,5.5-4.7,145.29-9.4,290.59,14.18-3.19,28.25-6.73-.64,17.24-1.31,34.46Q1291.89,464.84,1268.25,471.19Z"/><path d="M1333.9,450.85q6.24-148.16,12.49-296.3,24.15,8.49,47.92,18.33-.8,14.51-1.6,29-14.2-4.62-28.56-8.85l-4.41,94.19q9.46.45,18.88.95-.78,14.79-1.55,29.58l-18.79.67q-2.22,47.08-4.42,94.18,13.91-4,27.69-8.4-.81,14.5-1.61,29Q1357.11,442.69,1333.9,450.85Z"/><path d="M1407.22,421.43q6.88-105,13.76-209.92-9.36-3.33-18.78-6.48.81-14.07,1.64-28.15,28.44,12.13,56.26,26.21l-1.89,22.42q-9.21-3.67-18.5-7.16-7.2,97.34-14.41,194.66Q1416.3,417.32,1407.22,421.43Z"/><path d="M1452.06,399.64l17.31-191.79q23.06,12,45.59,25.32-1.07,7.92-2.12,15.84-13.47-6.25-27.13-12.13-3,28.77-6,57.53,9,.64,18,1.31l-2.07,16.83q-8.89.46-17.87.91-3,28.77-6,57.53,13.24-5.58,26.3-11.52l-2.13,15.84Q1474.22,388.12,1452.06,399.64Z"/><path class="cls-2" d="M596.16,374.62c1.1-1.15,2.86-.74,4,.15,1.72,1.33,1.81,3.83,1.46,5.8-.88,4.89-3.64,9.42-5.8,13.84A48.92,48.92,0,0,0,591,408.75a40.17,40.17,0,0,0,.59,14.94c1.19,5.1,4.24,11.15,1.87,16.34-.8,1.74,1.78,3.27,2.59,1.51,2.42-5.3.6-10.8-.9-16.09a38.13,38.13,0,0,1-1.08-17c1-5.78,3.6-10.91,6.17-16.12,2.26-4.58,5.37-10.13,4.4-15.42a7.13,7.13,0,0,0-4.21-5.41,5.62,5.62,0,0,0-6.38,1c-1.33,1.39.79,3.52,2.13,2.12Z"/><path class="cls-2" d="M585.57,389.94c-.74,2.34-.12,4.7.37,7a10.65,10.65,0,0,1,.31,3.23,26.36,26.36,0,0,1-.89,3.47c-.47,1.87,2.43,2.67,2.89.79a35.25,35.25,0,0,0,.92-3.64,11.75,11.75,0,0,0-.16-3.74c-.37-2.08-1.21-4.24-.55-6.34.58-1.84-2.31-2.63-2.89-.79Z"/><path class="cls-2" d="M548.48,228.94c.59-2.07,3-2.84,4.93-2.58,2.43.32,4.11,2.39,5,4.5,2.46,5.56,1.34,12.44.21,18.17-1.24,6.31-3,12.59-3.17,19-.16,6.26,1.79,11.85,4.4,17.44,2.75,5.88,6,11.93,5.27,18.63-.21,1.92,2.79,1.9,3,0,.75-6.53-2.11-12.59-4.83-18.34a66.21,66.21,0,0,1-3.65-8.75,28.82,28.82,0,0,1-1.14-10.24c.41-7.06,2.65-13.86,3.69-20.82.9-6.07,1.4-13.57-2.44-18.8a8.74,8.74,0,0,0-7.86-3.84,6.94,6.94,0,0,0-6.35,4.78,1.51,1.51,0,0,0,2.9.8Z"/><path class="cls-2" d="M642.42,289.82c.5-1.93,3.08-2,4.59-1.27,2.62,1.22,3,4.86,3,7.38a94.67,94.67,0,0,1-.52,11,114.81,114.81,0,0,1-2.1,11.34,32.55,32.55,0,0,0-.56,10.78,43.49,43.49,0,0,0,2.6,9.64c2.42,6.32,5.78,12.29,7.49,18.86,1.64,6.32,2,13.79-2.33,19.16-1.21,1.49.9,3.62,2.12,2.12,4.29-5.32,4.94-12.11,3.84-18.67-1.25-7.39-4.87-13.95-7.66-20.82a43,43,0,0,1-3.16-11.15c-.46-4.14.31-8.11,1.21-12.13a79.45,79.45,0,0,0,1.83-12.75c.22-3.7.61-7.64-.16-11.3-.69-3.25-2.75-6.19-6.18-6.77-2.89-.5-6.14.66-6.92,3.74-.47,1.88,2.42,2.67,2.89.8Z"/><path class="cls-2" d="M637.87,316.67a14.34,14.34,0,0,0,.93,9.67,1.5,1.5,0,0,0,2.05.54,1.53,1.53,0,0,0,.54-2.05l-.12-.27,0-.05c-.06-.14-.11-.28-.16-.42-.12-.32-.22-.65-.31-1s-.16-.67-.22-1c0-.1,0-.2,0-.3s0-.19,0-.09,0,.07,0-.09l0-.3a13,13,0,0,1,0-2.07c0-.14,0-.29,0-.44s0-.19,0,0a2.93,2.93,0,0,1,0-.29c.06-.34.13-.68.22-1a1.5,1.5,0,1,0-2.89-.8Z"/><path class="cls-2" d="M643.16,390.93c-3.75-1.15-7.24,1.74-8.82,4.95a17.49,17.49,0,0,0-1.06,12.24c1.09,4,3.3,7.61,5,11.38a55,55,0,0,1,3.9,12.67,55.94,55.94,0,0,1,.66,15c-.17,1.92,2.83,1.91,3,0a58.58,58.58,0,0,0-2.78-23.62,88.29,88.29,0,0,0-4.66-10.65c-1.67-3.43-3.08-7-2.72-10.92.28-3.05,2.48-9.45,6.69-8.17,1.85.57,2.64-2.33.79-2.89Z"/><path class="cls-2" d="M630.52,188a7.94,7.94,0,0,1,10-2.82c3.93,2,5,6.2,4.3,10.28-.84,4.73-2.84,9.33-4.4,13.85-1.52,4.36-3.33,9-2.72,13.67a12.37,12.37,0,0,0,2.13,5.65,10.35,10.35,0,0,0,2.21,2.27,8.81,8.81,0,0,0,1.17.73c.22.11.45.2.67.29l.33.14c.65.36,1-.12.95-1.43-1.93,0-1.93,3,0,3a2,2,0,0,0,2-1.7,2.34,2.34,0,0,0-1.52-2.5,8.6,8.6,0,0,1-2.58-1.56,8.08,8.08,0,0,1-1.77-2.73c-2.05-5.06.49-10.7,2.15-15.5,1-2.81,2-5.62,2.92-8.45a28.32,28.32,0,0,0,1.65-7.7,11.38,11.38,0,0,0-6.67-11.2,11,11,0,0,0-13.46,4.2c-1.06,1.61,1.53,3.12,2.59,1.51Z"/><path class="cls-2" d="M710.43,413.21c.28-1.48,1.81-1.93,3.18-1.76,2,.24,3.13,1.92,3.73,3.68a31.51,31.51,0,0,1,1.11,7c.26,2.81.51,5.62.64,8.44a57.33,57.33,0,0,1-1.3,17c-1.36,5.31-4,10.18-5.51,15.44a31.29,31.29,0,0,0,.26,18.28c.59,1.83,3.49,1.05,2.89-.8a28.78,28.78,0,0,1,.15-18c1.92-5.9,4.77-11.38,5.82-17.56a75.09,75.09,0,0,0,.42-18.59c-.23-2.92-.45-5.86-.86-8.76a13.08,13.08,0,0,0-2.76-6.94c-2.8-3.18-9.73-3.21-10.67,1.74-.36,1.88,2.53,2.69,2.9.79Z"/><path class="cls-2" d="M705.71,450.39l0-.19c0,.24,0,.28,0,.12s0-.26,0-.39a4.82,4.82,0,0,1,0-.76l0-.38c0-.17,0-.13,0,.11a1.29,1.29,0,0,1,0-.19,6.74,6.74,0,0,1,.17-.75,4.33,4.33,0,0,0,.24-.72q-.14.31,0,.09a1.3,1.3,0,0,1,.08-.17,3.59,3.59,0,0,1,.17-.34,7.23,7.23,0,0,1,.4-.66l.11-.15c.1-.13.08-.11-.06.07l.25-.29a1.5,1.5,0,1,0-2.12-2.12,9,9,0,0,0-2.11,7.52,1.5,1.5,0,0,0,1.84,1.05,1.55,1.55,0,0,0,1.05-1.85Z"/><path class="cls-2" d="M683.28,166c2.92-2.65,6.47,1,7.63,3.6a37.34,37.34,0,0,1,2.74,12.7,48.55,48.55,0,0,1-.95,13.34,82.2,82.2,0,0,1-4.08,12.31,52.62,52.62,0,0,0-3.57,12.35,30.37,30.37,0,0,0,1,11.88c2.16,7.86,6.53,14.85,9.42,22.43a51,51,0,0,1,2.08,29.61c-.44,1.87,2.46,2.68,2.89.79a53.86,53.86,0,0,0-.93-27.89c-2.6-8.44-7.54-15.93-10.16-24.36A28.27,28.27,0,0,1,688.09,220c.68-4.49,2.42-8.75,4.07-13a64.48,64.48,0,0,0,4-13.6,51.73,51.73,0,0,0,.22-14.17c-.58-4.56-1.45-9.94-4.33-13.68-2.55-3.31-7.51-4.81-10.87-1.76-1.43,1.3.69,3.42,2.12,2.12Z"/><path class="cls-2" d="M782.83,284a2.87,2.87,0,0,1,3.29-.66,5.5,5.5,0,0,1,3,3.41c1.42,3.61,1.71,7.86,1.75,11.7A56.39,56.39,0,0,1,789.32,311a58.38,58.38,0,0,0-1.83,11.88,19.62,19.62,0,0,0,3.14,11.53c1.1,1.57,3.7.07,2.59-1.52-5.23-7.5-1.66-16.95-.2-25a49.61,49.61,0,0,0,.55-14.13c-.42-3.84-1-8.33-3.65-11.31-2.55-2.82-7.38-3.21-9.68.09-1.11,1.58,1.49,3.08,2.59,1.51Z"/><path class="cls-2" d="M780.56,327.86l-.58-6a1.63,1.63,0,0,0-.44-1.06,1.56,1.56,0,0,0-1.06-.44,1.52,1.52,0,0,0-1.5,1.5l.58,6a1.61,1.61,0,0,0,.44,1.06,1.5,1.5,0,0,0,2.56-1.06Z"/><path class="cls-2" d="M784,132.86c-.29-2.07,2.94-2.92,4.43-2.48,2.64.76,3.76,4,4.27,6.43,1.46,6.71.56,13.92-.68,20.58-2.56,13.8-7.1,27.48-4.09,41.6.9,4.2,2.26,8.28,3.57,12.36l4,12.5c.59,1.83,3.49,1.05,2.89-.8l-3.94-12.27c-1.29-4-2.63-8-3.55-12.12-1.7-7.67-1.09-15.4.35-23s3.48-15.1,4.5-22.78a57.77,57.77,0,0,0,.52-11.38c-.21-3.34-.63-6.87-2.29-9.83s-4.57-4.89-8-4.22c-3.06.6-5.36,3.08-4.91,6.26.27,1.9,3.16,1.09,2.89-.8Z"/><path class="cls-2" d="M866.1,445.12c-8.11-3.69-17.75.93-21.8,8.47-5.16,9.58-2.55,21,1.34,30.48,2.13,5.21,4.65,10.27,6.57,15.57a79.73,79.73,0,0,1,4.55,33.72,156.54,156.54,0,0,1-2.52,16.24c-2.18,11.62-4.23,24,1.25,35.07.86,1.73,3.45.21,2.59-1.51-4.56-9.2-3.29-19.75-1.55-29.5.91-5.13,2-10.23,2.69-15.4a83,83,0,0,0,.66-16,89.75,89.75,0,0,0-7.86-31C848,482,843,472,844.75,461.53c.82-4.84,3.14-9.32,7.28-12.1,3.64-2.45,8.41-3.61,12.56-1.72,1.74.79,3.27-1.79,1.51-2.59Z"/><path class="cls-2" d="M870.91,495.3v-5a1.5,1.5,0,0,0-3,0v5a1.5,1.5,0,1,0,3,0Z"/><path class="cls-2" d="M949.3,453.46c1.85-1.92,4.59-2,7-1.16a9.62,9.62,0,0,1,5.57,5.86,25,25,0,0,1,1.26,9.53,46.49,46.49,0,0,1-1.41,11c-1.73,6.52-5.34,12.3-7.81,18.53a35.29,35.29,0,0,0-2.45,9.69,43.66,43.66,0,0,0,.47,10.4c1.14,8,3.54,15.88,2.46,24-.11.81.76,1.49,1.5,1.5a1.54,1.54,0,0,0,1.5-1.5c1-7.62-1-15.15-2.23-22.62a46,46,0,0,1-.74-11.35,34,34,0,0,1,2.78-10.3c2.86-6.79,6.73-13.15,8.07-20.49a52.92,52.92,0,0,0,.84-11.52,22.14,22.14,0,0,0-2.4-10c-3.09-5.56-11.52-8.9-16.52-3.7-1.34,1.39.78,3.52,2.12,2.12Z"/><path class="cls-2" d="M941.79,511.25a25.77,25.77,0,0,1,.78-10.59,1.5,1.5,0,0,0-2.9-.8,27.94,27.94,0,0,0-.88,11.39,1.54,1.54,0,0,0,1.5,1.5,1.52,1.52,0,0,0,1.5-1.5Z"/><path class="cls-2" d="M915.63,228.86c-2.78,12.21-5.6,26.4,1.63,37.67,3.32,5.19,8.35,9.2,11,14.82s1.77,12.2.47,18.14c-1.53,7-3.72,14-3,21.26.2,1.9,3.2,1.92,3,0-1.29-12.46,6.63-24.42,3.56-36.85-1.52-6.17-6-10.63-9.9-15.38a29,29,0,0,1-4.8-7.83,29.94,29.94,0,0,1-1.88-9.06c-.43-7.42,1.13-14.79,2.77-22,.43-1.88-2.46-2.68-2.89-.79Z"/><path class="cls-2" d="M958.65,104.36c3.45.87,5.55,3.81,6.46,7.11a17.36,17.36,0,0,1-1.05,11.44c-1.9,4.55-4.83,8.58-7.15,12.9A41.16,41.16,0,0,0,952.29,150a40.74,40.74,0,0,0,1.43,17.14c.56,1.84,3.46,1.06,2.89-.79a38.58,38.58,0,0,1,3.81-30.72c4.48-7.82,10.36-16,7.45-25.45-1.26-4.11-4.13-7.67-8.42-8.76-1.87-.47-2.67,2.42-.8,2.9Z"/><path class="cls-2" d="M943.21,160v-5.39a1.5,1.5,0,1,0-3,0V160a1.5,1.5,0,1,0,3,0Z"/><path class="cls-2" d="M1030.88,450.43c-4.68-.7-8.57,2.39-10.27,6.59-1.84,4.54-1.55,9.88-.88,14.63,1.44,10.27,6,19.79,7.45,30.06.77,5.46.61,11.22-1.61,16.34-.76,1.75,1.83,3.28,2.59,1.51,3.76-8.68,2.51-18.23.11-27.11-2.55-9.44-6.52-18.85-6-28.81a14.6,14.6,0,0,1,2-7.31c1.22-1.84,3.47-3.35,5.76-3,1.89.28,2.71-2.61.8-2.89Z"/><path class="cls-2" d="M1046,495.22a17.74,17.74,0,0,1,3.06,11.83,16.88,16.88,0,0,1-1.65,5.87,38.67,38.67,0,0,1-4,5.68c-2.82,3.84-3.41,8.82-3.05,13.46a29.58,29.58,0,0,0,4.29,13.25c2.38,3.84,7.47,9.1,4.3,13.86-1.08,1.61,1.52,3.11,2.59,1.51,2.78-4.17.84-9.22-1.67-13a54.67,54.67,0,0,1-4-6.33,27.08,27.08,0,0,1-2.26-7.15c-.86-5-.48-10.39,2.66-14.48a31.43,31.43,0,0,0,3.87-5.63,21.07,21.07,0,0,0,1.81-6.3,20.43,20.43,0,0,0-3.39-14.09c-1.1-1.57-3.7-.08-2.59,1.51Z"/><path class="cls-2" d="M1081.65,104.33c5.35.3,6.64,7.88,7,12a135.3,135.3,0,0,1,.2,23.3c-.6,7.7-2.22,15.29-2.62,23a46.35,46.35,0,0,0,.67,11.22,61.12,61.12,0,0,0,2.91,9.7c2.67,7.15,6,14.35,5.75,22.15-.06,1.93,2.94,1.93,3,0,.24-7.14-2.36-13.82-4.87-20.37a83.61,83.61,0,0,1-3.44-10.23,41.44,41.44,0,0,1-1.06-11.75c.33-8.12,2.1-16.11,2.7-24.21a127.6,127.6,0,0,0-.38-24.25c-.67-5.67-3.12-13.17-9.88-13.56-1.93-.11-1.92,2.89,0,3Z"/><path class="cls-2" d="M1124.75,284.11a2.16,2.16,0,0,1,2.39-1l-1.05-1c5.93,15.43-.2,32,.07,47.91.3,17,7.26,32.82,9.83,49.44,1.41,9.09,1.42,18.52-1.77,27.26-.66,1.82,2.24,2.6,2.9.8,6.33-17.39.52-35.86-3.89-52.95-2.33-9-4.29-18.13-4-27.48.23-9,2-17.91,2.4-26.92a52.13,52.13,0,0,0-1.2-14.42c-.28-1.14-.62-2.28-1-3.39s-.75-2.05-2.16-2.23a5.2,5.2,0,0,0-5,2.48c-1,1.63,1.56,3.14,2.59,1.51Z"/><path class="cls-2" d="M1217.89,282c.84-1.6,3.19-1.16,4.27,0,1.77,1.82,1.68,4.9,1.62,7.24-.17,6.41-2,12.25-4,18.28-1.9,5.78-2.93,11.47-1,17.4,1,2.9,2.18,5.7,3,8.63a61.83,61.83,0,0,1,1.51,29.48c-.36,1.89,2.53,2.69,2.9.8a66.15,66.15,0,0,0-1.2-30c-.9-3.24-2.23-6.32-3.29-9.5a19.21,19.21,0,0,1-.78-9.77,70.68,70.68,0,0,1,2.85-9.68c2.05-6.16,3.67-13.11,2.78-19.64-.4-2.9-1.76-5.81-4.69-6.86-2.4-.86-5.37-.23-6.62,2.15-.9,1.71,1.69,3.22,2.59,1.51Z"/><path class="cls-2" d="M1235.35,120.84a14.1,14.1,0,0,0-8.94,11.61c-.67,6.1,3.63,10.94,6,16.18a42.63,42.63,0,0,1-.74,35.54c-1.53,3.24-3,6.43-3.44,10a21,21,0,0,0,1.48,10.57,1.54,1.54,0,0,0,1.84,1,1.5,1.5,0,0,0,1-1.84,18.91,18.91,0,0,1-1.46-8.91,25.13,25.13,0,0,1,2.83-8.74,48.59,48.59,0,0,0,4.82-16.7,45.59,45.59,0,0,0-1.69-16.87,43.3,43.3,0,0,0-3.28-8.05c-1.32-2.5-3-4.87-3.89-7.57a10.91,10.91,0,0,1,6.24-13.39c1.79-.67,1-3.58-.79-2.89Z"/><path class="cls-2" d="M1286.12,132c-5.27-1.26-9.71,3-11.24,7.7-1.93,6,1.31,12.14,3.54,17.57a48.82,48.82,0,0,1,3.82,19.23,21.89,21.89,0,0,1-2.16,9.34,61.71,61.71,0,0,0-3.73,8.5,32.2,32.2,0,0,0,.75,20.68c.69,1.79,3.59,1,2.9-.79a29.34,29.34,0,0,1-1.3-17,35.91,35.91,0,0,1,3.2-8.3,28,28,0,0,0,3-8.19,43.89,43.89,0,0,0-1.43-18,65.64,65.64,0,0,0-3.07-8.45,37.11,37.11,0,0,1-2.88-8.61,10.41,10.41,0,0,1,1.6-7.81c1.4-2,3.7-3.56,6.22-3,1.88.45,2.68-2.44.8-2.89Z"/><path class="cls-2" d="M1299.2,426.93c1.38-3.09,5.39-3,7.56-.83,3,3,2.64,7.65,1.72,11.43-1.06,4.35-2.75,8.51-4,12.78a44.68,44.68,0,0,0-2.1,12.93,40.59,40.59,0,0,0,2.68,14.54c.69,1.78,3.59,1,2.9-.8a38.21,38.21,0,0,1-2.57-14.42,48.83,48.83,0,0,1,3-14.52c1.58-4.71,3.57-9.53,3.82-14.54.21-4.12-1.26-8.61-4.93-10.86-3.5-2.14-8.83-1.18-10.59,2.78-.78,1.75,1.8,3.27,2.59,1.51Z"/><path class="cls-2" d="M1368.66,160a36.84,36.84,0,0,0-9.11-3.15c-2.91-.57-6.52-1.26-9.25.25-2.45,1.36-3.55,4.16-4.19,6.74a32.57,32.57,0,0,0-.85,9.84c.78,13.13,7.67,25,8.51,38.09a29.91,29.91,0,0,1-.87,10c-.83,3-2.27,6.57-5.05,8.27-1.64,1-.14,3.6,1.52,2.59,4.78-2.92,6.69-9.42,7.29-14.67.67-5.93-.37-12-1.86-17.74-3.07-11.83-9.48-24.81-5.35-37.18a5.65,5.65,0,0,1,2.36-3.37c1.52-.8,3.56-.47,5.2-.24a33.05,33.05,0,0,1,10.13,3.14c1.73.86,3.25-1.73,1.52-2.59Z"/><path class="cls-2" d="M1369.56,198c1.81,4.76.19,9.76-.42,14.58-.54,4.31-.23,8.7,2.52,12.24,1.18,1.52,3.29-.62,2.12-2.13-2.51-3.23-2-7.88-1.4-11.66.77-4.56,1.78-9.34.07-13.83-.68-1.78-3.58-1-2.89.8Z"/><path class="cls-2" d="M1371.43,286.77c1.57-2,4.88-1.59,6.75-.27,2.67,1.88,3.11,5.7,2.73,8.69-.49,3.77-2.32,7.24-3.73,10.72a38,38,0,0,0-2.67,11.37c-1.27,15.84,6.09,30.61,8,46.07,1,8.06.63,16.49-3.39,23.74-.94,1.68,1.65,3.2,2.59,1.51,8.14-14.68,2.88-31.81-1-46.9-2.17-8.43-4.14-17.23-3.06-26,.54-4.38,2.13-8.34,3.82-12.38,1.52-3.6,2.85-7.41,2.47-11.38-.36-3.77-2.19-7.35-5.82-8.86a7.74,7.74,0,0,0-9.3,2.17c-1.18,1.53,1.43,3,2.59,1.51Z"/><path class="cls-2" d="M1361.7,318.87c-.21,4.21,1.64,8.07,3.4,11.78,1.64,3.45,3.56,7.27,2.61,11.19-.46,1.87,2.43,2.67,2.89.79,1-4.21-.44-8.2-2.2-12s-3.91-7.53-3.7-11.77c.09-1.93-2.91-1.92-3,0Z"/><path class="cls-2" d="M1437,191.87c4.2-.81,8.25,1.59,10.83,4.76,3,3.66,3.89,8.61,4.1,13.2a135.61,135.61,0,0,1-.48,15.61q-.59,8.31-1.73,16.58-1.29,9.18-3.26,18.24c-.41,1.89,2.48,2.69,2.89.8a251.71,251.71,0,0,0,5.1-35.62,116.59,116.59,0,0,0,.4-16.92c-.38-5-1.64-10.06-4.89-14s-8.49-6.55-13.76-5.53c-1.89.36-1.09,3.26.8,2.89Z"/><path class="cls-2" d="M1409,210.51v11.6a1.5,1.5,0,0,0,3,0v-11.6a1.5,1.5,0,0,0-3,0Z"/><path class="cls-2" d="M1495.77,222.3a11.37,11.37,0,0,1,9.84,4c2.86,3.09,4.07,7.3,4.37,11.42a62.47,62.47,0,0,1-.86,13.79,112.49,112.49,0,0,1-2.87,13.5,110.83,110.83,0,0,1-5.44,15.23c-.78,1.75,1.81,3.28,2.59,1.51a114.47,114.47,0,0,0,8.65-29.67c1.34-9.08,2.53-20-3.94-27.49-3-3.51-7.64-5.88-12.34-5.26a1.55,1.55,0,0,0-1.5,1.5,1.5,1.5,0,0,0,1.5,1.5Z"/><path class="cls-2" d="M1501.68,244.68a11.24,11.24,0,0,0,2.61,10.11,1.5,1.5,0,0,0,2.12-2.13l-.35-.4c-.08-.1-.1-.14,0,0a1.77,1.77,0,0,1-.16-.22,8.64,8.64,0,0,1-.57-.91l-.24-.48c0-.08-.07-.17-.11-.25.06.14,0,.11,0,0a8.63,8.63,0,0,1-.35-1.09,5,5,0,0,1-.12-.53c0-.09,0-.18,0-.26s0-.31,0-.14a1.17,1.17,0,1,1,0-.13c0-.09,0-.18,0-.27s0-.36,0-.54a9.48,9.48,0,0,1,0-1.07s0-.32,0-.14,0-.1,0-.13c0-.2.08-.4.13-.6a1.5,1.5,0,0,0-2.9-.79Z"/><path class="cls-2" d="M1479.63,367.16c.27-3.26,4.59-4,6.9-2.57,3.52,2.15,4.14,6.71,3.92,10.46-.29,4.84-1.26,9.7-2,14.5-.67,4.65-1.8,9.52-1.37,14.24.41,4.51,2.66,8.41,3.95,12.67a38,38,0,0,1,1.54,12,55.59,55.59,0,0,1-6.88,24.28c-2.14,4.05-4.82,8.2-4.89,12.94,0,3.78,1.63,7.82,5.19,9.5,1.73.83,3.26-1.76,1.51-2.59-3.28-1.56-4.18-5.58-3.47-8.89,1-4.44,3.78-8.26,5.69-12.3,3.76-8,6.16-16.8,5.84-25.67a39.54,39.54,0,0,0-2.56-12.76c-.82-2.14-1.78-4.24-2.39-6.46a20.53,20.53,0,0,1-.48-7.33c.47-5.2,1.42-10.38,2.17-15.55.68-4.75,1.84-9.81.64-14.57-1-3.91-4-7.79-8.24-8.24-3.9-.41-7.79,2.3-8.12,6.3-.16,1.92,2.84,1.91,3,0Z"/><path class="cls-2" d="M1472.07,388.78c-.78,4.44,1.75,8,3.66,11.78a21.53,21.53,0,0,1,2,13.13c-.76,4.49-3,8.46-4.76,12.61a26.1,26.1,0,0,0-2.1,12.42,25.37,25.37,0,0,0,5,13c1.16,1.51,3.76,0,2.59-1.52a22.64,22.64,0,0,1-4.51-10.94,23.69,23.69,0,0,1,1.84-12c1.65-4,3.86-7.87,4.72-12.18a24.54,24.54,0,0,0-.75-12.58,41.26,41.26,0,0,0-3.06-6.44c-1.06-2-2.18-4.2-1.77-6.52.34-1.89-2.55-2.7-2.89-.8Z"/><path class="cls-3" d="M1767.25,700.73s-158.77-108.11-161.74-202c-3.2-100.88,14.88-215.57,161.74-215.57s155.5,119.15,151.07,218.59C1914.37,590.61,1767.25,700.73,1767.25,700.73Z"/><path class="cls-4" d="M1531.79,819.16c-32.59-135.58,17.37-240.25,261.73-229.36s201,131.76,182.28,248-86,225.1-223.3,220.33S1564.37,954.74,1531.79,819.16Z"/><rect class="cls-5" x="1581.86" y="326.82" width="359.44" height="70.96" rx="9.01"/><path class="cls-5" d="M1909.43,391.87c-121.87-16.13-170.21-19-292.59.47-8.13-62.52-24.08-123.72-33.53-186,113.84-6.18,236.06-6.64,350-2.1C1926.31,266.89,1915.51,329.05,1909.43,391.87Z"/><ellipse class="cls-5" cx="1637.92" cy="213.01" rx="84.38" ry="82.71"/><ellipse class="cls-5" cx="1756.41" cy="130.09" rx="84.38" ry="82.71"/><ellipse class="cls-5" cx="1872.74" cy="211.97" rx="84.38" ry="82.71"/><path class="cls-6" d="M1834.12,506.74c-.09-4.2,10.54-8.45,19.69-8.61,9.84-.17,21.11,4.33,21,8.61s-11.62,8.27-21.31,8C1844.86,514.56,1834.21,510.9,1834.12,506.74Z"/><path class="cls-6" d="M1649.91,508.3c-.09-4.19,10.54-8.44,19.69-8.6,9.84-.17,21.11,4.33,21,8.6s-11.62,8.28-21.31,8C1660.65,516.13,1650,512.46,1649.91,508.3Z"/><path class="cls-7" d="M1742.79,531.07a28.8,28.8,0,0,0,43.34-2.54c1.83-2.37-2.38-4.64-4.19-2.29a23.6,23.6,0,0,1-17.13,8.89,24.21,24.21,0,0,1-18.59-7.27c-2.11-2.16-5.53,1-3.43,3.21Z"/><path class="cls-7" d="M1780.59,519.18a12.14,12.14,0,0,0,4.45,8,13.87,13.87,0,0,0,9.06,3.19,2.27,2.27,0,1,0,0-4.54c-.31,0-.63,0-.94,0l-.46,0c-.52,0,.5.09,0,0a13.93,13.93,0,0,1-1.8-.45,1.88,1.88,0,0,0-.43-.16l.15.06-.14-.06c-.28-.13-.56-.27-.82-.42a7.83,7.83,0,0,1-.79-.47,2.2,2.2,0,0,1-.25-.17l.24.18c-.06,0-.37-.29-.42-.33a10.43,10.43,0,0,1-1.32-1.25l-.15-.16c.21.24.25.3.14.17l-.27-.36c-.17-.24-.34-.49-.49-.74s-.29-.51-.43-.77.21.49,0,0c-.06-.13-.11-.27-.16-.41a7.93,7.93,0,0,1-.25-.83c0-.15-.07-.29-.1-.43-.11-.59,0,.42,0-.05a2.41,2.41,0,0,0-2.43-2.27c-1.19.05-2.57,1-2.42,2.27Z"/><path class="cls-7" d="M1743.65,519.69c-.06.49.1-.47,0,0l-.09.42a7.44,7.44,0,0,1-.25.84l-.15.42c-.21.52-.06,0,0,0s-.38.72-.41.78c-.16.25-.32.5-.49.74l-.27.36c-.3.39.3-.33,0,0a13.92,13.92,0,0,1-1.36,1.3l-.36.28.18-.13-.19.13c-.25.17-.52.33-.78.48s-.55.29-.82.41l-.22.1c-.19.08-.18.08,0,0h0l-.21.08a12.5,12.5,0,0,1-1.8.46c-.56.09.27,0,0,0l-.46,0c-.34,0-.67,0-1,0a2.38,2.38,0,0,0-2.43,2.27,2.4,2.4,0,0,0,2.43,2.27,13.87,13.87,0,0,0,9.06-3.19,12.13,12.13,0,0,0,4.44-8c.15-1.18-1.21-2.32-2.42-2.27a2.41,2.41,0,0,0-2.42,2.27Z"/><ellipse class="cls-8" cx="1715.74" cy="464.78" rx="38.27" ry="35.83"/><ellipse class="cls-8" cx="1807.84" cy="464.78" rx="38.27" ry="35.83"/><ellipse class="cls-9" cx="1819.77" cy="477.44" rx="16.28" ry="15.61"/><ellipse class="cls-9" cx="1725.44" cy="479.91" rx="16.28" ry="15.61"/><ellipse class="cls-9" cx="1788.76" cy="442.37" rx="5.28" ry="4.75"/><ellipse class="cls-9" cx="1694.74" cy="446.63" rx="5.28" ry="4.75"/><path class="cls-8" d="M1670.56,438.68a10.12,10.12,0,0,0,3.51,6.8,11.48,11.48,0,0,0,7.49,2.82,2.27,2.27,0,1,0,0-4.53,9.77,9.77,0,0,1-1.08-.06l.65.08a9.21,9.21,0,0,1-1.29-.26c-.18,0-.5-.24-.68-.22.09,0,.58.24.2.07l-.28-.12a9.66,9.66,0,0,1-1.13-.64l-.29-.2c.61.39.25.18.11.07s-.33-.27-.49-.41l-.46-.45-.19-.22c-.33-.37.23.3.08.11a9.21,9.21,0,0,1-.71-1,3.55,3.55,0,0,0-.28-.55l.15.33-.09-.21c0-.08-.07-.17-.1-.26a7.73,7.73,0,0,1-.31-1.26l.09.61c0-.15,0-.3,0-.45a2.39,2.39,0,0,0-2.42-2.27c-1.23,0-2.54,1-2.43,2.27Z"/><path class="cls-8" d="M1677.37,434.18c1.34,4.68,6.19,8.14,11.35,8.12a2.28,2.28,0,1,0,0-4.54c-.25,0-.51,0-.77,0-.1,0-.5-.06-.06,0s0,0-.12,0a9.33,9.33,0,0,1-1.36-.34l-.3-.1c-.44-.15.5.21.11,0-.23-.1-.46-.2-.69-.32l-.55-.31c-.16-.09-.54-.25-.63-.41.05.1.46.35.13.1l-.29-.24-.51-.46c-.16-.16-.32-.32-.47-.49-.33-.38.21.27.07.08l-.19-.24a7.9,7.9,0,0,1-.71-1.13l-.11-.22.14.32a1.51,1.51,0,0,1-.13-.34,5.44,5.44,0,0,1-.23-.68,2.48,2.48,0,0,0-3-1.59,2.3,2.3,0,0,0-1.7,2.79Z"/><path class="cls-8" d="M1831.31,439.22c5.13-.24,9.9-3.8,11-8.57a2.29,2.29,0,0,0-1.69-2.79,2.48,2.48,0,0,0-3,1.58,8,8,0,0,1-.39,1.26c-.16.38,0-.12.08-.17a1.48,1.48,0,0,0-.15.31,6.05,6.05,0,0,1-.32.55c-.11.18-.23.36-.35.53a2.69,2.69,0,0,0-.22.28c0-.07.42-.49.08-.1a9.89,9.89,0,0,1-.92.91c-.16.14-.34.27-.51.41s.48-.33.15-.11l-.3.19a8.56,8.56,0,0,1-1.15.63l-.33.15c.66-.31.3-.12.13-.06l-.58.19a9.66,9.66,0,0,1-1.42.29l.64-.08c-.24,0-.48.05-.73.06a2.27,2.27,0,1,0,0,4.54Z"/><path class="cls-8" d="M1838,444.62c5.13-.24,9.89-3.79,11-8.56a2.31,2.31,0,0,0-1.69-2.8,2.5,2.5,0,0,0-3,1.59,7.06,7.06,0,0,1-.39,1.26c-.15.37,0-.13.09-.18s-.13.26-.16.31a6,6,0,0,1-.31.55,6.18,6.18,0,0,1-.36.53,1.7,1.7,0,0,0-.21.28c0-.07.42-.48.08-.1a11.28,11.28,0,0,1-.92.91l-.51.41c-.23.18.47-.33.15-.11l-.3.2a11.75,11.75,0,0,1-1.16.63l-.33.14c.67-.31.3-.11.13-.05s-.38.13-.57.18a9.81,9.81,0,0,1-1.43.3l.65-.09c-.24,0-.49.05-.73.06a2.27,2.27,0,1,0,0,4.54Z"/><path class="cls-10" d="M1793.81,589.26c244.36,10.9,201,131.91,182.27,248.27s-86,225.37-223.29,220.59Z"/><ellipse class="cls-11" cx="1752" cy="712.73" rx="12.04" ry="12"/><ellipse class="cls-11" cx="1747.4" cy="774.71" rx="12.04" ry="12"/><ellipse class="cls-11" cx="1741.86" cy="837.48" rx="12.04" ry="12"/><ellipse class="cls-11" cx="1808.33" cy="711.93" rx="12.04" ry="12"/><ellipse class="cls-11" cx="1808.33" cy="774.71" rx="12.04" ry="12"/><ellipse class="cls-11" cx="1803.28" cy="836.25" rx="12.04" ry="12"/><path class="cls-12" d="M1615.71,388.44c-14.08-.9-23.75-.09-37.58,2.68-9.1,7.78-10.1,18.85-2.62,28.16s20.71,10,27,0c5.41,9.87,16.11,14.18,27.15,10.56s16.27-12.89,20.27-23c18.19,12.39,37.5,10,51.61-7,16.73,24.26,44.41,27.41,67.08,8.75,14.92,13.15,33.06,11.77,46.35-2.73,7,9.39,16.3,15.46,28.55,14.21s20.1-9.09,24.89-19.74c13.67,16.5,32.15,20.21,51.31,10.2,1.81,5,7.06,6.92,12,7.62,7.29,1,15.72,3,21.33-2.77,7.55-7.73,3.2-19.45-5.68-24.66s-19.58-3.86-29.54-3.21c-27.91-24.63-60.84-25.26-89.38-1.26-16-11.83-32.79-12.92-50.31-3.44-24.74-18.32-50.59-19.57-77-3.7-2.61,1.57-3.86,3.51-7.39,3.64s-5.7-2.56-8.87-4.63c-26-16.95-53.16-14-74.48,8.73Z"/><path class="cls-12" d="M1615.82,384.28c-13.08-1.45-22.7-.27-35.75,2.91a12,12,0,0,0-4.39,1.73c-14.13,9.95-11.67,28.22,2.45,37.86,9.84,6.71,22.73,4,28.44-6.62-2.58,0-5.46.11-8.12.32,6.11,10.79,16.75,16.47,29.37,13.94,14.26-2.85,21-14,26-26.4-2.32.43-4.59,1.05-6.89,1.55,20.79,14.06,41.89,11.51,58.09-7.65-2.37,0-4.73,0-7.09,0,18.59,26.52,48.5,30,73.57,9.62l-5.87,0c17.37,15,37.56,13,52.91-3.63-2.4.06-4.8,0-7.19.12,8.1,10.62,18.59,17.64,32.64,16.11s22.78-10.47,28.4-22.65c-2.54.22-5.06.63-7.59.93,15.35,18.4,35.47,22.7,57,11.7-2-.81-4.09-1.66-6.1-2.43,4.44,9.46,14.56,11.51,24.32,11.68s18.56-3.45,20.57-13.46c1.7-8.48-2.45-16.88-9.69-21.74-10-6.7-21.61-5.43-33.11-4.68.92.46,2,.81,2.92,1.23-29.87-26.19-64.65-26.72-95.21-1.28l5.87,0c-17.73-12.91-35.85-14.35-55.31-4.07l5,.66c-23.44-17.58-47.56-20.56-74.55-9-2.92,1.25-4.81,3-7.43,4.7-1.45.94-2.43,2.32-4.36,2.89s-3.61-.71-5.2-1.85c-4.9-3.51-9.2-7.32-15-9.5-11.2-4.19-22.68-5.79-34.62-3.18-13.56,3-24.25,9.66-32.56,20.66-3.23,4.28,2.57,8.73,6.37,4.57,15.85-17.38,35.41-21.84,57.6-14.57,6,2,9.09,5.8,14,9,2.72,1.78,5,3.31,8.54,3.23s6.3-2.26,9.29-4.2c10.59-6.88,21.24-11.13,34.2-11,14.55.13,26.48,5.14,37.86,14a4.41,4.41,0,0,0,5,.67c15.84-8.47,30.7-7.76,45.31,2.79,1.9,1.37,4,1.61,5.87-.05,18-16.2,38.06-20,61.29-13.55,5.55,1.54,9.58,4.39,14.2,7.4,2.4,1.57,4.07,3.54,6.22,5.52.94.88,1.14,1.85,2.73,2.64s4,.29,6.14.14c12.66-.85,27.25-.49,30.54,13.91,1.51,6.59-4.44,9.73-10.37,10.05-3.55.2-7.44-.61-11.14-1.33-2.77-.54-6.08-1.68-7.26-4.39s-3.48-3.84-6.13-2.47c-17,8.76-33.29,5.84-45.59-8.75-2.56-3-5.94-2.36-7.56,1-4.37,9-10.85,15.84-21.43,16.82s-18.31-4.29-24.49-12.3c-2.06-2.68-4.91-2.41-7.17,0-11.58,12.4-26.93,13.06-39.78,1.92a4.37,4.37,0,0,0-5.86-.06c-20.7,16.92-45.29,14-60.59-7.81-2-2.86-5-2.47-7.08,0-12.46,14.53-29.21,16.95-45.14,6.19-2.78-1.87-5.53-1.51-6.87,1.66-3.9,9.22-8.2,17.69-18.77,20.69-8.27,2.35-16.46-.79-20.66-8.4-2.11-3.82-6.13-3.23-8.24.32-3.44,5.8-11.87,5.56-16.58,1.59-9.68-8.13-7.42-18.6-.28-27.4a45.54,45.54,0,0,1-5,2.37,288.64,288.64,0,0,1,38.57-2.24c5.66.08,6.64-7.63.71-8.29Z"/><path class="cls-4" d="M1920.49,971.54h0c-20.41-6.08-39.78-14-31.17-47.06,20.5-78.77,29.48-102.1,30.8-186.28.56-35.36,18.58-37.14,40.17-38.49h0c21.59-1.35,37.8,15.47,36.65,41.23-2.73,61.33-20.61,139.15-30.67,200C1962,966.55,1940.9,977.62,1920.49,971.54Z"/><path class="cls-13" d="M1580.28,773.73h0c18-11.44,34.42-24.34,17.11-53.67-41.22-69.84-56.21-89.71-80.47-170-10.19-33.73-28-30.46-49.12-25.82h0c-21.12,4.64-32.12,25.22-24,49.6,19.37,58,57.81,127.66,84.11,183.22C1539,780.39,1562.31,785.18,1580.28,773.73Z"/><path class="cls-14" d="M1617.23,1096.13h135.38c0-34.3-30.3-62.11-67.69-62.11S1617.23,1061.83,1617.23,1096.13Z"/><path class="cls-14" d="M1760.55,1096.13h135.38c0-34.3-30.31-62.11-67.69-62.11S1760.55,1061.83,1760.55,1096.13Z"/><g class="cls-15"><path d="M564.49,378.7q-9.56-69.66-19.1-139.32,9-5.32,18.09-10.44,8.17,71,16.34,142,13.18,5.7,26.54,11,1,10.53,1.93,21.07Q586.15,391.5,564.49,378.7Z"/><path d="M626.15,412.08q-8.28-103.72-16.58-207.44,23.25-11.46,46.94-21.61l1.65,27.84Q644,215.64,630,220.77l5.28,75q9.24-.56,18.56-1.09.82,13.35,1.67,26.69-9.27-.36-18.48-.75,2.65,37.49,5.29,75,13.58,4.88,27.3,9.4l1.65,27.84Q648.49,423.09,626.15,412.08Z"/><path d="M714.06,160.54q9.65-3.42,19.35-6.62,3.65,95.18,7.28,190.37c1.21,31.77-.92,58.82-6.29,79.65s-12.35,29-21,25.73q-11.94-4.43-23.79-9.21-7-132.68-14-265.36,9.52-3.84,19.12-7.48Q700.6,292,706.49,416.43q4.65,1.35,9.32,2.67c2.58.73,4.65-1.81,6.2-7.74s2.13-13.34,1.76-22.12Q718.91,274.88,714.06,160.54Z"/><path d="M763.83,466.77q-5.48-159.52-11-319,24.4-7.5,49.11-13.67.49,19.27,1,38.55-14.75,2.9-29.42,6.16,1.71,55.07,3.4,110.13,9.67-.36,19.4-.69.52,18.82,1,37.65-9.67-.24-19.31-.48,1.7,55.06,3.4,110.13,14.21,3.11,28.52,5.85.5,19.27,1,38.55Q787.29,474,763.83,466.77Z"/><path d="M830.1,484.45Q826,306.88,821.84,129.31q9.9-2.25,19.85-4.29,3.31,161.52,6.64,323,14.42,2.28,28.9,4.2.35,20.88.7,41.76Q853.93,489.87,830.1,484.45Z"/><path d="M983.19,417.45c-.57,59-6.88,88.23-18.93,87.28q-9.72-.75-19.44-1.69c-5.29-.52-9.91-9.57-13.9-26.94s-6.12-37.8-6.38-61.42l-2.43-216.27c-.26-23.21,1.44-43.54,5.13-61.13s8.37-26.75,14-27.31q10.11-1,20.23-1.76c12.69-1,19.57,28.19,20.6,87.22-3.34.11-6.69.22-10,.35q-1.42-43.9-10.25-43.38-5,.3-10.08.65c-2.76.19-5.09,4.65-7,13.32s-2.79,18.94-2.68,30.81q1,109.32,2,218.64a146.3,146.3,0,0,0,3.13,30.7q3,13.11,7,13.4c3.25.22,6.51.42,9.76.61q8.58.53,9.42-43.4C976.64,417.25,979.92,417.35,983.19,417.45Z"/><path d="M1022,105.49q10.14-.13,20.29,0c5.53,0,10.27,8.92,14.18,26.57s5.82,38.58,5.75,62.82L1061.57,418q-.1,36.15-5.91,62.71t-13.75,26.67q-9.73.08-19.49-.05c-5.31-.07-9.88-8.93-13.75-26.51s-5.84-38.55-5.91-62.9q-.35-111.51-.67-223-.12-36.54,5.74-62.91C1011.74,114.43,1016.48,105.56,1022,105.49Zm.09,89.16q.12,111.77.23,223.53a149.38,149.38,0,0,0,2.89,31.21c1.92,8.8,4.23,13.22,7,13.22s5-4.4,6.94-13.2a149.27,149.27,0,0,0,2.89-31.2l.21-223.59q0-18.21-3-31.31t-7.09-13.09q-4.17,0-7.12,13.12T1022.1,194.65Z"/><path d="M1080.7,506.26q1-199.81,2-399.65l4.59.24c14,63.86,27.83,127.31,41.3,189.43,14.68-61.92,29.6-122.48,44.74-180.78q5,.75,10.06,1.53-3,189.61-5.92,379.22-9.66,1.51-19.33,2.83,1.58-117.7,3.14-235.41C1149,313.36,1136.93,364.31,1125,416c-10.85-50.51-21.89-102-33.13-154q-.72,121.85-1.45,243.69C1087.19,505.92,1083.94,506.1,1080.7,506.26Z"/><path d="M1196.63,493q3.34-186.31,6.7-372.62,20,3.59,39.85,8c5.42,1.22,9.9,10.1,13.37,26.24s4.94,34.57,4.39,55.57q-.5,19.38-1,38.76c-.56,21.13-2.93,39.14-7.12,54.38s-8.93,23.08-14.23,23.2q-9.73.19-19.5.37l-3.33,162.44Q1206.21,491.3,1196.63,493Zm23.28-206.4,9.81.26c2.65.08,5-3.83,7.15-11.65a117.58,117.58,0,0,0,3.55-27.84q.46-19.89.92-39.78a119.48,119.48,0,0,0-2.29-28.26c-1.78-8.08-4-12.39-6.71-12.85-3.31-.55-6.62-1.08-9.93-1.61Q1221.15,225.76,1219.91,286.62Z"/><path d="M1272.83,476l9.81-337.83q9.83,2.66,19.6,5.51-4.7,145.29-9.4,290.58Q1307,431,1321.1,427.5q-.66,17.24-1.31,34.47Q1296.45,469.61,1272.83,476Z"/><path d="M1338.47,455.62q6.24-148.15,12.49-296.3,24.15,8.49,47.93,18.33-.81,14.5-1.6,29-14.22-4.62-28.56-8.85-2.2,47.1-4.42,94.19,9.48.47,18.88.95-.76,14.79-1.54,29.59l-18.8.66-4.41,94.19q13.9-4,27.68-8.41-.8,14.5-1.6,29Q1361.68,447.46,1338.47,455.62Z"/><path d="M1411.8,426.2q6.87-105,13.75-209.92-9.35-3.33-18.78-6.48.82-14.07,1.64-28.15,28.46,12.14,56.26,26.21l-1.89,22.42q-9.21-3.66-18.5-7.16-7.2,97.33-14.41,194.66Q1420.87,422.09,1411.8,426.2Z"/><path d="M1456.63,404.41q8.65-95.9,17.32-191.79,23,12,45.59,25.32l-2.13,15.84q-13.47-6.25-27.13-12.13-3,28.77-6,57.53,9,.65,18,1.31l-2.07,16.84-17.87.91q-3,28.75-6,57.52,13.23-5.58,26.3-11.52l-2.13,15.84Q1478.78,392.89,1456.63,404.41Z"/></g></svg>