<svg id="Layer_1" data-name="Layer 1" xmlns="http://www.w3.org/2000/svg" width="276.12" height="75.28" viewBox="0 0 276.12 75.28"><defs><style>.cls-1{fill:#bd0000;}.cls-2{fill:#063;}</style></defs><path class="cls-1" d="M36.15,71.21c-17.34.52-36-7.67-36.15-26S17.22,8.12,35.36,9,71.21,24.79,72,43.67,53.5,70.69,36.15,71.21Z"/><path class="cls-2" d="M13.67,7.35s4.73-3,25.25,8.27S59.29,32.4,59.29,32.4C62.38,27,54.67,17.09,42.07,10.17S16.76,2,13.67,7.35Z"/><path class="cls-2" d="M48.14,0s-3,1.68-2.5,15.66S49.36,31.1,49.36,31.1c-3.93.14-7.38-6.7-7.71-15.29S44.22.15,48.14,0Z"/><path class="cls-2" d="M45.8,15.46C63.82.76,68.34,2,68.34,2c-3.14-3.67-14.65.68-25.72,9.71Z"/><path class="cls-2" d="M41.25,14.16C26.38,26.68,27,30.68,27,30.68c-2.88-3.27,2.19-12.15,11.33-19.83Z"/><path class="cls-2" d="M42.46,11.59c23.34,2.41,26.3-.39,26.3-.39-.41,3.87-12.37,5.81-26.71,4.34Z"/><path class="cls-2" d="M36.05,17c-15.62-1.31-17.77,2.94-17.77,2.94.49-5.55,8.66-9.4,18.26-8.59Z"/><path class="cls-2" d="M39.7,11.84C41,28.53,37.27,30.7,37.27,30.7c4.88-.37,8.19-9,7.4-19.22Z"/><path class="cls-1" d="M137.88,74.7c-17.34.51-36-7.68-36.15-26S119,11.6,137.09,12.49s35.85,15.78,36.62,34.66S155.23,74.18,137.88,74.7Z"/><path class="cls-2" d="M115.4,10.84s4.73-3,25.25,8.26S161,35.89,161,35.89c3.09-5.37-4.62-15.32-17.22-22.24S118.48,5.47,115.4,10.84Z"/><path class="cls-2" d="M149.87,3.48s-3.05,1.68-2.5,15.66,3.72,15.44,3.72,15.44c-3.93.15-7.38-6.7-7.71-15.28S146,3.63,149.87,3.48Z"/><path class="cls-2" d="M147.53,18.94c18-14.69,22.54-13.44,22.54-13.44-3.14-3.67-14.65.67-25.72,9.7Z"/><path class="cls-2" d="M143,17.65c-14.87,12.51-14.27,16.51-14.27,16.51C125.83,30.89,130.9,22,140,14.33Z"/><path class="cls-2" d="M144.19,15.08c23.34,2.4,26.3-.4,26.3-.4-.42,3.87-12.38,5.82-26.71,4.34Z"/><path class="cls-2" d="M137.78,20.48C122.16,19.17,120,23.42,120,23.42c.49-5.55,8.66-9.39,18.26-8.59Z"/><path class="cls-2" d="M141.43,15.33C142.72,32,139,34.18,139,34.18c4.88-.36,8.19-9,7.4-19.21Z"/><path class="cls-1" d="M240.28,75.26c-17.35.52-36.06-7.68-36.16-26s17.22-37,35.37-36.17,35.85,15.79,36.61,34.66S257.62,74.74,240.28,75.26Z"/><path class="cls-2" d="M217.79,11.4s4.74-3,25.25,8.27,20.38,16.78,20.38,16.78c3.08-5.36-4.63-15.32-17.22-22.23S220.88,6,217.79,11.4Z"/><path class="cls-2" d="M252.27,4.05s-3.05,1.67-2.5,15.65,3.71,15.45,3.71,15.45c-3.92.14-7.37-6.7-7.71-15.29S248.35,4.19,252.27,4.05Z"/><path class="cls-2" d="M249.93,19.51c18-14.7,22.54-13.45,22.54-13.45-3.14-3.67-14.66.68-25.73,9.7Z"/><path class="cls-2" d="M245.37,18.21c-14.87,12.51-14.26,16.51-14.26,16.51-2.88-3.27,2.19-12.14,11.32-19.83Z"/><path class="cls-2" d="M246.59,15.64c23.33,2.4,26.3-.4,26.3-.4-.42,3.88-12.38,5.82-26.71,4.35Z"/><path class="cls-2" d="M240.17,21.05C224.56,19.74,222.41,24,222.41,24c.49-5.55,8.66-9.4,18.25-8.6Z"/><path class="cls-2" d="M243.82,15.89c1.3,16.68-2.43,18.85-2.43,18.85,4.88-.36,8.2-9,7.4-19.21Z"/></svg>