<svg id="Layer_1" data-name="Layer 1" xmlns="http://www.w3.org/2000/svg" width="238.11" height="338.72" viewBox="0 0 238.11 338.72"><defs><style>.cls-1{fill:#ffb14c;}.cls-2{fill:#bf7617;}.cls-3{fill:#ffc479;}.cls-4{fill:#fff;}.cls-5{fill:#ff66a6;}.cls-6{fill:#48b14c;}.cls-7{fill:#ffa5ac;}</style></defs><path class="cls-1" d="M120.12,197.48c-30.76,0-55.69-10.25-55.69-22.89s24.93-35.72,55.69-35.72,55.68,23.07,55.68,35.72S150.87,197.48,120.12,197.48Z"/><ellipse class="cls-2" cx="119.05" cy="242.05" rx="119.05" ry="96.03"/><ellipse class="cls-1" cx="118.62" cy="242.09" rx="88.34" ry="96.33"/><ellipse class="cls-3" cx="118.95" cy="242.39" rx="51.28" ry="96.33"/><ellipse cx="145.77" cy="207.31" rx="23.28" ry="23.95"/><ellipse cx="95.04" cy="207.87" rx="23.28" ry="23.95"/><ellipse class="cls-4" cx="141.58" cy="219.6" rx="9.74" ry="11.38"/><path class="cls-4" d="M89.8,204.88c0-1.85,1.3-4.49,2.91-4.49a3.37,3.37,0,0,1,0,6.68C91.1,207.07,89.8,206.72,89.8,204.88Z"/><ellipse class="cls-4" cx="148.46" cy="203.55" rx="2.91" ry="3.34"/><ellipse class="cls-4" cx="102.89" cy="218.18" rx="9.74" ry="11.38"/><path d="M79.35,182.73a8.06,8.06,0,0,0,3.71,5.62,1.66,1.66,0,0,0,2.28-.62,1.79,1.79,0,0,0-.6-2.37c-.21-.13-.41-.27-.61-.42l.34.27a6.87,6.87,0,0,1-1.09-1.13l.26.35c-.34-.46-.62.19-.84-.34.06.14.11-.88.17-.74a6.73,6.73,0,0,1-.41-1.54,1.73,1.73,0,0,0-.76-1,1.63,1.63,0,0,0-1.29-.17,1.7,1.7,0,0,0-1,.79l-.16.41a1.79,1.79,0,0,0,0,.92Z"/><path d="M83.37,180.61a8.1,8.1,0,0,0,1.86,3.94,7.71,7.71,0,0,0,3.58,2.37,1.68,1.68,0,0,0,2-1.21,1.76,1.76,0,0,0-1.16-2.12l-.61-.22.4.17a6.18,6.18,0,0,1-1.34-.82l.34.27a6.54,6.54,0,0,1-1.1-1.13l.26.35a6.68,6.68,0,0,1-.82-1.45c0,.13.11,1.42.16,1.56a20.58,20.58,0,0,1-.4-2.63,1.7,1.7,0,0,0-.76-1,1.67,1.67,0,0,0-1.29-.18,1.76,1.76,0,0,0-1,.8,2.09,2.09,0,0,0-.17,1.33Z"/><path d="M157.41,181.09a8,8,0,0,1-.07.83l.06-.46c-.06.46-.15,2.06-.29,2.5,0,.12-.07-.91-.11-.8s-.24.52,0,0c-.1.21-.18.42-.29.62a5.82,5.82,0,0,1-.34.6,3.28,3.28,0,0,1-.2.31l-.1.15c.16-.22.2-.27.12-.17a8.49,8.49,0,0,1-.95,1,1.77,1.77,0,0,0,0,2.44,1.66,1.66,0,0,0,2.36,0,10,10,0,0,0,3.14-7.08,1.7,1.7,0,0,0-1.66-1.73,1.73,1.73,0,0,0-1.67,1.73Z"/><path d="M161.53,184.6c.05.29,0-.35,0-.14a1.94,1.94,0,0,0,0,.24c0,.14,0,.28,0,.42s0,.31,0,.47a1.57,1.57,0,0,1,0,.24s.07-.45,0-.18a9.24,9.24,0,0,1-.21.91c-.05.14-.09.27-.14.4s0,0,.05-.1a.81.81,0,0,0-.1.21,7.37,7.37,0,0,1-.43.78l-.14.2c.17-.23,0,0,0,0l-.15.18c-.2.22-.41.41-.63.61s.25-.19.08-.07l-.18.13-.39.25a1.76,1.76,0,0,0-.6,2.36,1.66,1.66,0,0,0,2.28.62,7.79,7.79,0,0,0,3.12-3.45,8.67,8.67,0,0,0,.69-5,1.72,1.72,0,0,0-.77-1,1.65,1.65,0,0,0-2.28.62,2.06,2.06,0,0,0-.17,1.34Z"/><path class="cls-5" d="M113,260.9a6.12,6.12,0,0,1-4.86.78,6.27,6.27,0,0,1-4.21-2.62c-.82,4.3.56,8.19,3.06,8.7S112.21,265.19,113,260.9Z"/><path d="M102.17,259.51a30.19,30.19,0,0,0,30.21.29c1.89-1.07.2-4.06-1.68-3a26.86,26.86,0,0,1-26.85-.28c-1.86-1.11-3.55,1.87-1.68,3Z"/><path d="M130.67,254.38a9.15,9.15,0,0,0,6,5.91,1.67,1.67,0,0,0,2.05-1.2,1.77,1.77,0,0,0-1.16-2.13,7.08,7.08,0,0,1-.88-.31l.4.17a7.2,7.2,0,0,1-1.59-1l.33.27a8,8,0,0,1-1.31-1.36l.27.35a7.48,7.48,0,0,1-.94-1.65l.17.41-.15-.41a1.83,1.83,0,0,0-.77-1,1.65,1.65,0,0,0-1.28-.18,1.75,1.75,0,0,0-1.17,2.13Z"/><path class="cls-6" d="M108.24,139.47c3-12.59-3.26-26-12.61-34.66S74.3,91.32,62.6,86.66A62,62,0,0,1,116,102.2,532.78,532.78,0,0,1,118.37,1.66L132.8,117.4a49.1,49.1,0,0,1,29.32-7.66,145,145,0,0,0-30.21,31"/><path class="cls-6" d="M109.84,139.93c2.3-9.85-.59-20.09-6.11-28.24-6-8.81-14.7-14.89-24-19.48-5.45-2.7-11.09-5-16.73-7.21v3.33a60.46,60.46,0,0,1,51.74,15.09,1.68,1.68,0,0,0,2.85-1.22,534,534,0,0,1,.25-78.58q.86-11,2.16-22H116.7l11.23,90.08,3.2,25.66c.15,1.22,1.32,2.24,2.51,1.49a48,48,0,0,1,28.48-7.42l-.84-3.22a149.11,149.11,0,0,0-30.81,31.58c-1.29,1.78,1.61,3.51,2.88,1.74A144,144,0,0,1,163,111.23a1.75,1.75,0,0,0-.84-3.21A51.06,51.06,0,0,0,132,115.91l2.52,1.49L123.24,27.32,120,1.66a1.67,1.67,0,0,0-3.34,0,533.36,533.36,0,0,0-3.51,78.5q.32,11,1.1,22l2.85-1.22a64.34,64.34,0,0,0-42-17.09,62,62,0,0,0-13,1.11c-1.78.34-1.37,2.78,0,3.33,17.29,6.89,37.47,15.37,43.71,35.3a29.23,29.23,0,0,1,.77,15.38c-.51,2.16,2.71,3.08,3.21.92Z"/><path class="cls-6" d="M109.75,140.3a153,153,0,0,1,22.86.42c1.92.18,1.91-2.82,0-3a153,153,0,0,0-22.86-.42c-1.92.11-1.93,3.11,0,3Z"/><path class="cls-7" d="M144.34,243.39c0-1.74,5.14-3.51,9.6-3.57,4.8-.07,10.3,1.79,10.25,3.57s-5.66,3.43-10.39,3.33C149.58,246.63,144.38,245.11,144.34,243.39Z"/><path class="cls-7" d="M75.58,243c0-1.74,5.15-3.5,9.61-3.57,4.8-.07,10.29,1.8,10.25,3.57s-5.67,3.43-10.39,3.33C80.82,246.24,75.63,244.71,75.58,243Z"/></svg>