<svg id="Layer_1" data-name="Layer 1" xmlns="http://www.w3.org/2000/svg" width="140" height="90.54" viewBox="0 0 140 90.54"><defs><style>.cls-1{fill:#001300;}.cls-2{fill:#231f20;}.cls-3{fill:#fff;}</style></defs><rect class="cls-1" y="13.64" width="52.01" height="61.96" rx="14"/><path class="cls-1" d="M63.79.72c3-2.07,6.82.57,6.82,4.78V85.05c0,4.2-3.78,6.85-6.82,4.77L34.56,69.87,5.51,50c-3.09-2.1-3.09-7.44,0-9.54L34.56,20.67Z"/><ellipse class="cls-1" cx="51.95" cy="44.62" rx="23.53" ry="28.06"/><path class="cls-2" d="M85.76,21S96,24,96,45.82s-10.2,24.9-10.2,24.9c7.1,0,12.85-11.14,12.85-24.88S92.86,21,85.76,21Z"/><path class="cls-2" d="M94.66,12.17s17.62,4.16,17.62,33.65S94.66,79.5,94.66,79.5c12.27,0,22.21-15.07,22.21-33.66S106.93,12.17,94.66,12.17Z"/><path class="cls-2" d="M109.46,5.8s24.23,5,24.23,40.49-24.23,40.53-24.23,40.53c16.87,0,30.54-18.14,30.54-40.51S126.33,5.8,109.46,5.8Z"/><rect class="cls-3" x="19.98" y="12.83" width="2.02" height="63.17"/></svg>