<svg id="Layer_1" data-name="Layer 1" xmlns="http://www.w3.org/2000/svg" width="707.8" height="303.25" viewBox="0 0 707.8 303.25"><defs><style>.cls-1{fill:#ffe47f;}.cls-2{fill:#c1272d;}</style></defs><path class="cls-1" d="M280.33,244.08a32.68,32.68,0,0,0-1.43,18.79c.41,1.89,3.3,1.09,2.89-.79a29.82,29.82,0,0,1,1.43-17.2,1.51,1.51,0,0,0-1-1.85,1.54,1.54,0,0,0-1.85,1.05Z"/><path class="cls-1" d="M513.73,246a46.23,46.23,0,0,1,2.66,11.27,25.22,25.22,0,0,1-2,10.62c-2.34,6.17-5.18,13.09-1.69,19.43.93,1.69,3.52.18,2.59-1.52-3.41-6.17.74-13.29,2.74-19.2a24.11,24.11,0,0,0,1.31-10.28,54,54,0,0,0-2.68-11.12c-.6-1.82-3.49-1-2.9.8Z"/><path class="cls-2" d="M13.88,172.73q-6.95-36-13.88-72,7.62-4.5,15.32-8.79l11.79,79.31q11.18,4.78,22.51,9.22L51,193.11Q32.21,183.54,13.88,172.73Z"/><path class="cls-2" d="M66.16,200.59Q61.6,150.45,57,100.31a49.43,49.43,0,0,1,2.8-22.09c2.6-7.07,6.08-11.88,10.45-13.84q8-3.57,16.06-6.94c4.4-1.85,8.42.09,12,6.26s5.7,14.62,6.29,24.87q3.84,66,7.67,132-7.77-3-15.48-6.24-2.34-34.89-4.67-69.78l-15.72-.61,5,63.71Q73.75,204.21,66.16,200.59Zm9.06-72.49q7.86-.46,15.79-.89l-2.34-35c-.32-4.74-1.38-8.61-3.19-11.49s-3.81-3.89-6-3.16-4,3-5.28,6.67a28.21,28.21,0,0,0-1.48,11.91Q74,112.13,75.22,128.1Z"/><path class="cls-2" d="M151,234.24,142.73,36.69q16.5-5.28,33.18-9.71c4.55-1.22,8.63,2.55,12.18,11.58s5.52,20.5,5.9,34.09q.34,12.54.7,25.06c.39,13.67-.9,25.52-3.83,35.25s-6.62,14.39-11.08,14.27l-16.31-.41q1.69,46.14,3.4,92.28Q158.92,236.78,151,234.24Zm11.62-110.33,8.18-.3c2.22-.08,4.06-2.49,5.53-7.33a53.23,53.23,0,0,0,1.89-17.1q-.39-12.08-.77-24.15c-.22-6.54-1.22-12-3-16.38s-3.83-6.25-6.08-5.75c-2.76.6-5.53,1.22-8.28,1.86Q161.35,89.34,162.63,123.91Z"/><path class="cls-2" d="M215,251.28,210.6,70.5c-.35-14.11,1-26.45,4.05-37.26s6.9-16.79,11.51-17.67q8.47-1.59,17-3c4.63-.76,8.7,4,12.19,14.46s5.34,23.32,5.56,38.41q1.42,97.18,2.86,194.37-8.15-1.12-16.27-2.45-1-54.43-1.93-108.88-8.31-.12-16.6-.27,1.13,53.14,2.23,106.29Q223.07,253,215,251.28Zm13.38-129.42q8.33-.21,16.67-.38-.48-27.28-1-54.57a61.28,61.28,0,0,0-2.84-18.76c-1.77-5.1-3.8-7.46-6.09-7.15s-4.25,3.23-5.8,8.65a64.61,64.61,0,0,0-2.09,18.94Q227.84,95.23,228.39,121.86Z"/><path class="cls-2" d="M320,62.3c-2.81.08-5.61.17-8.42.27q-1.29-28.92-8.23-28.52c-3,.17-5.2,2.74-6.67,7.67s-2.16,12.16-2.07,21.72a77.41,77.41,0,0,0,2.67,20q9.22,33.78,18.28,68.33a163.41,163.41,0,0,1,5.11,40.92q0,7.34.07,14.67c.09,15.67-1.46,29.19-4.61,40.46s-7,16.71-11.47,16.37c-2.75-.21-5.49-.43-8.23-.68-5.43-.48-9.55-5.67-12.4-15.39s-4.39-23.9-4.61-42.6q4.14.25,8.28.48c0,2,0,3.51,0,4.66.08,7.73,1,13.64,2.77,17.77s3.67,6.27,5.73,6.41q4.39.3,6.27-7t1.77-21.45a80.37,80.37,0,0,0-2.61-20.28q-9.07-34.31-18.31-67.83a154.43,154.43,0,0,1-5.38-39.74q-.09-7.14-.17-14.28c-.18-15.34,1.31-28.69,4.5-40.16s7.15-17.48,11.85-17.9q4.28-.37,8.56-.7C313.3,4.69,319.09,23.72,320,62.3Z"/><path class="cls-2" d="M345.66,266l-.3-233.2c-5.67.07-11.34.18-17,.36L328.24,4q25.65-1,51.32-.09l-.12,29.17c-5.66-.15-11.33-.26-17-.3l-.3,233.25Q353.91,266.16,345.66,266Z"/><path class="cls-2" d="M386.79,265.36q.52-101.56,1-203.14c.08-15.86,1.82-29.43,5.23-40.63S400.52,5,405.19,5.32q8.55.62,17.11,1.44c4.66.46,8.59,6.49,11.78,17.92s4.67,24.73,4.47,40q-1.31,98.27-2.6,196.54-8.16,1-16.34,1.78l1.2-114-16.74.12-.9,115.23C397.72,264.78,392.25,265.1,386.79,265.36Zm17.5-144.81q8.41.08,16.81.18l.6-57.11a71.17,71.17,0,0,0-2.31-20.13c-1.63-5.68-3.6-8.62-5.91-8.77s-4.36,2.52-6.08,8a70.19,70.19,0,0,0-2.66,20Z"/><path class="cls-2" d="M526,195.9c-1.75,32.22-7.58,49.88-17.57,52.38q-8.07,1.91-16.18,3.61c-4.42.93-8.1-3.43-11.05-13.29s-4.31-22.2-4-36.79q1.39-66.76,2.78-133.54c.29-14.33,2.17-26.62,5.65-36.58s7.57-14.36,12.28-13.37q8.43,1.79,16.83,3.76c10.53,2.62,15.56,20.34,15.14,52.54-2.76-.41-5.53-.82-8.29-1.21C521.39,57,518.88,48.22,514,47.29q-4.19-.78-8.37-1.51c-2.3-.4-4.34,1.77-6.11,6.56a55.82,55.82,0,0,0-2.9,17.81Q495,135.1,493.48,200.06a57.56,57.56,0,0,0,1.94,17.78c1.46,4.85,3.31,7,5.57,6.66,2.7-.46,5.41-.94,8.11-1.43,4.75-.89,7.66-9.62,8.76-26C520.56,196.66,523.27,196.29,526,195.9Z"/><path class="cls-2" d="M540.37,239.88Q544.18,135.35,548,30.82q8.28,2.4,16.51,5-1.85,44.33-3.67,88.63,8.11.33,16.19.69l4-83.86q8.17,2.8,16.3,5.84l-9.54,177.1q-7.82,2.91-15.66,5.62L576,146l-16.13.48q-1.83,44.31-3.67,88.62Q548.33,237.58,540.37,239.88Z"/><path class="cls-2" d="M603.27,218.19q5.09-82.4,10.18-164.8,20.17,8.11,39.93,17.54-.66,7.27-1.31,14.54Q640.27,81,628.3,77l-3.6,50.56,15.72.91-1.26,15.2-15.65.64q-1.8,25.27-3.61,50.56Q631.5,191,643,186.81q-.66,7.26-1.31,14.53Q622.67,210.4,603.27,218.19Z"/><path class="cls-2" d="M656.8,193.86Q663,136.29,669.17,78.72q19.56,10,38.63,21.25c-.52,2.73-1,5.46-1.55,8.19q-11.38-5.3-23-10.22L679,131q7.63.54,15.2,1.1l-1.5,9.08-15.14.76Q674.64,164,671.75,186,664.33,190,656.8,193.86Z"/><path class="cls-1" d="M17.71,183.69c-.45-1-1.09-2.45-.72-3.6.31-1,1.36-1.48,2.21-1.92a12.72,12.72,0,0,0,5.69-4.84,17.44,17.44,0,0,0,1.39-3.55c.3-.92.71-1.84,1.75-2,2.45-.43,3.42,2.25,3.22,4.2a1.51,1.51,0,0,0,1.5,1.5,1.53,1.53,0,0,0,1.5-1.5,6.66,6.66,0,0,0-3-6.51,5.24,5.24,0,0,0-6.62,1.1A10.11,10.11,0,0,0,23.07,170a8.05,8.05,0,0,1-1.61,3c-1.59,1.81-3.92,2.33-5.73,3.83-2.69,2.24-1.82,5.6-.61,8.37a1.5,1.5,0,1,0,2.59-1.51Z"/><path class="cls-1" d="M29.21,181.88a8,8,0,0,0,0,7.24c1.14,2.21,3.18,3.76,4,6.18a6.22,6.22,0,0,1,.33,3.28,8.49,8.49,0,0,1-1.62,2.94c-1.61,2.39-1.26,4.69,0,7.14.9,1.71,3.49.19,2.59-1.52-.51-1-1.06-2-.61-3.14a29.48,29.48,0,0,1,1.75-2.69,8.25,8.25,0,0,0,.64-6.07,14.31,14.31,0,0,0-3-5.45c-1.55-1.9-2.73-3.95-1.57-6.4.83-1.73-1.76-3.25-2.59-1.51Z"/><path class="cls-1" d="M82.19,171.09a17.79,17.79,0,0,0-3-15.39c-1.15-1.51-2.2-2.91-2.39-4.86-.37-3.89,1.49-7.61,1.86-11.44a20,20,0,0,0-.57-6.06,13.53,13.53,0,0,1-.41-5.4c.29-1.43,1.11-3.13,2.74-3.29a3,3,0,0,1,3.15,2.29,1.54,1.54,0,0,0,1.5,1.5,1.52,1.52,0,0,0,1.5-1.5,6,6,0,0,0-7.29-5.12c-3.83,1-5,5.52-4.65,9,.26,2.35,1,4.64,1.1,7a27.61,27.61,0,0,1-1.25,7,18.59,18.59,0,0,0-.64,6.42,11,11,0,0,0,2.51,5.64,15.27,15.27,0,0,1,2.89,13.4,1.51,1.51,0,0,0,2.9.8Z"/><path class="cls-1" d="M85.91,145.1a8.88,8.88,0,0,0-.06,5.42,16.44,16.44,0,0,0,1,2.32c.09.18.18.36.26.54-.1-.22.1.28.12.33s.11.38.16.57,0,.19,0,0c0,.1,0,.2,0,.3a1.5,1.5,0,0,0,3,0,6.69,6.69,0,0,0-.65-2.6c-.16-.37-.34-.73-.52-1.09l-.2-.41s-.24-.56-.15-.33a5.76,5.76,0,0,1-.44-2.13,5.41,5.41,0,0,1,.34-2.15,1.51,1.51,0,0,0-1-1.84,1.53,1.53,0,0,0-1.84,1Z"/><path class="cls-1" d="M143.49,41.35a2.18,2.18,0,0,1,.17-3c1-1.18,2.65-1,3.91-.4,3.45,1.74,4.32,6,4.33,9.54,0,4.22-1,8.36-1,12.57A17.65,17.65,0,0,0,152,66.19a47.75,47.75,0,0,0,2.87,5.43,15.44,15.44,0,0,1,.6,13.44c-.77,1.75,1.81,3.28,2.59,1.51a18.51,18.51,0,0,0,.3-14.56c-1-2.31-2.54-4.3-3.47-6.62a17.49,17.49,0,0,1-.85-7.8c.35-5,1.56-9.91.36-14.84-1-4.08-4.31-8.48-9-8.26-4.21.2-7.47,5.71-4,9,1.39,1.34,3.52-.78,2.12-2.12Z"/><path class="cls-1" d="M170.16,124.19c3.16-3.32,8.51-1.85,11.87.34a17.39,17.39,0,0,1,7.3,10.7c2.17,9.78-6.25,18-5.83,27.68a22.83,22.83,0,0,0,2.24,8.07c1.11,2.59,2.3,5.19,2.21,8.07-.06,1.93,2.94,1.93,3,0,.18-5.71-4-10.2-4.43-15.76-.37-5.26,2.23-10.21,4-15,1.85-4.95,2.89-10.08,1.3-15.25a20.49,20.49,0,0,0-8.61-11.3c-4.48-2.79-11.19-3.88-15.2.32-1.33,1.4.79,3.53,2.12,2.13Z"/><path class="cls-1" d="M168.39,147.67c-.84,3.39,1.77,6,2.78,9a10,10,0,0,1-.41,8.22,1.5,1.5,0,0,0,2.59,1.51,12.48,12.48,0,0,0,1.1-9.17,18.33,18.33,0,0,0-1.66-4.29c-.71-1.32-1.9-2.9-1.51-4.48.46-1.88-2.43-2.68-2.89-.8Z"/><path class="cls-1" d="M244.37,120.1c-2.67-2.73-7.08-4.19-10.69-2.51-4.32,2-4.69,7.37-3.82,11.46,1,4.54,3.47,8.53,5,12.88,1.64,4.74,1.18,9.4.14,14.22-1.17,5.41-2.6,10.78-1.76,16.36.29,1.9,3.18,1.09,2.9-.8-1.32-8.69,3.74-17,2.74-25.68-.48-4.19-2.35-7.94-4-11.76-1.5-3.41-3.28-7.72-2-11.47,1.49-4.32,6.87-3.18,9.41-.58,1.35,1.39,3.47-.73,2.12-2.12Z"/><path class="cls-1" d="M243.69,13.05c-.07,5.56,3.91,9.69,7.82,13.1A33.51,33.51,0,0,1,257.32,32a21.82,21.82,0,0,1,3.19,7.11c1.49,5.75.94,11.78-.1,17.55s-3.14,11.77-1.56,17.54a40.5,40.5,0,0,0,3.31,7.4c1.18,2.35,2.32,4.93,1.74,7.62-.41,1.88,2.48,2.69,2.89.8,1.1-5.09-1.92-9.36-4-13.76a15.52,15.52,0,0,1-1.47-7.91,74.38,74.38,0,0,1,1.59-9c2.14-10.91,2.83-23.4-5.59-32-4-4.1-10.74-7.83-10.66-14.36a1.5,1.5,0,0,0-3,0Z"/><path class="cls-1" d="M293.16,231.19c4.84-2.8,9.32,2.19,10.78,6.39,1.79,5.16,1.05,10.74-.59,15.83C300,263.75,292.91,272.48,291,283.33a42,42,0,0,0,1,18.87,1.5,1.5,0,0,0,2.89-.8,38.39,38.39,0,0,1-.8-18.17c1.15-5.75,3.76-11,6.43-16.15,5-9.78,10.69-21.66,5.42-32.55-2.52-5.19-8.65-9.17-14.25-5.93a1.5,1.5,0,0,0,1.51,2.59Z"/><path class="cls-1" d="M297.45,5.46c.47-1.46,2.51-1.57,3.72-1.08,1.92.77,2.63,3.18,2.88,5,.73,5.29-.62,10.72-2.18,15.74s-3.29,10-2.61,15.27a26.44,26.44,0,0,0,2.51,7.42,31.87,31.87,0,0,1,2.33,7.26,30.23,30.23,0,0,1-1.93,17.19,1.5,1.5,0,0,0,1.05,1.84,1.52,1.52,0,0,0,1.84-1,32.76,32.76,0,0,0-.16-25.54c-1.18-2.74-2.58-5.37-2.77-8.41-.35-6,2.38-11.62,3.82-17.29a40.44,40.44,0,0,0,1.24-9.22,16.24,16.24,0,0,0-1.33-7.55,6.81,6.81,0,0,0-6-4,5.31,5.31,0,0,0-5.32,3.54c-.6,1.84,2.3,2.63,2.9.8Z"/><path class="cls-1" d="M356.8,5.1c4.48-1.37,9.53-2.91,14.21-1.61,4.14,1.15,6.65,4.66,7.88,8.6a40.41,40.41,0,0,1,1.26,13.68,62.88,62.88,0,0,1-2.83,16c-1.57,5-4.08,9.68-5.42,14.75a26.2,26.2,0,0,0,.39,14.29c1.35,4.64,3.44,9,4.75,13.69a30.58,30.58,0,0,1,.49,14.17c-2,10.6-7.47,20.31-8,31.22-.1,1.93,2.9,1.93,3,0,.5-10,5.37-19.14,7.56-28.82a34.86,34.86,0,0,0,.49-14.73c-1-5-3.17-9.57-4.76-14.35-1.65-4.94-2.36-9.79-1-14.89s4-10,5.57-15.2a66.48,66.48,0,0,0,2.75-16.62,41.83,41.83,0,0,0-1.44-14.18c-1.48-4.63-4.44-8.66-9.16-10.3C367.19-1,361.23.61,356,2.2c-1.84.57-1.06,3.46.8,2.9Z"/><path class="cls-1" d="M406.85,120.09a4.16,4.16,0,0,1,4.72-.78,6.52,6.52,0,0,1,3.59,4.27c1.42,4.51.51,9.88-.82,14.3-1.44,4.8-4.13,9.07-6,13.7a30.08,30.08,0,0,0-2,13.34,30.88,30.88,0,0,0,4.86,14.49c1.05,1.61,3.65.11,2.59-1.52a27.7,27.7,0,0,1-4.5-13.79,30.25,30.25,0,0,1,3.28-14.66c2.37-5,4.81-9.76,5.7-15.26.76-4.61,1.16-10.26-1.59-14.34-2.55-3.79-8.52-5.61-11.95-1.87-1.3,1.42.81,3.55,2.12,2.12Z"/><path class="cls-1" d="M434.15,237.56c-1.35,9.05,1.07,17.84,2.47,26.72,1.19,7.58,1.43,15.92-2.8,22.65-1,1.64,1.56,3.14,2.59,1.51,9.8-15.59-1.84-33.53.64-50.09.28-1.88-2.61-2.7-2.9-.79Z"/><path class="cls-1" d="M509.41,220.56a10,10,0,0,0-9.42,1.83,13.62,13.62,0,0,0-4.65,9.22,19.9,19.9,0,0,0,2.05,11.09c1.71,3.44,4.54,6,7.16,8.77,2.81,2.94,5.81,6.88,4.58,11.19a1.51,1.51,0,0,0,2.9.8c2.75-9.7-8.2-14.78-11.95-22.08a16,16,0,0,1-.94-12.86c1.49-3.74,5.42-6.5,9.48-5.07,1.82.64,2.6-2.25.79-2.89Z"/><path class="cls-1" d="M498.05,16.53c-5.23-.44-9,4.79-10.33,9.24a24.85,24.85,0,0,0,.67,14.87c1.82,5.43,4.88,10.32,7.48,15.4a48.76,48.76,0,0,1,5.23,16.6,47.61,47.61,0,0,1-1.69,19.17c-.56,1.85,2.33,2.64,2.89.8a49.91,49.91,0,0,0-1.13-32.09c-3.72-9.65-11.46-18.34-11.28-29.16a15.6,15.6,0,0,1,1.87-7.48c1.29-2.29,3.45-4.59,6.29-4.35,1.93.16,1.91-2.84,0-3Z"/><path class="cls-1" d="M564.64,124a1.81,1.81,0,0,1,2.78-.9c1.53.9,2,2.85,2,4.49a38.6,38.6,0,0,1-1.84,11.48c-1.1,3.72-2.79,7.23-3.79,11a19.55,19.55,0,0,0,.16,11c1.35,4.39,3.4,8.63,5.16,12.87.73,1.76,3.64,1,2.9-.8-1.76-4.24-3.82-8.47-5.17-12.87s-.56-8.66,1-13a74.79,74.79,0,0,0,3.87-12.76c.69-3.93,1.62-9-1.05-12.37a5.51,5.51,0,0,0-4.87-2.25,4.64,4.64,0,0,0-4.06,3.39c-.46,1.87,2.43,2.67,2.9.8Z"/><path class="cls-1" d="M592.73,45.94c5.69-.26,6,7.19,5.89,11.16-.17,5.66-.87,11.29-1.31,16.93a73.91,73.91,0,0,0,.29,17c.84,5.45,2.75,10.57,2.34,16.17-.45,6.26-2.87,12.24-5.18,18-.71,1.79,2.19,2.57,2.9.8,2.19-5.5,4.35-11.06,5.1-17a30.7,30.7,0,0,0-.16-8.72c-.47-2.92-1.32-5.76-1.86-8.66-2.29-12.15,1-24.38.91-36.57,0-2.91-.4-6-2.13-8.48a8,8,0,0,0-6.79-3.62c-1.92.09-1.94,3.09,0,3Z"/><path class="cls-1" d="M644.71,67.1c3.15-1.31,7.34-.94,8.85,2.56,1.65,3.85.14,8.65-1.16,12.35-2.66,7.59-6.82,16.21-2.32,24a1.5,1.5,0,0,0,2.59-1.51c-3.69-6.38-.22-14,2.08-20.17,2.14-5.77,4.88-15-1.29-19.36a10.15,10.15,0,0,0-9.55-.74,1.56,1.56,0,0,0-1,1.84,1.51,1.51,0,0,0,1.85,1Z"/><path class="cls-1" d="M625.3,224.33a33.12,33.12,0,0,0-.8-9.52c-.76-3.21-2.19-6.14-3.29-9.23-1-2.72-1.7-5.88-.51-8.65,1-2.26,3.46-3.8,5.86-2.88,1.81.68,2.59-2.22.8-2.9a7.41,7.41,0,0,0-7.94,2.27c-2.23,2.51-2.6,6-2.1,9.18.56,3.64,2.4,6.89,3.54,10.36a30.42,30.42,0,0,1,1.44,11.37c-.11,1.93,2.89,1.92,3,0Z"/><path class="cls-1" d="M631.07,205.63a40.92,40.92,0,0,1,1.85,11.52,58,58,0,0,1-1.43,12.09c-1.41,7.21-2.68,14.82.69,21.7.85,1.73,3.44.21,2.59-1.51-3.35-6.84-1.25-14.69.07-21.76a47,47,0,0,0-.88-22.84c-.56-1.84-3.46-1.06-2.89.8Z"/><path class="cls-1" d="M636.43,81.43c.14.67.27,1.34.38,2,.06.32.1.63.15.94s0,.31.07.47c0-.24,0,.25,0,.3.16,1.33.26,2.67.31,4a1.5,1.5,0,0,0,3,0,50.11,50.11,0,0,0-1.06-8.53,1.51,1.51,0,0,0-1.84-1,1.54,1.54,0,0,0-1.05,1.85Z"/><path class="cls-1" d="M688.83,132.78c1.68-1.12,3.7-2.11,5,.11,1.05,1.84.34,4.31-.42,6.12-1.51,3.59-4.23,6.54-6.38,9.75a23.64,23.64,0,0,0-4,11.71A56,56,0,0,0,684.25,174c.34,1.9,3.23,1.1,2.89-.8-1.35-7.6-2.32-15.44,2-22.28,1.83-2.86,4.09-5.43,5.78-8.38s3.19-6.93,1.82-10.34a5.93,5.93,0,0,0-3.82-3.56c-2.07-.56-4,.42-5.64,1.55s-.09,3.67,1.51,2.59Z"/></svg>