<svg id="Layer_1" data-name="Layer 1" xmlns="http://www.w3.org/2000/svg" width="116.39" height="430.88" viewBox="0 0 116.39 430.88"><defs><style>.cls-1{fill:#e1c933;}.cls-2{fill:#fff5aa;}.cls-3{fill:#fff7bb;}.cls-4{fill:#fffbdd;}.cls-5{fill:#e5db99;}.cls-6{fill:#001300;}.cls-7{fill:#fff;}</style></defs><path class="cls-1" d="M83,428.2l-4.25-1C112.34,260.82,108.6,167.7,89.17.64L93.49,0C113.08,167.54,116.69,261.35,83,428.2Z"/><rect class="cls-1" x="41.06" y="7.25" width="4.36" height="421.39" transform="translate(-16.01 3.8) rotate(-4.24)"/><path class="cls-2" d="M60.4,428.08l-8.34-1.41C59.15,403.84,53.38,106,68.73,3.29L77.6,4.63C62.46,105.9,66.5,408.41,60.4,428.08Z"/><path class="cls-2" d="M82.32,427.42l-9-.65c7-160.7,9.29-263.76-41.23-419.29l8.45-3.11C91.53,161.22,89.32,265.42,82.32,427.42Z"/><rect class="cls-3" x="51.06" y="10.25" width="8.98" height="421.39" transform="translate(33.2 -5.78) rotate(8.48)"/><path class="cls-4" d="M36.33,428.9l-8.4-.42c1.21-128.8,6.81-303.37,20-419.84L56.3,9C38.35,105.49,37.42,312.45,36.33,428.9Z"/><rect class="cls-4" x="88.06" y="3.25" width="8.98" height="421.39" transform="translate(-19.28 9.42) rotate(-5.28)"/><path class="cls-5" d="M22.53,430.88l-4.17-.15C25.1,278.42,32.55,164.32,15.71,10l4.15-.52C36.65,164,29.29,278.33,22.53,430.88Z"/><path class="cls-5" d="M102.33,426.82l4.18-.15C99.76,274.36,92.31,160.26,109.15,5.9L105,5.38C88.21,159.94,95.57,274.27,102.33,426.82Z"/><path class="cls-2" d="M64,430.75l5.27-2.53C31.13,273.46,8,173.73,5.76,11.86L0,10.62C2.29,173.87,25.59,274.71,64,430.75Z"/><ellipse class="cls-6" cx="40.65" cy="56.18" rx="13.82" ry="13.13"/><ellipse class="cls-6" cx="73.9" cy="56.18" rx="13.82" ry="13.13"/><ellipse class="cls-7" cx="78.21" cy="60.82" rx="5.88" ry="5.72"/><ellipse class="cls-7" cx="44.15" cy="61.72" rx="5.88" ry="5.72"/><ellipse class="cls-7" cx="67.01" cy="47.97" rx="1.91" ry="1.74"/><ellipse class="cls-7" cx="33.07" cy="49.53" rx="1.91" ry="1.74"/><path class="cls-6" d="M24.34,46.62a3.72,3.72,0,0,0,1.26,2.49,4.11,4.11,0,0,0,2.71,1,.83.83,0,1,0,0-1.66l-.39,0,.23,0a2.36,2.36,0,0,1-.46-.1,2.41,2.41,0,0,0-.25-.08s.21.09.07,0l-.1-.05a2.38,2.38,0,0,1-.41-.23L26.9,48c.22.14.09.07,0,0l-.18-.16-.16-.16-.07-.08c-.12-.14.08.11,0,0a3.3,3.3,0,0,1-.26-.39,1.86,1.86,0,0,0-.1-.2l.05.12,0-.07,0-.1a2.39,2.39,0,0,1-.12-.46l0,.22a.88.88,0,0,1,0-.16.88.88,0,0,0-.88-.84.86.86,0,0,0-.87.84Z"/><path class="cls-6" d="M26.8,45a4.28,4.28,0,0,0,4.09,3,.83.83,0,1,0,0-1.66h-.27s-.19,0,0,0,0,0,0,0a2.7,2.7,0,0,1-.49-.12l-.11,0c-.16-.05.18.08,0,0L29.74,46l-.2-.11a.83.83,0,0,1-.23-.15s.17.13.05,0l-.1-.08-.19-.17-.17-.18c-.12-.14.08.1,0,0l-.07-.09a3,3,0,0,1-.26-.42l0-.08.06.12a.26.26,0,0,1-.05-.12,2.5,2.5,0,0,1-.09-.25A.88.88,0,0,0,27.41,44a.83.83,0,0,0-.61,1Z"/><path class="cls-6" d="M82.38,46.81a4.24,4.24,0,0,0,4-3.13.85.85,0,0,0-.61-1,.89.89,0,0,0-1.07.58,3.53,3.53,0,0,1-.15.46.47.47,0,1,0,0-.06s0,.1,0,.11l-.11.21a2.14,2.14,0,0,0-.13.19l-.08.1s.15-.18,0,0-.22.23-.33.33l-.19.15.06,0-.11.07a3.42,3.42,0,0,1-.42.23l-.12,0c.24-.11.11,0,0,0l-.21.07a3.1,3.1,0,0,1-.51.11l.23,0-.26,0a.87.87,0,0,0-.88.83.86.86,0,0,0,.88.83Z"/><path class="cls-6" d="M84.8,48.79a4.24,4.24,0,0,0,4-3.13.85.85,0,0,0-.61-1,.91.91,0,0,0-1.08.58,2.44,2.44,0,0,1-.14.46.47.47,0,1,0,0-.06s0,.1,0,.11l-.12.21a2.14,2.14,0,0,1-.13.19.86.86,0,0,1-.07.1s.15-.18,0,0-.22.23-.34.33l-.18.15c-.08.06.17-.12.05,0l-.1.07a4.36,4.36,0,0,1-.42.23l-.12,0c.24-.11.11,0,0,0l-.21.07a3,3,0,0,1-.52.11l.24,0-.27,0a.87.87,0,0,0-.87.83.85.85,0,0,0,.87.83Z"/></svg>