<svg id="Layer_1" data-name="Layer 1" xmlns="http://www.w3.org/2000/svg" width="153.08" height="146.46" viewBox="0 0 153.08 146.46"><defs><style>.cls-1{fill:#666;}.cls-2{fill:#ccc;}.cls-3{fill:#d6d6d6;}.cls-4{fill:#dbdbdb;}.cls-5{fill:#fff;}</style></defs><path class="cls-1" d="M127.78,96.64c6.41-4.18,14.42,1.85,12.51,12.88C137.28,127,121.91,133,114,131.63c-9.54-1.66-13.74-15.26,4-18.94C125.87,111.06,122.51,100.08,127.78,96.64Z"/><path class="cls-2" d="M3.42,64.11C17.69,44.5,37.75,23.17,53.91,4.92c5.74-6.47,8.81-6.4,13.91-.73,21.34,23.73,45.1,46.82,68.61,68C142.05,77.28,142,81,137,86c-14,14.13-27.58,28.68-39.42,44.76-4.2,5.71-7.54,6.53-13.68,1.74-25.71-20-50.55-38-78.43-55C-1.18,73.38-1.65,71.07,3.42,64.11Z"/><path class="cls-3" d="M53.9,5.26c5.73-6.48,8.81-6.4,13.91-.73,21.33,23.73,45.09,46.81,68.61,68,5.62,5.07,5.55,8.76.58,13.78-14,14.12-27.57,28.68-39.41,44.75"/><path class="cls-1" d="M135.13,94c9-6.34,20.29,2.45,17.53,18.88-4.35,26-26,35.26-37.14,33.4C102.1,144,96.26,123.85,121.29,118,132.35,115.42,127.68,99.17,135.13,94Z"/><rect class="cls-4" x="88.27" y="107.08" width="59.09" height="6.73" rx="3.34" transform="translate(278.2 91.59) rotate(130.14)"/><path class="cls-5" d="M126,140a1.5,1.5,0,0,0,0-3,1.5,1.5,0,0,0,0,3Z"/><path class="cls-5" d="M128.35,129.12a1.5,1.5,0,0,0,0-3,1.5,1.5,0,0,0,0,3Z"/><path class="cls-5" d="M116.12,141a1.5,1.5,0,0,0,0-3,1.5,1.5,0,0,0,0,3Z"/><path class="cls-5" d="M119.38,134.4a1.5,1.5,0,0,0,0-3,1.5,1.5,0,0,0,0,3Z"/><path class="cls-5" d="M136.23,138.47a1.5,1.5,0,0,0,0-3,1.5,1.5,0,0,0,0,3Z"/><path class="cls-5" d="M136.23,122.49a1.5,1.5,0,0,0,0-3,1.5,1.5,0,0,0,0,3Z"/><path class="cls-5" d="M139.13,128a1.5,1.5,0,0,0,0-3,1.5,1.5,0,0,0,0,3Z"/><path class="cls-5" d="M145.82,122.49a1.5,1.5,0,0,0,0-3,1.5,1.5,0,0,0,0,3Z"/><path class="cls-5" d="M139.72,115.52a1.5,1.5,0,0,0,0-3,1.5,1.5,0,0,0,0,3Z"/><path class="cls-5" d="M148.14,115.52a1.5,1.5,0,0,0,0-3,1.5,1.5,0,0,0,0,3Z"/><path class="cls-5" d="M147.27,108.26a1.5,1.5,0,0,0,0-3,1.5,1.5,0,0,0,0,3Z"/><path d="M104.09,77.43a85.66,85.66,0,0,1-8.41,10.78C91,93.41,86.32,96.15,82,96.65a14.11,14.11,0,0,1-11.5-3.93c-3.58-3.25-5.4-6.9-5.58-10.81-.35-5.39,2.31-11.25,7-16.39a25.26,25.26,0,0,1,4.19-3.91L60.3,47.24,65.08,42Zm-23.82-12a24.32,24.32,0,0,0-4.36,4c-5.77,6.34-6.3,12.92-.85,17.87,5.22,4.74,11.2,3.22,16.47-2.58a31.17,31.17,0,0,0,4.09-5.33Z"/></svg>