<svg id="Layer_1" data-name="Layer 1" xmlns="http://www.w3.org/2000/svg" width="175.58" height="145.65" viewBox="0 0 175.58 145.65"><defs><style>.cls-1{fill:#6a2a00;}.cls-2{fill:#fff;}.cls-3{fill:#001300;}</style></defs><path class="cls-1" d="M8.2,39.6c15.72-37,68.5-50,97.14-30.77s63.56,33.25,69.95,78.71-91.48,71-134.71,51.52S-7.53,76.57,8.2,39.6Z"/><path class="cls-2" d="M30.8,49.54C41.72,22.12,78.36,12.47,98.24,26.73s44.12,24.65,48.55,58.36-63.5,52.63-93.51,38.2S19.89,77,30.8,49.54Z"/><path class="cls-3" d="M70.42,106.13c-4.92,2.48-11.05-.67-11-5.66l.08-22.84.08-22.84c0-5,6.17-8.09,11.07-5.58L93,60.71l22.41,11.5c4.9,2.52,4.88,8.76,0,11.24L92.91,94.79Z"/></svg>