<svg id="Layer_1" data-name="Layer 1" xmlns="http://www.w3.org/2000/svg" width="1920" height="1080" viewBox="0 0 1920 1080"><defs><style>.cls-1{fill:#a67c52;}.cls-2{fill:#b3b3b3;}.cls-3{fill:#999;}.cls-4{fill:gray;}.cls-5{fill:#bd0000;}.cls-6{fill:#063;}.cls-7{fill:#4d4d4d;}.cls-8{fill:#e0e0e0;}.cls-9{fill:#001300;}.cls-10{fill:#ffdfd4;}.cls-11{fill:#e6e6e6;}.cls-12{fill:#ff9094;}.cls-13{fill:#231f20;}.cls-14{fill:#fff;}.cls-15{fill:#f2f2f2;}.cls-16{fill:#8c6239;}.cls-17{fill:#ccc;}</style></defs><rect class="cls-1" x="0.5" y="831" width="1919" height="253"/><rect class="cls-2" x="543.63" y="768" width="1029.87" height="315.99" rx="14"/><path class="cls-3" d="M722.5,804H583c-4.13,0-7.48,4.22-7.48,9.43V1080C575.5,927.57,641.31,804,722.5,804Z"/><rect class="cls-3" x="1754.46" y="665.76" width="138.04" height="368.64" rx="20.79"/><path class="cls-4" d="M1850.46,547.73V668.81c0,4.26-3.21,7.74-7.14,7.74h-40.19c-3.92,0-7.14-3.48-7.14-7.74V547.73c0-4.24,3.22-7.73,7.14-7.73h40.19C1847.25,540,1850.46,543.49,1850.46,547.73Z"/><ellipse class="cls-3" cx="1823.27" cy="686.11" rx="69.23" ry="43.16"/><path class="cls-5" d="M218.47,89.48c-17.34.52-36.05-7.68-36.15-26s17.22-37.06,35.36-36.17,35.85,15.78,36.62,34.66S235.82,89,218.47,89.48Z"/><path class="cls-6" d="M196,25.62s4.74-3,25.25,8.27,20.37,16.78,20.37,16.78c3.09-5.36-4.62-15.31-17.22-22.23S199.08,20.26,196,25.62Z"/><path class="cls-6" d="M230.46,18.27s-3,1.68-2.5,15.66,3.72,15.44,3.72,15.44c-3.92.14-7.37-6.7-7.71-15.29S226.54,18.42,230.46,18.27Z"/><path class="cls-6" d="M228.13,33.73c18-14.7,22.53-13.45,22.53-13.45C247.52,16.61,236,21,224.94,30Z"/><path class="cls-6" d="M223.57,32.43C208.7,44.94,209.3,48.94,209.3,48.94c-2.88-3.26,2.19-12.14,11.33-19.83Z"/><path class="cls-6" d="M224.79,29.86c23.33,2.41,26.29-.4,26.29-.4-.41,3.88-12.37,5.82-26.71,4.35Z"/><path class="cls-6" d="M218.37,35.27c-15.62-1.31-17.76,2.94-17.76,2.94.48-5.55,8.66-9.4,18.25-8.59Z"/><path class="cls-6" d="M222,30.11C223.31,46.8,219.59,49,219.59,49c4.88-.36,8.19-9,7.4-19.21Z"/><path class="cls-5" d="M320.2,93c-17.34.52-36.05-7.67-36.15-26s17.22-37.06,35.36-36.17S355.26,46.54,356,65.42,337.55,92.45,320.2,93Z"/><path class="cls-6" d="M297.72,29.1s4.73-3,25.25,8.27,20.37,16.79,20.37,16.79c3.09-5.37-4.62-15.32-17.22-22.24S300.81,23.74,297.72,29.1Z"/><path class="cls-6" d="M332.19,21.75s-3,1.68-2.5,15.66,3.72,15.44,3.72,15.44c-3.93.15-7.38-6.7-7.71-15.28S328.27,21.9,332.19,21.75Z"/><path class="cls-6" d="M329.85,37.21c18-14.7,22.54-13.44,22.54-13.44-3.14-3.67-14.65.67-25.72,9.7Z"/><path class="cls-6" d="M325.3,35.92C310.43,48.43,311,52.43,311,52.43c-2.88-3.27,2.19-12.15,11.33-19.83Z"/><path class="cls-6" d="M326.51,33.34c23.34,2.41,26.3-.39,26.3-.39-.41,3.87-12.37,5.82-26.71,4.34Z"/><path class="cls-6" d="M320.1,38.75c-15.62-1.31-17.77,2.94-17.77,2.94.49-5.55,8.66-9.39,18.26-8.59Z"/><path class="cls-6" d="M323.75,33.6c1.29,16.68-2.43,18.85-2.43,18.85,4.88-.36,8.19-9,7.4-19.21Z"/><path class="cls-5" d="M422.6,93.53c-17.35.52-36.06-7.68-36.15-26s17.21-37,35.36-36.17S457.66,47.11,458.42,66,439.94,93,422.6,93.53Z"/><path class="cls-6" d="M400.11,29.67s4.74-3,25.25,8.27,20.38,16.78,20.38,16.78c3.09-5.36-4.62-15.32-17.22-22.24S403.2,24.31,400.11,29.67Z"/><path class="cls-6" d="M434.59,22.32s-3,1.67-2.5,15.65,3.71,15.44,3.71,15.44c-3.92.15-7.37-6.69-7.71-15.28S430.67,22.46,434.59,22.32Z"/><path class="cls-6" d="M432.25,37.78c18-14.7,22.54-13.45,22.54-13.45-3.14-3.67-14.66.68-25.73,9.7Z"/><path class="cls-6" d="M427.7,36.48C412.82,49,413.43,53,413.43,53c-2.88-3.27,2.19-12.14,11.32-19.83Z"/><path class="cls-6" d="M428.91,33.91c23.34,2.4,26.3-.4,26.3-.4-.42,3.88-12.38,5.82-26.71,4.34Z"/><path class="cls-6" d="M422.49,39.31c-15.61-1.3-17.76,2.95-17.76,2.95.49-5.55,8.66-9.4,18.25-8.6Z"/><path class="cls-6" d="M426.14,34.16c1.3,16.68-2.43,18.85-2.43,18.85,4.88-.36,8.2-9,7.4-19.21Z"/><ellipse class="cls-7" cx="1695.72" cy="187.89" rx="154.51" ry="153.78"/><ellipse class="cls-8" cx="1694.94" cy="187.6" rx="144.92" ry="146.95"/><rect class="cls-9" x="1816.56" y="187.39" width="21.51" height="2.49"/><rect class="cls-9" x="1551.98" y="186.32" width="21.51" height="2.49"/><rect class="cls-9" x="1692.71" y="94.63" width="3.78" height="95.26"/><polygon class="cls-9" points="1709.7 102.66 1679.78 102.66 1687.26 92.31 1694.74 81.96 1702.22 92.31 1709.7 102.66"/><path class="cls-5" d="M1694.19,199.8c-6.22.19-12.92-2.82-13-9.55s6.17-13.61,12.67-13.28,12.85,5.79,13.12,12.72S1700.4,199.61,1694.19,199.8Z"/><path class="cls-6" d="M1686.13,176.36s1.7-1.1,9,3,7.3,6.16,7.3,6.16c1.1-2-1.66-5.63-6.17-8.16S1687.24,174.39,1686.13,176.36Z"/><path class="cls-6" d="M1698.48,173.66s-1.09.62-.89,5.75,1.33,5.67,1.33,5.67c-1.41,0-2.64-2.46-2.76-5.61S1697.08,173.72,1698.48,173.66Z"/><path class="cls-6" d="M1697.64,179.34c6.46-5.4,8.08-4.94,8.08-4.94-1.12-1.34-5.25.25-9.22,3.56Z"/><path class="cls-6" d="M1696,178.86c-5.33,4.59-5.11,6.06-5.11,6.06-1-1.2.78-4.46,4.06-7.28Z"/><path class="cls-6" d="M1696.45,177.92c8.36.88,9.42-.15,9.42-.15-.15,1.42-4.43,2.14-9.57,1.6Z"/><path class="cls-6" d="M1694.15,179.9c-5.6-.48-6.37,1.08-6.37,1.08.18-2,3.11-3.45,6.54-3.15Z"/><path class="cls-6" d="M1695.46,178c.46,6.12-.87,6.92-.87,6.92,1.74-.13,2.93-3.29,2.65-7.05Z"/><path class="cls-10" d="M144.66,541.87s-107-77.14-109-144.13c-2.15-72,10-153.8,109-153.8s104.8,85,101.82,156C243.81,463.31,144.66,541.87,144.66,541.87Z"/><path class="cls-2" d="M-14,626.37C-36,529.64-2.32,455,162.36,462.72s135.45,94,122.85,176.94-58,160.6-150.49,157.2S7.93,723.1-14,626.37Z"/><rect class="cls-11" x="19.72" y="275.09" width="242.24" height="50.63" rx="9.01"/><path class="cls-11" d="M240.48,321.51C158.35,310,125.77,308,43.29,321.84c-5.48-44.61-16.23-88.27-22.6-132.74,76.73-4.41,159.1-4.73,235.89-1.5C251.86,232.34,244.58,276.69,240.48,321.51Z"/><ellipse class="cls-11" cx="57.5" cy="193.9" rx="56.87" ry="59.01"/><ellipse class="cls-11" cx="137.36" cy="134.73" rx="56.87" ry="59.01"/><ellipse class="cls-11" cx="215.76" cy="193.15" rx="56.87" ry="59.01"/><path class="cls-12" d="M189.73,403.46c-.06-3,7.1-6,13.27-6.14,6.63-.12,14.22,3.09,14.16,6.14s-7.83,5.9-14.36,5.73C197,409,189.79,406.43,189.73,403.46Z"/><path class="cls-12" d="M65.58,404.58c-.06-3,7.1-6,13.27-6.14,6.63-.12,14.22,3.09,14.16,6.14s-7.83,5.9-14.36,5.73C72.81,410.16,65.64,407.55,65.58,404.58Z"/><path class="cls-13" d="M128.17,420.82A18.72,18.72,0,0,0,157.38,419c1.23-1.69-1.6-3.31-2.82-1.63A15.65,15.65,0,0,1,143,423.72a15.89,15.89,0,0,1-12.53-5.19c-1.41-1.54-3.72.75-2.31,2.29Z"/><path class="cls-13" d="M153.65,412.34a8.78,8.78,0,0,0,3,5.74,9,9,0,0,0,6.1,2.27,1.62,1.62,0,1,0,0-3.24h-.63l-.31,0c-.35,0,.34.07,0,0a7.45,7.45,0,0,1-1.21-.32s-.25-.13-.29-.11l.1,0-.09,0a6,6,0,0,1-.56-.3,6,6,0,0,1-.53-.34l-.17-.12.16.13s-.25-.2-.28-.23a8.31,8.31,0,0,1-.89-.89l-.1-.12.1.12-.19-.26c-.11-.17-.23-.34-.33-.52s-.19-.37-.29-.56.14.36,0,0c0-.1-.08-.19-.11-.29s-.12-.4-.17-.6a2.84,2.84,0,0,1-.06-.31c-.08-.41,0,.3,0,0a1.68,1.68,0,0,0-1.64-1.62c-.8,0-1.73.72-1.63,1.62Z"/><path class="cls-13" d="M128.75,412.7c0,.35.07-.33,0,0l-.06.3c0,.2-.1.4-.16.6s-.07.2-.11.29c-.14.38,0,0,0,0a5.75,5.75,0,0,0-.29.56c-.1.18-.21.35-.32.53l-.19.25c-.19.28.21-.24,0,0a9,9,0,0,1-.92.93l-.24.2.12-.09-.13.09c-.17.12-.34.23-.53.34a5.86,5.86,0,0,1-.55.3l-.14.06c-.13.06-.13.06,0,0s.13-.06,0,0l-.14.06a7.22,7.22,0,0,1-1.21.33c-.38.07.18,0,0,0l-.31,0h-.68a1.64,1.64,0,0,0-1.64,1.62,1.65,1.65,0,0,0,1.64,1.61,9,9,0,0,0,6.1-2.27,8.78,8.78,0,0,0,3-5.74,1.64,1.64,0,0,0-1.63-1.62,1.69,1.69,0,0,0-1.64,1.62Z"/><ellipse class="cls-9" cx="109.95" cy="373.53" rx="25.79" ry="25.56"/><ellipse class="cls-9" cx="172.01" cy="373.53" rx="25.79" ry="25.56"/><ellipse class="cls-14" cx="180.06" cy="382.56" rx="10.97" ry="11.14"/><ellipse class="cls-14" cx="116.48" cy="384.32" rx="10.97" ry="11.14"/><ellipse class="cls-14" cx="159.16" cy="357.54" rx="3.56" ry="3.39"/><ellipse class="cls-14" cx="95.79" cy="360.58" rx="3.56" ry="3.39"/><path class="cls-9" d="M79.5,354.9a7.34,7.34,0,0,0,2.36,4.86,7.52,7.52,0,0,0,5,2,1.64,1.64,0,0,0,1.63-1.62,1.66,1.66,0,0,0-1.63-1.62,4.47,4.47,0,0,1-.73,0l.44.06a5,5,0,0,1-.87-.19c-.12,0-.34-.17-.46-.16.06,0,.39.18.13.06l-.18-.09a6,6,0,0,1-.77-.45,1.33,1.33,0,0,0-.19-.14c.41.27.17.13.08.05l-.34-.3-.3-.32-.14-.16c-.22-.26.16.22.06.08a7.34,7.34,0,0,1-.48-.75,2.35,2.35,0,0,0-.19-.39l.1.24-.06-.15-.06-.19a4.53,4.53,0,0,1-.21-.9l.06.43a3.11,3.11,0,0,1,0-.32,1.66,1.66,0,0,0-1.63-1.62,1.64,1.64,0,0,0-1.63,1.62Z"/><path class="cls-9" d="M84.09,351.7a8.05,8.05,0,0,0,7.65,5.79,1.62,1.62,0,1,0,0-3.24,4.43,4.43,0,0,1-.52,0c-.07,0-.34,0,0,0s0,0-.08,0a6.89,6.89,0,0,1-.92-.24l-.2-.07c-.3-.11.33.15.07,0l-.47-.23-.37-.22c-.1-.07-.36-.19-.42-.29,0,.06.31.24.09.06l-.2-.17c-.12-.1-.23-.21-.34-.32s-.22-.23-.32-.35c-.22-.27.14.19,0,.05l-.12-.17a6.63,6.63,0,0,1-.48-.81l-.07-.15.09.23a1.17,1.17,0,0,1-.09-.24,4.58,4.58,0,0,1-.15-.49,1.63,1.63,0,0,0-3.15.86Z"/><path class="cls-9" d="M187.84,355.29a8,8,0,0,0,7.38-6.11,1.63,1.63,0,0,0-3.15-.86,5.65,5.65,0,0,1-.26.89c-.11.27,0-.09.05-.12a1.12,1.12,0,0,0-.1.22l-.21.39-.24.38-.15.2s.29-.35.06-.07a6.35,6.35,0,0,1-.62.65l-.35.29c-.15.12.32-.23.11-.08l-.21.14a6.06,6.06,0,0,1-.78.45l-.22.1c.45-.22.21-.08.09,0l-.39.13a7.43,7.43,0,0,1-1,.21l.44-.06-.49,0a1.62,1.62,0,1,0,0,3.24Z"/><path class="cls-9" d="M192.37,359.14a8,8,0,0,0,7.38-6.11,1.64,1.64,0,0,0-1.14-2,1.67,1.67,0,0,0-2,1.13,5.47,5.47,0,0,1-.26.9c-.1.27,0-.09.06-.13a1,1,0,0,0-.11.23,3.72,3.72,0,0,1-.21.39l-.24.38a1.15,1.15,0,0,0-.14.19s.28-.34.05-.07a6.35,6.35,0,0,1-.62.65l-.34.3c-.15.12.32-.24.1-.08l-.2.14a7.52,7.52,0,0,1-.78.45l-.23.1c.45-.22.21-.08.09,0l-.39.13a5.21,5.21,0,0,1-.95.21l.43-.06-.49.05a1.62,1.62,0,1,0,0,3.23Z"/><path class="cls-3" d="M162.56,462.34C327.24,470.12,298,556.46,285.4,639.48s-58,160.79-150.49,157.38Z"/><ellipse class="cls-15" cx="134.38" cy="550.43" rx="8.11" ry="8.56"/><ellipse class="cls-15" cx="131.28" cy="594.65" rx="8.11" ry="8.56"/><ellipse class="cls-15" cx="127.55" cy="639.44" rx="8.11" ry="8.56"/><ellipse class="cls-15" cx="172.35" cy="549.86" rx="8.11" ry="8.56"/><ellipse class="cls-15" cx="172.35" cy="594.65" rx="8.11" ry="8.56"/><ellipse class="cls-15" cx="168.94" cy="638.56" rx="8.11" ry="8.56"/><path class="cls-16" d="M42.53,319.06A82.12,82.12,0,0,0,17.2,321c-6.13,5.54-6.81,13.44-1.77,20.08s14,7.12,18.22,0c3.64,7,10.85,10.11,18.29,7.53s11-9.2,13.66-16.41c12.26,8.85,25.28,7.12,34.79-5,11.27,17.31,29.93,19.56,45.21,6.24,10.05,9.39,22.27,8.4,31.24-1.95,4.69,6.71,11,11,19.24,10.15s13.54-6.49,16.77-14.09c9.21,11.78,21.67,14.42,34.58,7.28,1.22,3.55,4.76,4.93,8.08,5.44,4.91.74,10.59,2.12,14.37-2,5.08-5.52,2.16-13.88-3.83-17.59s-13.19-2.76-19.91-2.29c-18.81-17.58-41-18-60.23-.91-10.79-8.44-22.1-9.22-33.91-2.45-16.67-13.07-34.09-14-51.89-2.64-1.76,1.12-2.6,2.51-5,2.6s-3.84-1.83-6-3.3c-17.55-12.1-35.83-10-50.19,6.22Z"/><path class="cls-16" d="M42.6,316.09c-8.81-1-15.3-.19-24.09,2.08a7.73,7.73,0,0,0-3,1.23c-9.53,7.1-7.86,20.13,1.65,27,6.63,4.79,15.32,2.84,19.17-4.72-1.74,0-3.68.08-5.48.23,4.13,7.7,11.3,11.75,19.8,9.95,9.61-2,14.17-10,17.56-18.84-1.57.3-3.1.75-4.65,1.11,14,10,28.24,8.2,39.15-5.46-1.59,0-3.18,0-4.77,0,12.52,18.93,32.68,21.39,49.58,6.87l-4,0c11.71,10.67,25.31,9.3,35.66-2.59-1.61,0-3.24,0-4.85.08,5.46,7.58,12.54,12.59,22,11.5s15.34-7.47,19.13-16.16c-1.71.15-3.41.45-5.11.66,10.34,13.13,23.91,16.19,38.39,8.35-1.36-.58-2.75-1.19-4.11-1.73,3,6.74,9.81,8.21,16.39,8.33s12.51-2.46,13.86-9.61a15.58,15.58,0,0,0-6.53-15.5c-6.73-4.78-14.56-3.88-22.31-3.34.62.32,1.32.57,2,.87-20.13-18.68-43.58-19.06-64.17-.91l4,0c-11.95-9.21-24.16-10.24-37.28-2.9L154,313c-15.79-12.54-32.06-14.67-50.24-6.45a33,33,0,0,0-5,3.36c-1,.67-1.64,1.65-2.94,2.06s-2.43-.5-3.51-1.32c-3.3-2.5-6.19-5.22-10.12-6.78-7.55-3-15.29-4.12-23.33-2.27a35.86,35.86,0,0,0-21.95,14.75c-2.18,3.05,1.73,6.23,4.29,3.26C51.85,307.2,65,304,80,309.2c4,1.4,6.13,4.14,9.46,6.44,1.84,1.26,3.37,2.36,5.76,2.3s4.25-1.61,6.26-3c7.14-4.92,14.32-7.95,23-7.86,9.81.09,17.85,3.66,25.52,10a2.84,2.84,0,0,0,3.36.47c10.67-6,20.69-5.53,30.54,2a2.82,2.82,0,0,0,3.95,0C200,308,213.54,305.29,229.2,309.87c3.74,1.1,6.46,3.13,9.57,5.28a33,33,0,0,1,4.19,3.94c.64.62.77,1.32,1.84,1.88s2.68.21,4.14.11c8.53-.61,18.37-.36,20.59,9.91,1,4.71-3,6.95-7,7.18a30.39,30.39,0,0,1-7.52-.95c-1.86-.39-4.09-1.2-4.89-3.13s-2.34-2.74-4.13-1.77c-11.49,6.25-22.44,4.17-30.72-6.24-1.73-2.17-4-1.68-5.1.7-3,6.42-7.31,11.29-14.44,12s-12.34-3-16.51-8.78c-1.39-1.9-3.31-1.71-4.83,0-7.81,8.85-18.15,9.32-26.81,1.37a2.81,2.81,0,0,0-3.94,0c-14,12.07-30.53,10-40.84-5.57-1.36-2-3.38-1.76-4.78,0-8.39,10.37-19.68,12.09-30.42,4.42-1.87-1.34-3.72-1.08-4.63,1.18-2.63,6.58-5.52,12.62-12.65,14.76a11.48,11.48,0,0,1-13.92-6c-1.42-2.72-4.13-2.3-5.55.23-2.32,4.14-8,4-11.18,1.14-6.53-5.81-5-13.28-.19-19.55a28.46,28.46,0,0,1-3.36,1.68,183.6,183.6,0,0,1,26-1.59c3.82.06,4.48-5.45.48-5.92Z"/><path class="cls-2" d="M247.94,735.08h0c-13.76-4.33-26.81-10-21-33.57,13.81-56.2,19.86-72.84,20.76-132.91.37-25.23,12.52-26.49,27.07-27.46h0c14.55-1,25.47,11,24.7,29.42-1.84,43.76-13.89,99.28-20.67,142.71C275.94,731.52,261.69,739.42,247.94,735.08Z"/><path class="cls-17" d="M26.61,737h0c13.76-4.34,26.81-10,21-33.58C33.8,647.2,27.75,630.56,26.86,570.5,26.48,545.27,14.34,544-.21,543h0c-14.55-1-25.48,11-24.7,29.41C-23.07,616.21-11,671.73-4.24,715.17-1.39,733.41,12.85,741.31,26.61,737Z"/><path class="cls-7" d="M43.55,824H134.8c0-24.47-20.43-44.31-45.63-44.31S43.55,799.5,43.55,824Z"/><path class="cls-7" d="M140.14,824h91.24c0-24.47-20.42-44.31-45.62-44.31S140.14,799.5,140.14,824Z"/><path class="cls-14" d="M6.05,829.64a1.5,1.5,0,0,0,0-3,1.5,1.5,0,0,0,0,3Z"/><path class="cls-14" d="M3.07,816.6a1.5,1.5,0,0,0,0-3,1.5,1.5,0,0,0,0,3Z"/><path class="cls-14" d="M20.17,838.93a.38.38,0,0,0,0-.75.38.38,0,0,0,0,.75Z"/><path class="cls-1" d="M561.13,375.35a1.5,1.5,0,0,0,0-3,1.5,1.5,0,0,0,0,3Z"/></svg>