<svg id="Layer_1" data-name="Layer 1" xmlns="http://www.w3.org/2000/svg" width="1920" height="1080" viewBox="0 0 1920 1080"><defs><style>.cls-1{fill:#998675;}.cls-2{fill:#0c3e00;}.cls-3{fill:#63804a;}.cls-4{fill:#95bf6f;}.cls-5{fill:#8c6239;}.cls-6{fill:#fff;}.cls-7{fill:#ff7bac;}.cls-8{fill:#231f20;}.cls-9{fill:#940018;}.cls-10{fill:#ff7d00;}.cls-11{fill:#ec5f00;}.cls-12{fill:#599f00;}.cls-13{fill:#8cc63f;}.cls-14{fill:#009245;}.cls-15{fill:#39b54a;}.cls-16{fill:#ffa5ac;}.cls-17{fill:#f2f2f2;}.cls-18{fill:#fbb03b;}.cls-19{fill:#001300;}.cls-20{fill:#006837;}.cls-21{fill:#ef3f3f;}.cls-22{fill:#333;}.cls-23{fill:gray;}.cls-24{fill:#a80000;}.cls-25{opacity:0.29;}.cls-26{fill:#ff3f65;}.cls-27{opacity:0.82;}.cls-28{fill:#760000;}.cls-29{opacity:0.45;}.cls-30{opacity:0.31;}.cls-31{opacity:0.67;}.cls-32{opacity:0.52;}.cls-33{opacity:0.42;}.cls-34{opacity:0.19;}.cls-35{opacity:0.47;}.cls-36{opacity:0.46;}.cls-37{opacity:0.59;}.cls-38{opacity:0.6;}.cls-39{opacity:0.48;}.cls-40{fill:#ffb14c;}.cls-41{fill:#bf7617;}.cls-42{fill:#ffc479;}.cls-43{fill:#ff66a6;}.cls-44{fill:#48b14c;}.cls-45{fill:#666;}.cls-46{fill:#ccc;}.cls-47{fill:#d6d6d6;}.cls-48{fill:#dbdbdb;}.cls-49{fill:#bd0000;}.cls-50{fill:#063;}.cls-51{fill:#ccc7ac;}.cls-52{fill:#dbd8c6;}.cls-53{fill:#e6e6e6;}.cls-54{fill:#e1c933;}.cls-55{fill:#fff5aa;}.cls-56{fill:#fff7bb;}.cls-57{fill:#fffbdd;}.cls-58{fill:#e5db99;}.cls-59{fill:#fffd94;}.cls-60{fill:#00e900;}.cls-61{fill:#9f1100;}</style></defs><rect class="cls-1" width="1920" height="1080"/><path d="M695.9,288.37Q690,206.44,684,124.52A600.41,600.41,0,0,1,749.7,90.89c9.17-4,17.33-2.12,24.34,6.55s10.77,21.28,11.25,36.77l.48,15.49A92.57,92.57,0,0,1,779.21,187c-4.75,11.9-13.09,17.5-24.92,17.61l16.43-.21c4.57,0,8.6,2.58,12.07,8.15s5.32,12.4,5.56,20.23q1.56,50.48,3.13,101-16.4-6-32.5-13l-3.09-76.59a35.2,35.2,0,0,0-5.6-18.41c-3.45-5.16-7.4-7.7-11.81-7.88l-16.2-.73L727,305.52Q711.26,297.45,695.9,288.37Zm25.21-93.25q8.08-.54,16.27-1c4.43-.27,8.18-2.89,11.24-8.15a33.48,33.48,0,0,0,4.17-18.44q-.51-12.81-1-25.61c-.28-6.95-2.18-12.49-5.68-16.31s-7.52-4.78-12-3.11q-8.3,3.08-16.49,6.38Q719.35,162,721.11,195.12Z"/><path d="M888.25,49.45q17.71-3,35.54-5l1.92,249.62c.14,19.27-3.12,35.76-9.73,49s-14.56,19-23.88,17.39q-17.1-2.92-34-6.89c-9.23-2.17-17.24-10.69-24.1-24.68a109,109,0,0,1-10.89-46.09q-2.57-108.48-5.14-216.94,17.33-5.18,34.89-9.28l4.08,231.1a56.1,56.1,0,0,0,5.38,23.85c3.44,7.06,7.51,11.06,12.25,11.8s8.74-2,12-8.37,4.83-14.22,4.72-23.52Z"/><path d="M960.57,368Q960,204.81,959.51,41.65q17.9-.88,35.8-.68L995,332.12q25.95-.22,51.83-2.25-.13,17.92-.28,35.85A571.61,571.61,0,0,1,960.57,368Z"/><path d="M1080.88,361.16q1.92-156.2,3.85-312.39a590.26,590.26,0,0,1,87.51,21.32q-.42,15.07-.82,30.16-25.73-6.6-52-11.28l-1.74,99.63q17.32.51,34.44,1.16-.37,15.51-.73,31-17,.45-34.29.81-.87,49.8-1.75,99.62,25.44-4.46,50.42-10.71l-.81,30.16A567.29,567.29,0,0,1,1080.88,361.16Z"/><path d="M1286.3,159.92q-7.87-2.64-15.86-5.14c-.57-14.08-5.23-23.36-14.11-27-5.72-2.3-10.16-2-13.28,1s-4.87,8.64-5.24,16.73a35.73,35.73,0,0,0,4.06,18c10.65,21.13,21.05,39.5,31.16,54.48,5.6,8.28,8,16.29,7.34,25.62q-.33,4.71-.67,9.4c-.71,10-4.34,19.8-10.91,30.6s-14.14,19.13-22.81,23.56q-7.9,4-15.9,7.78c-10.57,5-18.44,4.22-23.54-2.72s-7.36-19.85-6.73-38q8.24-1.77,16.4-3.68c-.18,1.8-.29,3.22-.33,4.28-.27,7,1.21,11.91,4.45,14.39s6.85,2.9,10.86,1.45a22.93,22.93,0,0,0,12.56-10.47c2.68-4.82,4.21-10.81,4.6-18.16a23.62,23.62,0,0,0-3.89-14.88c-10.4-16-21.06-35.2-32-56.87a80.2,80.2,0,0,1-8.38-39.2q.26-6.93.49-13.86c.52-14.89,4.26-26.94,11.22-35S1230.89,92.66,1240,97q8.32,3.91,16.56,8.1C1277.08,116.09,1286.76,135.37,1286.3,159.92Z"/><path class="cls-2" d="M344.73,700c-52.91.75-91.14-49.72-89.41-97.24s35-155.17,88.79-156.76S434.23,550.78,434,600.79,397.64,699.25,344.73,700Z"/><path class="cls-3" d="M344.94,696c-50.59.71-87.13-47.52-85.49-92.93s33.48-148.28,84.9-149.8,86.15,100.14,85.93,147.93S395.53,695.23,344.94,696Z"/><path class="cls-4" d="M345.27,689c-42.47.57-73.15-38.18-71.77-74.66S301.6,495.21,344.77,494s72.32,80.46,72.14,118.85S387.73,688.43,345.27,689Z"/><path class="cls-5" d="M289.46,616.22c.46-31.68,24.14-63.15,57.1-64.67s58.32,41.41,55.84,71.1-25.86,59.09-57.13,57.75S289,647.9,289.46,616.22Z"/><ellipse cx="364.29" cy="602.97" rx="16.4" ry="16.72"/><ellipse cx="328.54" cy="603.36" rx="16.4" ry="16.72"/><ellipse class="cls-6" cx="359.74" cy="595.36" rx="4.49" ry="4.62"/><ellipse class="cls-6" cx="323.84" cy="596.12" rx="4.49" ry="4.62"/><ellipse class="cls-6" cx="330.04" cy="601.27" rx="2.05" ry="2.33"/><ellipse class="cls-6" cx="366.18" cy="600.34" rx="2.05" ry="2.33"/><ellipse class="cls-7" cx="377.16" cy="625.27" rx="2.05" ry="2.33"/><ellipse class="cls-7" cx="317.58" cy="625.27" rx="2.05" ry="2.33"/><path class="cls-8" d="M335.48,639s1.2-6.34,12-6.34,12,6.34,12,6.34c0-8-5.39-14.48-12-14.48S335.48,631,335.48,639Z"/><path class="cls-9" d="M335.35,639s1.21-3.83,12.08-3.83S359.52,639,359.52,639c0-4.83-5.41-8.75-12.09-8.75S335.35,634.16,335.35,639Z"/><path class="cls-10" d="M591.28,784.06l-23,149.64-14,90.81c-1.72,11.23-19.77,11.23-21.5,0l-14-90.81-23-149.64a8.81,8.81,0,0,1,.77-5.17c-.05.54-.08,1.08-.08,1.63,0,15,21,27.08,46.8,27.08s46.8-12.12,46.8-27.08a17,17,0,0,0-.24-2.76A8.92,8.92,0,0,1,591.28,784.06Z"/><path class="cls-10" d="M590.12,780.52c0,15-21,27.08-46.8,27.08s-46.8-12.12-46.8-27.08c0-.55,0-1.09.08-1.63a10.93,10.93,0,0,1,10-5.92h73.94a11.14,11.14,0,0,1,9.35,4.79h0A17,17,0,0,1,590.12,780.52Z"/><path class="cls-10" d="M589.88,777.76a11.14,11.14,0,0,0-9.35-4.79H506.59a10.93,10.93,0,0,0-10,5.92c1.47-14.19,21.82-25.43,46.72-25.43C567.55,753.46,587.48,764.11,589.88,777.76Z"/><path class="cls-11" d="M502.28,811.85l27.27-.54c1.93,0,1.93-3,0-3l-27.27.54c-1.93,0-1.93,3,0,3Z"/><path class="cls-11" d="M581.6,823.12a34.37,34.37,0,0,1-20.06-.2c-1.85-.58-2.63,2.32-.8,2.9a37.43,37.43,0,0,0,21.66.2c1.84-.55,1.06-3.44-.8-2.9Z"/><path class="cls-11" d="M516.79,836.77a48.51,48.51,0,0,0,17.48-1.23,1.31,1.31,0,1,0-.77-2.49,45.85,45.85,0,0,1-16.71,1.14,1.38,1.38,0,0,0-1.44,1.29c0,.77.67,1.2,1.44,1.29Z"/><path class="cls-11" d="M535.06,853.26c14.46.35,29.19.63,43.24-3a1.3,1.3,0,1,0-.76-2.49c-13.81,3.55-28.27,3.23-42.48,2.89a1.29,1.29,0,1,0,0,2.58Z"/><path class="cls-11" d="M510.81,871.16l18.37-.47c5.43-.14,11-.25,16.09-2.14,1.68-.62,1-3.12-.76-2.48-5,1.86-10.46,1.92-15.81,2l-17.89.46a1.29,1.29,0,1,0,0,2.58Z"/><path class="cls-11" d="M518.54,913.37a30,30,0,0,0,17.18-2.48c1.63-.78.18-3-1.45-2.23a26.38,26.38,0,0,1-15,2.22,1.51,1.51,0,0,0-1.76.9,1.29,1.29,0,0,0,1,1.59Z"/><path class="cls-11" d="M543.2,931.82a103,103,0,0,0,22.12-1.43c1.81-.31,1-2.8-.77-2.48a99.69,99.69,0,0,1-21.35,1.33,1.29,1.29,0,1,0,0,2.58Z"/><path class="cls-11" d="M531.26,893.61h8.52a1.3,1.3,0,1,0,0-2.58h-8.52a1.3,1.3,0,1,0,0,2.58Z"/><path class="cls-11" d="M522.38,951.3l5.93.91a1.69,1.69,0,0,0,1.11-.13,1.31,1.31,0,0,0,.66-.77,1.29,1.29,0,0,0-1-1.58l-5.94-.91A1.7,1.7,0,0,0,522,949a1.35,1.35,0,0,0-.66.77,1.3,1.3,0,0,0,1,1.58Z"/><path class="cls-11" d="M560.28,942.21a6.7,6.7,0,0,0,1.41.07,6.89,6.89,0,0,0,1.43-.24,6.44,6.44,0,0,0,2.41-1.28,1.21,1.21,0,0,0,0-1.83,1.6,1.6,0,0,0-2,0,3.51,3.51,0,0,1-.36.29l.29-.2a5.21,5.21,0,0,1-1,.54l.34-.13a5,5,0,0,1-1.17.29l.39,0a5.44,5.44,0,0,1-1.21,0l.38.05h-.06a1.77,1.77,0,0,0-1.11.13,1.34,1.34,0,0,0-.66.77,1.2,1.2,0,0,0,.15,1,1.39,1.39,0,0,0,.85.6Z"/><path class="cls-11" d="M527.06,974.69a28.42,28.42,0,0,0,18.15-3.46c1.54-.91.1-3.14-1.45-2.23a25.07,25.07,0,0,1-15.94,3.2,1.5,1.5,0,0,0-1.76.9,1.29,1.29,0,0,0,1,1.59Z"/><path class="cls-11" d="M546.17,1007.12a12.78,12.78,0,0,0,8.9-3.34,1.21,1.21,0,0,0,0-1.82,1.56,1.56,0,0,0-2,0,9.88,9.88,0,0,1-.77.66l-.19.15-.1.07c.12-.09-.08.06-.11.07l-.2.13c-.3.18-.6.35-.91.5a4.54,4.54,0,0,1-.45.21l-.23.1-.17.07-.12,0-.24.08-.47.14c-.34.09-.69.17-1,.24l-.5.07c.3,0-.14,0-.24,0a10.59,10.59,0,0,1-1.13,0,1.3,1.3,0,1,0,0,2.58Z"/><path class="cls-11" d="M563.86,891.27l9.53-1.46a1.29,1.29,0,0,0,1-1.59,1.5,1.5,0,0,0-1.76-.9l-9.53,1.47a1.28,1.28,0,0,0-1,1.58,1.49,1.49,0,0,0,1.76.9Z"/><path class="cls-11" d="M545.19,797.64a92,92,0,0,0,40.3-6c1.69-.66.24-2.88-1.44-2.23a88.84,88.84,0,0,1-38.86,5.65c-1.84-.14-1.83,2.44,0,2.58Z"/><path class="cls-12" d="M536.33,758.4a72.32,72.32,0,0,0-22.17,30.23,76.85,76.85,0,0,0,20-18.55l10,9.36c2.11-6.09,7.37-10.8,12.45-15.25,20.41-17.9,43.89-37,72.4-37-12-.64-24.22-1.26-36.1.66s-23.59,6.69-31.19,15.12a124.22,124.22,0,0,0-2.55-50.83A285.63,285.63,0,0,0,549.85,727c-6-9.34-3.31-22-10.56-30.58-2.91-3.44-7.1-5.78-11.19-8l-30.27-16.78a158.73,158.73,0,0,1,41.81,58.7,126.42,126.42,0,0,1-54.71-5.58c12.95,13.63,39.68,4.64,56.1,14.82-22.6-4.75-47.94,4-61.26,21A109.14,109.14,0,0,1,535,748.48a23.62,23.62,0,0,0-14.54,13.34L534,759.18"/><path class="cls-12" d="M535.32,757.49a74.19,74.19,0,0,0-22.54,30.8c-.39,1,1.1,2.11,2.11,1.46a79.73,79.73,0,0,0,20.52-19l-2.25.27,10,9.35a1.51,1.51,0,0,0,2.39-.57c2.17-6,7.42-10.59,12.35-14.92s10-8.64,15.2-12.74c10.19-8,21.37-15.47,34.09-19.85A68.09,68.09,0,0,1,629,728.44a1.29,1.29,0,1,0,0-2.58c-19.27-1-40-1.86-57.17,7.55A43,43,0,0,0,560.72,742l2.39,1.26a126.69,126.69,0,0,0-2.55-51.52c-.33-1.28-2.37-1.17-2.76,0a291.72,291.72,0,0,0-9.34,34.87l2.62-.31c-5-7.93-3.77-17.58-7.61-25.87-2.12-4.56-5.75-7.92-10.24-10.69-5.08-3.13-10.47-5.89-15.71-8.8l-19-10.51c-1.39-.77-2.89,1-1.74,2a160.42,160.42,0,0,1,34.84,44,148.14,148.14,0,0,1,6.61,14.11l1.38-1.63a126.08,126.08,0,0,1-54.33-5.54,1.33,1.33,0,0,0-1.4,2.16c5.15,5.35,12.69,7.46,20.25,8.39,7.95,1,16.05.86,23.93,2.29a35.35,35.35,0,0,1,12.21,4.34l1.11-2.36a67.13,67.13,0,0,0-52.22,11.33,54.33,54.33,0,0,0-10.66,10.31c-.86,1.09.79,2.37,2,1.76a107,107,0,0,1,41.86-11.73,110.34,110.34,0,0,1,12.6-.15l-.38-2.54A25.31,25.31,0,0,0,519,761.48c-.39,1,.78,1.77,1.77,1.58l13.57-2.63c1.81-.35,1-2.84-.76-2.49L520,760.57l1.77,1.59a22.31,22.31,0,0,1,13.54-12.44,1.28,1.28,0,0,0-.38-2.53,111.76,111.76,0,0,0-44.29,7A108.15,108.15,0,0,0,479,759.42l2,1.77c10.15-12.91,27.31-20.91,44.8-21.63a60.46,60.46,0,0,1,14.84,1.18c1.62.33,2.45-1.54,1.11-2.36-13.53-8.27-30.92-4.13-45.72-8.65a23.36,23.36,0,0,1-10.09-6l-1.39,2.15a128.32,128.32,0,0,0,55.09,5.63c.84-.1,1.74-.76,1.39-1.63a158.68,158.68,0,0,0-30.44-47.72,164.28,164.28,0,0,0-11.75-11.55l-1.74,2c10.89,6,21.88,11.94,32.66,18.12,4.42,2.53,8.38,5.44,10.66,9.79,2.09,4,2.76,8.48,3.54,12.78.89,4.91,1.89,9.87,4.65,14.26.57.91,2.39.81,2.62-.31a291,291,0,0,1,9.33-34.86H557.8a123.67,123.67,0,0,1,2.55,50.14c-.17,1.1,1.37,2.38,2.4,1.25,11.78-13,31.22-16.09,48.85-16,5.82,0,11.62.32,17.42.63v-2.58c-14,.07-27.16,4.7-38.83,11.36-12,6.86-22.6,15.61-32.8,24.5-5.81,5.06-12,10.26-14.6,17.37l2.39-.57-10-9.35a1.55,1.55,0,0,0-2.25.26,75.93,75.93,0,0,1-19.5,18.09l2.1,1.46a71.53,71.53,0,0,1,21.81-29.67c1.37-1.12-.67-2.93-2-1.82Z"/><path class="cls-12" d="M529.49,746.92a73.59,73.59,0,0,0-33.1,5,74.81,74.81,0,0,0,24,.49l-.57,10.81c5.32-2.29,11.51-2.06,17.42-1.79,23.77,1.08,50.1,3.18,66.5,18.85-6.48-7-13.05-14.06-21.16-19.51s-18-9.19-28.08-8.59a120.06,120.06,0,0,0,32.79-30.25,296.75,296.75,0,0,0-28.85,14.65c2.87-8.59,12.93-14.32,14.55-23.17.65-3.56-.17-7.19-1-10.73l-6.06-26.2a121.77,121.77,0,0,1-15.57,56.34,88.68,88.68,0,0,1-27.63-33.29c-1.76,14.86,19.64,24.48,22.2,39.3-9.77-15.14-30.17-24.15-49.33-21.8a86.05,86.05,0,0,1,39.79,23.55,22.8,22.8,0,0,0-17.34-.44l9.57,6"/><path class="cls-12" d="M529.52,745.84a75.47,75.47,0,0,0-33.69,5.07,1.05,1.05,0,0,0,.23,2,77.45,77.45,0,0,0,24.59.52l-1.47-1.1-.57,10.81c-.05.84,1,1.33,1.76,1,5.32-2.24,11.39-1.93,17.13-1.66s11.56.59,17.31,1.14c11.23,1.07,22.69,3,32.94,7.5A52.64,52.64,0,0,1,602.86,781c1.07,1,2.72-.4,1.73-1.47-10.37-11.19-21.71-23.1-37.89-27.19a40.67,40.67,0,0,0-12.19-1.25l.53,2a122.45,122.45,0,0,0,33.26-30.65c.67-.91-.57-2-1.59-1.52a301.31,301.31,0,0,0-28.85,14.65l1.71,1.27c2.49-7.24,9.68-12.06,13.06-18.88a18.29,18.29,0,0,0,1.33-11.7c-.8-4.58-2-9.11-3.08-13.65l-3.8-16.41c-.28-1.21-2.33-1-2.36.19a120.53,120.53,0,0,1-9.67,44.17,122,122,0,0,1-5.73,11.65l1.9-.17A88.41,88.41,0,0,1,523.78,699c-.51-1.08-2.15-.51-2.26.45-.64,5.87,2.26,11.23,6,15.92,3.9,4.93,8.62,9.32,12.18,14.48a23.52,23.52,0,0,1,4.08,9.18l2.22-.73c-7.9-12.15-22.21-20.38-37.58-22.32a53.42,53.42,0,0,0-13.07,0,1.06,1.06,0,0,0-.06,2.08,86.48,86.48,0,0,1,31.92,16.4,79.38,79.38,0,0,1,7.33,6.85l1.49-1.65a24.45,24.45,0,0,0-18.52-.48,1,1,0,0,0-.06,1.88l9.57,6c1.27.79,2.51-1,1.24-1.83l-9.57-6,0,1.88a21.54,21.54,0,0,1,16.15.39c1.2.53,2.41-.68,1.49-1.64a86.07,86.07,0,0,0-30.16-20.4A94.12,94.12,0,0,0,495.93,716l-.06,2.08a53,53,0,0,1,40.27,12.39,43.1,43.1,0,0,1,7.72,8.85,1.2,1.2,0,0,0,2.22-.73c-2.18-12.14-15-19.37-20.39-30.09a15.71,15.71,0,0,1-1.77-8.93l-2.26.45a90,90,0,0,0,27.82,33.54c.55.4,1.51.53,1.89-.17a124.25,124.25,0,0,0,14.7-43.84,118.34,118.34,0,0,0,1-13l-2.36.2c2.18,9.41,4.51,18.82,6.53,28.26.83,3.88,1.14,7.7-.48,11.42-1.49,3.42-4.13,6.34-6.59,9.21-2.8,3.28-5.56,6.65-6.94,10.65a1.18,1.18,0,0,0,1.71,1.27,302.49,302.49,0,0,1,28.85-14.65l-1.58-1.52a119.23,119.23,0,0,1-32.33,29.86c-.84.53-.82,2.11.53,2,15.49-.86,28.75,8.06,38.83,17.8,3.33,3.21,6.45,6.58,9.58,10l1.73-1.47c-8.06-7.65-18.75-12.29-29.93-14.93-11.54-2.74-23.49-3.59-35.33-4.16-6.74-.33-13.83-.82-20.09,1.82l1.76,1,.57-10.81a1.2,1.2,0,0,0-1.47-1.1,73.9,73.9,0,0,1-23.37-.47l.22,2a72.52,72.52,0,0,1,32.5-4.83,1.08,1.08,0,1,0,.07-2.16Z"/><ellipse cx="573.61" cy="814.9" rx="27.55" ry="24.05"/><ellipse cx="513.57" cy="815.46" rx="27.55" ry="24.05"/><ellipse class="cls-6" cx="565.97" cy="803.95" rx="7.54" ry="6.64"/><ellipse class="cls-6" cx="505.67" cy="805.05" rx="7.54" ry="6.64"/><ellipse class="cls-6" cx="516.09" cy="812.46" rx="3.44" ry="3.36"/><ellipse class="cls-6" cx="576.8" cy="811.12" rx="3.44" ry="3.36"/><path class="cls-13" d="M285.43,783.37c56.05,0,101.5,72.48,101.5,115.63s-45.45,121.88-101.5,121.88S183.93,942.15,183.93,899,229.37,783.37,285.43,783.37Z"/><path class="cls-13" d="M330.55,782.9c53.78,0,97.38,72.48,97.38,115.63s-43.6,121.89-97.38,121.89-97.37-78.74-97.37-121.89S276.78,782.9,330.55,782.9Z"/><ellipse cx="296.86" cy="862.55" rx="18.06" ry="16.18"/><ellipse cx="257.5" cy="862.93" rx="18.06" ry="16.18"/><ellipse class="cls-6" cx="291.86" cy="855.19" rx="4.94" ry="4.47"/><ellipse class="cls-6" cx="252.32" cy="855.93" rx="4.94" ry="4.47"/><circle class="cls-6" cx="259.15" cy="860.91" r="2.26"/><circle class="cls-6" cx="298.95" cy="860.01" r="2.26"/><path class="cls-14" d="M227,717.5s38.69-3.29,56.66,11.73C303,745.36,305.44,786,305.44,786s-40.39,1.05-58.54-15.86C230.67,755.07,227,717.5,227,717.5Z"/><path class="cls-5" d="M306.68,785.67c1.48-16.92,3.95-34.63,14.12-48.23a49.47,49.47,0,0,1,16-13.82c2.76-1.5,5.8-2.76,8.95-2.62s6.38,2,7.26,5.06c-10.13,2.65-20.69,6-27.81,13.63-3.66,4-6.17,8.86-8.29,13.82a121.42,121.42,0,0,0-8.9,33.11"/><path class="cls-5" d="M307.93,785.67c1.19-13.35,2.86-27.1,8.86-39.28a49.84,49.84,0,0,1,11.53-15.3c4.75-4.2,19.2-15,23.49-4.7l.87-1.54c-12.58,3.34-25.18,7.79-32.44,19.36-7.82,12.47-11.61,28-13.47,42.41-.2,1.59,2.3,1.57,2.5,0,1.75-13.58,5.4-27.83,12.3-39.76s19.19-16.26,31.78-19.6a1.26,1.26,0,0,0,.87-1.54c-6.75-16.16-28.69,3.41-34.31,10.84-10.59,14-13,32.1-14.48,49.11-.14,1.6,2.36,1.59,2.5,0Z"/><path class="cls-14" d="M245.14,833.67s4.13-29.1,18.26-39.84c15.18-11.53,45.62-6.47,45.62-6.47s-6.08,30-21.64,40.53C273.48,837.32,245.14,833.67,245.14,833.67Z"/><path class="cls-15" d="M226.7,717.65s3.63,37.57,19.86,52.68c18.16,16.91,58.54,15.86,58.54,15.86Z"/><path class="cls-15" d="M308.93,786.37s-29.26-4.59-43.16,4.93c-15.56,10.64-20.59,41.91-20.59,41.91Z"/><path class="cls-8" d="M264.26,902.41a21.54,21.54,0,0,1,33.95-1c1.26,1.47,3.37-.66,2.12-2.12a24.5,24.5,0,0,0-38.66,1.58c-1.14,1.56,1.46,3.05,2.59,1.52Z"/><path class="cls-16" d="M301.82,888.91c0-1.51,4.62-3,8.64-3.1,4.31-.06,9.25,1.56,9.21,3.1s-5.09,3-9.34,2.9C306.53,891.73,301.86,890.41,301.82,888.91Z"/><path class="cls-16" d="M236.42,888.73c0-1.51,4.62-3,8.63-3.1,4.31-.06,9.25,1.56,9.21,3.1s-5.09,3-9.34,2.9C241.12,891.55,236.46,890.23,236.42,888.73Z"/><path class="cls-17" d="M582.29,562.92C564.74,438.2,685.39,527.46,715.23,498S829,462.09,851,546.3,771.61,708,699.45,672,599.84,687.65,582.29,562.92Z"/><ellipse class="cls-18" cx="746.63" cy="579.28" rx="60.62" ry="62.59"/><path class="cls-8" d="M739.32,549.87H703.91c0,12.64,7.93,22.89,17.7,22.89S739.32,562.51,739.32,549.87Z"/><path class="cls-8" d="M778.23,549.87h-35.4c0,12.64,7.92,22.89,17.7,22.89S778.23,562.51,778.23,549.87Z"/><path class="cls-6" d="M709,549.87c0,4.29,2.93,7.76,6.55,7.76s6.55-3.47,6.55-7.76Z"/><path class="cls-6" d="M746.89,549.87c0,4.29,2.93,7.76,6.55,7.76s6.55-3.47,6.55-7.76Z"/><ellipse class="cls-6" cx="761.03" cy="557.21" rx="2.19" ry="2.08"/><ellipse class="cls-6" cx="723.04" cy="557.21" rx="2.19" ry="2.08"/><rect class="cls-19" x="712.82" y="583.33" width="54.54" height="7.46" rx="3.12"/><path class="cls-16" d="M768.28,579.86c0-1.8,5.32-3.63,9.94-3.7,5-.08,10.65,1.86,10.6,3.7s-5.86,3.56-10.75,3.46C773.7,583.23,768.33,581.65,768.28,579.86Z"/><path class="cls-16" d="M690.75,579.11c0-1.8,5.32-3.63,9.94-3.7,5-.07,10.65,1.86,10.61,3.7s-5.87,3.56-10.76,3.46C696.17,582.48,690.8,580.9,690.75,579.11Z"/><path class="cls-20" d="M911,798.07H646.38c0,66.42,59.24,120.27,132.31,120.27S911,864.49,911,798.07Z"/><path class="cls-15" d="M903.33,798H654.51c0,59.44,55.7,107.63,124.41,107.63S903.33,857.44,903.33,798Z"/><path class="cls-21" d="M897.58,798H660.32c0,52.24,53.12,94.58,118.63,94.58S897.58,850.24,897.58,798Z"/><path class="cls-19" d="M690.68,843.82a3.59,3.59,0,0,1-.27-4.62c1.06-1.31,4.64-3.58,5.84-2.34s-.44,5.5-1.49,6.81A2.65,2.65,0,0,1,690.68,843.82Z"/><path class="cls-19" d="M781.35,879a3.17,3.17,0,0,1-2.67-3.49c.13-1.77,1.78-6,3.39-5.88s2.59,4.69,2.45,6.45A3,3,0,0,1,781.35,879Z"/><path class="cls-19" d="M749.63,874.11a3.17,3.17,0,0,1-2.67-3.5c.14-1.76,1.78-6,3.4-5.87s2.58,4.68,2.44,6.45A3,3,0,0,1,749.63,874.11Z"/><path class="cls-19" d="M718.43,860.27a3.55,3.55,0,0,1-.83-4.53c.87-1.47,4.15-4.28,5.49-3.25s.24,5.52-.64,7A2.68,2.68,0,0,1,718.43,860.27Z"/><path class="cls-19" d="M673.23,818.47a3.57,3.57,0,0,1,.71-4.56c1.3-1,5.25-2.23,6.16-.7s-1.58,5.22-2.87,6.21A2.69,2.69,0,0,1,673.23,818.47Z"/><path class="cls-19" d="M819.32,873.53a2.77,2.77,0,0,1-3.82-1.65c-.61-1.63-.93-6.27.56-7s4.22,2.74,4.84,4.37A3.46,3.46,0,0,1,819.32,873.53Z"/><path class="cls-19" d="M851.87,858.79a2.67,2.67,0,0,1-4.06-.51c-1-1.4-2.3-5.8-1-6.92s4.7,1.45,5.65,2.85A3.57,3.57,0,0,1,851.87,858.79Z"/><path class="cls-19" d="M877,833.75a2.69,2.69,0,0,1-4,1c-1.3-1-3.82-4.66-2.93-6.19s4.87-.34,6.17.64A3.54,3.54,0,0,1,877,833.75Z"/><path class="cls-19" d="M796.13,851.47a1.57,1.57,0,0,1-1.92-1.24c-.16-.9.18-3.27,1.08-3.48s2,1.84,2.18,2.73A1.76,1.76,0,0,1,796.13,851.47Z"/><path class="cls-19" d="M767.52,851.51a1.74,1.74,0,0,1-1.36-2c.15-.89,1.25-2.94,2.16-2.75s1.26,2.57,1.11,3.47A1.57,1.57,0,0,1,767.52,851.51Z"/><path class="cls-19" d="M739.62,844.87a1.83,1.83,0,0,1-1-2.21c.29-.85,1.69-2.66,2.55-2.29s.85,2.79.56,3.64A1.5,1.5,0,0,1,739.62,844.87Z"/><path class="cls-19" d="M712.83,833.11a1.92,1.92,0,0,1-.44-2.45c.49-.72,2.29-2,3-1.36s.11,2.94-.38,3.66A1.44,1.44,0,0,1,712.83,833.11Z"/><path class="cls-19" d="M696.77,816.24a2,2,0,0,1-.43-2.46c.49-.72,2.29-2,3-1.36s.11,2.94-.38,3.66A1.45,1.45,0,0,1,696.77,816.24Z"/><path class="cls-19" d="M826.54,844.68a1.46,1.46,0,0,1-2.18-.44c-.41-.77-.79-3.14,0-3.68s2.46,1,2.87,1.74A1.9,1.9,0,0,1,826.54,844.68Z"/><path class="cls-19" d="M850.33,827.9a1.45,1.45,0,0,1-2.18.41c-.62-.58-1.68-2.67-1.09-3.47s2.59,0,3.21.56A2,2,0,0,1,850.33,827.9Z"/><path class="cls-19" d="M890.82,807.55a2.84,2.84,0,0,1-3.6,2.18c-1.49-.54-4.79-3.31-4.29-5.06s4.6-1.82,6.09-1.27A3.39,3.39,0,0,1,890.82,807.55Z"/><path class="cls-19" d="M867.69,805.87a1.49,1.49,0,0,1-2.09.81c-.69-.46-2-2.32-1.58-3.22s2.56-.51,3.25-.05A1.94,1.94,0,0,1,867.69,805.87Z"/><path class="cls-8" d="M780.82,803.88H745c0,13.64,8,24.69,17.91,24.69S780.82,817.52,780.82,803.88Z"/><path class="cls-8" d="M820.17,803.88h-35.8c0,13.64,8,24.69,17.9,24.69S820.17,817.52,820.17,803.88Z"/><path class="cls-6" d="M750.11,803.88c0,4.63,3,8.38,6.62,8.38s6.62-3.75,6.62-8.38Z"/><path class="cls-6" d="M788.48,803.88c0,4.63,3,8.38,6.62,8.38s6.62-3.75,6.62-8.38Z"/><ellipse class="cls-6" cx="802.78" cy="811.8" rx="2.22" ry="2.24"/><path class="cls-6" d="M766.58,811.8a2.22,2.22,0,1,1-4.44,0"/><path class="cls-6" d="M774.76,837.42c8.72-4.65,18.59-1.31,27.26,1.68,1.24.43,1.77-1.76.53-2.18-9.28-3.21-19.51-6.41-28.8-1.45-1.17.62-.15,2.57,1,1.95Z"/><path class="cls-6" d="M770.42,836.06c.12.05.25.12.38.16-.24-.06-.07,0,0,0l.18.1a6.29,6.29,0,0,1,.64.41,4.19,4.19,0,0,0,.33.26c-.21-.12-.06,0,0,0l.15.15a7.82,7.82,0,0,1,.55.6l.24.32c.15.2-.13-.2,0,0a1.74,1.74,0,0,1,.11.18c.15.24.28.49.41.74l.16.37s0,.1,0,.14l0-.13a1.31,1.31,0,0,0,.08.21,7.9,7.9,0,0,1,.22.87,1,1,0,0,0,1.24.79,1.18,1.18,0,0,0,.7-1.39,8.08,8.08,0,0,0-4.88-6,1,1,0,0,0-1.23.79,1.17,1.17,0,0,0,.7,1.39Z"/><rect class="cls-6" x="985" y="420" width="5" height="627"/><rect class="cls-22" x="1542.74" y="809" width="262.26" height="172.88" rx="14"/><rect class="cls-23" x="1546.82" y="812.7" width="254.26" height="165.59" rx="14"/><rect x="1548.72" y="814.17" width="249.48" height="162.8" rx="14"/><path class="cls-24" d="M1555.3,838.83c5.24-4.88,12.27-4.63,18.61-3.83,6.7.85,13.31,2.6,20.07,3a29.52,29.52,0,0,0,19-5c3.72-2.6,6.91-5.63,11.47-5.76,4-.11,8,1.63,11.61,3.25,7.42,3.29,14.43,6.8,22.53,6.71,8.28-.09,16.26-3,24.47-3.77a24.13,24.13,0,0,1,11.51,1.18c4.06,1.65,7.38,5,11.36,6.91,8.28,3.93,16.31,0,24.07-3.55,10-4.61,20.08-5.35,30.72-5.13,11,.22,22.07.88,33.08,1.85,5,.44,5-8.56,0-9q-15.06-1.32-30.16-1.78c-9.27-.26-18.71-.32-27.76,2.28-8.39,2.41-18.34,11.14-27.16,7-3.84-1.81-7-5.05-10.93-6.78a27.64,27.64,0,0,0-11.67-2.16c-8.45.13-16.62,3.19-25,3.83-8.82.68-16.06-3.34-24.11-6.77-7.48-3.19-15.22-4.51-22.53,0-3.39,2.09-6.3,5.06-10,6.47A25.42,25.42,0,0,1,1594,829c-15-.79-31.16-8.65-44.22,3.52-3.92,3.65,1.66,10,5.54,6.36Z"/><g class="cls-25"><path class="cls-26" d="M1560,835.9c3.88-1.44,7.62-2.31,11.65-1.15l2.08-8.68a46.34,46.34,0,0,0-9-.8c-5,.09-5.06,9.09,0,9a35.91,35.91,0,0,1,6.94.48c4.86.86,7.09-7.25,2.08-8.68-5.37-1.54-10.6-.78-15.82,1.15-4.78,1.77-2.73,10.46,2.09,8.68Z"/></g><g class="cls-27"><path class="cls-26" d="M1775.93,824.5h-7.46c-5,0-5,9,0,9h7.46c5,0,5-9,0-9Z"/></g><path class="cls-24" d="M1555,850.42c5.24-4.88,12.26-4.63,18.61-3.83,6.7.85,13.31,2.6,20.07,2.95a29.48,29.48,0,0,0,19-5c3.73-2.6,6.91-5.63,11.47-5.76,4-.11,8,1.63,11.62,3.25,7.42,3.29,14.42,6.8,22.53,6.71,8.28-.09,16.26-3,24.47-3.77,3.86-.37,7.81-.32,11.5,1.18,4.07,1.65,7.39,5,11.37,6.91,8.28,3.93,16.31,0,24.07-3.55,10-4.61,20.08-5.35,30.72-5.13,11,.22,22.07.88,33.08,1.85,5,.44,5-8.56,0-9q-15.06-1.32-30.16-1.78c-9.27-.26-18.71-.32-27.76,2.28-8.39,2.41-18.34,11.14-27.16,7-3.84-1.81-7-5.05-10.93-6.78a27.66,27.66,0,0,0-11.67-2.16c-8.45.13-16.62,3.19-25,3.83-8.82.68-16.06-3.34-24.11-6.77-7.48-3.19-15.23-4.51-22.53,0-3.39,2.09-6.3,5.06-10,6.46a25.26,25.26,0,0,1-10.48,1.28c-15-.79-31.16-8.65-44.22,3.52-3.92,3.65,1.66,10,5.54,6.36Z"/><path class="cls-24" d="M1555,860.32c5.24-4.88,12.26-4.63,18.61-3.83,6.7.85,13.31,2.59,20.07,3s13.21-1,19-5c3.73-2.6,6.91-5.63,11.47-5.76,4-.12,8,1.63,11.62,3.25,7.42,3.29,14.42,6.8,22.53,6.71,8.28-.09,16.26-3,24.47-3.77,3.86-.37,7.81-.32,11.5,1.18,4.07,1.65,7.39,5,11.37,6.91,8.28,3.93,16.31,0,24.07-3.55,10-4.61,20.08-5.35,30.72-5.13,11,.22,22.07.88,33.08,1.85,5,.44,5-8.56,0-9q-15.06-1.32-30.16-1.78c-9.27-.26-18.71-.32-27.76,2.28-8.39,2.41-18.34,11.14-27.16,7-3.84-1.81-7-5.05-10.93-6.78a27.83,27.83,0,0,0-11.67-2.17c-8.45.14-16.62,3.2-25,3.84-8.82.68-16.06-3.34-24.11-6.77-7.48-3.19-15.23-4.51-22.53,0-3.39,2.09-6.3,5.06-10,6.46a25.26,25.26,0,0,1-10.48,1.28c-15-.79-31.16-8.65-44.22,3.52-3.92,3.65,1.66,10,5.54,6.36Z"/><path class="cls-24" d="M1555.81,872.92c5.23-4.88,12.26-4.63,18.6-3.83,6.7.85,13.32,2.59,20.07,2.95a29.59,29.59,0,0,0,19-5c3.72-2.6,6.91-5.63,11.47-5.76,4-.12,8,1.63,11.62,3.25,7.41,3.29,14.42,6.8,22.53,6.71,8.27-.09,16.26-3,24.46-3.77,3.86-.37,7.82-.32,11.51,1.18,4.06,1.64,7.38,5,11.36,6.91,8.28,3.93,16.31,0,24.07-3.55,10-4.61,20.09-5.35,30.72-5.14,11,.23,22.07.89,33.08,1.86,5,.44,5-8.56,0-9q-15.06-1.32-30.16-1.78c-9.27-.26-18.7-.32-27.76,2.28-8.38,2.41-18.34,11.14-27.15,7-3.84-1.81-7-5.05-10.93-6.78a27.88,27.88,0,0,0-11.68-2.17c-8.45.14-16.61,3.2-25,3.84-8.82.68-16-3.34-24.11-6.77-7.48-3.2-15.22-4.51-22.53,0-3.39,2.09-6.29,5.05-10,6.46a25.31,25.31,0,0,1-10.49,1.28c-15-.79-31.16-8.65-44.22,3.52-3.91,3.65,1.66,10,5.55,6.36Z"/><path class="cls-24" d="M1556.91,906.71c5.24-4.88,12.27-4.63,18.61-3.83,6.7.85,13.31,2.6,20.07,3a29.52,29.52,0,0,0,19-5c3.72-2.6,6.9-5.63,11.46-5.76,4-.11,8,1.63,11.62,3.26,7.42,3.28,14.43,6.79,22.53,6.7,8.28-.09,16.26-3,24.47-3.77,3.86-.36,7.81-.32,11.5,1.18,4.07,1.65,7.39,5,11.37,6.92,8.28,3.92,16.31,0,24.07-3.56,10-4.61,20.08-5.35,30.72-5.13,11,.22,22.07.88,33.08,1.85,5,.44,5-8.56,0-9q-15.06-1.32-30.16-1.78c-9.27-.26-18.71-.32-27.76,2.28-8.39,2.41-18.34,11.15-27.16,7-3.84-1.81-7-5-10.93-6.77a27.52,27.52,0,0,0-11.67-2.17c-8.45.13-16.62,3.19-25,3.84-8.82.68-16.06-3.34-24.11-6.78-7.48-3.19-15.22-4.51-22.53,0-3.39,2.09-6.3,5.06-10,6.47a25.42,25.42,0,0,1-10.48,1.27c-14.95-.79-31.16-8.65-44.22,3.52-3.92,3.65,1.66,10,5.54,6.36Z"/><path class="cls-24" d="M1556.13,895c5.23-4.88,12.26-4.63,18.6-3.83,6.71.85,13.32,2.6,20.07,3a29.51,29.51,0,0,0,19-5c3.72-2.6,6.91-5.63,11.47-5.76,4-.11,8,1.63,11.62,3.26,7.41,3.28,14.42,6.79,22.53,6.7,8.27-.09,16.26-3,24.47-3.76,3.85-.37,7.81-.33,11.5,1.17,4.07,1.65,7.38,5,11.37,6.92,8.27,3.92,16.3,0,24.06-3.56,10-4.61,20.09-5.35,30.72-5.13,11,.23,22.07.88,33.08,1.85,5,.44,5-8.56,0-9q-15.06-1.32-30.16-1.78c-9.27-.26-18.7-.32-27.76,2.28-8.38,2.41-18.34,11.15-27.15,7-3.84-1.8-7-5-10.93-6.77a27.67,27.67,0,0,0-11.67-2.17c-8.46.13-16.62,3.19-25,3.84-8.82.68-16.06-3.34-24.12-6.78-7.47-3.19-15.22-4.51-22.52,0-3.4,2.09-6.3,5.06-10,6.47a25.3,25.3,0,0,1-10.49,1.27c-15-.79-31.16-8.65-44.21,3.52-3.92,3.65,1.65,10,5.54,6.36Z"/><path class="cls-24" d="M1556.13,882.82c5.23-4.88,12.26-4.63,18.6-3.83,6.71.85,13.32,2.59,20.07,3s13.22-1,19-5c3.72-2.6,6.91-5.63,11.47-5.76,4-.12,8,1.63,11.62,3.25,7.41,3.29,14.42,6.8,22.53,6.71,8.27-.09,16.26-3,24.47-3.77a24.09,24.09,0,0,1,11.5,1.18c4.07,1.64,7.38,5,11.37,6.91,8.27,3.93,16.3,0,24.06-3.55,10-4.61,20.09-5.36,30.72-5.14,11,.23,22.07.89,33.08,1.86,5,.44,5-8.56,0-9q-15.06-1.33-30.16-1.78c-9.27-.27-18.7-.32-27.76,2.28-8.38,2.41-18.34,11.14-27.15,7-3.84-1.81-7-5.05-10.93-6.78a27.83,27.83,0,0,0-11.67-2.17c-8.46.14-16.62,3.19-25,3.84-8.82.68-16.06-3.34-24.12-6.78-7.47-3.19-15.22-4.51-22.52,0-3.4,2.09-6.3,5-10,6.46a25.31,25.31,0,0,1-10.49,1.28c-15-.79-31.16-8.66-44.21,3.52-3.92,3.65,1.65,10,5.54,6.36Z"/><path class="cls-24" d="M1555.34,919.31c5.24-4.88,12.27-4.63,18.61-3.83,6.7.85,13.31,2.6,20.07,2.95a29.52,29.52,0,0,0,19-5c3.72-2.6,6.91-5.63,11.47-5.76,4-.11,8,1.63,11.61,3.25,7.42,3.29,14.43,6.8,22.54,6.71,8.27-.09,16.26-3,24.46-3.77,3.86-.37,7.82-.32,11.51,1.18,4.06,1.65,7.38,5,11.36,6.92,8.28,3.92,16.31,0,24.07-3.56,10-4.61,20.08-5.35,30.72-5.13,11,.22,22.07.88,33.08,1.85,5,.44,5-8.56,0-9q-15.06-1.32-30.16-1.78c-9.27-.26-18.7-.32-27.76,2.28-8.39,2.41-18.34,11.14-27.15,7-3.85-1.81-7-5.05-10.93-6.78a27.71,27.71,0,0,0-11.68-2.16c-8.45.13-16.61,3.19-25,3.84-8.82.67-16.06-3.35-24.11-6.78-7.48-3.19-15.22-4.51-22.53,0-3.39,2.09-6.29,5.06-10,6.47a25.49,25.49,0,0,1-10.49,1.27c-15-.79-31.16-8.65-44.22,3.52-3.92,3.65,1.66,10,5.54,6.36Z"/><path class="cls-24" d="M1555.34,931c5.24-4.88,12.27-4.63,18.61-3.83,6.7.85,13.31,2.59,20.07,3a29.59,29.59,0,0,0,19-5c3.72-2.6,6.91-5.63,11.47-5.76,4-.12,8,1.63,11.61,3.25,7.42,3.29,14.43,6.8,22.54,6.71,8.27-.09,16.26-3,24.46-3.77,3.86-.37,7.82-.32,11.51,1.18,4.06,1.65,7.38,5,11.36,6.91,8.28,3.93,16.31,0,24.07-3.55,10-4.61,20.08-5.35,30.72-5.13,11,.22,22.07.88,33.08,1.85,5,.44,5-8.56,0-9q-15.06-1.32-30.16-1.78c-9.27-.26-18.7-.32-27.76,2.28-8.39,2.41-18.34,11.14-27.15,7-3.85-1.81-7-5-10.93-6.78a27.71,27.71,0,0,0-11.68-2.16c-8.45.13-16.61,3.19-25,3.83-8.82.68-16.06-3.34-24.11-6.77-7.48-3.19-15.22-4.51-22.53,0-3.39,2.09-6.29,5.06-10,6.46a25.33,25.33,0,0,1-10.49,1.28c-15-.79-31.16-8.65-44.22,3.52-3.92,3.65,1.66,10,5.54,6.36Z"/><path class="cls-24" d="M1556.13,941.81c5.23-4.88,12.26-4.63,18.6-3.83,6.71.85,13.32,2.59,20.07,2.95s13.22-1,19-5c3.72-2.6,6.91-5.63,11.47-5.76,4-.12,8,1.63,11.62,3.25,7.41,3.29,14.42,6.8,22.53,6.71,8.27-.09,16.26-3,24.47-3.77a24.09,24.09,0,0,1,11.5,1.18c4.07,1.64,7.38,5,11.37,6.91,8.27,3.93,16.3,0,24.06-3.55,10-4.61,20.09-5.35,30.72-5.14,11,.23,22.07.89,33.08,1.86,5,.44,5-8.56,0-9q-15.06-1.32-30.16-1.78c-9.27-.26-18.7-.32-27.76,2.28-8.38,2.41-18.34,11.14-27.15,7-3.84-1.81-7-5.05-10.93-6.78a27.83,27.83,0,0,0-11.67-2.17c-8.46.14-16.62,3.2-25,3.84-8.82.68-16.06-3.34-24.12-6.77-7.47-3.2-15.22-4.51-22.52,0-3.4,2.09-6.3,5-10,6.46a25.31,25.31,0,0,1-10.49,1.28c-15-.79-31.16-8.65-44.21,3.52-3.92,3.65,1.65,10,5.54,6.36Z"/><path class="cls-24" d="M1556.91,954.41c5.24-4.88,12.27-4.63,18.61-3.83,6.7.85,13.31,2.59,20.07,2.95a29.59,29.59,0,0,0,19-5c3.72-2.6,6.9-5.63,11.46-5.76,4-.12,8,1.63,11.62,3.25,7.42,3.29,14.43,6.8,22.53,6.71,8.28-.09,16.26-3,24.47-3.77,3.86-.37,7.81-.32,11.5,1.18,4.07,1.64,7.39,5,11.37,6.91,8.28,3.93,16.31,0,24.07-3.55,10-4.61,20.08-5.36,30.72-5.14,11,.23,22.07.89,33.08,1.86,5,.44,5-8.56,0-9q-15.06-1.34-30.16-1.78c-9.27-.27-18.71-.32-27.76,2.28-8.39,2.41-18.34,11.14-27.16,7-3.84-1.81-7-5.05-10.93-6.78a27.83,27.83,0,0,0-11.67-2.17c-8.45.14-16.62,3.19-25,3.84-8.82.68-16.06-3.34-24.11-6.78-7.48-3.19-15.22-4.51-22.53,0-3.39,2.09-6.3,5.05-10,6.46a25.26,25.26,0,0,1-10.48,1.28c-14.95-.79-31.16-8.66-44.22,3.52-3.92,3.65,1.66,10,5.54,6.36Z"/><path class="cls-24" d="M1555.38,967c5.25-4.88,12.31-4.63,18.68-3.83,6.74.85,13.38,2.59,20.17,3s13.27-1,19.08-5c3.74-2.6,6.94-5.64,11.52-5.76,4-.12,8,1.63,11.67,3.25,7.45,3.29,14.49,6.8,22.63,6.71,8.32-.09,16.34-3,24.58-3.77a24.44,24.44,0,0,1,11.56,1.17c4.08,1.65,7.42,5,11.41,6.92,8.32,3.93,16.39,0,24.18-3.55,10-4.61,20.18-5.36,30.86-5.14,11.09.23,22.17.89,33.23,1.85,5,.45,5-8.56,0-9q-15.14-1.34-30.3-1.78c-9.31-.27-18.78-.33-27.88,2.28-8.43,2.41-18.43,11.14-27.28,7-3.86-1.81-7-5-11-6.78a28.06,28.06,0,0,0-11.72-2.17c-8.5.14-16.7,3.19-25.14,3.84-8.86.68-16.13-3.34-24.22-6.78-7.51-3.19-15.29-4.51-22.63,0-3.41,2.09-6.32,5.05-10,6.46a25.5,25.5,0,0,1-10.53,1.28c-15-.79-31.31-8.66-44.42,3.52-3.94,3.65,1.66,10,5.57,6.36Z"/><path class="cls-28" d="M1559.91,976.14c13.9-3.06,27.69,1.46,41.61,1,6.57-.21,11.25-2.87,17.11-5.81,6.23-3.14,13.91-.72,20,1.84,4.74,2,6.79-6.71,2.08-8.68-6.06-2.54-13.17-4.44-19.65-3.32-3.41.59-6.31,2.37-9.37,4.08a21.56,21.56,0,0,1-10.18,2.89c-14.73.47-29-3.94-43.69-.7-4.95,1.09-2.85,9.77,2.08,8.68Z"/><path class="cls-28" d="M1639.46,972.63c9.8,3.2,19,4.19,29,1.91,9.42-2.14,21-3.31,30.11,1,4.66,2.2,6.69-6.5,2.08-8.68-8.55-4-19.63-3.62-28.6-2.16-4.85.79-9.57,2.4-14.5,2.4-5.48,0-10.79-1.44-16-3.15-4.86-1.59-6.94,7.09-2.09,8.67Z"/><path class="cls-28" d="M1732.77,976.29a178.22,178.22,0,0,1,58.14-2c5,.65,5-8.35,0-9a184,184,0,0,0-60.22,2.27c-5,1-2.86,9.68,2.08,8.68Z"/><path class="cls-28" d="M1556.47,826.34a76.62,76.62,0,0,1,14.13-1.64c4.29,0,8.51,1.35,12.84,1.43,8.63.18,18.56,1.84,26.47-3,4.46-2.71.51-10.48-4-7.77-4,2.41-8.63,1.94-13,1.87-4.56-.07-9.26.22-13.8-.33-3.82-.47-7.26-1.39-11.16-1.12a116.31,116.31,0,0,0-13.62,1.84c-5,.92-2.86,9.59,2.08,8.67Z"/><path class="cls-28" d="M1644.79,822.28c9.74,7.6,21.59,5.71,32.56,3.83,6.06-1,12.5-2.1,18.52-.24,5.34,1.64,10,5.36,15.66,5.48,5.89.13,11.24-3,17-4.09,6.36-1.17,13.06-1,19.49-1.2,13.68-.52,27.45-.56,41,1.67,4.94.81,7.07-7.86,2.09-8.68a202.68,202.68,0,0,0-38.59-2.14c-6.47.19-13,.41-19.41.86-6.07.42-11.42,2.54-17.3,4-6.3,1.57-10.75-2-16.51-4.13s-11.62-2-17.42-1.25c-10.87,1.42-23.27,5.8-33.11-1.88-4.19-3.26-8.11,4.53-4,7.77Z"/><g class="cls-29"><path class="cls-26" d="M1562.2,857c6.46-2.28,12.52.27,19,.4,5,.1,5-8.9,0-9-7.39-.14-13.76-2.68-21.11-.08-4.81,1.7-2.76,10.39,2.08,8.68Z"/></g><g class="cls-30"><path class="cls-26" d="M1770.26,855q10.32.63,20.65.57c4.51,0,5.2-7.28,1-8.84l-1.17-.44c-4.81-1.79-6.87,6.89-2.09,8.68l1.18.44,1-8.84q-10.34.06-20.65-.57c-5-.3-5,8.7,0,9Z"/></g><g class="cls-31"><path class="cls-26" d="M1591.36,858.4c5.05,0,5.06-9,0-9s-5,9,0,9Z"/></g><g class="cls-32"><path class="cls-26" d="M1639.05,864.38a45.4,45.4,0,0,0,34.74,4.29c4.9-1.34,2.83-10-2.08-8.67a37.74,37.74,0,0,1-28.7-3.39c-4.53-2.51-8.51,5.25-4,7.77Z"/></g><g class="cls-33"><path class="cls-26" d="M1639.18,886.38c6.47,4.53,12.67,5.62,20.15,6.11,4.73.3,14.72,1.44,17.51-4.2a5,5,0,0,0,0-4.54l-.21-.31c-3-4.52-9.85,0-6.76,4.54l.2.31v-4.54c.78-1.57-1.27-.54-2-.43a33.11,33.11,0,0,1-3.72.3,63.06,63.06,0,0,1-7.14-.3c-5.39-.47-9.4-1.46-14-4.71-4.32-3-8.26,4.76-4,7.77Z"/></g><g class="cls-34"><path class="cls-26" d="M1555.35,883.08a22.26,22.26,0,0,1,16.05-2.87c4.94,1,7-7.67,2.09-8.68a30.2,30.2,0,0,0-22.1,3.78c-4.48,2.66-.52,10.43,4,7.77Z"/></g><g class="cls-35"><path class="cls-26" d="M1759.67,924.44q16.3.4,32.55,2.17c5,.54,5-8.46,0-9q-16.24-1.75-32.55-2.17c-5.05-.13-5.05,8.87,0,9Z"/></g><g class="cls-36"><path class="cls-26" d="M1716.11,928.17c-5.8,2.29-10.52-5.36-14.8-8.69-5.16-4-11-4.23-17-3.75-5,.39-5,9.4,0,9,3.64-.29,7.63-.78,11,1.1,2.62,1.45,4.68,3.94,6.91,6,4.54,4.22,10.1,7.35,16,5,4.74-1.87,2.7-10.57-2.09-8.68Z"/></g><g class="cls-36"><path class="cls-26" d="M1555,953a34.92,34.92,0,0,1,22.82-1.57c4.9,1.33,7-7.34,2.08-8.67a41.59,41.59,0,0,0-27,1.56c-4.72,1.93-2.69,10.63,2.08,8.68Z"/></g><g class="cls-37"><path class="cls-26" d="M1781.08,961.84l13.1,1.47c5,.56,5-8.45,0-9l-13.1-1.47c-5-.56-5,8.44,0,9Z"/></g><g class="cls-38"><path class="cls-26" d="M1603,917.52c4.29-.54,7.4-2.72,10.93-5.44,4.13-3.18,8.39-4.6,13.32-3.29s7-7.38,2.08-8.68a20.68,20.68,0,0,0-14.13,1c-4.09,1.85-7.8,6.9-12.2,7.45-5,.62-5,9.62,0,9Z"/></g><g class="cls-39"><path class="cls-26" d="M1636.94,959.14c6.47,4.54,12.66,5.63,20.15,6.11,4.73.31,14.71,1.44,17.5-4.2a5,5,0,0,0,0-4.54l-.2-.31c-3-4.51-9.85,0-6.77,4.55l.21.3v-4.54c.77-1.56-1.28-.54-2-.43a28.85,28.85,0,0,1-3.72.3,63,63,0,0,1-7.14-.29c-5.39-.48-9.4-1.46-14-4.72-4.31-3-8.26,4.76-4,7.77Z"/></g><ellipse cx="1718.86" cy="850.59" rx="16.4" ry="18.71"/><ellipse cx="1683.12" cy="851.03" rx="16.4" ry="18.71"/><ellipse class="cls-6" cx="1719.05" cy="855.7" rx="6.86" ry="8.89"/><path class="cls-6" d="M1675.51,842.39c0-1.44.92-3.51,2-3.51a2.69,2.69,0,0,1,0,5.23C1676.43,844.11,1675.51,843.84,1675.51,842.39Z"/><ellipse class="cls-6" cx="1716.06" cy="841.35" rx="2.05" ry="2.61"/><ellipse class="cls-6" cx="1683.16" cy="856.39" rx="6.86" ry="8.89"/><path class="cls-6" d="M1691.82,889.8a19.49,19.49,0,0,0,21.29.23c1.33-.84.14-3.17-1.19-2.33a17.32,17.32,0,0,1-18.91-.23c-1.31-.86-2.5,1.47-1.19,2.33Z"/><path class="cls-6" d="M1711.31,885.82a6.83,6.83,0,0,0,4.25,4.63,1.18,1.18,0,0,0,1.44-1,1.4,1.4,0,0,0-.82-1.66,4.54,4.54,0,0,1-.61-.24l.28.13a5.21,5.21,0,0,1-1.13-.76l.24.21a5.89,5.89,0,0,1-.92-1.06l.18.28a6.5,6.5,0,0,1-.65-1.29l.12.32c0-.11-.08-.22-.11-.32a1.41,1.41,0,0,0-.54-.81,1.09,1.09,0,0,0-.91-.14,1.4,1.4,0,0,0-.82,1.66Z"/><path class="cls-40" d="M1487.32,633.89c-26.24,0-47.52-8.09-47.52-18.08s21.28-28.19,47.52-28.19,47.51,18.21,47.51,28.19S1513.56,633.89,1487.32,633.89Z"/><ellipse class="cls-41" cx="1486.41" cy="669.07" rx="101.59" ry="75.8"/><ellipse class="cls-40" cx="1486.04" cy="669.1" rx="75.38" ry="76.04"/><ellipse class="cls-42" cx="1486.33" cy="669.34" rx="43.76" ry="76.04"/><ellipse cx="1509.21" cy="641.64" rx="19.86" ry="18.9"/><ellipse cx="1465.92" cy="642.09" rx="19.86" ry="18.9"/><ellipse class="cls-6" cx="1505.63" cy="651.35" rx="8.31" ry="8.98"/><path class="cls-6" d="M1461.45,639.73c0-1.46,1.11-3.55,2.48-3.55a2.64,2.64,0,0,1,0,5.27C1462.56,641.45,1461.45,641.18,1461.45,639.73Z"/><ellipse class="cls-6" cx="1511.51" cy="638.67" rx="2.48" ry="2.64"/><ellipse class="cls-6" cx="1472.62" cy="650.23" rx="8.31" ry="8.98"/><path d="M1452.53,622.24a6.38,6.38,0,0,0,3.17,4.44,1.49,1.49,0,0,0,2-.49,1.37,1.37,0,0,0-.51-1.87,3.67,3.67,0,0,1-.53-.34l.29.22a6,6,0,0,1-.93-.89l.23.28c-.3-.37-.54.15-.72-.28,0,.11.09-.69.14-.58a5.09,5.09,0,0,1-.35-1.21,1.39,1.39,0,0,0-.65-.82,1.5,1.5,0,0,0-1.1-.13,1.45,1.45,0,0,0-.85.62l-.14.33a1.26,1.26,0,0,0,0,.72Z"/><path d="M1456,620.57a6.17,6.17,0,0,0,1.58,3.11,6.7,6.7,0,0,0,3,1.87,1.44,1.44,0,0,0,1.75-.95,1.38,1.38,0,0,0-1-1.68l-.51-.18.34.14a5.3,5.3,0,0,1-1.14-.64l.28.21a5.34,5.34,0,0,1-.94-.9l.23.28a4.89,4.89,0,0,1-.71-1.15c0,.11.1,1.13.14,1.24a15.83,15.83,0,0,1-.34-2.08,1.37,1.37,0,0,0-.65-.81,1.51,1.51,0,0,0-1.1-.14,1.43,1.43,0,0,0-.85.63,1.52,1.52,0,0,0-.14,1.05Z"/><path d="M1519.14,620.94c0,.22,0,.44-.05.66l.05-.36c-.06.36-.14,1.63-.25,2,0,.1-.06-.72-.1-.63s-.2.41,0,0c-.08.16-.15.33-.24.49s-.19.32-.29.47l-.17.24-.09.12c.13-.17.17-.21.1-.13a7,7,0,0,1-.81.82,1.33,1.33,0,0,0,0,1.93,1.51,1.51,0,0,0,2,0,7.73,7.73,0,0,0,2.69-5.6,1.43,1.43,0,0,0-2.85,0Z"/><path d="M1522.66,623.71c0,.24,0-.27,0-.1s0,.12,0,.19,0,.22,0,.33,0,.25,0,.37,0,.18,0,.19.06-.35,0-.15a4.58,4.58,0,0,1-.18.73c0,.1-.07.21-.11.31s0,0,0-.08a1.4,1.4,0,0,0-.09.17,4.72,4.72,0,0,1-.37.61c0,.06-.26.35-.11.17s0,0,0,0l-.13.14a6,6,0,0,1-.53.48c-.19.15.21-.14.07-.05l-.16.1-.33.2a1.33,1.33,0,0,0-.51,1.86,1.47,1.47,0,0,0,1.94.49,6.31,6.31,0,0,0,3.25-6.71,1.36,1.36,0,0,0-.65-.82,1.51,1.51,0,0,0-1.1-.13,1.45,1.45,0,0,0-.85.62,1.48,1.48,0,0,0-.14,1.05Z"/><path class="cls-43" d="M1481.27,684a5.56,5.56,0,0,1-4.14.62,5.43,5.43,0,0,1-3.6-2.07c-.69,3.39.48,6.46,2.61,6.86S1480.58,687.34,1481.27,684Z"/><path d="M1472,682.85a27.59,27.59,0,0,0,25.79.23c1.6-.85.17-3.2-1.44-2.36a24.53,24.53,0,0,1-22.91-.22c-1.59-.88-3,1.48-1.44,2.35Z"/><path d="M1496.32,678.8a7.59,7.59,0,0,0,5.15,4.67,1.45,1.45,0,0,0,1.75-1,1.38,1.38,0,0,0-1-1.68,6,6,0,0,1-.75-.25l.34.14a6.28,6.28,0,0,1-1.36-.77l.29.21a6.31,6.31,0,0,1-1.12-1.07l.22.28a5.64,5.64,0,0,1-.79-1.31l.14.33c0-.11-.09-.22-.13-.33a1.44,1.44,0,0,0-.65-.81,1.51,1.51,0,0,0-1.1-.14,1.39,1.39,0,0,0-1,1.68Z"/><path class="cls-44" d="M1477.18,588.09c2.59-9.94-2.77-20.53-10.75-27.36s-18.21-10.64-28.19-14.32a55.88,55.88,0,0,1,45.53,12.26,389.23,389.23,0,0,1,2.06-79.36l12.31,91.36a44.54,44.54,0,0,1,25-6,119,119,0,0,0-25.78,24.44"/><path class="cls-44" d="M1478.55,588.46c2-7.78-.5-15.86-5.21-22.29-5.09-7-12.55-11.76-20.45-15.38-4.65-2.14-9.47-3.92-14.28-5.69v2.63a54.44,54.44,0,0,1,44.15,11.91c.85.72,2.53.29,2.43-1a391.65,391.65,0,0,1,.22-62q.73-8.68,1.84-17.33h-2.84l9.58,71.11,2.72,20.25a1.45,1.45,0,0,0,2.15,1.18,43.5,43.5,0,0,1,24.3-5.86l-.72-2.54a122.58,122.58,0,0,0-26.29,24.93c-1.09,1.4,1.38,2.77,2.46,1.37a117.79,117.79,0,0,1,25.27-23.94,1.37,1.37,0,0,0-.72-2.55,46.44,46.44,0,0,0-25.74,6.23l2.14,1.18L1490,499.56l-2.73-20.25a1.42,1.42,0,0,0-2.84,0,389.09,389.09,0,0,0-3,62q.27,8.7.94,17.39l2.43-1a57.35,57.35,0,0,0-35.87-13.49,56.06,56.06,0,0,0-11.05.88c-1.53.26-1.17,2.19,0,2.63,14.75,5.43,32,12.13,37.29,27.86a21.48,21.48,0,0,1,.66,12.14c-.43,1.71,2.31,2.43,2.74.73Z"/><path class="cls-44" d="M1478.47,589.07a138.09,138.09,0,0,1,19.51.33c1.92.17,1.91-2.84,0-3a138.09,138.09,0,0,0-19.51-.33c-1.92.1-1.93,3.1,0,3Z"/><path class="cls-16" d="M1508,670.12c0-1.37,4.38-2.76,8.19-2.82,4.1,0,8.79,1.42,8.75,2.82s-4.83,2.71-8.87,2.63C1512.46,672.68,1508,671.48,1508,670.12Z"/><path class="cls-16" d="M1449.32,669.81c0-1.37,4.39-2.77,8.19-2.82,4.1,0,8.79,1.42,8.75,2.82s-4.83,2.71-8.87,2.63C1453.79,672.37,1449.36,671.17,1449.32,669.81Z"/><path class="cls-45" d="M1283.78,540.1c6.4-4.17,14.41,1.86,12.51,12.89-3,17.42-18.39,23.47-26.29,22.1-9.54-1.65-13.74-15.25,4-18.93C1281.87,554.53,1278.5,543.54,1283.78,540.1Z"/><path class="cls-46" d="M1159.41,507.58c14.27-19.62,34.34-40.94,50.49-59.19,5.74-6.48,8.82-6.4,13.91-.73a934.67,934.67,0,0,0,68.62,68c5.61,5.07,5.55,8.77.58,13.78-14,14.12-27.58,28.68-39.41,44.76-4.21,5.71-7.54,6.53-13.69,1.74-25.7-20-50.55-38-78.43-55.05C1154.82,516.84,1154.34,514.54,1159.41,507.58Z"/><path class="cls-47" d="M1209.89,448.73c5.74-6.48,8.81-6.4,13.91-.73a936.53,936.53,0,0,0,68.61,68c5.62,5.07,5.56,8.76.58,13.77-14,14.13-27.57,28.68-39.41,44.76"/><path class="cls-45" d="M1291.12,537.42c9-6.35,20.29,2.45,17.53,18.88-4.35,26-26,35.26-37.14,33.39-13.42-2.25-19.25-22.37,5.77-28.22C1288.34,558.89,1283.67,542.64,1291.12,537.42Z"/><rect class="cls-48" x="1244.26" y="550.55" width="59.09" height="6.73" rx="3.34" transform="translate(2518.44 -62.77) rotate(130.14)"/><path class="cls-6" d="M1282,583.45a1.5,1.5,0,0,0,0-3,1.5,1.5,0,0,0,0,3Z"/><path class="cls-6" d="M1284.34,572.58a1.5,1.5,0,0,0,0-3,1.5,1.5,0,0,0,0,3Z"/><path class="cls-6" d="M1272.11,584.47a1.5,1.5,0,0,0,0-3,1.5,1.5,0,0,0,0,3Z"/><path class="cls-6" d="M1275.37,577.87a1.5,1.5,0,0,0,0-3,1.5,1.5,0,0,0,0,3Z"/><path class="cls-6" d="M1292.22,581.94a1.5,1.5,0,0,0,0-3,1.5,1.5,0,0,0,0,3Z"/><path class="cls-6" d="M1292.22,566a1.5,1.5,0,0,0,0-3,1.5,1.5,0,0,0,0,3Z"/><path class="cls-6" d="M1295.13,571.48a1.5,1.5,0,0,0,0-3,1.5,1.5,0,0,0,0,3Z"/><path class="cls-6" d="M1301.81,566a1.5,1.5,0,0,0,0-3,1.5,1.5,0,0,0,0,3Z"/><path class="cls-6" d="M1295.71,559a1.5,1.5,0,0,0,0-3,1.5,1.5,0,0,0,0,3Z"/><path class="cls-6" d="M1304.13,559a1.5,1.5,0,0,0,0-3,1.5,1.5,0,0,0,0,3Z"/><path class="cls-6" d="M1303.26,551.72a1.5,1.5,0,0,0,0-3,1.5,1.5,0,0,0,0,3Z"/><path d="M1260.08,520.89a83.8,83.8,0,0,1-8.41,10.79c-4.72,5.2-9.35,7.94-13.66,8.44a14.13,14.13,0,0,1-11.5-3.94c-3.57-3.24-5.39-6.89-5.58-10.8-.34-5.39,2.31-11.26,7-16.39a25,25,0,0,1,4.2-3.92l-15.82-14.37,4.78-5.25Zm-23.81-12a24.77,24.77,0,0,0-4.37,4c-5.77,6.35-6.29,12.93-.85,17.88,5.22,4.74,11.2,3.22,16.47-2.58a30.64,30.64,0,0,0,4.09-5.33Z"/><path class="cls-45" d="M1250.72,675.11c6.4-4.18,14.42,1.86,12.51,12.89-3,17.42-18.39,23.47-26.29,22.1-9.54-1.65-13.74-15.26,4-18.94C1248.81,689.54,1245.44,678.55,1250.72,675.11Z"/><path class="cls-46" d="M1126.35,642.58c14.27-19.61,34.34-40.94,50.49-59.18,5.74-6.48,8.82-6.4,13.92-.73,21.33,23.73,45.09,46.81,68.61,68,5.62,5.07,5.55,8.76.58,13.78-14,14.12-27.57,28.68-39.41,44.75-4.21,5.71-7.54,6.53-13.68,1.75-25.71-20-50.56-38-78.44-55.05C1121.76,651.85,1121.28,649.54,1126.35,642.58Z"/><path class="cls-47" d="M1176.83,583.73c5.74-6.48,8.81-6.4,13.91-.73a934.54,934.54,0,0,0,68.61,68c5.62,5.07,5.56,8.77.59,13.78-14,14.12-27.58,28.68-39.42,44.76"/><path class="cls-45" d="M1258.19,672.45c9.08-6.29,20.28,2.57,17.44,19-4.49,25.92-26.22,35.12-37.32,33.2-13.41-2.32-19.14-22.48,5.92-28.19C1255.3,693.92,1250.72,677.64,1258.19,672.45Z"/><rect class="cls-48" x="1211.2" y="685.56" width="59.09" height="6.73" rx="3.34" transform="translate(2567.27 184.54) rotate(130.14)"/><path class="cls-6" d="M1248.9,718.46a1.5,1.5,0,0,0,0-3,1.5,1.5,0,0,0,0,3Z"/><path class="cls-6" d="M1251.28,707.59a1.5,1.5,0,0,0,0-3,1.5,1.5,0,0,0,0,3Z"/><path class="cls-6" d="M1261.47,711a1.5,1.5,0,0,0,0-3,1.5,1.5,0,0,0,0,3Z"/><path class="cls-6" d="M1260.11,696.72a1.5,1.5,0,0,0,0-3,1.5,1.5,0,0,0,0,3Z"/><path class="cls-6" d="M1268.26,689.25a1.5,1.5,0,0,0,0-3,1.5,1.5,0,0,0,0,3Z"/><path class="cls-6" d="M1239.06,719.48a1.5,1.5,0,0,0,0-3,1.5,1.5,0,0,0,0,3Z"/><path class="cls-47" d="M1268.69,701.11a1.5,1.5,0,0,0,0-3,1.5,1.5,0,0,0,0,3Z"/><path class="cls-6" d="M1251.26,699.65a1.5,1.5,0,0,0,0-3,1.5,1.5,0,0,0,0,3Z"/><path class="cls-6" d="M1268.4,701.11a1.5,1.5,0,0,0,0-3,1.5,1.5,0,0,0,0,3Z"/><path class="cls-6" d="M1241.39,712.44a1.5,1.5,0,0,0,0-3,1.5,1.5,0,0,0,0,3Z"/><path class="cls-6" d="M1257.36,717.38a1.5,1.5,0,0,0,0-3,1.5,1.5,0,0,0,0,3Z"/><path d="M1194,625.44a20.34,20.34,0,0,0-10,6.28c-4.13,4.9-3.62,10.23.6,13.79,3.92,3.3,7.82,3.21,14.22,0,7.53-4,14.23-4.76,20.14.22,6.52,5.5,7.33,14.38,1.25,21.59a20.07,20.07,0,0,1-9,6.47l-3.29-5a17.7,17.7,0,0,0,7.93-5.37c4.27-5.07,2.47-9.87-.39-12.29-3.91-3.3-7.74-2.66-14.3.57-8,4-14.13,4.28-20.29-.91-6.46-5.45-8.48-14.41-1.1-23.16,3-3.58,7.5-6.49,10.66-7.22Z"/><path class="cls-49" d="M1380.62,1036c-56.31,1.78-117.06-26.3-117.37-89.21s55.91-127,114.81-123.93S1494.44,877,1496.93,941.63,1436.93,1034.23,1380.62,1036Z"/><path class="cls-50" d="M1307.62,817.19s15.38-10.25,82,28.34,66.16,57.5,66.16,57.5c10-18.37-15-52.48-55.91-76.19S1317.65,798.82,1307.62,817.19Z"/><path class="cls-50" d="M1419.55,792s-9.89,5.74-8.12,53.65,12.06,52.91,12.06,52.91c-12.73.5-23.94-22.95-25-52.37S1406.82,792.5,1419.55,792Z"/><path class="cls-50" d="M1412,845c58.49-50.37,73.17-46.08,73.17-46.08-10.19-12.57-47.58,2.31-83.52,33.25Z"/><path class="cls-50" d="M1397.17,840.54c-48.29,42.86-46.31,56.57-46.31,56.57-9.36-11.19,7.1-41.62,36.76-68Z"/><path class="cls-50" d="M1401.11,831.72c75.76,8.24,85.38-1.36,85.38-1.36-1.36,13.28-40.18,19.94-86.72,14.88Z"/><path class="cls-50" d="M1380.28,850.25c-50.69-4.49-57.67,10.08-57.67,10.08,1.59-19,28.12-32.2,59.26-29.45Z"/><path class="cls-50" d="M1392.13,832.58c4.2,57.17-7.89,64.6-7.89,64.6,15.85-1.24,26.61-30.71,24-65.83Z"/><ellipse class="cls-19" cx="1381.44" cy="930.57" rx="18" ry="17.62"/><ellipse class="cls-19" cx="1424.76" cy="930.57" rx="18" ry="17.62"/><ellipse class="cls-6" cx="1430.37" cy="936.79" rx="7.65" ry="7.68"/><ellipse class="cls-6" cx="1386" cy="938.01" rx="7.65" ry="7.68"/><ellipse class="cls-6" cx="1415.78" cy="919.54" rx="2.48" ry="2.34"/><ellipse class="cls-6" cx="1371.57" cy="921.64" rx="2.48" ry="2.34"/><path class="cls-19" d="M1360.2,917.73a5,5,0,0,0,1.65,3.34,5.27,5.27,0,0,0,3.52,1.39,1.12,1.12,0,1,0,0-2.23l-.51,0,.3,0a4.29,4.29,0,0,1-.6-.13,2,2,0,0,0-.32-.11s.27.12.09,0l-.13-.06a5.64,5.64,0,0,1-.53-.31l-.14-.1c.29.19.12.09.06,0l-.23-.2c-.08-.07-.15-.15-.22-.22l-.09-.11c-.16-.18.11.15,0,0a4.52,4.52,0,0,1-.34-.51,1.13,1.13,0,0,0-.13-.27l.07.16,0-.1s0-.09-.05-.13a4.29,4.29,0,0,1-.14-.62l0,.3a1.8,1.8,0,0,1,0-.22,1.16,1.16,0,0,0-1.14-1.12,1.14,1.14,0,0,0-1.14,1.12Z"/><path class="cls-19" d="M1363.4,915.52a5.61,5.61,0,0,0,5.34,4,1.12,1.12,0,1,0,0-2.23l-.37,0s-.23,0,0,0h-.06a3.53,3.53,0,0,1-.64-.16l-.14-.05c-.21-.07.24.1,0,0a3.18,3.18,0,0,1-.32-.16l-.26-.15a.93.93,0,0,1-.3-.2c0,.05.22.17.06,0l-.13-.11a1.75,1.75,0,0,1-.24-.23,1.7,1.7,0,0,1-.22-.24c-.16-.18.09.14,0,0l-.08-.12a3.48,3.48,0,0,1-.34-.56l0-.1.07.16a.87.87,0,0,1-.07-.17,3.37,3.37,0,0,1-.1-.34,1.17,1.17,0,0,0-1.4-.78,1.13,1.13,0,0,0-.8,1.38Z"/><path class="cls-19" d="M1435.8,918a5.57,5.57,0,0,0,5.15-4.21,1.13,1.13,0,0,0-.8-1.37,1.15,1.15,0,0,0-1.4.78,3.28,3.28,0,0,1-.18.61c-.07.19,0-.06,0-.08s-.06.13-.08.15-.09.18-.14.27-.11.18-.17.26l-.1.14s.19-.24,0,0a4.67,4.67,0,0,1-.44.45l-.24.2c-.1.08.23-.16.07-.06a.71.71,0,0,1-.14.1,3.6,3.6,0,0,1-.54.31l-.16.07c.32-.15.15,0,.06,0l-.27.09a4.83,4.83,0,0,1-.66.14l.3,0-.34,0a1.12,1.12,0,1,0,0,2.23Z"/><path class="cls-19" d="M1439,920.65a5.59,5.59,0,0,0,5.15-4.21,1.15,1.15,0,0,0-.79-1.38,1.18,1.18,0,0,0-1.41.78,3.38,3.38,0,0,1-.18.62c-.07.19,0-.06,0-.08a.52.52,0,0,0-.07.15l-.15.27a2.33,2.33,0,0,1-.17.26l-.1.14s.2-.24,0-.05a4.67,4.67,0,0,1-.44.45l-.23.2c-.11.08.22-.16.07-.06l-.14.1a4.29,4.29,0,0,1-.55.31l-.15.07.06,0-.27.1a5.32,5.32,0,0,1-.67.14l.3,0-.34,0a1.12,1.12,0,1,0,0,2.23Z"/><path class="cls-6" d="M1394.84,966.05c1.92,4.64,6.56,8.1,11.71,7.83a12.47,12.47,0,0,0,11-8.82c.57-1.85-2.33-2.64-2.9-.8a8.94,8.94,0,0,1-17,1,1.54,1.54,0,0,0-1.84-1,1.5,1.5,0,0,0-1.05,1.84Z"/><path class="cls-6" d="M1434.85,959a1.5,1.5,0,0,0,0-3,1.5,1.5,0,0,0,0,3Z"/><path class="cls-6" d="M1434.85,967a1.5,1.5,0,0,0,0-3,1.5,1.5,0,0,0,0,3Z"/><path class="cls-6" d="M1441.86,961.35a1.5,1.5,0,0,0,0-3,1.5,1.5,0,0,0,0,3Z"/><path class="cls-6" d="M1379.61,959.75a1.5,1.5,0,0,0,0-3,1.5,1.5,0,0,0,0,3Z"/><path class="cls-6" d="M1380.39,967.77a1.5,1.5,0,0,0,0-3,1.5,1.5,0,0,0,0,3Z"/><path class="cls-6" d="M1371.83,963.76a1.5,1.5,0,0,0,0-3,1.5,1.5,0,0,0,0,3Z"/><path class="cls-51" d="M1779.36,571.39a15.44,15.44,0,0,1-4.2-1.48c-4.48-2.45-4.67-7.11-4.6-11.59a35.79,35.79,0,0,0-1.65-11.54,49.2,49.2,0,0,0-9.29-12.51,7.23,7.23,0,0,0-2.41-.26,197.09,197.09,0,0,0-27,17.51l-.34.25c-4.79,6.09-2.14,16.72-9.43,21.22-9.68,29.32-15.81,66.39-15.81,86.84,0,37.27,20.38,67.49,45.51,67.49s45.52-30.22,45.52-67.49C1795.71,639,1789.35,601,1779.36,571.39Z"/><path class="cls-51" d="M1744.42,568.65c-27.92-11.22-87.75,65.1-102.72,99.48s-4.47,71.36,23.45,82.58,62.7-7.56,77.67-42S1772.34,579.87,1744.42,568.65Z"/><path class="cls-51" d="M1862.44,666c-11.49-26.39-50-77.21-80.47-94.14a19,19,0,0,1-6.81-1.91,8.12,8.12,0,0,1-2.66-2.28c-5.56-1.76-10.68-2-15.07-.23-29.19,11.73-15.67,106.65-.7,141s50.77,52.76,80,41S1877.41,700.35,1862.44,666Z"/><path class="cls-52" d="M1827.49,687.25c-5.59-34.68-39.86-117.78-65-114s-31.61,92.91-26,127.59,30.51,59.76,55.64,56S1833.08,721.94,1827.49,687.25Z"/><path class="cls-52" d="M1747.65,573.21c-25.13-3.74-59.39,79.36-65,114s10.25,65.83,35.38,69.57,50-21.34,55.63-56S1772.78,577,1747.65,573.21Z"/><path class="cls-52" d="M1766.19,650.74c-.83-34.68-5.91-117.78-9.63-114s-4.69,92.91-3.86,127.59,4.52,59.76,8.25,56S1767,685.42,1766.19,650.74Z"/><path class="cls-52" d="M1766.19,650.74c-.83-34.68-5.91-117.78-9.63-114s-4.69,92.91-3.86,127.59,4.52,59.76,8.25,56S1767,685.42,1766.19,650.74Z"/><path class="cls-52" d="M1755.76,657.6c-.83-34.68-5.9-117.78-9.63-114s-4.68,92.91-3.85,127.59,4.52,59.76,8.24,56S1756.59,692.28,1755.76,657.6Z"/><path class="cls-53" d="M1752.84,572c-25.43,0-46,87.17-46,122.26s20.62,63.54,46,63.54,46-28.45,46-63.54S1778.27,572,1752.84,572Z"/><path class="cls-51" d="M1751.84,570a10.08,10.08,0,0,1,2,0h0l.2,0,.5.1a8.21,8.21,0,0,1,1,.27v-2.2c-.89.23-1.8.43-2.71.59-.45.08-.91.16-1.37.22l-.32,0c.27,0-.08,0-.11,0l-.74.08.31,2.24.15-.05c.16,0,0,0-.08,0a.76.76,0,0,0,.15,0c.22,0-.17,0,0,0s.2.08,0,0,0,0,0,0,.18.12,0,0,0,0,0,.07l.25-1.8-1.41.72a1.13,1.13,0,0,0-.43,1.56,1.24,1.24,0,0,0,1.63.41l1.41-.71a1.13,1.13,0,0,0,.24-1.8,2.59,2.59,0,0,0-2.66-.64,1.14,1.14,0,0,0,.32,2.24,37.81,37.81,0,0,0,5.89-1,1.18,1.18,0,0,0,.87-1.1,1.21,1.21,0,0,0-.87-1.1,10.77,10.77,0,0,0-4.33-.5,1.21,1.21,0,0,0-1.19,1.15,1.18,1.18,0,0,0,1.19,1.14Z"/><path class="cls-53" d="M1752.16,541.7c-3.7,0-6.36,87.19-6.23,122.28s3.24,63.54,6.94,63.52,6.59-28.47,6.46-63.56S1755.86,541.69,1752.16,541.7Z"/><ellipse class="cls-19" cx="1739.92" cy="616.53" rx="10.96" ry="10.01"/><ellipse class="cls-19" cx="1766.3" cy="616.53" rx="10.96" ry="10.01"/><ellipse class="cls-6" cx="1769.72" cy="620.07" rx="4.66" ry="4.36"/><ellipse class="cls-6" cx="1742.7" cy="620.76" rx="4.66" ry="4.36"/><ellipse class="cls-6" cx="1760.84" cy="610.27" rx="1.51" ry="1.33"/><ellipse class="cls-6" cx="1733.91" cy="611.46" rx="1.51" ry="1.33"/><path class="cls-19" d="M1727,609.24a2.73,2.73,0,0,0,1,1.9,3.28,3.28,0,0,0,2.14.79.67.67,0,0,0,.69-.63.68.68,0,0,0-.69-.64h-.31l.19,0-.37-.07a.51.51,0,0,0-.2-.06s.17.06.06,0l-.08,0a2,2,0,0,1-.32-.18l-.09-.05,0,0-.14-.12-.13-.12,0-.06c-.1-.11.06.08,0,0a3.13,3.13,0,0,1-.2-.3s0-.12-.08-.15l0,.09,0-.06a.25.25,0,0,0,0-.07,2,2,0,0,1-.09-.35l0,.17s0-.09,0-.13a.68.68,0,0,0-.7-.63c-.35,0-.72.28-.69.63Z"/><path class="cls-19" d="M1728.93,608a3.38,3.38,0,0,0,3.25,2.26.63.63,0,1,0,0-1.26H1732s-.14,0,0,0,0,0,0,0l-.39-.09-.09,0h0a.82.82,0,0,1-.19-.09l-.16-.08s-.16-.07-.18-.12.13.1,0,0l-.09-.07-.14-.12-.14-.14c-.09-.11.06.08,0,0l0-.07a2.11,2.11,0,0,1-.21-.31l0-.06,0,.09a.29.29,0,0,1,0-.1,1.07,1.07,0,0,1-.07-.19.7.7,0,0,0-.85-.44.64.64,0,0,0-.49.78Z"/><path class="cls-19" d="M1773,609.39a3.35,3.35,0,0,0,3.14-2.39.65.65,0,0,0-.49-.78.72.72,0,0,0-.85.44c0,.12-.07.24-.11.36s0,0,0,0l0,.08a.51.51,0,0,1-.09.16l-.1.15-.06.07s.12-.13,0,0a3.07,3.07,0,0,1-.26.25l-.15.11c-.06.05.14-.09,0,0l-.09.06a2.55,2.55,0,0,1-.33.17l-.09,0c.19-.08.08,0,0,0l-.16,0a1.86,1.86,0,0,1-.41.08l.19,0-.21,0a.63.63,0,1,0,0,1.26Z"/><path class="cls-19" d="M1775,610.9a3.34,3.34,0,0,0,3.14-2.39.64.64,0,0,0-.48-.78.73.73,0,0,0-.86.44,1.42,1.42,0,0,1-.11.35c0,.11,0,0,0,0s0,.07-.05.08l-.09.16-.1.14-.06.08s.12-.13,0,0l-.26.26-.15.11c-.06.05.14-.09,0,0l-.08.06-.33.17-.1,0c.19-.08.09,0,0,0l-.17,0a2.57,2.57,0,0,1-.4.08l.18,0-.21,0a.67.67,0,0,0-.69.63.66.66,0,0,0,.69.63Z"/><path class="cls-16" d="M1774.4,633.31c0-1.15,3.66-2.32,6.85-2.36,3.42-.05,7.34,1.18,7.31,2.36s-4,2.27-7.42,2.2C1778.13,635.46,1774.43,634.45,1774.4,633.31Z"/><path class="cls-16" d="M1721.93,633.53c0-1.16,3.7-2.32,6.91-2.37,3.45,0,7.41,1.19,7.38,2.37s-4.08,2.27-7.48,2.2C1725.69,635.67,1722,634.67,1721.93,633.53Z"/><path d="M1748.29,642.69a7.71,7.71,0,0,0,14.26-.84c.47-1.41-1.83-2-2.29-.61a5.34,5.34,0,0,1-4.69,3.54,5.48,5.48,0,0,1-5.23-3.25,1.22,1.22,0,0,0-1.62-.41,1.16,1.16,0,0,0-.43,1.57Z"/><path class="cls-54" d="M1132.57,1032.46l-4-.63c31.62-106.26,28.11-165.73,9.83-272.42l4.06-.41C1160.89,866,1164.28,925.91,1132.57,1032.46Z"/><polygon class="cls-54" points="1111.9 1032.28 1107.82 1032.48 1078.49 764.1 1082.58 763.9 1111.9 1032.28"/><path class="cls-55" d="M1111.34,1032.39l-7.85-.9c6.68-14.58,1.24-204.8,15.68-270.39l8.35.86C1113.28,826.63,1117.08,1019.83,1111.34,1032.39Z"/><path class="cls-55" d="M1132,1032l-8.43-.42c6.61-102.63,8.74-168.45-38.78-267.77l8-2C1140.62,862,1138.54,928.51,1132,1032Z"/><polygon class="cls-56" points="1081.72 1033.62 1073.37 1032.77 1131.83 766.6 1140.18 767.44 1081.72 1033.62"/><path class="cls-57" d="M1088.7,1032.91l-7.9-.27c1.14-82.25,6.41-193.74,18.83-268.12l7.86.21C1090.61,826.37,1089.73,958.54,1088.7,1032.91Z"/><polygon class="cls-57" points="1164 1029.36 1155.59 1029.89 1119.15 761.91 1127.56 761.38 1164 1029.36"/><path class="cls-58" d="M1075.73,1034.17l-3.93-.09c6.34-97.27,13.35-170.14-2.49-268.72l3.9-.33C1089,863.74,1082.08,936.75,1075.73,1034.17Z"/><path class="cls-58" d="M1150.78,1031.58l3.92-.09c-6.34-97.28-13.35-170.14,2.49-268.72l-3.9-.34C1137.5,861.15,1144.42,934.16,1150.78,1031.58Z"/><path class="cls-55" d="M1114.7,1034.09l5-1.61C1083.81,933.64,1062.08,870,1060,766.57l-5.42-.79C1056.68,870,1078.6,934.44,1114.7,1034.09Z"/><ellipse class="cls-19" cx="1092.76" cy="794.88" rx="13" ry="8.38"/><ellipse class="cls-19" cx="1124.04" cy="794.88" rx="13" ry="8.38"/><ellipse class="cls-6" cx="1128.09" cy="797.84" rx="5.53" ry="3.65"/><ellipse class="cls-6" cx="1096.06" cy="798.42" rx="5.53" ry="3.65"/><ellipse class="cls-6" cx="1117.56" cy="789.64" rx="1.79" ry="1.11"/><ellipse class="cls-6" cx="1085.63" cy="790.63" rx="1.79" ry="1.11"/><path class="cls-19" d="M1077.42,788.77a2.24,2.24,0,0,0,1.19,1.59,5,5,0,0,0,2.55.66c.43,0,.84-.24.82-.53s-.36-.53-.82-.53h-.37l.22,0-.44-.06a1,1,0,0,0-.23-.06l.07,0-.09,0a2.26,2.26,0,0,1-.39-.15l-.1,0c.21.09.09,0,0,0l-.17-.09-.15-.11-.07-.05c-.11-.09.08.07,0,0a1.88,1.88,0,0,1-.24-.25.64.64,0,0,0-.1-.13l0,.08,0,0,0-.06a1.82,1.82,0,0,1-.11-.3l0,.15s0-.07,0-.11a.76.76,0,0,0-.83-.53c-.41,0-.86.23-.82.53Z"/><path class="cls-19" d="M1079.73,787.72c.46,1.09,2.1,1.9,3.86,1.9.43,0,.84-.24.82-.53s-.36-.53-.82-.53h-.28c.15,0,0,0,0,0l-.47-.08-.1,0h0l-.24-.07-.18-.07a.64.64,0,0,1-.22-.1s.16.08.05,0l-.1-.05-.17-.11-.16-.11c-.12-.09.07.06,0,0l-.07-.05a2.91,2.91,0,0,1-.24-.27l0,0,0,.08s0-.07,0-.08a1.19,1.19,0,0,1-.08-.16.94.94,0,0,0-1-.37c-.43.09-.69.36-.58.65Z"/><path class="cls-19" d="M1132,788.9c1.74-.06,3.36-.89,3.72-2,.09-.27-.12-.58-.57-.65s-.92.08-1,.37a1.08,1.08,0,0,1-.13.29c0,.09,0,0,0,0s0,.06,0,.08l-.11.13-.12.12-.07.06s.14-.11,0,0a1.69,1.69,0,0,1-.31.21l-.17.1c-.08,0,.16-.08,0,0l-.1,0c-.13.06-.26.1-.4.15l-.11,0c.23-.07.1,0,0,0l-.2,0a4,4,0,0,1-.48.07l.22,0-.25,0c-.43,0-.84.23-.82.53a.75.75,0,0,0,.82.53Z"/><path class="cls-19" d="M1134.29,790.16c1.74,0,3.36-.89,3.72-2,.09-.27-.12-.59-.57-.66s-.92.08-1,.38a1.92,1.92,0,0,1-.14.29c0,.09,0,0,0,0l0,.07a.69.69,0,0,1-.11.13l-.12.12-.07.07s.14-.11,0,0l-.32.21-.17.09c-.07.05.16-.07,0,0l-.1,0a2.62,2.62,0,0,1-.39.15l-.11,0c.22-.08.1,0,0,0l-.2,0-.48.07.22,0h-.25c-.43,0-.84.23-.82.53a.73.73,0,0,0,.82.53Z"/><path class="cls-59" d="M725.74,195c2.62-3,7.22-1.17,8.88,1.9,2.2,4.08.78,9-.73,13.07-1.69,4.57-3.35,9-4,13.86A49.32,49.32,0,0,0,730,238a47.73,47.73,0,0,0,5,15.07c.89,1.71,3.49.19,2.59-1.52a45.34,45.34,0,0,1-4.27-29.85c1.07-5.28,3.65-10,4.89-15.26,1.07-4.45.83-9.69-2.45-13.2-3.05-3.27-9-3.94-12.08-.39-1.26,1.45.86,3.58,2.13,2.12Z"/><path class="cls-59" d="M721.72,217.5A201.33,201.33,0,0,1,723,238.9a1.5,1.5,0,0,0,3,0,201.33,201.33,0,0,0-1.32-21.4,1.54,1.54,0,0,0-1.5-1.5,1.5,1.5,0,0,0-1.5,1.5Z"/><path class="cls-59" d="M774.52,206.39c4.56.71,7.33,4.59,8.6,8.77,1.63,5.37.71,11.08-.64,16.41-1.53,6.09-3.75,12-4.91,18.17a61.75,61.75,0,0,0-.57,19.09,81.53,81.53,0,0,0,2.19,10.36c.92,3.44,1.73,7,.34,10.42-.72,1.79,2.18,2.57,2.89.8,2.52-6.21-.95-13.05-2-19.2a57.77,57.77,0,0,1,0-20.44c1.2-6.56,3.63-12.81,5.17-19.28,1.35-5.64,2.13-11.66.37-17.29-1.57-5-5.13-9.85-10.64-10.7-1.89-.29-2.7,2.6-.8,2.89Z"/><path class="cls-59" d="M731.3,96.93c-3.25-.9-6.19,1.53-7.47,4.36a17.59,17.59,0,0,0-.92,10.27c.66,3.92,2.26,7.59,3.36,11.39a44.83,44.83,0,0,1,1.61,11.8c0,2.31-.06,4.62-.19,6.93-.06,1.11-.14,2.22-.22,3.34,0,.55,0,1.11-.12,1.66,0,.22-.18.66-.1.64a1.5,1.5,0,0,0,.8,2.89c2.06-.55,2.24-2.68,2.37-4.48.19-2.54.36-5.09.43-7.64a53.17,53.17,0,0,0-1.31-14.56c-1.17-4.63-3.37-9-3.89-13.85a14,14,0,0,1,.68-6.65c.63-1.61,2.18-3.76,4.17-3.2a1.51,1.51,0,0,0,.8-2.9Z"/><path class="cls-59" d="M858.21,384.94a118.42,118.42,0,0,0,2.63-17c.42-5.18,1.08-11.12-.71-16.12-.87-2.43-2.36-4.52-3.56-6.78a17.45,17.45,0,0,1-2.05-7.3,16.61,16.61,0,0,1,4.64-12.53c3.41-3.49,9.33-6.28,14-3.65a1.5,1.5,0,0,0,1.51-2.59c-4.49-2.52-10-1.36-14.21,1.32a19.63,19.63,0,0,0-8.28,11.23,20.72,20.72,0,0,0,2,15.43c1.38,2.49,3,4.78,3.6,7.61a35.74,35.74,0,0,1,.33,8.77,112.77,112.77,0,0,1-2.8,20.77c-.44,1.88,2.46,2.68,2.89.8Z"/><path class="cls-59" d="M879.34,357.87a40.67,40.67,0,0,1-.59,14.63c-1,4.7-3,9.15-3.61,13.95-.65,5,.08,10,.72,14.95l2,15.22c.24,1.89,3.25,1.91,3,0l-2-15.47c-.65-5-1.47-10.22-.6-15.26.83-4.76,2.8-9.23,3.7-14a45.41,45.41,0,0,0,.31-14.85c-.27-1.9-3.16-1.09-2.9.8Z"/><path class="cls-59" d="M997.28,331.65c3.48-1.8,7.6.49,9.47,3.53,2.4,3.89,2.54,8.87,2.29,13.29a47.27,47.27,0,0,1-3.33,14.39c-1.72,4.44-3.74,8.78-4.92,13.4a37.72,37.72,0,0,0-.41,16.58c.37,1.89,3.27,1.09,2.9-.8a34.33,34.33,0,0,1,.75-16.27c1.43-4.94,3.72-9.57,5.42-14.41a46.18,46.18,0,0,0,2.66-15.71c-.05-4.76-.8-9.84-3.94-13.61-3-3.55-8.18-5.16-12.4-3-1.72.88-.2,3.47,1.51,2.59Z"/><path class="cls-59" d="M978.58,369.79c.16,3.83,1.53,7.35,2.67,10.95s1.89,7.16.52,10.67c-.7,1.8,2.2,2.58,2.9.79,3-7.72-2.77-14.82-3.09-22.41-.08-1.92-3.08-1.93-3,0Z"/><path class="cls-59" d="M975.34,39.22c-6.24-3.59-13.87.44-16.58,6.56-3.41,7.69-.69,15.92,1.63,23.49A71.74,71.74,0,0,1,963.82,94a51.67,51.67,0,0,1-2.07,12.22,64.21,64.21,0,0,1-4.64,10.9c-3.86,7.53-8.36,15.38-7.7,24.14.15,1.92,3.15,1.93,3,0-.55-7.3,2.79-13.91,6.05-20.22,3.51-6.78,6.62-13.51,7.76-21.13a67.06,67.06,0,0,0-.84-23.38c-.81-3.93-2-7.74-3.19-11.57a36.9,36.9,0,0,1-2.06-11.47c.08-3.79,1.23-7.9,4.26-10.41,2.59-2.14,6.42-3,9.44-1.26a1.5,1.5,0,0,0,1.51-2.59Z"/><path class="cls-59" d="M1134.41,189.13c5.13-4.42,13.21-1,16.27,4.2,4.22,7.21,2.07,16.13-.77,23.4-1.65,4.24-3.63,8.35-5.17,12.63a66.45,66.45,0,0,0-3.28,13.17c-1.33,9.15-.45,18.1,1,27.18,1.54,9.88,3.35,20.11.58,30a1.5,1.5,0,0,0,2.9.79c2.61-9.3,1.37-18.94-.08-28.33-1.49-9.59-2.87-19.1-1.47-28.79a67.4,67.4,0,0,1,3.68-14.25c1.72-4.55,3.86-8.92,5.5-13.5,2.8-7.78,4.09-17.32-.78-24.61-4.35-6.48-14.17-9.38-20.47-4-1.46,1.26.67,3.37,2.13,2.12Z"/><path class="cls-59" d="M1134,222.29c-2,6.14-.26,12.43.44,18.62a24.41,24.41,0,0,1-.43,9.25c-.91,3.34-2.18,6.51-1.49,10,.38,1.9,3.27,1.1,2.9-.79-.65-3.25,1.07-6.44,1.76-9.54a27.1,27.1,0,0,0,.26-8.94c-.66-5.88-2.44-12-.55-17.82.6-1.84-2.3-2.63-2.89-.8Z"/><path class="cls-59" d="M1261.43,106c3.93,2.25,4.2,7.39,3.27,11.33-.64,2.68-1.7,5.24-2.57,7.85a56.08,56.08,0,0,0-2,7.57,59.37,59.37,0,0,0-.8,16,94.71,94.71,0,0,0,3.19,15.71c1.55,5.89,3,11.86,2.41,18-.18,1.92,2.82,1.91,3,0,1.07-11.36-4.41-21.9-5.53-33a56.44,56.44,0,0,1,.8-16.76,59.09,59.09,0,0,1,2.23-8,48.26,48.26,0,0,0,2.43-8.12c.8-4.87-.36-10.52-5-13.15a1.5,1.5,0,0,0-1.51,2.59Z"/><path class="cls-59" d="M1247,128.3v17.86a1.5,1.5,0,0,0,3,0V128.3a1.5,1.5,0,0,0-3,0Z"/><polygon class="cls-60" points="1566.48 344.91 1545.5 359.3 1481.82 263.25 1502.79 248.85 1566.48 344.91"/><polygon class="cls-60" points="1557.51 355.9 1534.83 344.5 1628.32 152 1651 163.4 1557.51 355.9"/><polygon class="cls-61" points="479 346.59 457.73 361 323.44 151.25 344.71 136.84 479 346.59"/><polygon class="cls-61" points="331.33 359.99 310.13 345.46 445.48 136.43 466.68 150.96 331.33 359.99"/></svg>