<svg id="Layer_1" data-name="Layer 1" xmlns="http://www.w3.org/2000/svg" width="153.14" height="146.4" viewBox="0 0 153.14 146.4"><defs><style>.cls-1{fill:#666;}.cls-2{fill:#ccc;}.cls-3{fill:#d6d6d6;}.cls-4{fill:#dbdbdb;}.cls-5{fill:#fff;}</style></defs><path class="cls-1" d="M127.78,96.64c6.41-4.18,14.42,1.85,12.51,12.88C137.28,127,121.91,133,114,131.63c-9.54-1.66-13.74-15.26,4-18.94C125.87,111.06,122.51,100.08,127.78,96.64Z"/><path class="cls-2" d="M3.42,64.11C17.69,44.5,37.75,23.17,53.91,4.92c5.74-6.47,8.81-6.4,13.91-.73,21.34,23.73,45.1,46.82,68.61,68C142.05,77.28,142,81,137,86c-14,14.13-27.58,28.68-39.42,44.76-4.2,5.71-7.54,6.53-13.68,1.74-25.71-20-50.55-38-78.43-55C-1.18,73.38-1.65,71.07,3.42,64.11Z"/><path class="cls-3" d="M53.9,5.26c5.73-6.48,8.81-6.4,13.91-.73,21.33,23.73,45.09,46.81,68.61,68,5.62,5.07,5.55,8.76.58,13.78-14,14.12-27.57,28.68-39.41,44.75"/><path class="cls-1" d="M135.26,94c9.07-6.29,20.27,2.56,17.43,19-4.48,25.92-26.21,35.12-37.31,33.2C102,143.83,96.24,123.68,121.29,118,132.37,115.44,127.78,99.16,135.26,94Z"/><rect class="cls-4" x="88.27" y="107.08" width="59.09" height="6.73" rx="3.34" transform="translate(278.2 91.59) rotate(130.14)"/><path class="cls-5" d="M126,140a1.5,1.5,0,0,0,0-3,1.5,1.5,0,0,0,0,3Z"/><path class="cls-5" d="M128.35,129.12a1.5,1.5,0,0,0,0-3,1.5,1.5,0,0,0,0,3Z"/><path class="cls-5" d="M138.54,132.51a1.5,1.5,0,0,0,0-3,1.5,1.5,0,0,0,0,3Z"/><path class="cls-5" d="M137.18,118.25a1.5,1.5,0,0,0,0-3,1.5,1.5,0,0,0,0,3Z"/><path class="cls-5" d="M145.33,110.78a1.5,1.5,0,0,0,0-3,1.5,1.5,0,0,0,0,3Z"/><path class="cls-5" d="M116.12,141a1.5,1.5,0,0,0,0-3,1.5,1.5,0,0,0,0,3Z"/><path class="cls-3" d="M145.76,122.63a1.5,1.5,0,0,0,0-3,1.5,1.5,0,0,0,0,3Z"/><path class="cls-5" d="M128.33,121.18a1.5,1.5,0,0,0,0-3,1.5,1.5,0,0,0,0,3Z"/><path class="cls-5" d="M145.47,122.63a1.5,1.5,0,0,0,0-3,1.5,1.5,0,0,0,0,3Z"/><path class="cls-5" d="M118.45,134a1.5,1.5,0,0,0,0-3,1.5,1.5,0,0,0,0,3Z"/><path class="cls-5" d="M134.43,138.9a1.5,1.5,0,0,0,0-3,1.5,1.5,0,0,0,0,3Z"/><path d="M71.1,47a20.43,20.43,0,0,0-10,6.28C57,58.15,57.5,63.47,61.73,67c3.91,3.3,7.82,3.21,14.22,0,7.53-4,14.23-4.77,20.13.21,6.53,5.51,7.34,14.38,1.26,21.59a20.08,20.08,0,0,1-9,6.48l-3.3-5A17.6,17.6,0,0,0,93,84.93c4.27-5.06,2.48-9.87-.38-12.28-3.92-3.3-7.75-2.67-14.3.56-8,4-14.14,4.28-20.29-.91-6.46-5.45-8.48-14.4-1.1-23.16,3-3.57,7.49-6.49,10.66-7.21Z"/></svg>