<svg id="Layer_1" data-name="Layer 1" xmlns="http://www.w3.org/2000/svg" width="140.53" height="161.07" viewBox="0 0 140.53 161.07"><defs><style>.cls-1{fill:#999;stroke:#000;stroke-miterlimit:10;stroke-width:49px;}.cls-2{fill:#fff;}.cls-3{fill:#fff46a;}</style></defs><path class="cls-1" d="M116,66.74H75.64a0,0,0,0,1,0,0L104.18,39v0l-3.11-3s0,0,0,0L72.5,63.68s0,0,0,0V24.51H68.05V63.67s0,0,0,0L39.48,36s0,0,0,0l-3.11,3s0,0,0,0L64.89,66.71s0,0,0,0H24.51a0,0,0,0,0,0,0V71a0,0,0,0,0,0,0H64.88s0,0,0,0L36.35,98.74s0,0,0,0l3.11,3s0,0,0,0L68,74.09s0,0,0,0v39.16h4.43V74.1s0,0,0,0l28.55,27.69s0,0,0,0l3.11-3v0L75.63,71.06s0,0,0,0H116a0,0,0,0,0,0,0V66.75A0,0,0,0,0,116,66.74Z"/><ellipse class="cls-2" cx="70.4" cy="69.1" rx="29.46" ry="30.19"/><path class="cls-3" d="M103.83,13.42A19.19,19.19,0,0,0,107,12.35a7.92,7.92,0,0,1,1.69-.54c-.13,0,.1,0,.37,0h.32c-.24,0-.25,0,0,0a2.18,2.18,0,0,1,1.37.79,1.8,1.8,0,0,1,.5.62c.12.18.23.37.34.56,0,0,.4.79.26.47a11.67,11.67,0,0,1,.7,2.5,21.51,21.51,0,0,1,0,3.3,36.63,36.63,0,0,1-1.4,6.86c-1.33,4.87-3,9.77-2.93,14.88,0,5.34,2,10.31,3.86,15.23,2,5.24,4,11,2,16.51a3,3,0,0,0,2.1,3.69,3.05,3.05,0,0,0,3.69-2.09c2-5.68.78-11.86-1.15-17.38-1.82-5.17-4.44-10.37-4.5-16-.11-10.23,7.89-20.68,2.72-30.75a9.43,9.43,0,0,0-5.8-5,8.78,8.78,0,0,0-4.74.2,41.19,41.19,0,0,1-4.14,1.41,3,3,0,0,0-2.1,3.69,3.07,3.07,0,0,0,3.69,2.09Z"/><path class="cls-3" d="M84.62,97.13A7.73,7.73,0,0,1,95,94.41c4.17,2.35,5.07,8.19,4.75,12.67-.18,2.43-1.6,4.4-2.81,6.42a17.81,17.81,0,0,0-2.73,8.07c-.38,5.48,2.15,10.55,2.9,15.88a29.81,29.81,0,0,1-.62,9.6c-.65,3.42-1.37,6.82-2.07,10.23a3.08,3.08,0,0,0,2.1,3.69,3,3,0,0,0,3.69-2.09c.66-3.25,1.34-6.51,2-9.76a41.44,41.44,0,0,0,1-10.29,47.53,47.53,0,0,0-1.87-9.44c-.71-2.7-1.54-5.62-1.1-8.44.42-2.64,2.18-4.78,3.43-7.06a16.87,16.87,0,0,0,2-9.65c-.45-6.18-2.47-12.63-8.52-15.44a13.88,13.88,0,0,0-17.72,5.3c-2,3.29,3.14,6.31,5.18,3Z"/><path class="cls-3" d="M79.12,139.24a14.83,14.83,0,0,0,1.61,3.27c.07.12.14.24.2.37.14.3.12.26-.05-.13a2.28,2.28,0,0,1,.26.8c0,.14.24.69.17.82,0-.45-.06-.5,0-.17,0,.11,0,.21,0,.32a14.43,14.43,0,0,1,0,1.61,4.12,4.12,0,0,1-.09.86c.23-.79,0,0,0,.18-.19,1.12-.47,2.23-.76,3.32a3,3,0,0,0,5.79,1.6,24.4,24.4,0,0,0,1.11-7.57,11.63,11.63,0,0,0-1.88-5.84c-.14-.23-.28-.47-.41-.71,0-.08-.24-.51-.07-.1s0-.17,0-.22a3,3,0,1,0-5.78,1.59Z"/><path class="cls-3" d="M13.43,42.19c-3.71-1.61-7.4-.2-9.71,3C1.18,48.73,2.16,53.28,3.79,57c3,6.68,7.45,12.59,9.31,19.75a19.47,19.47,0,0,1,.22,9.68,37.55,37.55,0,0,1-4,9.1,94.53,94.53,0,0,0-4.87,9.3A35.08,35.08,0,0,0,1.79,116.2c-.59,9,1.92,18,4.41,26.54,1.07,3.7,6.87,2.12,5.79-1.6-2-6.95-4.08-14-4.26-21.33a31.46,31.46,0,0,1,1.33-10.34,44.23,44.23,0,0,1,4-8.49c3.23-5.72,6.56-11.52,6.76-18.26.2-7.15-2.93-13.86-6.22-20C11.83,59.36,9.39,56,8.41,52.26a4.34,4.34,0,0,1,.39-3.9,4.1,4.1,0,0,1,1.21-.9c-.38.21.57-.05,0,0,.3,0,.86.15.36-.06a3.11,3.11,0,0,0,4.11-1.08c.74-1.26.41-3.45-1.08-4.1Z"/><path class="cls-3" d="M45.45,11.21a13.47,13.47,0,0,0-1.2,6.39,11.65,11.65,0,0,0,2.38,5.73c1.15,1.53,2.38,2.82,3.19,4.19a5.53,5.53,0,0,1,.79,2c.12.5,0,0,0,.27,0,.05,0,.63,0,.35s-.07.27-.09.33c-.13.46.31-.51-.12.26a3,3,0,0,0,5.18,3c2.37-4.26.07-8.65-2.69-12l-.81-1-.27-.33-.34-.45c-.24-.35-.47-.69-.68-1.06-.1-.17-.2-.36-.29-.54-.42-.81,0,.21-.11-.28a4.27,4.27,0,0,1-.21-2,15,15,0,0,1,1-3.21,3,3,0,0,0-2.1-3.69,3.07,3.07,0,0,0-3.69,2.09Z"/></svg>