<svg id="Layer_1" data-name="Layer 1" xmlns="http://www.w3.org/2000/svg" width="331" height="245.27" viewBox="0 0 331 245.27"><defs><style>.cls-1{fill:#f2f2f2;}.cls-2{fill:#fbb03b;}.cls-3{fill:#231f20;}.cls-4{fill:#fff;}.cls-5{fill:#001300;}.cls-6{fill:#ffa5ac;}</style></defs><path class="cls-1" d="M2.1,102.57C-19.14-48.08,126.9,59.74,163,24.13S300.73-19.21,327.31,82.5s-96,195.29-183.39,151.87S23.34,253.23,2.1,102.57Z"/><ellipse class="cls-2" cx="201.03" cy="122.34" rx="73.38" ry="75.61"/><path class="cls-3" d="M192.18,86.81H149.32c0,15.26,9.6,27.64,21.43,27.64S192.18,102.07,192.18,86.81Z"/><path class="cls-3" d="M239.28,86.81H196.42c0,15.26,9.6,27.64,21.43,27.64S239.28,102.07,239.28,86.81Z"/><path class="cls-4" d="M155.42,86.81c0,5.18,3.55,9.38,7.93,9.38s7.92-4.2,7.92-9.38Z"/><path class="cls-4" d="M201.34,86.81c0,5.18,3.55,9.38,7.93,9.38s7.93-4.2,7.93-9.38Z"/><ellipse class="cls-4" cx="218.47" cy="95.68" rx="2.66" ry="2.51"/><ellipse class="cls-4" cx="172.47" cy="95.68" rx="2.66" ry="2.51"/><rect class="cls-5" x="160.11" y="127.22" width="66.02" height="9.01" rx="3.12"/><path class="cls-6" d="M227.24,123c-.06-2.18,6.44-4.39,12-4.47,6-.09,12.89,2.25,12.84,4.47s-7.1,4.31-13,4.18C233.8,127.1,227.29,125.2,227.24,123Z"/><path class="cls-6" d="M133.39,122.13c-.06-2.18,6.44-4.39,12-4.47,6-.09,12.89,2.25,12.84,4.47s-7.1,4.3-13,4.18C140,126.2,133.45,124.29,133.39,122.13Z"/></svg>