<svg id="Layer_1" data-name="Layer 1" xmlns="http://www.w3.org/2000/svg" xmlns:xlink="http://www.w3.org/1999/xlink" width="1920" height="1080" viewBox="0 0 1920 1080"><defs><style>.cls-1{fill:#333;}.cls-2{fill:#e6e6e6;}.cls-3{fill:#a67c52;}.cls-4{fill:#c69c6d;}.cls-5{fill:#999;}.cls-6{fill:#4d4d4d;}.cls-7{fill:#754c24;}.cls-8{fill:gray;}.cls-9{fill:#8c9074;}.cls-10{fill:#fff;}.cls-11{fill:#c7b299;}.cls-12{fill:#666;}.cls-13{fill:#b3b3b3;}.cls-14{fill:#001300;}.cls-15{fill:url(#linear-gradient);}.cls-16{fill:#f2f2f2;}</style><linearGradient id="linear-gradient" x1="628.56" y1="1007.86" x2="1322.21" y2="1007.86" gradientUnits="userSpaceOnUse"><stop offset="0" stop-color="#fff"/><stop offset="0.01" stop-color="#fff"/><stop offset="1" stop-color="#7a7a7a"/></linearGradient></defs><rect class="cls-1" x="570.03" y="617.55" width="10.48" height="47.37" transform="translate(438.66 -209.33) rotate(32.77)"/><path class="cls-2" d="M460.43,542.43a1.5,1.5,0,0,0,0-3,1.5,1.5,0,0,0,0,3Z"/><rect class="cls-1" x="54.03" y="-1.79" height="1080"/><rect class="cls-1" x="114.03" y="0.21" height="1080"/><rect class="cls-1" x="176.03" y="-1.79" height="1080"/><rect class="cls-1" x="236.03" y="-2.79" height="1080"/><rect class="cls-1" x="296.03" y="-0.79" height="1080"/><rect class="cls-1" x="358.03" y="-2.79" height="1080"/><rect class="cls-1" x="421.03" y="-3.79" height="1080"/><rect class="cls-1" x="481.03" y="-1.79" height="1080"/><rect class="cls-1" x="543.03" y="-3.79" height="1080"/><rect class="cls-1" x="607.03" y="0.21" height="1080"/><rect class="cls-1" x="667.03" y="2.21" height="1080"/><rect class="cls-1" x="729.03" y="0.21" height="1080"/><rect class="cls-1" x="789.03" y="-0.79" height="1080"/><rect class="cls-1" x="849.03" y="1.21" height="1080"/><rect class="cls-1" x="911.03" y="-0.79" height="1080"/><rect class="cls-1" x="974.03" y="-1.79" height="1080"/><rect class="cls-1" x="1034.03" y="0.21" height="1080"/><rect class="cls-1" x="1096.03" y="-1.79" height="1080"/><rect class="cls-1" x="1163.03" y="0.21" height="1080"/><rect class="cls-1" x="1223.03" y="2.21" height="1080"/><rect class="cls-1" x="1285.03" y="0.21" height="1080"/><rect class="cls-1" x="1345.03" y="-0.79" height="1080"/><rect class="cls-1" x="1405.03" y="1.21" height="1080"/><rect class="cls-1" x="1467.03" y="-0.79" height="1080"/><rect class="cls-1" x="1530.03" y="-1.79" height="1080"/><rect class="cls-1" x="1590.03" y="0.21" height="1080"/><rect class="cls-1" x="1652.03" y="-1.79" height="1080"/><rect class="cls-1" x="1719.03" y="0.21" height="1080"/><rect class="cls-1" x="1779.03" y="2.21" height="1080"/><rect class="cls-1" x="1841.03" y="0.21" height="1080"/><rect class="cls-1" x="1901.03" y="-0.79" height="1080"/><rect class="cls-1" x="967.03" y="-917.12" height="1909.39" transform="translate(1004.61 -929.46) rotate(90)"/><rect class="cls-1" x="963.5" y="-857.12" height="1909.39" transform="translate(1061.07 -865.92) rotate(90)"/><rect class="cls-1" x="968.8" y="-732.12" height="1909.39" transform="translate(1191.37 -746.23) rotate(90)"/><rect class="cls-1" x="965.26" y="-672.12" height="1909.39" transform="translate(1247.84 -682.69) rotate(90)"/><rect class="cls-1" x="968.8" y="-610.12" height="1909.39" transform="translate(1313.37 -624.23) rotate(90)"/><rect class="cls-1" x="965.26" y="-543.12" height="1909.39" transform="translate(1376.84 -553.69) rotate(90)"/><rect class="cls-1" x="961.73" y="-483.12" height="1909.39" transform="translate(1433.3 -490.15) rotate(90)"/><rect class="cls-1" x="965.26" y="-421.12" height="1909.39" transform="translate(1498.84 -431.69) rotate(90)"/><rect class="cls-1" x="967.03" y="-361.12" height="1909.39" transform="translate(1560.61 -373.46) rotate(90)"/><rect class="cls-1" x="963.5" y="-301.12" height="1909.39" transform="translate(1617.07 -309.92) rotate(90)"/><rect class="cls-1" x="967.03" y="-239.12" height="1909.39" transform="translate(1682.61 -251.46) rotate(90)"/><rect class="cls-1" x="968.8" y="-176.12" height="1909.39" transform="translate(1747.37 -190.23) rotate(90)"/><rect class="cls-1" x="965.26" y="-116.12" height="1909.39" transform="translate(1803.84 -126.69) rotate(90)"/><rect class="cls-1" x="968.8" y="-54.12" height="1909.39" transform="translate(1869.37 -68.23) rotate(90)"/><rect class="cls-1" x="965.26" y="12.88" height="1909.39" transform="translate(1932.84 2.31) rotate(90)"/><rect class="cls-1" x="961.73" y="72.88" height="1909.39" transform="translate(1989.3 65.85) rotate(90)"/><rect class="cls-1" x="969.92" y="-542.48" height="1909.39" transform="translate(1382.13 -557.71) rotate(90)"/><rect class="cls-1" x="967.03" y="-795.12" height="1909.39" transform="translate(1126.61 -807.46) rotate(90)"/><rect class="cls-3" x="0.64" y="-2.21" width="306.72" height="331.42"/><rect class="cls-3" x="301.36" y="-2.21" width="306.72" height="331.42"/><rect class="cls-4" x="293.03" y="-2.26" width="28" height="331.47" rx="14"/><rect class="cls-3" x="619.12" y="-1.73" width="306.72" height="243.95"/><rect class="cls-4" x="602.03" y="-4.35" width="28" height="248.56" rx="14"/><rect class="cls-4" x="911.48" y="-4.3" width="28" height="248.56" rx="14"/><rect class="cls-3" x="937.02" y="-2.11" width="306.72" height="243.95"/><rect class="cls-4" x="1226.75" y="-3.54" width="28" height="248.56" rx="14"/><rect class="cls-3" x="1251.45" y="-1.93" width="306.72" height="331.42"/><rect class="cls-3" x="1584.78" y="-4.51" width="348.26" height="331.42"/><rect class="cls-5" x="602.32" y="234.01" width="652.71" height="95.2" rx="12.35"/><rect class="cls-4" x="1557.03" y="-5.65" width="28" height="338.75" rx="14"/><rect class="cls-6" x="602.03" y="271.21" width="652" height="59.26" rx="12.35"/><rect class="cls-7" x="261.77" y="261.21" width="13.26" height="56" rx="5.9"/><rect class="cls-7" x="334.9" y="261.53" width="13.26" height="56" rx="5.9"/><rect class="cls-7" x="878.95" y="163.18" width="13.26" height="56" rx="5.9"/><rect class="cls-7" x="952.95" y="163.18" width="13.26" height="56" rx="5.9"/><rect class="cls-7" x="1519.05" y="258.46" width="13.26" height="56" rx="5.9"/><rect class="cls-7" x="1610.64" y="258.66" width="13.26" height="56" rx="5.9"/><ellipse class="cls-2" cx="630.9" cy="300.21" rx="12.13" ry="11"/><ellipse class="cls-2" cx="662.45" cy="300.21" rx="12.13" ry="11"/><rect class="cls-6" x="76.41" y="459.6" width="352.62" height="28" rx="14"/><rect class="cls-8" x="76.54" y="455.21" width="8.49" height="36.59" rx="2.64"/><rect class="cls-8" x="420.75" y="456.22" width="8.49" height="36.59" rx="2.64"/><rect class="cls-1" x="937.93" y="-301.48" height="1909.39" transform="translate(1591.14 -284.72) rotate(90)"/><rect class="cls-9" x="135.87" y="471.58" width="13.16" height="98.63" rx="3.13"/><rect class="cls-6" x="140.11" y="476.21" width="4.92" height="5"/><rect class="cls-5" x="119.12" y="568.01" width="47.37" height="62.2" rx="14"/><rect class="cls-10" x="128.12" y="576.21" width="4.92" height="47" rx="2.3"/><rect class="cls-10" x="141.39" y="576.29" width="4.92" height="47" rx="2.3"/><rect class="cls-10" x="154.39" y="576.29" width="4.92" height="47" rx="2.3"/><rect class="cls-9" x="216.07" y="471.22" width="13.16" height="102.99" rx="3.13"/><rect class="cls-6" x="220.12" y="476.59" width="4.92" height="5"/><rect class="cls-11" x="0.03" y="868.21" width="1929" height="212"/><path class="cls-5" d="M222.49,631.21a21.28,21.28,0,0,1-21.53-21c0-11.61,9.64-40.45,21.53-40.45S244,598.57,244,610.18A21.28,21.28,0,0,1,222.49,631.21Z"/><rect class="cls-9" x="286.63" y="471.36" width="13.16" height="61.85" rx="3.13"/><rect class="cls-6" x="290.75" y="476.35" width="4.92" height="5"/><rect class="cls-5" x="291.43" y="533.16" width="3.6" height="70.05"/><path class="cls-5" d="M319,600.21H268.16c0,15.64,11.39,28.31,25.44,28.31S319,615.85,319,600.21Z"/><path class="cls-12" d="M267.47,600.21c1,.3,10,3,25.78,3s24.81-2.7,25.78-3Z"/><rect class="cls-3" x="0.03" y="706.18" width="312.54" height="166.03"/><rect class="cls-4" x="305.22" y="706.21" width="28" height="168.42" rx="14"/><rect class="cls-3" x="330.31" y="706.48" width="306.72" height="166.03"/><rect class="cls-8" x="313.62" y="394.8" width="12" height="634.81" rx="6" transform="translate(1031.84 392.59) rotate(90)"/><rect class="cls-7" x="341.55" y="733.12" width="13.26" height="56" rx="5.9"/><rect class="cls-7" x="279.55" y="733.12" width="13.26" height="56" rx="5.9"/><rect class="cls-13" x="429.28" y="696.21" width="47.37" height="12.38" rx="2.89"/><path class="cls-5" d="M497,656.21H408.64c0,26,19.79,47,44.2,47S497,682.17,497,656.21Z"/><path class="cls-8" d="M487.79,656.19c0,41.17-34.76,47-34.76,47,24.2,0,43.81-21,43.81-47Z"/><rect class="cls-13" x="517.53" y="689.21" width="53.5" height="17.66" rx="2.89"/><path class="cls-8" d="M588,650.21H501c0,29.27,19.47,53,43.5,53S588,679.48,588,650.21Z"/><path class="cls-6" d="M578.23,650.19c0,46.43-34.2,53-34.2,53,23.8,0,43.09-23.73,43.09-53Z"/><path class="cls-14" d="M1346.86,1080.21H603.14A15.14,15.14,0,0,1,588,1065.07V885.35a15.14,15.14,0,0,1,15.14-15.14h743.72A15.13,15.13,0,0,1,1362,885.35v179.72A15.13,15.13,0,0,1,1346.86,1080.21Z"/><rect class="cls-15" x="628.56" y="888.21" width="693.65" height="239.3" rx="14"/><path class="cls-16" d="M628.56,929.19c-39.59,0-111.83,27-111.83,60.4S589,1050,628.56,1050Z"/><path class="cls-11" d="M628.56,947.09c-31.63,0-89.32,19-89.32,42.5s57.69,42.51,89.32,42.51Z"/><path class="cls-5" d="M1322.21,933c39.59,0,111.82,27,111.82,60.4s-72.23,60.4-111.82,60.4Z"/><path class="cls-11" d="M1322.21,950.83c31.62,0,89.31,19,89.31,42.51s-57.69,42.5-89.31,42.5v-85Z"/><path d="M1359.3,955.33c-13.37-3-26.62-4.67-37.27-4.67v85c11.37,0,25.71-1.92,40-5.3Q1362.13,992.86,1359.3,955.33Z"/><path d="M590.76,952.1c13.37-3,26.63-4.67,37.27-4.67v85c-11.37,0-25.71-1.93-40-5.3Q587.94,989.63,590.76,952.1Z"/></svg>