<svg id="Layer_1" data-name="Layer 1" xmlns="http://www.w3.org/2000/svg" width="309.02" height="307.55" viewBox="0 0 309.02 307.55"><defs><style>.cls-1{fill:#4d4d4d;}.cls-2{fill:#e0e0e0;}.cls-3{fill:#001300;}.cls-4{fill:#bd0000;}.cls-5{fill:#063;}</style></defs><ellipse class="cls-1" cx="154.51" cy="153.78" rx="154.51" ry="153.78"/><ellipse class="cls-2" cx="153.73" cy="153.49" rx="144.92" ry="146.95"/><rect class="cls-3" x="151.87" y="10.32" width="2.19" height="21.51"/><rect class="cls-3" x="151.87" y="275.01" width="2.19" height="21.51"/><rect class="cls-3" x="275.35" y="153.28" width="21.51" height="2.49"/><rect class="cls-3" x="10.77" y="152.21" width="21.51" height="2.49"/><rect class="cls-3" x="151.5" y="60.52" width="3.78" height="95.26"/><polygon class="cls-3" points="168.49 68.55 138.57 68.55 146.05 58.2 153.53 47.85 161.01 58.2 168.49 68.55"/><path class="cls-4" d="M153,165.69c-6.22.19-12.92-2.82-13-9.56s6.17-13.6,12.67-13.27,12.85,5.79,13.12,12.72S159.19,165.5,153,165.69Z"/><path class="cls-5" d="M144.92,142.25s1.7-1.1,9.05,3,7.3,6.16,7.3,6.16c1.1-2-1.66-5.63-6.17-8.16S146,140.28,144.92,142.25Z"/><path class="cls-5" d="M157.27,139.55s-1.09.62-.89,5.75,1.33,5.67,1.33,5.67c-1.41.05-2.64-2.46-2.76-5.61S155.87,139.61,157.27,139.55Z"/><path class="cls-5" d="M156.43,145.23c6.46-5.4,8.08-4.94,8.08-4.94-1.13-1.34-5.25.25-9.22,3.56Z"/><path class="cls-5" d="M154.8,144.75c-5.33,4.59-5.11,6.06-5.11,6.06-1-1.2.78-4.46,4.06-7.28Z"/><path class="cls-5" d="M155.24,143.81c8.36.88,9.42-.15,9.42-.15-.15,1.42-4.43,2.14-9.57,1.6Z"/><path class="cls-5" d="M152.94,145.79c-5.6-.48-6.37,1.08-6.37,1.08.18-2,3.11-3.45,6.54-3.15Z"/><path class="cls-5" d="M154.25,143.9c.46,6.12-.88,6.92-.88,6.92,1.75-.13,2.94-3.29,2.66-7Z"/></svg>