<svg id="Layer_1" data-name="Layer 1" xmlns="http://www.w3.org/2000/svg" width="266.84" height="295.9" viewBox="0 0 266.84 295.9"><defs><style>.cls-1{fill:#bd0000;}.cls-2{fill:#063;}.cls-3{fill:#001300;}.cls-4{fill:#fff;}</style></defs><path class="cls-1" d="M134,295.8C69.7,298,.36,263.91,0,187.65S63.82,33.73,131.06,37.42s132.86,65.56,135.7,144S198.27,293.64,134,295.8Z"/><path class="cls-2" d="M50.65,30.54s17.56-12.43,93.58,34.35,75.52,69.71,75.52,69.71c11.44-22.27-17.13-63.63-63.83-92.36S62.1,8.27,50.65,30.54Z"/><path class="cls-2" d="M178.43,0s-11.3,7-9.28,65,13.77,64.14,13.77,64.14c-14.53.6-27.32-27.82-28.56-63.49S163.89.61,178.43,0Z"/><path class="cls-2" d="M169.76,64.22c66.78-61,83.53-55.86,83.53-55.86C241.65-6.88,199,11.17,158,48.67Z"/><path class="cls-2" d="M152.88,58.84C97.75,110.8,100,127.42,100,127.42c-10.69-13.57,8.1-50.45,42-82.37Z"/><path class="cls-2" d="M157.38,48.15c86.49,10,97.47-1.65,97.47-1.65-1.55,16.1-45.88,24.18-99,18Z"/><path class="cls-2" d="M133.6,70.61C75.72,65.17,67.76,82.83,67.76,82.83c1.81-23,32.1-39,67.65-35.69Z"/><path class="cls-2" d="M147.12,49.19c4.8,69.31-9,78.31-9,78.31,18.1-1.5,30.38-37.22,27.43-79.8Z"/><ellipse class="cls-3" cx="134.93" cy="167.98" rx="20.55" ry="21.36"/><ellipse class="cls-3" cx="184.37" cy="167.98" rx="20.55" ry="21.36"/><ellipse class="cls-4" cx="190.78" cy="175.52" rx="8.74" ry="9.31"/><ellipse class="cls-4" cx="140.13" cy="176.99" rx="8.74" ry="9.31"/><circle class="cls-4" cx="174.13" cy="154.61" r="2.83"/><circle class="cls-4" cx="123.65" cy="157.15" r="2.83"/><path class="cls-3" d="M110.67,152.41a6.3,6.3,0,0,0,1.88,4.06,5.84,5.84,0,0,0,4,1.68,1.33,1.33,0,0,0,1.3-1.35,1.36,1.36,0,0,0-1.3-1.36,3.82,3.82,0,0,1-.58,0l.35.05a5.32,5.32,0,0,1-.69-.16c-.1,0-.27-.14-.36-.13s.31.14.1,0l-.15-.07a5.6,5.6,0,0,1-.61-.38l-.15-.12c.32.23.13.11.06.05l-.26-.25-.25-.27a1.13,1.13,0,0,1-.1-.13c-.18-.22.12.18,0,.06a4.9,4.9,0,0,1-.38-.62,3.31,3.31,0,0,0-.15-.33l.08.2s0-.08,0-.13a.88.88,0,0,1,0-.15,5.06,5.06,0,0,1-.17-.75l0,.36,0-.27a1.35,1.35,0,0,0-1.3-1.35,1.33,1.33,0,0,0-1.3,1.35Z"/><path class="cls-3" d="M114.33,149.73a6.45,6.45,0,0,0,6.09,4.84,1.34,1.34,0,0,0,1.3-1.35,1.36,1.36,0,0,0-1.3-1.36H120s-.26,0,0,0h-.06a6.05,6.05,0,0,1-.73-.2l-.16-.06c-.24-.09.27.12,0,0l-.37-.19-.29-.18c-.08-.06-.29-.16-.34-.25,0,.06.25.21.07.06l-.15-.14-.28-.28-.25-.29c-.18-.22.11.16,0,0a.71.71,0,0,0-.1-.14,6.52,6.52,0,0,1-.38-.68l-.06-.13.08.19a1.18,1.18,0,0,1-.07-.2c0-.13-.09-.27-.13-.41a1.3,1.3,0,0,0-1.6-.94,1.38,1.38,0,0,0-.9,1.66Z"/><path class="cls-3" d="M197,152.73a6.49,6.49,0,0,0,5.89-5.11A1.4,1.4,0,0,0,202,146a1.31,1.31,0,0,0-1.6.94,5.9,5.9,0,0,1-.21.75c-.09.23,0-.07,0-.1a1.08,1.08,0,0,0-.08.19,3.24,3.24,0,0,1-.17.32l-.19.32a1,1,0,0,0-.12.17c0-.05.23-.29,0-.06a6.39,6.39,0,0,1-.5.54l-.27.24c-.12.11.25-.19.08-.06l-.16.11a5.73,5.73,0,0,1-.62.38l-.18.09c.36-.19.16-.07.07,0l-.31.11a4.94,4.94,0,0,1-.76.18l.34,0-.39,0a1.35,1.35,0,0,0,0,2.7Z"/><path class="cls-3" d="M200.58,156a6.49,6.49,0,0,0,5.89-5.1,1.4,1.4,0,0,0-.91-1.67,1.32,1.32,0,0,0-1.6.95,5.26,5.26,0,0,1-.21.75c-.09.22,0-.08,0-.11a1.08,1.08,0,0,0-.08.19c-.05.11-.11.22-.17.33s-.12.21-.19.31a1.77,1.77,0,0,0-.12.17s.23-.29.05-.06a6.39,6.39,0,0,1-.5.54l-.27.25c-.12.1.25-.2.08-.07l-.16.12a5.63,5.63,0,0,1-.62.37l-.18.09c.36-.19.16-.07.07,0l-.31.11a4.91,4.91,0,0,1-.76.17l.34,0-.39,0a1.35,1.35,0,0,0,0,2.7Z"/><path class="cls-4" d="M150.42,210.91c2.09,5.35,7.34,9.65,13.32,9.24s10.64-4.94,12.23-10.45a1.5,1.5,0,0,0-2.89-.8c-1.2,4.16-4.84,7.94-9.34,8.25s-8.8-2.87-10.43-7c-.69-1.78-3.59-1-2.89.8Z"/><path class="cls-4" d="M195.9,202.06a1.5,1.5,0,0,0,0-3,1.5,1.5,0,0,0,0,3Z"/><path class="cls-4" d="M195.9,211.78a1.5,1.5,0,0,0,0-3,1.5,1.5,0,0,0,0,3Z"/><path class="cls-4" d="M203.89,205a1.5,1.5,0,0,0,0-3,1.5,1.5,0,0,0,0,3Z"/><path class="cls-4" d="M132.83,203a1.5,1.5,0,0,0,0-3,1.5,1.5,0,0,0,0,3Z"/><path class="cls-4" d="M133.72,212.75a1.5,1.5,0,0,0,0-3,1.5,1.5,0,0,0,0,3Z"/><path class="cls-4" d="M124,207.89a1.5,1.5,0,0,0,0-3,1.5,1.5,0,0,0,0,3Z"/></svg>