<svg id="Layer_1" data-name="Layer 1" xmlns="http://www.w3.org/2000/svg" width="395.09" height="159.38" viewBox="0 0 395.09 159.38"><defs><style>.cls-1{fill:#006837;}.cls-2{fill:#39b54a;}.cls-3{fill:#ef3f3f;}.cls-4{fill:#001300;}.cls-5{fill:#231f20;}.cls-6{fill:#fff;}</style></defs><path class="cls-1" d="M395.09.09H0c0,88,88.44,159.29,197.55,159.29S395.09,88.06,395.09.09Z"/><path class="cls-2" d="M383.64,0H12.14c0,78.73,83.16,142.55,185.75,142.55S383.64,78.73,383.64,0Z"/><path class="cls-3" d="M375.05,0H20.82c0,69.18,79.3,125.27,177.12,125.27S375.05,69.18,375.05,0Z"/><path class="cls-4" d="M66.15,60.69a4.36,4.36,0,0,1-.41-6.12c1.57-1.74,6.92-4.74,8.72-3.11s-.66,7.29-2.23,9A4.29,4.29,0,0,1,66.15,60.69Z"/><path class="cls-4" d="M201.52,107.22a4.31,4.31,0,0,1-4-4.62c.2-2.35,2.66-8,5.07-7.78s3.86,6.2,3.65,8.54A4.31,4.31,0,0,1,201.52,107.22Z"/><path class="cls-4" d="M154.16,100.8a4.33,4.33,0,0,1-4-4.63c.2-2.34,2.66-8,5.07-7.77s3.86,6.2,3.66,8.54A4.33,4.33,0,0,1,154.16,100.8Z"/><path class="cls-4" d="M107.57,82.47a4.35,4.35,0,0,1-1.24-6c1.31-2,6.19-5.67,8.19-4.3s.37,7.3-1,9.25A4.3,4.3,0,0,1,107.57,82.47Z"/><path class="cls-4" d="M40.1,27.11a4.35,4.35,0,0,1,1-6c1.94-1.31,7.84-2.95,9.2-.93s-2.36,6.92-4.3,8.23A4.28,4.28,0,0,1,40.1,27.11Z"/><path class="cls-4" d="M258.2,100a4.3,4.3,0,0,1-5.69-2.18c-.92-2.16-1.4-8.31.82-9.27s6.32,3.64,7.23,5.8A4.34,4.34,0,0,1,258.2,100Z"/><path class="cls-4" d="M306.8,80.51a4.29,4.29,0,0,1-6.05-.67c-1.43-1.86-3.43-7.69-1.52-9.18s7,1.93,8.45,3.79A4.35,4.35,0,0,1,306.8,80.51Z"/><path class="cls-4" d="M344.29,47.35a4.29,4.29,0,0,1-6,1.32c-1.95-1.3-5.7-6.17-4.37-8.2s7.26-.45,9.21.85A4.36,4.36,0,0,1,344.29,47.35Z"/><path class="cls-4" d="M223.58,70.81a2.33,2.33,0,0,1-2.86-1.64c-.24-1.18.27-4.33,1.61-4.6s3,2.43,3.26,3.61A2.35,2.35,0,0,1,223.58,70.81Z"/><path class="cls-4" d="M180.86,70.87a2.36,2.36,0,0,1-2-2.62c.23-1.18,1.88-3.9,3.23-3.64s1.88,3.41,1.65,4.59A2.34,2.34,0,0,1,180.86,70.87Z"/><path class="cls-4" d="M139.21,62.07a2.35,2.35,0,0,1-1.55-2.92c.43-1.13,2.53-3.52,3.81-3s1.26,3.69.84,4.81A2.33,2.33,0,0,1,139.21,62.07Z"/><path class="cls-4" d="M99.21,46.51a2.37,2.37,0,0,1-.65-3.26c.73-1,3.42-2.64,4.51-1.8s.16,3.9-.57,4.85A2.33,2.33,0,0,1,99.21,46.51Z"/><path class="cls-4" d="M75.24,24.15a2.36,2.36,0,0,1-.65-3.25c.73-.95,3.42-2.64,4.51-1.8s.16,3.9-.57,4.85A2.32,2.32,0,0,1,75.24,24.15Z"/><path class="cls-4" d="M269,61.83a2.33,2.33,0,0,1-3.24-.58c-.62-1-1.19-4.17,0-4.88s3.67,1.27,4.28,2.3A2.36,2.36,0,0,1,269,61.83Z"/><path class="cls-4" d="M304.5,39.61a2.34,2.34,0,0,1-3.25.54c-.92-.77-2.5-3.54-1.63-4.6s3.88,0,4.8.74A2.37,2.37,0,0,1,304.5,39.61Z"/><path class="cls-4" d="M365,12.65a4.31,4.31,0,0,1-5.37,2.89c-2.23-.72-7.15-4.39-6.41-6.7s6.87-2.41,9.09-1.69A4.34,4.34,0,0,1,365,12.65Z"/><path class="cls-4" d="M330.43,10.42a2.33,2.33,0,0,1-3.12,1.07c-1-.6-3.05-3.07-2.36-4.26s3.82-.67,4.85-.06A2.35,2.35,0,0,1,330.43,10.42Z"/><path class="cls-5" d="M200.72,7.79H147.26c0,18.06,12,32.7,26.73,32.7S200.72,25.85,200.72,7.79Z"/><path class="cls-5" d="M259.48,7.79H206c0,18.06,12,32.7,26.73,32.7S259.48,25.85,259.48,7.79Z"/><path class="cls-6" d="M154.87,7.79c0,6.13,4.43,11.1,9.89,11.1s9.89-5,9.89-11.1Z"/><path class="cls-6" d="M212.16,7.79c0,6.13,4.43,11.1,9.89,11.1s9.88-5,9.88-11.1Z"/><ellipse class="cls-6" cx="233.52" cy="18.28" rx="3.31" ry="2.97"/><path class="cls-6" d="M179.46,18.28a3.34,3.34,0,0,1-6.63,0"/><path class="cls-6" d="M191.68,52.21c13-6.16,27.75-1.74,40.7,2.23,1.85.56,2.64-2.33.8-2.9-13.86-4.24-29.15-8.48-43-1.92-1.75.83-.23,3.41,1.51,2.59Z"/><path class="cls-6" d="M185.2,50.41c.18.06.37.16.56.21-.35-.09-.11,0,0,0l.27.13c.33.17.64.35,1,.55a5.36,5.36,0,0,0,.49.34c-.31-.16-.08-.06,0,0l.23.19a10.32,10.32,0,0,1,.82.8l.36.42c.22.27-.2-.27,0,0l.18.25a10.6,10.6,0,0,1,.59,1c.09.16.17.32.25.49L190,55l-.07-.17a2.15,2.15,0,0,0,.1.27,9.45,9.45,0,0,1,.34,1.15,1.5,1.5,0,1,0,2.89-.79A11.1,11.1,0,0,0,186,47.52a1.51,1.51,0,0,0-1.84,1,1.53,1.53,0,0,0,1,1.84Z"/></svg>